<svg id="Vrstva_1" data-name="Vrstva 1" xmlns="http://www.w3.org/2000/svg" width="200mm" height="122.52mm" viewBox="0 0 566.93 347.3"><defs><style>.cls-1{fill:#5e2751;}</style></defs><title>verze základní Purple</title><polygon class="cls-1" points="71.19 273.16 71.19 270.4 56.95 270.4 56.95 273.41 66.86 273.41 56.69 286.3 56.69 289.06 71.21 289.06 71.21 286.05 60.88 286.05 71.19 273.16"/><path class="cls-1" d="M83.59,270.41l-7,18.65h3.54l1.79-5h7l1.77,5h3.79l-6.8-18.65Zm-.65,10.73,2.53-6.92,2.44,6.92Z"/><polygon class="cls-1" points="90.83 265.18 90.83 264.87 86.93 264.87 84.43 269 86.26 269 90.83 265.18"/><polygon class="cls-1" points="115.54 270.4 111.63 270.4 103.6 280.15 103.6 270.4 100.03 270.4 100.03 289.06 103.6 289.06 103.6 284.39 106.86 280.52 111.83 289.06 115.82 289.06 109.3 277.96 115.54 270.4"/><polygon class="cls-1" points="124.96 270.4 121.39 270.4 121.39 289.06 133.38 289.06 133.38 285.99 124.96 285.99 124.96 270.4"/><path class="cls-1" d="M145.72,270.41l-7,18.65h3.54l1.8-5h7l1.77,5h3.79l-6.79-18.65Zm-.65,10.73,2.53-6.92,2.44,6.92Z"/><path class="cls-1" d="M169,270.41h-6.85v18.65h6.6c6.07,0,9.61-3.24,9.61-9.27S174.94,270.41,169,270.41Zm5.65,9.43c0,4.19-1.94,6.24-5.84,6.24h-3.07v-12.7H169c3.88,0,5.68,2,5.68,6.29Z"/><polygon class="cls-1" points="196.92 283.02 188.67 270.4 184.62 270.4 184.62 289.06 187.99 289.06 187.99 275.43 196.9 289.06 200.29 289.06 200.29 270.4 196.92 270.4 196.92 283.02"/><polygon class="cls-1" points="208.02 269 209.68 269 213.35 265.18 213.35 264.87 209.7 264.87 208.02 269"/><rect class="cls-1" x="207.4" y="270.41" width="3.57" height="18.65"/><path class="cls-1" d="M239.11,281.56c0,3.28-1.23,4.8-4.13,4.8s-4.18-1.6-4.18-4.86V270.41h-3.57v11.12c0,5.11,2.67,7.89,7.73,7.89,4.63,0,7.55-2.58,7.55-7.86V270.41h-3.4Z"/><polygon class="cls-1" points="259.45 284.03 255.41 270.4 249.48 270.4 249.48 289.06 252.85 289.06 252.85 273.61 257.82 289.06 260.86 289.06 266.02 273.5 266.02 289.06 269.53 289.06 269.53 270.4 263.8 270.4 259.45 284.03"/><polygon class="cls-1" points="280.09 281 286.75 281 286.75 277.93 280.09 277.93 280.09 273.47 290.09 273.47 290.09 270.4 276.58 270.4 276.58 289.06 290.4 289.06 290.4 285.99 280.09 285.99 280.09 281"/><polygon class="cls-1" points="285.32 268.97 288.41 264.87 285.94 264.93 283.83 267.12 281.69 264.9 279.33 264.93 282.43 269.08 285.32 268.97"/><polygon class="cls-1" points="300.07 270.4 296.5 270.4 296.5 289.06 308.5 289.06 308.5 285.99 300.07 285.99 300.07 270.4"/><polygon class="cls-1" points="317.83 281 324.49 281 324.49 277.93 317.83 277.93 317.83 273.47 327.83 273.47 327.83 270.4 314.32 270.4 314.32 289.06 328.14 289.06 328.14 285.99 317.83 285.99 317.83 281"/><path class="cls-1" d="M341.76,286.19c-3.15,0-5-2.36-5-6.32v-.28c0-3.93,1.91-6.32,5.08-6.32a4.25,4.25,0,0,1,4.64,3.68h3.68c-.82-4.63-3.91-6.91-8.29-6.91-5.25,0-8.82,3.88-8.82,9.69s3.51,9.69,8.65,9.69c4.55,0,7.81-2.3,8.51-7.19H346.5C346,285.1,344.31,286.19,341.76,286.19Z"/><polygon class="cls-1" points="371.68 270.4 367.78 270.4 359.75 280.15 359.75 270.4 356.18 270.4 356.18 289.06 359.75 289.06 359.75 284.39 363 280.52 367.98 289.06 371.96 289.06 365.45 277.96 371.68 270.4"/><path class="cls-1" d="M384.05,270.41l-7,18.65h3.54l1.79-5h7l1.77,5h3.79l-6.8-18.65Zm-.65,10.73,2.53-6.92,2.45,6.92Z"/><polygon class="cls-1" points="391.3 265.18 391.3 264.87 387.39 264.87 384.89 269 386.72 269 391.3 265.18"/><polygon class="cls-1" points="418.4 268.97 421.49 264.87 419.02 264.93 416.91 267.12 414.78 264.9 412.42 264.93 415.51 269.08 418.4 268.97"/><path class="cls-1" d="M418,278.13c-2.56-.51-4.89-.76-4.89-2.53,0-1.57,1.26-2.58,3.34-2.58,2.45,0,3.77,1,4.07,3.31h3.63c-.45-4-3.26-6.29-7.67-6.29-4,0-6.91,2.41-6.91,5.81,0,3.71,3.37,4.72,6.46,5.34,2.56.51,4.64.9,4.64,2.53s-1.3,2.67-3.54,2.67c-2.67,0-3.94-1-4.39-3.37h-3.67c.61,4,3.25,6.34,8.2,6.34,4.32,0,7-2.36,7-5.92C424.27,279.67,421.1,278.72,418,278.13Z"/><polygon class="cls-1" points="446.09 270.4 442.18 270.4 434.15 280.15 434.15 270.4 430.58 270.4 430.58 289.06 434.15 289.06 434.15 284.39 437.41 280.52 442.38 289.06 446.37 289.06 439.85 277.96 446.09 270.4"/><path class="cls-1" d="M459.63,270c-5.59,0-9.3,4-9.3,9.69s3.68,9.69,9.13,9.69,9.3-4,9.3-9.69S465.08,270,459.63,270Zm5.39,9.75c0,4.13-2.1,6.51-5.5,6.51s-5.45-2.44-5.45-6.51v-.14c0-4.13,2.1-6.49,5.5-6.49s5.45,2.41,5.45,6.49Z"/><polygon class="cls-1" points="478.61 270.4 475.04 270.4 475.04 289.06 487.04 289.06 487.04 285.99 478.61 285.99 478.61 270.4"/><path class="cls-1" d="M503.44,270.41h-4.07l-7,18.65h3.54l1.8-5h7l1.77,5h3.8Zm-4.72,10.73,2.53-6.92,2.44,6.92Z"/><polygon class="cls-1" points="57.06 201.39 83.42 201.39 56.69 242.2 56.69 247.6 97.33 247.6 97.33 238.91 70.79 238.91 97.51 198.09 97.51 192.69 57.06 192.69 57.06 201.39"/><path class="cls-1" d="M143.63,221.89c0,11.89-5.13,17.66-14.09,17.66s-14.1-5.77-14.1-17.66v-29.2H104.09v29.56c0,18.58,10.8,26.91,25.26,26.91s25.17-8.33,25.17-26.91V192.69H143.63Z"/><path class="cls-1" d="M182.34,213.65c-7.41-1.92-9.43-4.3-9.43-7.5,0-3.94,3.2-6.32,8.6-6.32,4.85,0,10.35,2.2,14.19,4.76l2.38-7.78a27.78,27.78,0,0,0-16.47-5.4c-11.81,0-19,6.5-19,15.47,0,7.87,4.58,14,16.11,16.84,9,2.38,11.53,4.57,11.53,9.15,0,4.85-4.21,7.59-9.7,7.59-7.51,0-13.27-3.93-16.93-7.41l-2.56,8.79a29.41,29.41,0,0,0,19.49,6.86c10.34,0,20-5.13,20-16.93C200.64,222.25,195.15,216.85,182.34,213.65Z"/><polygon class="cls-1" points="221.87 201.39 240.45 201.39 240.45 247.6 251.61 247.6 251.61 201.39 270.19 201.39 270.19 192.69 221.87 192.69 221.87 201.39"/><rect class="cls-1" x="275.3" y="192.69" width="11.16" height="54.91"/><path class="cls-1" d="M315.27,213.65c-7.41-1.92-9.42-4.3-9.42-7.51,0-3.93,3.2-6.31,8.6-6.31,4.85,0,10.34,2.2,14.18,4.76l2.38-7.78a27.78,27.78,0,0,0-16.47-5.4c-11.81,0-18.94,6.5-18.94,15.47,0,7.87,4.57,14,16.1,16.84,9,2.38,11.53,4.57,11.53,9.15,0,4.85-4.21,7.59-9.7,7.59-7.5,0-13.27-3.93-16.93-7.41L294,241.84a29.41,29.41,0,0,0,19.49,6.86c10.34,0,20.05-5.13,20.05-16.93C333.58,222.25,328.08,216.85,315.27,213.65Z"/><polygon class="cls-1" points="378.02 228.93 349.29 192.69 341.51 192.69 341.51 247.6 351.48 247.6 351.48 211.36 380.22 247.6 388 247.6 388 192.69 378.02 192.69 378.02 228.93"/><path class="cls-1" d="M426,191.14c-16.84,0-29.93,12.17-29.93,29s13.09,29,29.93,29,29.65-12.17,29.65-29S442.78,191.14,426,191.14Zm0,49.14c-11,0-18.21-8.24-18.21-20.13S415.05,200,426,200c10.8,0,17.93,8.24,17.93,20.14S436.84,240.28,426,240.28Z"/><polygon class="cls-1" points="499.16 192.69 482.96 232.14 466.58 192.69 455.14 192.69 478.48 247.6 486.9 247.6 510.24 192.69 499.16 192.69"/><rect class="cls-1" x="161.11" y="178.55" width="39.54" height="6.51"/><rect class="cls-1" x="273.78" y="178.55" width="59.8" height="6.51"/><path class="cls-1" d="M337.7,119.73c0-13.27-5.7-26.2-10.73-37.61l-7-16.43h16.36V57.88h-32V63.3l3,7H254.47l3-7V57.88h-32v7.81h16.36l-7,16.43c-5,11.41-10.72,24.34-10.72,37.61A50.47,50.47,0,0,0,270.23,170v15.11h21.13V170A50.47,50.47,0,0,0,337.7,119.73Zm-50.41,36.93s-3.06.14-6.61.14-6.2-.14-6.2-.14a37,37,0,0,1-36.93-36.93c0-10.44,4.87-21.48,9.58-32.16L250,80.72h6.76v62h7.79v-62h5.55V148.1h7.79V80.72h5.55V148.1h7.8V80.72h5.54v62H305v-62h6.75l2.92,6.85c4.71,10.68,9.57,21.72,9.57,32.16A37,37,0,0,1,287.29,156.66Z"/></svg>