<?xml version="1.0" encoding="UTF-8"?>
<svg xmlns="http://www.w3.org/2000/svg" viewBox="0 0 165 165">
  <defs>
    <style>
      .uuid-dd368a65-29cf-4449-81f2-1633bb1becdc {
        fill: #eee7c2;
      }

      .uuid-dd368a65-29cf-4449-81f2-1633bb1becdc, .uuid-36c877a5-ad3f-4fef-9687-c83a97b10bb3 {
        stroke-width: 0px;
      }

      .uuid-36c877a5-ad3f-4fef-9687-c83a97b10bb3 {
        fill: #5e2751;
      }
    </style>
  </defs>
  <g id="uuid-ffadfc54-33f9-4ed0-98b1-31d0acc12ed3" data-name="podklad">
    <path class="uuid-dd368a65-29cf-4449-81f2-1633bb1becdc" d="m75.3889,69.5136l.1972-.123c1.2944-.7585,2.6569-1.4019,4.0647-1.9294,2.4194-.7701,4.898-1.3292,7.4064-1.6757.8576-.0766,1.7183-.1152,2.5781-.1152,2.2096,0,4.4097.2672,6.5398.7768-.7304-.0404-1.4596-.0678-2.186-.0678-6.7575-.0003-13.3182,1.7564-19.342,5.1821.0005-.4158.0492-.8243.1887-1.1863.1251-.3248.3148-.6074.553-.8615Zm-13.5633,54.2871c-1.5679.0572-3.1565.0937-4.7609.0937-4.3063,0-8.7046-.2341-12.9858-.8418-.0376-.0792-.0727-.3116-.0836-.6118.3277.2233.7128.2616,1.0166.2807,5.1537.2829,10.0402.5163,14.7989.5163.6796,0,1.3556-.0069,2.0303-.0169-.0052.1934-.0103.3866-.0154.5797Zm-18.9027-33.4831c.2484.1283.5281.2049.8304.2042h0s.0048,0,.0048,0h.0058c1.5099-.0228,3.0217-.0416,4.5348-.0601,4.8573-.0599,9.8055-.1227,14.7603-.3332-.3855,4.9131-.8339,18.8597-1.1926,32.1491-.6818.0103-1.3651.0172-2.0522.0172-4.7347,0-9.6056-.2324-14.7507-.5148-.1456-.0078-.2833-.0202-.3871-.0462-.1056-.0258-.1662-.0624-.1941-.096-.0493-.0446-.0924-.2165-.1068-.4704l-.0444-.5793c-.0342-.4427-.0724-.9457-.1145-1.4982.0332-.3504.0638-.6991.0884-1.0367l.0352-.083.0173-.0407.0031-.044c.0114-.1607.0217-.3211.0311-.4812l.0061-.0379.0004-.0025.0004-.0032c.0139-.1.0208-.2003.0208-.3002l-.0038-.1198c.0222-.4981.0333-.994.0333-1.4861-.0001-2.5991-.3064-5.0917-.8977-7.2442-.0102-.1634-.022-.3059-.0374-.4194-.0186-.1231-.0307-.2078-.077-.3086l-.0117-.0239-.0163-.0212c-.3006-4.9806-.5469-10.24-.5469-14.1983,0-1.0861.0199-2.0659.0607-2.9217Zm30.7483-3.9992c-.2012,0-.4051.0041-.6118.0095l-7.9061.2151c-.0023-.1471-.0047-.2939-.0069-.4401.9295-.0057,1.8588-.0094,2.7876-.0094,2.2676,0,4.532.0169,6.788.0506.2913.005.5351.1516.6969.3667-.5526-.1543-1.1387-.192-1.7477-.1924Zm1.0705-13.5121c-.0078-.0666-.0153-.1366-.023-.2051,5.9918-3.4957,12.5306-5.2783,19.2729-5.2785,2.1491,0,4.3188.1814,6.4978.545.3482.151.6929.3094,1.0337.476.2041.1003.4068.2121.6115.3253.5364.2947,1.1166.6194,1.8118.7459.3678.0662.7319.0846,1.0859.0846.2483,0,.4917-.0091.7284-.018l18.7563-.6984c.0011.0015.0022.0035.0034.005-.1241.0874-.2149.2136-.2151.3688l.0061.0754c.2428,1.5138.5776,3.0722.9566,4.6429-.3367.4032-.5355.8982-.5357,1.4134l.0048.1394c.0735,1.027.7715,1.7905,1.521,2.2767.183.6761.3683,1.3503.5523,2.0194.4068,1.4775.7911,2.8899,1.1455,4.276-1.035-.5394-2.4445-.7963-3.7056-.9364-2.2254-.2401-4.5014-.428-6.7521-.428-1.3442,0-2.678.0731-3.9881.2367-.0334-.066-.0681-.1416-.1049-.2378-.0954-.2457-.3135-.3854-.5493-.4681-.1884-.0664-.4172-.1062-.6704-.1395-.031-.2682-.082-.5439-.1422-.8322-.05-.2401-.1017-.487-.1393-.7331-.0331-.211-.2026-.3743-.4154-.3975-.5618-.0608-1.097-.1042-1.6249-.1413.0285-.4402.0568-.8788.0849-1.3162,1.1316-.0717,2.1832-.7801,2.7889-1.8657.299-.5357.454-1.1083.4541-1.6696.0002-.5185-.1332-1.0272-.4036-1.4799l-.0122-.0205-.0153-.0176c-.3489-.4035-.8615-.6192-1.4199-.6177l-.1305.0038c-.3155.0182-.6246.1039-.9137.234.0075-.1148.0151-.2293.0227-.3443.1299-.0222.2587-.044.3919-.067l.0663-.0115.2062-.1624.0523-.0413.0267-.0611c.136-.3115.1914-.5961.1913-.8463.0003-.3326-.0979-.5998-.2084-.7889-.3777-.6399-1.1657-1.0027-2.1769-1.1145-.6805-.0739-1.3972-.1047-2.1229-.1047-1.9604.0001-3.9873.2251-5.5215.4487l-.0506.0074-.1771.1026-.0449.0259-.0317.0408c-.0502.0645-.0862.1266-.1284.1895-.5558-.1089-1.1314-.1708-1.7103-.1708-.9384.0002-1.8775.1419-2.7209.4289-.796.2716-1.3341,1.0174-1.3352,1.8452l.0019.0845c.0753,1.5212,1.3007,2.8928,2.7949,3.1199.1775.0261.3537.0385.5274.0385,1.4014-.0041,2.6182-.801,3.4194-1.8281.0386.1917.081.3827.1158.575-.0549.2601-.0757.5194-.0758.7651,0,.2402.0159.4682.0299.672l.3063,4.3829c-.2048.0396-.4094.0788-.6169.1231l-.0598.0127-.1909.1489-.0485.0378-.0269.0553c-.1866.384-.2957.7197-.2963,1.0549-.0014.3387.1195.6544.3296.9566.2105.3044.5086.6105.9011.981.3072.2851.7499.4421,1.2825.5462.5334.1019,1.1624.1422,1.8429.1423.2592,0,.5327-.013.8037-.024-.0852.3113-.1438.6309-.1439.9505,0,.2299.037.4527.0846.6707-.329.4879-.5563,1.0479-.631,1.6596-.0792-.8085-.5646-1.504-1.3026-1.8451-2.3353-1.0889-3.697-1.1526-6.1333-1.164l-.167-.0004c-3.0925.0005-8.9561.474-12.0863.8957-2.6196.3577-5.7463,1.1896-7.5932,3.2043-.1251-.0485-.25-.0958-.3743-.1404-.181-.4254-.4189-.8244-.7387-1.1691-.9116-4.8509-1.6623-9.763-2.2378-14.6497h0Zm-31.6989,15.9099c.1119-.169.3893-.3508.7302-.4723.3403-.1244.7382-.1966,1.07-.2052l18.285-.4972c.0171.1495.0335.3051.0528.4369.0153.1013.0656.1877.1327.2568l-.0159.0403c-.0417.1098-.065.237-.0942.4256-.0196.1316-.0393.298-.0588.4807-4.9809.2141-9.9625.277-14.8575.3372-1.513.0187-3.0247.0373-4.5358.0602h-.0035c-.3449,0-.6441-.201-.7447-.4811.012-.1317.0248-.2586.0384-.3798l.0012-.0019Zm32.6164-1.0965c.0099.1328.02.2796.0302.4372-1.3649-.2874-2.7127-.3897-4.1156-.3897-1.2102,0-2.4629.069-3.8088.143-.8356.0459-1.6938.0912-2.5908.125-.0023-.1502-.0047-.2998-.007-.4492l7.9178-.2154c.1994-.0054.3936-.0094.5821-.0094.7807-.0009,1.4482.0786,1.9922.3585Zm68.7866,30.2478c-.0685.7758-.1599,1.6128-.2875,2.5506-.2409,1.7855-.1097,4.2231-.436,6.6794-1.058,7.9781-5.2923,14.873-11.606,18.9255-.8924.5754-2.7718,1.2972-4.4623,1.8743-1.634.5593-3.0928.9911-3.3943,1.0795-5.7322-.0286-11.3937-2.6365-15.1381-6.9773-1.1913-1.3807-2.2612-2.9928-3.2705-4.9332-.2009-.3864-.3947-.7768-.5808-1.1718-1.7121-4.1311-2.5581-8.9475-2.5581-14.656,0-1.0442.0283-2.1182.0848-3.2231.1407-2.772.4484-5.6695,1.6941-8.2274,1.0528-2.1697,3.4338-6.206,4.8736-7.689,4.2855-4.428,8.9808-6.515,14.7167-6.519.7375,0,1.4923.0348,2.2657.1041,5.652.4928,11.799,5.4825,14.3701,9.97.6501,1.1288,1.2672,1.9936,1.8073,2.7899,1.1886,2.9305,1.6995,5.908,1.9217,9.4234Zm-66.9867-25.9501l.0179-.0285c.0047.0352.009.0698.0137.1049-.0094-.0263-.023-.0497-.0315-.0764Zm.8551-.8931l-.0172-.1154c2.0068-1.9998,5.1105-2.6291,7.973-3.034l.6222-.0889c4.766-.6807,7.6186-1.0887,12.6551-1.1558h.0042s-.0025,0-.0025,0l.074-.0007c.4655-.0005,1.1978.0782,1.8533.2471.6579.161,1.234.4463,1.3883.7106l.0607.1985c0,.0669-.0181.1505-.0677.2555-.0571.1204-.151.2504-.3117.412-.3567.3601-.8224.6451-1.3445.8181-6.5728,2.184-12.2396,3.6948-18.6088,4.0039-.2683.013-.5515.035-.8418.0574-.5062.0393-1.0294.0795-1.5285.0794-.6108.0009-1.1774-.068-1.6332-.2493-.08-.6946-.1688-1.4023-.2745-2.137l-.2629.0378.2626-.0392Zm-.9595,2.4784c.1098.1006.2322.1798.3544.2593.0119.1106.0227.2193.0341.329-.2726-.1932-.4296-.435-.5146-.732.0436.0464.0793.1007.1261.1437Zm8.4565-7.0068c3.0821-.416,8.9002-.888,11.9493-.8874l.1725.0005c2.3869.0171,3.5456.0611,5.7419,1.0763.4466.2088.729.6161.77,1.111l.0045.1125c-.0011.4518-.2144.8557-.594,1.1125-2.1514,1.4508-5.8728,2.7331-10.0003,3.7017-4.1288.9708-8.6705,1.6374-12.491,1.8955-.3552.0239-.6876.0357-.9971.0357-.654.0002-1.1887-.0616-1.6357-.1649-.0096-.0988-.0197-.1982-.0299-.2974.484.1222.9983.1632,1.5164.1636.5425-.0001,1.089-.0427,1.6055-.0825l-.0204-.2648.0205.2648c.2859-.0222.5607-.0436.8149-.056,6.4863-.3145,12.2403-1.851,18.86-4.0507.6586-.2187,1.2512-.5796,1.7171-1.0487.221-.223.3834-.4388.4944-.6721.1027-.217.1581-.44.1581-.6609.0005-.2492-.0721-.4928-.2098-.7065-.426-.6414-1.2773-.9476-2.0981-1.1453-.8251-.1912-1.6284-.2453-1.9841-.2458l-.0435.0004h.0025c-5.0903.0672-7.9982.4824-12.7764,1.1651l-.6218.0889c-2.3428.3364-4.9061.8193-6.9958,2.1224.628-.5785,1.3875-1.0566,2.2441-1.4259,1.3943-.6018,2.9872-.9481,4.4261-1.1418Zm-20.6227,2.3825c.9132-.0342,1.784-.0803,2.6283-.1267,1.3354-.0733,2.5683-.1409,3.7462-.1408.0482,0,.0939.0043.1419.0045-2.1652.1922-4.3362.3541-6.5136.4672-.001-.0681-.0019-.1364-.0029-.2042Zm48.9636-4.0338c1.0437-.0472,2.0885-.0755,3.1336-.0755,3.4086,0,6.818.2509,10.1873.7509.3023.0449.5625.1601.7577.3249l.0309.0296c-.0197.1475-.0418.2935-.0912.4327-.3379.9355-.7579,1.4435-1.4049,1.7623-3.4953,1.7027-7.4102,2.5596-11.6665,2.5598-.0338,0-.0678-.0004-.1016-.0005l-.9936-5.3388c.0681-.1426.1164-.2915.1484-.4454Zm-6.9793,3.2785c0-.1965.0389-.3983.0944-.599.4493.1501,1.0805.3592,1.7323.3606.3957.0002.8061-.0808,1.1664-.3198.2859-.1848.3832-.4665.3873-.6495l.001-.0408c-.0048-.3392-.1866-.6264-.4277-.9114-.1591-.1851-.3593-.3732-.5735-.564.3697-.1204.7551-.2132,1.1568-.2762.0305.2637.1052.5859.2632,1.0304.1123.3362.3874.5697.7153.645.1449.3059.2876.6122.4246.9193.0371.2697.0707.5407.0898.8096.0466.6463.1541,1.3209.2876,1.9923-1.0547-.0821-2.1263-.2061-3.2209-.3867-.7575-.1245-1.4096-.5067-1.7871-1.0229-.2143-.2927-.309-.6282-.3096-.9867Zm-2.5788-11.8665c.0696-.4019.183-.7875.3537-1.1596.1975-.4346.5431-.835.9551-1.1519-.017.0415-.0338.0833-.0396.1314-.0109.1158-.0163.2328-.0163.35.0009,1.0502.4292,2.1155,1.1819,2.9285.2628.2837.555.517.8642.7095.1452.6023.3217,1.1974.5219,1.7857-.297-.0085-.5951-.0186-.8856-.0186-.9168,0-1.805.049-2.6921.1359l-.2432-3.7111Zm-1.6806-1.857c.1056-.2344.3662-.4316.5821-.473l.1507,2.2911c-.0579.3747-.0866.7545-.0866,1.141.0002.8745.1287,1.7805.2934,2.7217-.1951.0262-.3909.0551-.587.0855.0044-.208.0101-.416.0101-.6237,0-1.6655-.1444-3.3257-.4284-4.9672l.0657-.1753Zm-30.6755,47.2127c-2.2167.2692-4.4374.4424-6.6758.5489-.0848-10.4363-.2145-22.1891-.357-32.1332,3.6558-.1894,7.3094-.4709,10.9271-.9066.0723.0187.1451.039.2177.059.0675.3447.1354.6887.2043,1.0327-.0323.0942-.064.1889-.0868.2894-.0504.2233-.0744.4518-.0744.6801,0,.2094.0281.4176.0669.623-.1568.359-.2469.7369-.2469,1.1167,0,.1211.0084.2424.0255.363.1367,1.0113.8227,1.6142,1.6127,1.9288.2473,2.7611.335,5.3393.4298,8.1851.0222.6592.0444,1.3359.0694,2.0366l.0021.1169c.0004.6454-.1943,1.2323-.4402,1.8623l-.1011.1978-.0013.0027c-.0951.1914-.1852.386-.2704.5824-1.0723,1.592-1.8084,3.2212-2.2116,4.8995-.2764,1.1513-.4125,2.3939-.4125,3.7914,0,.0864.0007.1738.0018.2616-.194.6342-.2832,1.2542-.2831,1.8655.0004.9823.2208,1.9411.5427,2.9257-.5008-.2612-1.1289-.3973-1.8865-.3975-.3277,0-.6785.0229-1.0525.0683Zm22.384,7.2124c-.5853-.1378-1.15-.4318-1.5923-.8248-.0519-.2377-.1055-.4662-.1617-.6707-.0917-.3287-.1571-.616-.1561-.8378.008-.2689.0635-.4207.2965-.5936.1504-.1054.344-.1712.5638-.1824.0762-.0038.1651-.0065.2634-.0065.4427-.0008,1.075.0624,1.6368.3053l.0028.0069c.1596.3995.2405.8598.2403,1.2989.0011.5045-.1089.9799-.2992,1.2987-.0709.1198-.154.2023-.2394.2794-.2327-.0123-.4417-.0467-.5549-.0736Zm-.9106-4.435l.079.0023c.3479.0216.6554.1701.9396.4441-.3324-.0504-.6428-.0698-.8961-.07-.1152,0-.2193.0031-.3095.0078-.3875.0196-.7542.1394-1.0577.3522-.0394.0272-.0637.0611-.0993.0901.286-.502.7997-.8284,1.344-.8265Zm-.4407,4.8987c.3033.1637.6189.2974.9492.3906.0933,7.2654.2062,11.6339.3191,14.2736.0848,1.9584.1655,2.9562.2439,3.5042-.2604-.1087-.5191-.2213-.7758-.3386.0571-1.2726.0865-2.7116.0865-4.2342-.0005-4.7008-.2715-10.1393-.823-13.5957Zm3.058,17.8829l-.1472-.0055-.0042-.0002h-.0058c-.1659-.0009-.3229.0248-.4707.0718-.0679-.5387-.152-1.6345-.2339-3.707-.1054-2.6379-.2125-6.8617-.3-13.5594.1023-.0366.2057-.0708.2996-.124.8823-.035,1.6286-.4473,1.9968-1.1911.1528-.3056.2278-.6407.2278-.979,0-.4221-.1164-.8498-.3425-1.2386-.2975-.5123-.711-.8705-1.1531-1.1193-.5317-1.1377-1.3365-1.8162-2.3535-1.8688l-.1317-.0037c-1.1854.0022-2.2172.8869-2.4648,2.0956-.0439.214-.0649.4253-.0649.6321-.0001.8942.3978,1.6864.9884,2.3.6628,3.2326.9619,9.1458.961,14.1862,0,1.432-.0251,2.7861-.0708,3.9978-5.7003-2.8894-10.3784-7.8768-12.6812-13.8455l-.0054-.0139-1.083-2.089c-1.1341-2.5242-1.8641-5.1967-2.169-7.9455l-.0083-.0751-.1257-.1604c-.0062-.9609-.051-1.8624-.0962-2.7373-.0466-.9053-.0917-1.7828-.0917-2.6809,0-.7681.0333-1.5519.1263-2.3822.3068-.9744.5371-2.0646.7609-3.1266.1877-.891.3646-1.7279.5663-2.3995.0793-.2625.1746-.5197.2737-.7737,1.4364-2.0424,3.4815-4.0498,6.168-6.0517,2.8088-2.0918,5.4551-3.5191,8.6463-4.9902,2.3051.4069,4.6468.6092,6.9721.6093,3.7-.0001,7.3574-.5089,10.7586-1.5029-1.7192,1.2015-3.2713,2.6399-4.5528,4.2979-2.6765,3.4559-4.5456,6.2591-5.5452,12.4315l-.0063.0766c-.0002.221.1554.4157.3774.4612l.0946.0095c.1666.0001.3163-.0896.4006-.2285-.5557,2.483-.8592,5.0338-.8592,7.6048,0,1.1071.0535,2.2173.1624,3.326.3981,4.0533,1.5208,8.1029,3.2631,11.7996l.055.1326c2.6313,6.2475,7.509,11.0839,13.0862,12.9377.7658.2544,1.5249.4676,2.2873.6403-.2984.0075-.5966.0203-.8953.0203-4.2626.0003-8.5547-.7391-12.7484-1.4627-3.2145-.5541-6.5463-1.1292-9.8553-1.3683l-.0062-.0005Zm26.618-79.8354c-.2099-.006-.4121-.0116-.5955-.0305-1.421-.1464-2.8212-.2097-4.2096-.2097-3.3783.0001-6.6909.3795-10.0664.8447,2.636-.9196,6.4281-1.3394,10.1523-1.3356,1.1722,0,2.3373.0394,3.455.1145,1.0234.0673,1.8897.35,2.5224.7705-.4194-.1202-.8562-.1404-1.2581-.1538Zm-57.7425,82.9031l.0052.056c-.0208.0044-.0402.0074-.0609.0115.0187-.0225.0381-.0444.0557-.0675Z"/>
  </g>
  <g id="uuid-4d104412-e8b2-4139-9a38-b7f6aa1bed24" data-name="OBJEKTY">
    <path class="uuid-36c877a5-ad3f-4fef-9687-c83a97b10bb3" d="m157.5202,147.6068l-.0364-.0453-.2059-.1027-.0523-.0261-.0584-.0017c-.2614-.0079-.4099-.0199-.515-.0283l-.1822-.0096c-.1129-.3169-.3145-.6328-.5247-.976-.1339-.2148-.2697-.4337-.3594-.6101l-6.163-12.0901c.6394-2.1064.9124-4.2764,1.0287-6.6856.3184-1.7296.4616-3.4047.4616-5.1323-.0001-2.8102-.3771-5.7581-.9865-9.325-.4721-2.763-1.4537-5.3394-2.917-7.6536-1.268-2.008-2.6328-3.4754-4.6646-5.0196-.6382-.4859-1.3089-.9587-1.9764-1.411-.1648-.6057-.2825-1.7416-.3506-3.2109-.0726-1.5376-.098-3.4448-.098-5.5378,0-2.4303.0341-5.1116.0681-7.7608.006-.4721.0121-.9459.0179-1.4194,1.6279-.2612,3.2556-.8682,4.872-1.8349.7212-.4301,1.1473-1.1885,1.1461-2.0123,0-.1042-.0067-.2093-.0203-.3148-.1194-.9493-.7749-1.7184-1.693-1.984-.9828-.2866-2.0326-.3904-2.8333-.4508l-1.4212-.1066c-.0009-.9747-.0075-1.9121-.0214-2.7908.2462-.2489.4562-.5557.6101-.9317.0849-.2072.1433-.4195.187-.6331l3.5605,2.9441.3939-.0321.2581-.0211-.0306-.5456-.0061-.1078-.0795-.073c-1.4782-1.3565-2.9243-2.7776-4.3153-4.2397-.1834-.4033-.4459-.7661-.7959-1.0408l-.0074-.0058-.149-.1014c-.1494-.4131-.3679-.803-.7164-1.0599-.2347-.173-.5121-.2659-.8007-.2649-.1251,0-.2521.0166-.3797.0484-.1751.0434-.3329.1227-.4807.2161-.5676-.4628-1.1823-.9182-1.8213-1.357-1.1265-.8952-2.2996-1.7544-3.525-2.5348.667-.296,1.3134-.6078,1.9205-.9462l.055-.0307.0479-.0268.0664-.0867c3.5204-.5875,6.8677-2.2457,9.3821-4.7996.608-.6266,1.8291-2.0255,1.8405-3.6491.0002-.3957-.077-.8035-.2581-1.2034-.4178-.9046-1.4302-1.5688-2.5581-2.0437-1.1321-.4705-2.3903-.7373-3.3534-.7443l-.1619-.0006c-4.6676.0009-13.8077,1.1594-13.9029,1.171h0c-3.964.4036-7.7283,1.5343-11.8257,3.5468-1.5658.7732-3.6526,2.292-4.7119,3.8045-.572.8222-.9782,1.9276-.9796,3.0587-.0004.7939.205,1.6037.7078,2.3098,1.0654,1.4838,2.9397,1.9044,4.2221,2.1097,1.666.2618,3.4085.388,5.1737.388,4.4709-.0005,9.0842-.8112,12.968-2.29.2321.1423.473.2889.7329.4464,1.0723.6508,2.3857,1.4479,3.6274,2.3021.5696.4537,1.1296.9148,1.6861,1.3743-.0691.1671-.1225.3422-.1386.5298h-.0003s-.013.1353-.013.1353c-.1388.1622-.2567.3414-.336.5414-.0834.2082-.1208.4221-.1207.6296.0005.3785.1288.7273.3091,1.0278.0301.5368.1433,1.0844.4342,1.5942.3376.5908.8835,1.0127,1.5105,1.1464.0193.004.0304.0024.0487.0054-.0704.1768-.139.3433-.2005.477-.0486.1057-.0934.1942-.1291.255l-.0395.0612c-.1355.0787-.3555.1106-.5904.1086l-.2212-.0042-1.0873-.0314c.0365-.1141.0641-.2309.0639-.3505.0003-.2616-.0896-.5232-.2566-.7531-.2575-.3507-.6754-.6026-1.141-.6131.0027-1.1087.0057-2.1828.0093-3.1918.0002-.2528-.198-.4619-.4515-.4727l-.0203-.0005c-.1201-.0012-.2433.045-.3287.1288-.0864.0831-.1326.1949-.141.3049l-.3286,4.0262c-.0092.1129-.02.2414-.02.3796-.0002.1457.0146.3059.0575.4684l-3.6496-.105-.3503-.6409-.0571-.2182-.0172-.0646c-.1591-.5924-.3926-1.4509-.7604-2.1647l.0434-.0017.2276-.1355.1243-.074.0126-.3412.0025-.0677-.0302-.0606c-.4743-.9507-1.3113-1.5065-2.1264-1.829-.8175-.3234-1.6254-.4231-2.1006-.4553-1.1305-.0758-2.3419-.1186-3.5826-.1186-2.5003.0002-5.1187.1732-7.4361.6025-2.3175.4314-4.3351,1.1101-5.6453,2.1672l-.0536.0433-.0326.081c-.3021-.0014-.5999-.016-.8805-.0667-.5177-.0925-.9928-.3496-1.5236-.6434-.0585-.0324-.1197-.0646-.1791-.0971l.0744-.4719c.0155-.099.023-.1975.023-.2949-.0009-.9217-.6688-1.7372-1.6056-1.8996-2.5576-.4396-5.1419-.658-7.7223-.658-2.0914,0-4.18.1439-6.2499.4294h0c-.0023.0001-.0046.0005-.0069.0007-.0018.0002-.0036.0004-.0054.0006h0c-2.5836.2359-5.1382.808-7.5631,1.7128h0c-.541.1721-1.0789.3546-1.6134.5472-1.0362.3751-2.1464.8582-2.9526,1.6656-1.168.7829-1.8247,1.8707-1.8226,3.0728,0,.3334.0499.6738.1497,1.0161l.0173.0596.1659.1805.0892.097.3135-.0295.0617-.0058.0529-.0326.0168-.0103c.4884,4.1169,1.108,8.2478,1.8363,12.3473-.2736-.1667-.5915-.2673-.9337-.2723-2.2664-.0336-4.5392-.0505-6.8155-.0505-.9293,0-1.8592.0036-2.7895.0093-.0445-2.7952-.0897-5.3795-.135-7.6567.2438-3.5737.5409-6.8886.9012-9.7246.5822-.6633.9059-1.5538.9175-2.4877l.3117-.6241-.3181.3861c-.0044-.0975-.0055-.1947-.0167-.2924-.0423-.3696-.1365-.7208-.268-1.0501.0841-.441.1707-.8553.2595-1.2481.7897.0978,1.754.1441,2.8451.1442,4.0753-.0008,9.7749-.6085,13.2351-1.3755,1.3131-.292,3.3022-.953,5.1594-1.6667,1.8594-.7163,3.5662-1.4725,4.3463-1.9918,1.6249-1.0883,2.623-2.7646,2.6257-4.4263,0-.1757-.0113-.3509-.0344-.525-.1801-1.2547-1.3321-2.38-2.6748-3.2984-1.3509-.9136-2.9136-1.6003-4.0215-1.852-4.6004-1.0367-12.4001-1.0317-16.1539-1.0331-4.9803-.0003-8.9654,1.0036-13.2592,2.2062-1.6064.452-3.6143,1.4547-4.8453,2.4227-1.0225.8098-1.9047,2.1386-1.9097,3.6033,0,.316.0424.6374.1348.9573.2823.972.9813,1.8256,1.8392,2.5276.8596.7017,1.8842,1.2529,2.8522,1.6007,2.1496.7713,3.9728,1.3362,5.9189,1.832-.2927.0418-.5853.1057-.8722.2162-1.0723.413-1.879,1.2532-2.143,2.2712-.0493.1913-.0914.4275-.0915.6869,0,.2741.0477.5765.1902.8691l.0051.0104.1301.2172c.067.2417.1663.4737.3073.6847.0897.1341.2094.2369.32.3495l-6.6869,6.4336-.0116.3965-.0077.2599.5472.0276.1082.0055,7.2553-6.4138c.2774.0743.5705.1204.8814.1204l.1662-.0035c.2188-.0088.4367-.0363.6513-.0792l-.0434.036.1191-.0556c.0717-.0157.1406-.0405.2113-.0597-.0008.0373-.0016.0738-.0023.1113-.0444.18-.0782.3712-.0783.5729l.0027.0988c.0123.2326.025.4967.0369.7862-.0128.456-.0269.9162-.0427,1.379-.5999,3.1817-.8758,8.0774-.8764,12.0585,0,.9374.0176,1.8119.048,2.613-6.0999.0654-12.2102.2486-18.2648.5539-.4705.0282-1.2511.0459-1.8204.5772-.4529.4359-.5738,1.0195-.6662,1.5239-.0338.1893-.0637.3982-.091.6224-.0607.1521-.0968.3121-.0966.4753,0,.0762.0118.1527.0251.2291-.0909,1.0943-.1301,2.4828-.1302,4.075,0,4.0305.2503,9.3562.5543,14.3808l-.0065.0179-.0027.1748-.0006.0413.0306.1013c.0492.8021.0992,1.5959.1502,2.3744-.0066,1.2133-.0365,2.8088-.0834,4.6461-.0446-.0034-.0883-.0172-.133-.0172-.4299-.0004-.8579.1553-1.2224.4503-.5365.4334-.8425,1.0612-.8434,1.6903,0,.2324.0426.4651.1322.6849l.0058.0143.0189.0342.0076.0232.0052.0159.0071.015c.3323.6966,1.0792,1.108,1.8786,1.1084.0085,0,.0172-.0018.0258-.0019-.2775,8.568-.7871,19.8166-1.1858,25.4686-.0378-.0013-.0752-.0069-.113-.0069-.3156,0-.6316.0459-.9325.1396l-.0582.0181-.1767.1659-.0452.0423-.0217.0579c-.1969.5277-.4691,1.2354-.4705,1.9917-.0019.5568.158,1.149.6095,1.6633l.0013.0015.0685.0773.0553.0625,1.7636.4245.0916-.0523.1887-.108.0658-.0377.036-.0667c.3713-.6896.4793-1.4727.4799-2.2045-.0001-.5735-.0675-1.1182-.1375-1.5675l-.0106-.0681-.1658-.2124-.0426-.0546-.0638-.0268c-.0728-.0307-.1497-.0502-.2247-.0752.3828-5.3985.8095-15.006.8725-16.4598.0483-1.096.1205-2.7937.1973-4.742.1151.2831.3421.5181.6567.5572,4.3534.622,8.8165.8587,13.1798.8588,1.5972,0,3.1774-.0366,4.7375-.0928-.2612,9.9219-.4662,19.116-.5475,23.4158-.1427.2792-.2415.5831-.2674.8992l-.0068.1678c-.0004.3172.0882.6109.2412.8682-.0031.2402-.0051.4209-.0051.5232l.0039.133.0108.0822.2134.2353.0556.0613.0806.0189c.7689.1799,1.4278.2726,2.0876.2724.6836.0001,1.3631-.0995,2.1619-.2934.2138-.0518.3606-.2434.3603-.4584l-.0019-.042-.259-2.7771-.17-.2306-.0432-.0586-.0796-.0337c.0187-1.3235.0274-3.2356.0274-5.6125,0-4.4708-.0307-10.5647-.082-17.3512,3.6025-.2178,7.0223-.539,10.1203-.8696,1.7879,8.5727,6.3611,16.5846,12.8938,22.4129.6609.59,1.3507,1.0376,2.1542,1.3976.6799.3049,1.4347.5229,2.2377.661-.0487.7957-.1085,1.4923-.1794,2.042-.0757.601-.1729,1.0431-.2559,1.2249l-.0958.2119c-.2041.4507-.4532.9808-.4547,1.607,0,.0825.0143.1688.0239.2539l-.706-.3966.7587.6884c.0256.1028.0492.2055.0914.3105.2481.6188.7503,1.1119,1.3797,1.359.2935.1152.6034.1723.912.1723.3599,0,.7184-.0778,1.0477-.2329.7841-.3659,1.2413-1.1011,1.2369-1.9285,0-.2564-.042-.5211-.1264-.7873-.1152-.3627-.3176-.7081-.5758-1.0085-.0367-.5697-.1239-1.1405-.2058-1.6594-.0704-.4438-.1366-.8882-.1499-1.2132,1.2406.4454,2.5101.8085,3.8072,1.057,1.4403.2743,6.2889.6889,14.4884,1.2466,1.7441.1184,3.532.24,5.3281.24,1.013,0,2.0286-.0388,3.0405-.1388,1.427-.1409,2.8222-.4005,4.1779-.7171.8616-.0472,1.7552-.1321,2.692-.2542,1.7653-.2341,4.5481-1.4229,7.1818-2.8742,2.6313-1.4566,5.0816-3.1555,6.1489-4.4887,1.2364-1.5548,2.4182-3.1195,3.1393-4.9511.0306-.04.0584-.0733.0886-.112.0179.0326.0363.0668.0541.099l3.1582,5.7406.4992.9077.7362,1.3388c.1642.2945.5974,1.0248,1.255,1.6047-.4365.2737-.771.6959-.8864,1.1788-.026.1128-.0392.2265-.0392.3395-.0009.3837.1546.7527.4336,1.0451.2748.2889.6514.477,1.0637.5403.2072.0319.3975.0463.5749.0463.5982.0007,1.0389-.1682,1.4783-.3341.2215-.0837.4419-.1667.7048-.2436l.0735-.0215.1971-.2224.0513-.0579.0122-.0763c.0266-.1666.0396-.3349.0396-.503-.0005-.7468-.2549-1.4908-.7244-2.0754Zm-26.7418-87.0008c.1367.0044.2731.0084.4143.0162-.0746.0318-.1452.0667-.2204.0979-.0645-.0381-.1292-.0762-.1939-.1141Zm-5.5442-6.1954c-.0933-.0292-.1824-.0668-.2599-.1162-.1329-.0844-.2782-.2214-.3168-.4221l-.0051-.0518c-.0094-.1363.1392-.3433.3094-.4297l.1872-.0528.1384.0573.0108.0106.2048.1592c-.127.2727-.2152.5552-.2689.8455Zm3.5094,4.9299c-.5829-.4097-1.1224-.8581-1.5684-1.3841-.3474-.4093-.6372-.9174-.8296-1.4542.0343-.4613.1252-.9184.2662-1.3585.2371-.1202.4671-.2705.6845-.4637.2518-.2226.388-.5338.3873-.8501.0001-.2205-.0652-.4431-.1934-.6405-.1867-.2881-.5199-.5249-.938-.5259-.1594-.0002-.327.0357-.4926.1108l-.0243.011-.129-.0995-.0027.0035c-.2068-.1931-.474-.2993-.7499-.2983-.2149,0-.4332.0584-.6387.169-.4067.2217-.799.6674-.8059,1.2562l.0238.24c.0836.4244.3531.7921.7362,1.0345.2125.1345.454.2134.7013.2632.0206.4262.0922.8514.221,1.2616-.005.1072-.0086.2146-.0086.3218,0,.4154.0382.8303.1165,1.2372.0666.3399.1781.8039.5155,1.1784.3959.4321.9329.5749,1.3613.6793.3316.0793.6655.1459,1.0009.2038.1073.0732.2157.1439.3243.2141l.0681.1766.0229.0594.0473.0426c.1705.1527.4165.3282.7183.5275-3.6219,1.2789-7.848,1.9861-11.948,1.9857-1.7207,0-3.4179-.1231-5.0363-.3774-1.8672-.2943-2.9837-.8574-3.6001-1.7248-.3769-.5303-.5347-1.1404-.5351-1.7665-.0015-.9079.3416-1.8427.8125-2.5162.9217-1.331,2.9138-2.794,4.3537-3.4972,4.0111-1.9692,7.6628-3.0638,11.518-3.4566l.0043-.0004.0022-.0003c.0862-.0115,9.2157-1.1649,13.7863-1.1639l.159.0006c.794.0035,1.9393.2396,2.9407.6463,1.0057.4012,1.8577.9927,2.1159,1.5873.1222.2705.1739.5426.1741.8182.0128,1.1839-1.0293,2.4464-1.5688,2.9843-2.9986,3.0478-7.2747,4.7598-11.5445,4.7591-.8196,0-1.6386-.0654-2.4484-.1937Zm-50.2966,10.6559l.1972-.123c1.2944-.7585,2.6569-1.4019,4.0647-1.9294,2.4194-.7701,4.898-1.3292,7.4064-1.6757.8576-.0766,1.7183-.1152,2.5781-.1152,2.2096,0,4.4097.2672,6.5398.7768-.7304-.0404-1.4596-.0678-2.186-.0678-6.7575-.0003-13.3182,1.7564-19.342,5.1821.0005-.4158.0492-.8243.1887-1.1863.1251-.3248.3148-.6074.553-.8615Zm77.0692,78.6024c.0716.0273.1425.0561.2176.0766.1812.05.3634.0756.5436.0756.2532.0004.4976-.0677.734-.1672.1762.339.2904.7146.2901,1.0962l-.0042.0806c-.1643.056-.3303.1133-.4644.1639-.435.1642-.7295.2732-1.1457.2738-.1283,0-.2696-.0107-.4312-.0355-.216-.0329-.4025-.1297-.5228-.2574-.1286-.1382-.1741-.2568-.1758-.3924l.0156-.1311c.054-.2622.3431-.5844.6612-.6975.0915-.034.1863-.0604.282-.0856Zm-2.5759-4.7976c-.0548-.4991-.1217-.996-.1952-1.4911l2.0005,3.9251c.1138.223.2599.4573.3993.6806.0853.1373.2115.3405.3134.5269.0159.029.0245.0506.0388.0783-.5436-.353-1.0655-1.0019-1.3846-1.5889l-1.1724-2.1308Zm-88.0566-19.5177c-1.5679.0572-3.1565.0937-4.7609.0937-4.3063,0-8.7046-.2341-12.9858-.8418-.0376-.0792-.0727-.3116-.0836-.6118.3277.2233.7128.2616,1.0166.2807,5.1537.2829,10.0402.5163,14.7989.5163.6796,0,1.3556-.0069,2.0303-.0169-.0052.1934-.0103.3866-.0154.5797Zm-18.9027-33.4831c.2484.1283.5281.2049.8304.2042h0s.0048,0,.0048,0h.0058c1.5099-.0228,3.0217-.0416,4.5348-.0601,4.8573-.0599,9.8055-.1227,14.7603-.3332-.3855,4.9131-.8339,18.8597-1.1926,32.1491-.6818.0103-1.3651.0172-2.0522.0172-4.7347,0-9.6056-.2324-14.7507-.5148-.1456-.0078-.2833-.0202-.3871-.0462-.1056-.0258-.1662-.0624-.1941-.096-.0493-.0446-.0924-.2165-.1068-.4704l-.0444-.5793c-.0342-.4427-.0724-.9457-.1145-1.4982.0332-.3504.0638-.6991.0884-1.0367l.0352-.083.0173-.0407.0031-.044c.0114-.1607.0217-.3211.0311-.4812l.0061-.0379.0004-.0025.0004-.0032c.0139-.1.0208-.2003.0208-.3002l-.0038-.1198c.0222-.4981.0333-.994.0333-1.4861-.0001-2.5991-.3064-5.0917-.8977-7.2442-.0102-.1634-.022-.3059-.0374-.4194-.0186-.1231-.0307-.2078-.077-.3086l-.0117-.0239-.0163-.0212c-.3006-4.9806-.5469-10.24-.5469-14.1983,0-1.0861.0199-2.0659.0607-2.9217Zm.6073-3.3234c.2284-.2281.6775-.2961,1.2181-.3186,6.0542-.3051,12.1622-.4883,18.262-.5532.0097.1649.0205.3237.0318.4782l-18.2248.4955c-.4856.0151-1.0411.1214-1.5373.3322.0628-.1825.1426-.3357.2502-.4341Zm30.141-.6758c-.2012,0-.4051.0041-.6118.0095l-7.9061.2151c-.0023-.1471-.0047-.2939-.0069-.4401.9295-.0057,1.8588-.0094,2.7876-.0094,2.2676,0,4.532.0169,6.788.0506.2913.005.5351.1516.6969.3667-.5526-.1543-1.1387-.192-1.7477-.1924Zm1.0705-13.5121c-.0078-.0666-.0153-.1366-.023-.2051,5.9918-3.4957,12.5306-5.2783,19.2729-5.2785,2.1491,0,4.3188.1814,6.4978.545.3482.151.6929.3094,1.0337.476.2041.1003.4068.2121.6115.3253.5364.2947,1.1166.6194,1.8118.7459.3678.0662.7319.0846,1.0859.0846.2483,0,.4917-.0091.7284-.018l18.7563-.6984c.0011.0015.0022.0035.0034.005-.1241.0874-.2149.2136-.2151.3688l.0061.0754c.2428,1.5138.5776,3.0722.9566,4.6429-.3367.4032-.5355.8982-.5357,1.4134l.0048.1394c.0735,1.027.7715,1.7905,1.521,2.2767.183.6761.3683,1.3503.5523,2.0194.4068,1.4775.7911,2.8899,1.1455,4.276-1.035-.5394-2.4445-.7963-3.7056-.9364-2.2254-.2401-4.5014-.428-6.7521-.428-1.3442,0-2.678.0731-3.9881.2367-.0334-.066-.0681-.1416-.1049-.2378-.0954-.2457-.3135-.3854-.5493-.4681-.1884-.0664-.4172-.1062-.6704-.1395-.031-.2682-.082-.5439-.1422-.8322-.05-.2401-.1017-.487-.1393-.7331-.0331-.211-.2026-.3743-.4154-.3975-.5618-.0608-1.097-.1042-1.6249-.1413.0285-.4402.0568-.8788.0849-1.3162,1.1316-.0717,2.1832-.7801,2.7889-1.8657.299-.5357.454-1.1083.4541-1.6696.0002-.5185-.1332-1.0272-.4036-1.4799l-.0122-.0205-.0153-.0176c-.3489-.4035-.8615-.6192-1.4199-.6177l-.1305.0038c-.3155.0182-.6246.1039-.9137.234.0075-.1148.0151-.2293.0227-.3443.1299-.0222.2587-.044.3919-.067l.0663-.0115.2062-.1624.0523-.0413.0267-.0611c.136-.3115.1914-.5961.1913-.8463.0003-.3326-.0979-.5998-.2084-.7889-.3777-.6399-1.1657-1.0027-2.1769-1.1145-.6805-.0739-1.3972-.1047-2.1229-.1047-1.9604.0001-3.9873.2251-5.5215.4487l-.0506.0074-.1771.1026-.0449.0259-.0317.0408c-.0502.0645-.0862.1266-.1284.1895-.5558-.1089-1.1314-.1708-1.7103-.1708-.9384.0002-1.8775.1419-2.7209.4289-.796.2716-1.3341,1.0174-1.3352,1.8452l.0019.0845c.0753,1.5212,1.3007,2.8928,2.7949,3.1199.1775.0261.3537.0385.5274.0385,1.4014-.0041,2.6182-.801,3.4194-1.8281.0386.1917.081.3827.1158.575-.0549.2601-.0757.5194-.0758.7651,0,.2402.0159.4682.0299.672l.3063,4.3829c-.2048.0396-.4094.0788-.6169.1231l-.0598.0127-.1909.1489-.0485.0378-.0269.0553c-.1866.384-.2957.7197-.2963,1.0549-.0014.3387.1195.6544.3296.9566.2105.3044.5086.6105.9011.981.3072.2851.7499.4421,1.2825.5462.5334.1019,1.1624.1422,1.8429.1423.2592,0,.5327-.013.8037-.024-.0852.3113-.1438.6309-.1439.9505,0,.2299.037.4527.0846.6707-.329.4879-.5563,1.0479-.631,1.6596-.0792-.8085-.5646-1.504-1.3026-1.8451-2.3353-1.0889-3.697-1.1526-6.1333-1.164l-.167-.0004c-3.0925.0005-8.9561.474-12.0863.8957-2.6196.3577-5.7463,1.1896-7.5932,3.2043-.1251-.0485-.25-.0958-.3743-.1404-.181-.4254-.4189-.8244-.7387-1.1691-.9116-4.8509-1.6623-9.763-2.2378-14.6497h0Zm26.0019-6.7971h0c.4775.0808.8229.5047.8219.97l-.0095.1228c-.2677-.0507-.5353-.1011-.8028-.1465-1.4807-.6345-3.0264-1.1196-4.6055-1.482,1.5372.1021,3.0722.2738,4.5959.5357Zm33.2998,6.9751c.0796.0024.1663.0049.2577.0049.3281-.0007.726-.0307,1.0939-.2548.1209-.0777.1933-.1758.2733-.2939.1264-.1943.2536-.459.3784-.7522.0047.5243.0077,1.0614.0084,1.6155l-4.4102-.3307c0-.0172,0-.0345,0-.0517l.0631.0052.1174-.0062,2.218.064Zm1.5456-2.7473l-.1906-.0209c-.3453-.0727-.6748-.3197-.8864-.6913-.0321-.0562-.0529-.116-.0794-.1739.162.05.3268.0872.4931.0872.2396.0001.4784-.0545.6986-.1654l.037-.0187.1188-.1165.0295-.0289.0193-.0364c.0604-.114.1057-.2345.1573-.3524.0031.0887.0068.1731.0096.2637-.0687.2481-.2262.7384-.4068,1.2535Zm-1.2814-3.5958c.1034-.0777.2244-.1413.3604-.1907l.3327.2749c.1665.181.3086.3583.4387.533-.0641.419-.189.8269-.3712,1.2093l-.1454.029c-.1873.0003-.405-.0843-.6162-.2756l-.1172-.1296v-.0052c-.0002-.4102.0486-.8424.0993-1.2769l.0002-.0018c.0061-.0556.0124-.1109.0187-.1663Zm-2.3218,5.2386l-.2019.0959-.0945-.0028c.0141-.2367.0297-.4725.0463-.7076.1073.0324.2257.0988.2916.1952l.0769.2036c-.0031.0559-.0105.1129-.1185.2157Zm4.9736,7.2359c.0192-1.6365.0341-3.2542.0382-4.7958l1.3516.1013c.7677.0575,1.7585.1583,2.6396.4159.5608.1655.9453.6163,1.0222,1.199l.0121.1904c-.0012.499-.2495.9434-.6875,1.207-1.4656.8769-2.9259,1.4272-4.3762,1.6822Zm6.8293,28.2074c2.3212,4.3146,2.7579,9.4769,2.7568,14.6159,0,.906-.0134,1.811-.0321,2.7104-.0127.6111-.0312,1.2032-.0587,1.7805-.25,1.347-.6088,2.7308-1.0965,4.2092-.051.1538-.104.3092-.1572.4655-.0788.2327-.1581.4694-.2342.7087-.0938.0897-.1586.2035-.1583.3302l.027.1115c-.1692.5972-.2992,1.216-.2994,1.8602,0,.1026.0032.206.0102.3102.0156.2347.056.4622.1033.6869-.7096,1.5251-1.7171,3.0469-3.0695,4.6228-2.3883,2.7835-5.3098,5.0837-8.5416,6.799,6.3248-4.2407,10.5495-11.2479,11.6187-19.3125.1764-1.3328.4518-3.7699.452-6.0401,0-.2519-.0034-.5017-.0107-.7476-.0262-.8891-.0678-1.7357-.1195-2.5631.0868-.9946.1326-1.8833.1327-2.665.0021-2.5971-.4599-4.1675-1.1926-5.5238-.278-.5149-.5908-.9974-.9283-1.4964-.4078-.9984-.8764-1.9935-1.4567-3.0016-2.7275-4.7222-9.0535-9.8841-15.1028-10.439-.8047-.072-1.5913-.1083-2.3611-.1083-5.9865-.004-10.9464,2.2097-15.384,6.8071-.9551.9917-2.1498,2.7995-3.1725,4.5203.8007-1.6012,1.7232-3.1345,2.7674-4.5742.3865-.4262.7802-.8283,1.18-1.2014,3.428-3.1974,6.2116-5.0638,12.1291-6.5094.4588-.032.9186-.0486,1.3787-.0486,2.8334,0,5.674.6025,8.2607,1.7571l.0717.0403-.0012-.0006.0302.0172c.6174.5267,1.8352,1.2259,3.4887,2.1621.256.1448.5062.2862.7422.421,1.2437.9759,2.5228,2.1696,3.9594,3.6901,1.3618,1.4412,3.0712,3.3781,4.2681,5.6057Zm3.0084,28.8622l-.2751-.0819-.0371-.0111h-.0387c-.0725.0009-.1344.0334-.2008.0525.0622-.2595.1168-.5182.1523-.77l.4194.8226-.0201-.0122Zm-104.2873-19.284c-.0049.1678-.0098.3359-.015.5067-.2187-.0166-.4356-.0431-.6514-.0807.1955-.1758.4219-.3208.6664-.426Zm.5329-28.1852c.1119-.169.3893-.3508.7302-.4723.3403-.1244.7382-.1966,1.07-.2052l18.285-.4972c.0171.1495.0335.3051.0528.4369.0153.1013.0656.1877.1327.2568l-.0159.0403c-.0417.1098-.065.237-.0942.4256-.0196.1316-.0393.298-.0588.4807-4.9809.2141-9.9625.277-14.8575.3372-1.513.0187-3.0247.0373-4.5358.0602h-.0035c-.3449,0-.6441-.201-.7447-.4811.012-.1317.0248-.2586.0384-.3798l.0012-.0019Zm62.306-.4461c.0037.0728.004.1448.0123.2187.1417,1.2381,1.0738,2.0993,2.163,2.6534,1.0962.5575,2.3806.8332,3.3734.8863.6414.0335,1.2999.0592,1.9659.0777.0856.3142.1764.6155.269.9117-6.9933.3537-14.015,1.0795-20.5575,3.3319l-.068.0234-.1373.1595c-4.1466,1.4207-7.428,3.3095-10.4172,5.979-1.0705.9556-1.9433,1.8733-2.6621,2.792-.0239-.6639-.0457-1.3089-.066-1.9354-.0913-2.7363-.1782-5.2381-.4054-7.8991.5141.0915,1.0323.1346,1.49.1347.4572,0,.8544-.0269,1.1187-.0447,3.2185-.2177,7.6707-.7968,11.9603-1.7488,4.2906-.9542,8.4121-2.2721,10.9943-4.0068.5356-.3595.8687-.9159.9665-1.5336Zm-29.6896-.6504c.0099.1328.02.2796.0302.4372-1.3649-.2874-2.7127-.3897-4.1156-.3897-1.2102,0-2.4629.069-3.8088.143-.8356.0459-1.6938.0912-2.5908.125-.0023-.1502-.0047-.2998-.007-.4492l7.9178-.2154c.1994-.0054.3936-.0094.5821-.0094.7807-.0009,1.4482.0786,1.9922.3585Zm68.7866,30.2478c-.0685.7758-.1599,1.6128-.2875,2.5506-.2409,1.7855-.1097,4.2231-.436,6.6794-1.058,7.9781-5.2923,14.873-11.606,18.9255-.8924.5754-2.7718,1.2972-4.4623,1.8743-1.634.5593-3.0928.9911-3.3943,1.0795-5.7322-.0286-11.3937-2.6365-15.1381-6.9773-1.1913-1.3807-2.2612-2.9928-3.2705-4.9332-.2009-.3864-.3947-.7768-.5808-1.1718-1.7121-4.1311-2.5581-8.9475-2.5581-14.656,0-1.0442.0283-2.1182.0848-3.2231.1407-2.772.4484-5.6695,1.6941-8.2274,1.0528-2.1697,3.4338-6.206,4.8736-7.689,4.2855-4.428,8.9808-6.515,14.7167-6.519.7375,0,1.4923.0348,2.2657.1041,5.652.4928,11.799,5.4825,14.3701,9.97.6501,1.1288,1.2672,1.9936,1.8073,2.7899,1.1886,2.9305,1.6995,5.908,1.9217,9.4234Zm-81.6508,5.3368c.3103-.007.6207-.0147.9304-.0242l.0193.018.0065.0061.0071.0058c.2671.2143.5724.2872.8412.3125.0004.0513.0008.1026.0012.1538-.6023.033-1.2097.0627-1.8209.0889.0052-.1867.0103-.3739.0152-.561Zm14.6641-31.2868l.0179-.0285c.0047.0352.009.0698.0137.1049-.0094-.0263-.023-.0497-.0315-.0764Zm.8551-.8931l-.0172-.1154c2.0068-1.9998,5.1105-2.6291,7.973-3.034l.6222-.0889c4.766-.6807,7.6186-1.0887,12.6551-1.1558h.0042s-.0025,0-.0025,0l.074-.0007c.4655-.0005,1.1978.0782,1.8533.2471.6579.161,1.234.4463,1.3883.7106l.0607.1985c0,.0669-.0181.1505-.0677.2555-.0571.1204-.151.2504-.3117.412-.3567.3601-.8224.6451-1.3445.8181-6.5728,2.184-12.2396,3.6948-18.6088,4.0039-.2683.013-.5515.035-.8418.0574-.5062.0393-1.0294.0795-1.5285.0794-.6108.0009-1.1774-.068-1.6332-.2493-.08-.6946-.1688-1.4023-.2745-2.137l-.2629.0378.2626-.0392Zm-.9595,2.4784c.1098.1006.2322.1798.3544.2593.0119.1106.0227.2193.0341.329-.2726-.1932-.4296-.435-.5146-.732.0436.0464.0793.1007.1261.1437Zm8.4565-7.0068c3.0821-.416,8.9002-.888,11.9493-.8874l.1725.0005c2.3869.0171,3.5456.0611,5.7419,1.0763.4466.2088.729.6161.77,1.111l.0045.1125c-.0011.4518-.2144.8557-.594,1.1125-2.1514,1.4508-5.8728,2.7331-10.0003,3.7017-4.1288.9708-8.6705,1.6374-12.491,1.8955-.3552.0239-.6876.0357-.9971.0357-.654.0002-1.1887-.0616-1.6357-.1649-.0096-.0988-.0197-.1982-.0299-.2974.484.1222.9983.1632,1.5164.1636.5425-.0001,1.089-.0427,1.6055-.0825l-.0204-.2648.0205.2648c.2859-.0222.5607-.0436.8149-.056,6.4863-.3145,12.2403-1.851,18.86-4.0507.6586-.2187,1.2512-.5796,1.7171-1.0487.221-.223.3834-.4388.4944-.6721.1027-.217.1581-.44.1581-.6609.0005-.2492-.0721-.4928-.2098-.7065-.426-.6414-1.2773-.9476-2.0981-1.1453-.8251-.1912-1.6284-.2453-1.9841-.2458l-.0435.0004h.0025c-5.0903.0672-7.9982.4824-12.7764,1.1651l-.6218.0889c-2.3428.3364-4.9061.8193-6.9958,2.1224.628-.5785,1.3875-1.0566,2.2441-1.4259,1.3943-.6018,2.9872-.9481,4.4261-1.1418Zm-21.5946,35.7245c-.0451-.1452-.0764-.3252-.0892-.5331-.0777-1.1093-.1406-4.6145-.1404-9.4254,0-5.4742.0819-12.6515.3103-19.9752.1218,9.4817.2233,20.2715.2927,29.92-.1244.0048-.2488.0095-.3735.0138Zm-1.168-8.0557c.0138,3.8441.0691,6.5948.138,7.588h0c.0112.1567.0324.3256.0643.497-.1435.0038-.2871.0075-.4307.0108.073-2.7.1497-5.4235.2283-8.0958Zm2.1398-25.2862c.9132-.0342,1.784-.0803,2.6283-.1267,1.3354-.0733,2.5683-.1409,3.7462-.1408.0482,0,.0939.0043.1419.0045-2.1652.1922-4.3362.3541-6.5136.4672-.001-.0681-.0019-.1364-.0029-.2042Zm64.4332-9.9491c.0525.0146.1054.0294.1582.0441.1847.3639.4509.5552.6763.6091l.2216.0281c.0068,0,.0154-.0046.0223-.0048.0002.1396.0005.2793.0005.4187l-.0064.2487c-.0667,2.4384-.1318,4.8148-.1319,7.1494,0,2.2975.073,4.5523.2603,6.7879-2.492-.9922-5.1714-1.5229-7.8544-1.523-.3713,0-.7432.0111-1.1147.0311l-.0755-.0193-.0369-.0094-1.8268.0614c-1.4903.0493-2.9896.1003-4.4918.1617l-.1474-.7918c3.8595-.0622,7.9544-.5936,11.7535-2.3954.561-.2665,1.1336-.6803,1.5954-1.1805.4598-.5005.8144-1.0893.8988-1.7231l.0169-.2575c.0002-.1807-.032-.3552-.0833-.524l.1699.0963-.2463-.2774c-.0153-.0354-.0273-.0719-.0449-.1063l.0029-.0262.0034-.0303-.0035-.0302c-.014-.1201-.0429-.2348-.08-.3458l.0016-.0004-.0385-.161c-.0476-.5783-.1912-1.1273-.3163-1.5979-.4449-1.6752-.768-3.4327-1.0688-5.1696.6016.1994,1.2029.3751,1.7861.5373Zm-16.4955,15.8868c-3.9327,1.4752-8.3401,2.2369-12.813,2.2368-1.8436,0-3.6971-.1371-5.5337-.3982l.0175-.0235c5.9491-1.7603,12.2924-2.3729,18.6361-2.6853.016.0454.0321.0915.0481.1361-.0309.1561-.0713.3053-.1387.4338-.0536.1026-.1316.2018-.2163.3002Zm-6.6266-11.3816c-.4525.0284-.8963.0479-1.3066.0479-.596.0002-1.1322-.0344-1.5548-.1113-.4232-.0741-.7278-.2021-.855-.3276-.3588-.3374-.605-.5916-.7495-.7913-.1452-.2028-.1863-.3302-.1877-.4675-.0007-.1071.0422-.2516.1153-.4283.0834-.0172.1661-.0331.249-.0495l.0362.5181c.0175.2461.2214.4378.4688.4387h.0018c.246-.0002.4509-.1891.4696-.4355.0185-.2324.0312-.4656.0438-.6988,1.4371-.2327,2.8291-.3543,4.3012-.3544.4331,0,.8788.0157,1.3293.0354-.0242.3696-.0485.7396-.073,1.113l-.0016.0236c-.9434.2193-1.7712.7355-2.2868,1.4874Zm-6.0109-12.0855l.0195.1688h0s0,0,0,.0001h0s0,.0001,0,.0001c.0835.3535.3503.6195.7239.8287l.0288.2894c.0089.0898.0537.1658.106.2339-.6091,1.0734-1.7611,1.9868-3.0173,1.9797-.129,0-.2596-.0093-.3916-.0285-1.0065-.1352-1.9548-1.1941-1.9891-2.2295l-.001-.043c-.0012-.4178.2799-.8112.6958-.9518.7383-.2516,1.5775-.3796,2.4164-.3794.4775,0,.9506.0495,1.4085.1316Zm9.7989.4077l-.0002-.0005-.0426-.1067-.2467-.097-.0568-.0223-.0895.0069-.0084.0006-.0085.0012c-1.066.1515-2.1786.1843-3.3661.2184-.6003.0173-1.2152.0349-1.8463.0694-.3162.0173-.6119.0257-.8857.0257-.6995.0009-1.2468-.0602-1.6229-.1612l-.0608-.6079-.0078-.0783-.0604-.0753c1.4088-.1877,3.1091-.3558,4.7583-.3556.6968,0,1.3811.0296,2.0233.0995.7796.0797,1.3102.3659,1.464.6508.0538.0936.0806.1927.081.3145,0,.0336-.0193.0808-.024.1178Zm-.0664,2.5773c.2842-.2555.6803-.4348,1.0424-.453l.08-.0024c.2311,0,.4926.0648.6676.2533.157.2769.2403.591.2404.9271.0001.3942-.1106.8159-.3376,1.2224-.4262.7681-1.1716,1.2663-1.904,1.3585.0134-.2102.0268-.4204.0402-.6305.0568-.8894.1131-1.7797.171-2.6753Zm.8168,6.6343c.0272.1419.0542.2856.0823.4197.0411.1946.0758.3767.1039.5479-.0387-.0027-.0737-.0055-.1133-.0082h0c-.1948-.0134-.4328-.0301-.6646-.0506-.1322-.3304-.2471-.661-.3589-.9917.3119.0243.6258.05.9506.0828Zm3.5333,13.2616l-.0518-.3357c.0418-.0019.0836-.0037.1254-.0055l.0535.2871c-.0421.0184-.0849.0358-.1271.0541Zm-.4192-9.3853c1.0437-.0472,2.0885-.0755,3.1336-.0755,3.4086,0,6.818.2509,10.1873.7509.3023.0449.5625.1601.7577.3249l.0309.0296c-.0197.1475-.0418.2935-.0912.4327-.3379.9355-.7579,1.4435-1.4049,1.7623-3.4953,1.7027-7.4102,2.5596-11.6665,2.5598-.0338,0-.0678-.0004-.1016-.0005l-.9936-5.3388c.0681-.1426.1164-.2915.1484-.4454Zm-4.3771-2.0848l.0103.0002c.0024.0055.0047.011.0071.0166-.2439.0401-.484.0815-.7236.1258-.181.0337-.3697.0663-.5574.099.3867-.1547.8172-.2419,1.2637-.2415Zm-1.1811,3.0568c.251.2117.5002.4294.6895.6239.113.1158.2049.2236.2615.3077l.0337.0593c-.1579.0865-.3445.1342-.5722.1344-.3895.0015-.8628-.125-1.3246-.2752.1758-.2522.3766-.4853.6108-.6585.096-.0712.1995-.1302.3014-.1916Zm3.3309-.7006c-.0036-.0074-.0072-.0149-.0108-.0222-.0177-.0365-.0355-.0732-.0533-.1098.0307-.0025.0613-.0054.092-.0078-.0077.0469-.022.0928-.0279.1398Zm-4.752,3.0071c0-.1965.0389-.3983.0944-.599.4493.1501,1.0805.3592,1.7323.3606.3957.0002.8061-.0808,1.1664-.3198.2859-.1848.3832-.4665.3873-.6495l.001-.0408c-.0048-.3392-.1866-.6264-.4277-.9114-.1591-.1851-.3593-.3732-.5735-.564.3697-.1204.7551-.2132,1.1568-.2762.0305.2637.1052.5859.2632,1.0304.1123.3362.3874.5697.7153.645.1449.3059.2876.6122.4246.9193.0371.2697.0707.5407.0898.8096.0466.6463.1541,1.3209.2876,1.9923-1.0547-.0821-2.1263-.2061-3.2209-.3867-.7575-.1245-1.4096-.5067-1.7871-1.0229-.2143-.2927-.309-.6282-.3096-.9867Zm.2068-13.4909c.0413.6476.1198,1.2903.2231,1.9292-.473-.569-.7526-1.2655-.7946-1.9511l.5715.0219Zm.2863-1.3506c.3767.0005.7062.1112.9918.2965l-.0548,2.0387c-.0422.237-.066.4725-.0823.7048-.1123-.7164-.1989-1.437-.2293-2.1643-.0111-.2454-.2069-.4414-.4527-.4514l-1.4748-.0563c.2517-.1371.512-.2498.7779-.3079.1808-.0404.3563-.06.5244-.06Zm-3.0719,2.9749c.0696-.4019.183-.7875.3537-1.1596.1975-.4346.5431-.835.9551-1.1519-.017.0415-.0338.0833-.0396.1314-.0109.1158-.0163.2328-.0163.35.0009,1.0502.4292,2.1155,1.1819,2.9285.2628.2837.555.517.8642.7095.1452.6023.3217,1.1974.5219,1.7857-.297-.0085-.5951-.0186-.8856-.0186-.9168,0-1.805.049-2.6921.1359l-.2432-3.7111Zm-.1422-2.1627l-.0449-.6853-.0503-.0724c.2565.0113.5172.0277.7666.0289-.2513.2185-.4801.4603-.6713.7288Zm11.1834,19.9623l-.0384-.2067c.229-.0092.4571-.0167.6859-.0255-.2167.075-.4334.15-.6475.2321Zm1.6502-10.2301c-1.065,0-2.1304.0292-3.1944.0775-.0133-.0466-.0242-.0991-.0393-.1406,1.1314-.1224,2.2821-.1841,3.4469-.1841,2.2042,0,4.4474.1848,6.6506.4225.9474.0986,1.7422.2552,2.3858.4465-3.0642-.4064-6.1567-.6217-9.2496-.6217Zm-14.4992-10.621c-.0648.0391-.1237.0865-.1832.1334-.0114-.0526-.0228-.1052-.0345-.1577.0743.0096.1445.0155.2177.0243Zm.1272,1.1945c.1056-.2344.3662-.4316.5821-.473l.1507,2.2911c-.0579.3747-.0866.7545-.0866,1.141.0002.8745.1287,1.7805.2934,2.7217-.1951.0262-.3909.0551-.587.0855.0044-.208.0101-.416.0101-.6237,0-1.6655-.1444-3.3257-.4284-4.9672l.0657-.1753Zm4.1179,10.0685c.0854.0855.1747.172.2714.2592-.1372.0957-.2727.1918-.4019.301.0237-.1952.0667-.3794.1304-.5602Zm28.9836-5.2269c-.2843.0237-.5685.0453-.852.0453-.8108,0-1.618-.1088-2.4229-.3034-.0054-.3416-.1506-.6419-.3569-.8699-.2044-.2262-.4671-.3893-.7416-.4939,0-.1702,0-.3402,0-.5104,0-1.0684.0008-2.1353.0019-3.1905l4.411.3308c-.0035,1.6004-.0195,3.2864-.0396,4.9919Zm-5.3588-1.726c-.3139.0541-.6118.2131-.827.4927-.726-.2022-1.464-.4138-2.1793-.6757l-.004-.0236c-.1936-1.1362-.394-2.2954-.6227-3.4498.3794-.1153.7834-.17,1.2044-.1698.3532,0,.7124.0266,1.0633.0528l1.3723.103c-.0206.6692-.0349,1.3346-.0349,1.975,0,.587.0104,1.1519.0279,1.6953Zm-58.4181,44.0971c-2.2167.2692-4.4374.4424-6.6758.5489-.0848-10.4363-.2145-22.1891-.357-32.1332,3.6558-.1894,7.3094-.4709,10.9271-.9066.0723.0187.1451.039.2177.059.0675.3447.1354.6887.2043,1.0327-.0323.0942-.064.1889-.0868.2894-.0504.2233-.0744.4518-.0744.6801,0,.2094.0281.4176.0669.623-.1568.359-.2469.7369-.2469,1.1167,0,.1211.0084.2424.0255.363.1367,1.0113.8227,1.6142,1.6127,1.9288.2473,2.7611.335,5.3393.4298,8.1851.0222.6592.0444,1.3359.0694,2.0366l.0021.1169c.0004.6454-.1943,1.2323-.4402,1.8623l-.1011.1978-.0013.0027c-.0951.1914-.1852.386-.2704.5824-1.0723,1.592-1.8084,3.2212-2.2116,4.8995-.2764,1.1513-.4125,2.3939-.4125,3.7914,0,.0864.0007.1738.0018.2616-.194.6342-.2832,1.2542-.2831,1.8655.0004.9823.2208,1.9411.5427,2.9257-.5008-.2612-1.1289-.3973-1.8865-.3975-.3277,0-.6785.0229-1.0525.0683Zm63.4918-24.6444c-.5572-.4191-1.1125-.7991-1.6745-1.1483-.719-.4466-1.4674-.8451-2.2368-1.1985l-.022-.0286c-.0201-.1465-.045-.665-.0621-1.4341-.0585-2.4675-.0848-7.5832-.0911-13.1168l.0103-.3838c1.162.3756,2.3344.5738,3.512.5737.2792,0,.5587-.0218.8383-.0429-.0055.4323-.0113.8652-.0166,1.2967-.0352,2.7492-.0697,5.4446-.0697,7.8629.001,3.3949.0667,6.2259.3001,7.9351-.1627-.1052-.3278-.2141-.4879-.3155Zm-5.0343-24.0661l-.3037-.0228.3043.0088c-.0002.0047-.0004.0093-.0006.014Zm-3.8647.0152c-.0101-.0472-.0205-.0943-.0307-.1414l.6254.018c-.1988.0261-.3972.0682-.5947.1234Zm-85.1755,43.3668c.0464-.0514.0931-.1032.1443-.1439.2081-.1667.4219-.241.6298-.2414.0216,0,.0431.0096.0647.0113-.2949.0885-.5792.2087-.8388.374Zm21.0996,8.4263c.6218-.0263,1.2393-.0567,1.8522-.0901.0529,7.8598.0829,14.7699.0829,19.2848,0,1.2775-.0026,2.3494-.0074,3.2108-.3895-.158-.7828-.2792-1.2314-.2797-.3106-.0002-.6415.0594-1.0014.1955-.0812.0305-.1554.0756-.2316.1169.0949-4.6155.2927-13.2108.5368-22.4382Zm-.5272,25.1202l-.0611-.0477c.0061-.3574.0146-.8119.0253-1.3665.158-.2337.3685-.4198.5901-.5021.2572-.0967.4692-.134.6683-.1342.3723-.0015.7361.1424,1.2244.3591-.0038.3398-.0081.629-.0133.833-.0031.1203-.0064.2162-.0098.285l-.005.0806c-.1018.2662-.2384.4465-.4147.5663-.1814.1222-.4163.1905-.7305.191-.3395.0005-.769-.0873-1.2739-.2645Zm3.346-26.2106c-.0002-.0323-.0004-.0643-.0007-.0965l2.1234-.045c-.6996.0509-1.4077.0982-2.1227.1416Zm29.0483,5.205c-.5853-.1378-1.15-.4318-1.5923-.8248-.0519-.2377-.1055-.4662-.1617-.6707-.0917-.3287-.1571-.616-.1561-.8378.008-.2689.0635-.4207.2965-.5936.1504-.1054.344-.1712.5638-.1824.0762-.0038.1651-.0065.2634-.0065.4427-.0008,1.075.0624,1.6368.3053l.0028.0069c.1596.3995.2405.8598.2403,1.2989.0011.5045-.1089.9799-.2992,1.2987-.0709.1198-.154.2023-.2394.2794-.2327-.0123-.4417-.0467-.5549-.0736Zm-.9106-4.435l.079.0023c.3479.0216.6554.1701.9396.4441-.3324-.0504-.6428-.0698-.8961-.07-.1152,0-.2193.0031-.3095.0078-.3875.0196-.7542.1394-1.0577.3522-.0394.0272-.0637.0611-.0993.0901.286-.502.7997-.8284,1.344-.8265Zm2.9403,2.8018c.0573.1622.0963.3255.0962.4849,0,.1977-.0431.3873-.1282.5578-.0311.0612-.0685.1099-.1049.1605.094-.3384.1452-.7012.1456-1.0749,0-.0426-.0075-.0856-.0087-.1284Zm-3.381,2.0969c.3033.1637.6189.2974.9492.3906.0933,7.2654.2062,11.6339.3191,14.2736.0848,1.9584.1655,2.9562.2439,3.5042-.2604-.1087-.5191-.2213-.7758-.3386.0571-1.2726.0865-2.7116.0865-4.2342-.0005-4.7008-.2715-10.1393-.823-13.5957Zm-2.7017,17.0495c-.2565-.1422-.5097-.3016-.7466-.4742.2455.1634.4961.3187.7466.4742Zm3.3706,1.987c.2507.0396.5016.0792.7524.1182.0233.0094.0467.0186.07.028-.0074.0776-.0233.1504-.0233.233.0007.419.0802.9104.1672,1.4657.04.254.0725.522.108.7869-.2081-.073-.4269-.1212-.6591-.1211-.1132,0-.2286.0097-.3453.0302-.1254.0218-.2449.0653-.3639.1093.1269-.6563.2216-1.5643.294-2.6503Zm2.389-1.1536l-.1472-.0055-.0042-.0002h-.0058c-.1659-.0009-.3229.0248-.4707.0718-.0679-.5387-.152-1.6345-.2339-3.707-.1054-2.6379-.2125-6.8617-.3-13.5594.1023-.0366.2057-.0708.2996-.124.8823-.035,1.6286-.4473,1.9968-1.1911.1528-.3056.2278-.6407.2278-.979,0-.4221-.1164-.8498-.3425-1.2386-.2975-.5123-.711-.8705-1.1531-1.1193-.5317-1.1377-1.3365-1.8162-2.3535-1.8688l-.1317-.0037c-1.1854.0022-2.2172.8869-2.4648,2.0956-.0439.214-.0649.4253-.0649.6321-.0001.8942.3978,1.6864.9884,2.3.6628,3.2326.9619,9.1458.961,14.1862,0,1.432-.0251,2.7861-.0708,3.9978-5.7003-2.8894-10.3784-7.8768-12.6812-13.8455l-.0054-.0139-1.083-2.089c-1.1341-2.5242-1.8641-5.1967-2.169-7.9455l-.0083-.0751-.1257-.1604c-.0062-.9609-.051-1.8624-.0962-2.7373-.0466-.9053-.0917-1.7828-.0917-2.6809,0-.7681.0333-1.5519.1263-2.3822.3068-.9744.5371-2.0646.7609-3.1266.1877-.891.3646-1.7279.5663-2.3995.0793-.2625.1746-.5197.2737-.7737,1.4364-2.0424,3.4815-4.0498,6.168-6.0517,2.8088-2.0918,5.4551-3.5191,8.6463-4.9902,2.3051.4069,4.6468.6092,6.9721.6093,3.7-.0001,7.3574-.5089,10.7586-1.5029-1.7192,1.2015-3.2713,2.6399-4.5528,4.2979-2.6765,3.4559-4.5456,6.2591-5.5452,12.4315l-.0063.0766c-.0002.221.1554.4157.3774.4612l.0946.0095c.1666.0001.3163-.0896.4006-.2285-.5557,2.483-.8592,5.0338-.8592,7.6048,0,1.1071.0535,2.2173.1624,3.326.3981,4.0533,1.5208,8.1029,3.2631,11.7996l.055.1326c2.6313,6.2475,7.509,11.0839,13.0862,12.9377.7658.2544,1.5249.4676,2.2873.6403-.2984.0075-.5966.0203-.8953.0203-4.2626.0003-8.5547-.7391-12.7484-1.4627-3.2145-.5541-6.5463-1.1292-9.8553-1.3683l-.0062-.0005Zm40.6222-77.7795h0l.0089.0037-.0089-.0037Zm-2.0466-4.0771s-.0004-.0004-.0006-.0006l-.0341-.1373.0348.1379Zm-16.76,2.7243c.2057,0,.4134.0119.6196.0148l-4.8767.1815c1.4169-.1142,2.8327-.1964,4.2571-.1963Zm4.8023-.703c-.2099-.006-.4121-.0116-.5955-.0305-1.421-.1464-2.8212-.2097-4.2096-.2097-3.3783.0001-6.6909.3795-10.0664.8447,2.636-.9196,6.4281-1.3394,10.1523-1.3356,1.1722,0,2.3373.0394,3.455.1145,1.0234.0673,1.8897.35,2.5224.7705-.4194-.1202-.8562-.1404-1.2581-.1538Zm-57.7425,82.9031l.0052.056c-.0208.0044-.0402.0074-.0609.0115.0187-.0225.0381-.0444.0557-.0675Zm30.564,3.5039c-.0512.2574-.19.4861-.4514.6727.1955-.1998.342-.4269.4514-.6727Zm49.3886-17.1469c-.0676.2203-.1405.4443-.2235.6775l.0008-.0021-.0667.1826c-.127.1663-.2593.3439-.4035.5367-1.3596,1.8243-3.6148,4.8462-7.389,7.3042-.8151.5307-1.6191.9858-2.4207,1.4067,2.8663-1.6854,5.4684-3.8206,7.6414-6.3527,1.1519-1.3422,2.0603-2.6576,2.7685-3.9782.0319.0744.0591.1521.0926.2252Zm1.3102.5089c.7179.4789,1.2052,1.1323,1.5479,1.9111.2619.5961.4381,1.2608.5728,1.9483l-1.9268-3.5026-.2327.128.2325-.1284c-.0644-.1165-.129-.2371-.1936-.3565Zm3.124,4.534h0s-.1926.0297-.1926.0297l.1925-.0297ZM63.9929,65.9191c-.0127-.0822-.0246-.1648-.0246-.2515,0-.2117.0386-.4353.1188-.6606.2193-.6197.7144-1.1098,1.2528-1.2719.185-.0566.3791-.0841.5773-.0841.4377-.0006.8935.1413,1.2997.3845l-2.3739,2.284c-.3348-.0649-.6516-.1935-.8501-.4006Zm2.8626.4809l.2961-.2618-.1444.2193-.0332.0505c-.0397-.0034-.0789-.0056-.1185-.008Zm.4095-.362l.6049-.5348c.1017-.0901.189-.1615.2579-.2029l.1497-.0533.0429.0083.0016.0033c.0319.0731.0565.1438.08.214-.0365.228-.0727.4608-.1085.6975-.0863.1021-.1838.1989-.2908.291-.0651-.112-.15-.2187-.2602-.3123l-.0588-.0506-.2951-.0424-.1237-.0178Zm.8133,1.6626c-.0032.0248-.0066.0496-.0098.0745-.0203.0172-.0409.034-.0604.0526.0133-.0424.0244-.0875.0372-.1317.0108.0028.0221.0021.033.0045Zm7.0902-19.837c3.7288-.0014,11.5001.0036,15.9458,1.0099.938.2101,2.4032.8458,3.6381,1.6667,1.2434.8148,2.235,1.8421,2.3317,2.6878.0176.1331.0263.2677.0263.4033.0029,1.3038-.8182,2.7126-2.2074,3.6403-.6778.4557-2.3641,1.2105-4.1731,1.9033-1.8112.6955-3.7659,1.3421-5.0125,1.6183-3.381.7512-9.035,1.356-13.0171,1.3552-.7687,0-1.4749-.0226-2.0886-.0703l1.8825-1.811c1.1305-1.089,2.3249-2.2325,3.1101-3.7145.1949-.3689.3514-.7482.472-1.1309.1993-.2507.3723-.4607.5187-.6292.349-.013.6859-.106.9743-.2631.4606-.2501.748-.7246.7604-1.2508l.0005-.0407c.0003-.2051-.049-.4003-.1255-.5828l-.1182-.2242c-.0927-.1454-.2064-.2767-.3463-.3843-.0357-.0576-.0816-.1069-.1229-.1603l-.1857-.2253c-.2915-.2789-.6814-.4789-1.117-.4803-.334-.0014-.6853.1248-.9882.3979-.4106.368-.6204.882-.6203,1.3948-.0002.4283.1466.8606.4464,1.2076.0618.0716.1338.1238.2023.1827-.0319.204-.0717.4092-.1301.6154-.3335.4233-.7111.917-1.1159,1.4458-1.2105,1.5845-2.7304,3.5648-3.5952,4.337-.1469.1319-.2782.272-.4048.4064-.2739.2944-.5115.5315-.7677.6217-.0869.0314-.179.0454-.2827.0455-.2189.0012-.4872-.0696-.786-.1538l-.0713.2558.0713-.2558c-.1366-.0381-.2769-.0774-.4219-.1103-2.6237-.5939-4.8067-1.2356-7.5516-2.2206-.8635-.3095-1.7893-.8044-2.5466-1.4156-.7591-.6108-1.3428-1.3371-1.5575-2.0868-.0672-.2329-.0981-.4664-.0981-.6991-.0054-1.0975.7116-2.2013,1.5512-2.8594,1.1115-.8797,3.0408-1.8443,4.5158-2.2552,4.2574-1.1924,8.1502-2.171,13.0046-2.1713Zm1.8449,4.8355c.0342.0878.0653.1774.0651.2546-.0014.1115-.0305.1986-.1048.2826-.0727.081-.1895.1624-.3337.2578-.0869.0582-.1826.1264-.2792.2022.0002-.016.0019-.0322.0019-.0482,0-.2632-.0197-.5231-.0597-.7772l-.0038-.0482c.0009-.0915.0387-.1719.1192-.2351l.1843-.0654.1199.0259c.0998.0441.1959.0974.2908.151Zm-11.0517,14.6236h.0001l.0081.2022-.0082-.2022Zm2.5801-4.5614c-.0233-.019-.0467-.0378-.0706-.0563.036.008.0726.0121.1092.0191l-.0387.0372Zm27.6573,90.3995c.1579-.443.5901-.8082,1.0266-.8817l.1906-.0168c.2753.0008.5317.1234.76.3112l.0014.0786c.0014.7165-.143,1.3072-.5142,1.6392-.1554.1408-.3506.2155-.5702.2161l-.063-.002c-.2537-.0167-.4955-.1395-.6565-.3323-.166-.1995-.2428-.4124-.2437-.6402,0-.1193.0219-.2434.0688-.3718l-.2493-.0913.2494.091Zm-52.3787-4.7669c-.2763-.3195-.3743-.6491-.3766-1.0351-.0013-.4239.1371-.9111.3215-1.4242.1455-.0291.2921-.0563.4413-.0563.0142,0,.0282.0025.0424.0027-.0512.6628-.1001,1.223-.1455,1.6461-.044.4243-.0914.7218-.1197.8309l-.0147.0171h0l-.0809.0922c-.0232-.0251-.0384-.0392-.0678-.0734Z"/>
  </g>
</svg>