<?xml version="1.0" encoding="UTF-8"?>
<svg xmlns="http://www.w3.org/2000/svg" viewBox="0 0 165 165">
  <defs>
    <style>
      .uuid-34fcc61d-e2d0-4e0b-9633-fb9ba150ab8f {
        fill: #eee7c2;
      }

      .uuid-34fcc61d-e2d0-4e0b-9633-fb9ba150ab8f, .uuid-9e090171-ae6f-4724-86ca-e4d31cf226ca {
        stroke-width: 0px;
      }

      .uuid-9e090171-ae6f-4724-86ca-e4d31cf226ca {
        fill: #5e2751;
      }
    </style>
  </defs>
  <g id="uuid-42ef095b-d998-4ca7-91cd-41ae81af5953" data-name="podklad">
    <g>
      <polygon class="uuid-34fcc61d-e2d0-4e0b-9633-fb9ba150ab8f" points="93.3714 126.4703 93.3718 126.4717 93.3718 126.4719 93.3714 126.4703"/>
      <path class="uuid-34fcc61d-e2d0-4e0b-9633-fb9ba150ab8f" d="m139.6211,35.0893c-.5991.62-1.3026,1.2746-2.1212,1.4139-.1226.0211-.2468.0308-.3724.0308l-.1295-.0065c.1945-.8862.4244-1.7653.6926-2.6345.4663-.9094.8877-1.7228,1.2631-2.4371.8865.2281,1.8002.3502,2.7156.3502.1719,0,.3438-.0082.5156-.0164-.059.1558-.103.3193-.1207.4901-.7538.9609-1.5604,1.8987-2.4432,2.8096h0Zm2.2268-21.363c.2673-.1387.6028-.2541.9725-.254.3663.0005.7679.1107,1.1875.4328.3459.2668.6851.4064,1.0243.4064l.1804-.0132c.6925-.1077,1.1344-.7474,1.5571-1.3298.2579-.3595.4855-.6575.7068-.8594.2227-.2026.4294-.3061.6642-.3065.1424,0,.3005.0386.4843.1293l.071.037h0c.3293.1792.722.4329.917.7881l.0112.0743c.0056.2916-.321,1.0632-.5502,1.5814-.324.7453-.626,1.4192-.6289,1.9514-.001.2375.0663.4568.2339.6171.1506.1467.3583.2187.6068.2177.4188-.0015.9709-.1868,1.7361-.555l.1803-.044c.1186-.0004.2219.0607.2896.1375.0568.0646.0998.1559.0994.2534l-.0684.2144c-.8261,1.2664-1.5929,2.5291-2.3284,3.7747l-.0836.0269-.0049.0016-.0975.0417c-.0287-.1469-.1424-.2635-.2913-.2907l-.0673-.0063c-.1269,0-.2469.066-.3136.1779-.2274.376-.4381.7644-.6368,1.1597-.8714-.1541-1.7272-.3744-2.5621-.661l-.1658-.5358-.0088-.0283-.2108-.1946-.0218-.0201-.0287-.0064-.0806-.009c-.1019,0-.2006.0425-.2708.1193-.0844.0926-.168.1859-.2515.2796-.3107-.1299-.6191-.2674-.9232-.4163l-.1611-.0374c-.1113,0-.2205.0508-.2918.1442l-.0751.2228.0916.2426c.2046.2322.4431.4341.6933.6198-.9468,1.1307-1.8206,2.3265-2.6135,3.5764-.1106-.0041-.2212-.0073-.3315-.0085-.1682-.0002-.3146.1108-.3578.2713l-.0129.0957c0,.1294.0687.2521.1851.3186l.0738.042c-.5491.9142-1.0556,1.8553-1.5178,2.8173-.159-.1014-.3167-.2067-.4659-.3286l-.2316-.0826-.2283.0795c-.0898.0714-.1391.1784-.139.2877l.0374.1609c.1536.315.3472.6063.5672.8746-.078.1764-.1541.3538-.2291.531-.549-.2013-1.0799-.4505-1.5848-.7462l.8721-2.083-.0192-.2584-.0042-.0557-.2448-.1524-.0167-.0104,1.4847-2.6357c.0778.0635.1557.1268.2324.1918l.0176.015.2223.0659.0469.0139.2195-.1343.0198-.0122.0132-.0191c.9222-1.334,1.6815-2.7555,2.2771-4.2469.0938.0413.1876.0829.2825.1209l.1363.0264c.1396,0,.2723-.0802.3341-.2144l.0331-.1522c0-.1339-.0737-.2621-.1998-.327l-.0189-.0096c.1765-.0259.3544-.0408.5269-.0911.1597-.0472.2638-.1929.2637-.3521l-.0132-.0977c-.0455-.1631-.1926-.2697-.3536-.2696l-.0935.0122c-.1401.0367-.2853.0479-.4308.0547.184-.5634.3511-1.1334.4889-1.7139l.0102-.087c.0009-.1459-.0894-.2822-.2324-.339l-.1345-.0256c-.1292,0-.2533.0684-.32.187l-.9743,1.7296c-.34-.1628-.6662-.3944-.9488-.7044-.2362-.2586-.4164-.5421-.5475-.8344.4243-.5599.8618-1.1199,1.3149-1.6806l.0816-.2305c.0001-.1068-.0471-.2134-.1365-.2856l-.2299-.0812c-.0343,0-.0671.0126-.1004.0222.4047-.5649.8885-1.0415,1.4052-1.3083l-.0505-.0977.0506.0977Zm7.1636,7.3291l.0002.0008s0,0,0-.0001v-.0007Zm-28.6795,84.6648c-.6785.9443-1.4761,1.8389-2.2505,2.7064-1.1442,1.2832-2.3337,2.6154-3.1893,4.1704-.989,1.7972-1.3494,3.1509-1.3492,4.3902.0003,1.2424.3597,2.3585.7858,3.6877.685,2.1384,1.5718,4.8997,1.5724,9.8198,0,1.1329-.0472,2.3802-.155,3.7604-1.0034,12.7146-7.476,15.2677-9.9264,16.2558l-.0618.0246c-2.0075.8033-4.7991,1.3942-6.6631,1.6188-1.1893.1438-2.3851.2142-3.5805.2142-3.5826,0-7.1619-.6324-10.5551-1.8138-.4549-.2048-.9227-.4274-1.3884-.6612-.5953-.4488-1.1136-.9473-1.4964-1.5518-1.1932-1.8843-1.8348-3.8521-1.8343-5.5359,0-.3305.0245-.65.0744-.9557.4403-2.7095,1.5607-5.1806,2.987-8.1396.6094-1.2646,1.8428-3.7205,3.5406-7.0571l1.899.8879c.238.8266,1.0067,1.366,1.795,1.5661.2377.0603.488.093.7386.093.2602,0,.5198-.0389.7667-.1163l5.916,2.7661.0018.0008c.2296.0995.4696.1482.7065.1482.4794.0002.9459-.2,1.2899-.574.3057-.3317.4654-.7493.4653-1.1749,0-.2831-.0706-.5696-.2136-.8363l-.0192-.0357c-.4622-.8502-1.1534-1.5972-1.9993-2.163-1.3669-.9141-2.7723-1.7607-4.1993-2.556,1.5588-3.468,4.4734-9.7136,8.1179-17.4205,1.097-.3072,2.1579-.9193,3.0989-1.7905,1.6781-1.0425,2.8424-2.6318,3.1815-4.414.0471-.248.0766-.4984.0918-.7501.233-.555.452-1.1128.6687-1.6646l.0182-.0468c2.2279-5.6759,4.6271-11.4916,7.2097-17.4755,2.4861,1.445,7.6333,5.0215,8.7812,10.2405.1247.5648.1827,1.1616.1827,1.7814.0029,4.0969-2.5519,9.1864-5.0085,12.601Zm-11.9048-28.2289l.5156.2284c-2.6465,5.0419-5.2764,10.1041-7.7498,14.9363-.2314.002-.4611.0293-.6906.0581.5497-.6628,1.4214-2.1879,2.6373-4.5235,1.3577-2.6123,3.1298-6.2245,5.2874-10.6993Zm28.0356-55.7347l-.0437.0008c.0227-.0363.0461-.0724.0689-.1086l-.0252.1078Zm1.1962-1.895c.3499-.5134.7143-1.0267,1.0882-1.5404l.0169.0176.0252.0255c.1663.1685.3405.3292.5189.485l-.0093.0502c-.0002.1173.0568.2328.1607.3035.2592.1766.5388.3186.8309.4277l-.0004.0007.2077.1064-2.066,3.6681c-.4873-.3569-.9947-.6831-1.5173-.9833.095-.0481.1747-.121.1996-.2287l.5448-2.3322Zm-.1769,12.3397c-.7038,1.1957-1.4418,2.4752-2.2083,3.8246-.1378-.0633-.2756-.1292-.4133-.1974.1345-.395.2137-.6819.219-.8612l.0012.0002.002-.0105v-.0109c-.0012-.1663-.1135-.3109-.2742-.3526l-.0927-.0119c-.1294,0-.2522.0686-.3185.1852-.1155.2025-.2358.414-.3582.6295-.2054-.1137-.4092-.2299-.6099-.3478.3231-.9128.5579-1.6535.6904-2.1937l.0054-.0223-.0321-.1852,1.6698-2.8335-.0079.039c-.0001.1226.0618.2418.1718.3108.6194.3898,1.2803.7075,1.965.9606-.1419.3569-.2796.7156-.4094,1.0771Zm-5.4995,4.3174c.035.0165.0698.0331.1048.0497-.9409,2.4639-2.2983,5.7375-3.9423,9.5465-6.7051,12.4119-16.1694,30.4049-24.7664,46.9102-.4368-.1517-.8824-.2551-1.3308-.3134,10.879-21.2446,24.6837-46.869,29.9347-56.1931Zm-41.2573,82.5463c2.0444-2.9626,4.6792-7.31,7.4633-12.1291.0931.0429.187.0828.2813.1205-3.6661,7.2803-6.5789,13.0158-8.0679,15.7256-.4167-.2054-.8446-.4118-1.269-.6132.5066-.9896,1.0387-2.0267,1.5922-3.1039Zm14.9653-24.7322c.6611-1.3137,1.3388-2.6594,2.0239-4.0185-.6708,1.3816-1.3331,2.7414-1.9782,4.0567l-.0457-.0382Zm-6.5165,12.9572c.0276.0071.0555.0137.0833.0204-1.0267,2-1.9883,3.8425-2.8837,5.5278.8649-1.7083,1.799-3.5597,2.8004-5.5482Zm19.7114-40.5597c-2.574,4.999-5.1581,10.0704-7.6597,15.0075-2.2698,4.2745-4.4209,8.2677-6.439,11.9553-.1926-.1176-.3869-.2307-.5865-.3292l-.1371-.0646c6.8105-13.0757,14.1575-27.0691,20.2473-38.4849-1.6968,3.7878-3.5289,7.8109-5.4249,11.9158Zm-27.6138,56.4871c1.8954-2.7668,5.0557-8.5659,8.7501-15.78.1683.0159.3371.0277.5065.0277l.1771-.0029c.16-.0052.3194-.0258.4788-.0446-3.5027,7.4235-6.3067,13.4492-7.8442,16.8842-.6854-.3727-1.3754-.7337-2.0683-1.0844Zm15.0533-28.3038l-.0259-.0261c2.3531-4.7966,4.7494-9.7684,7.043-14.5964,1.5153-3.1899,3.0501-6.4529,4.5641-9.7056,3.0821-5.9446,6.0931-11.8583,8.7104-17.1116,2.0707-3.9221,4.0742-7.6578,5.964-11.1053-6.9337,13.9392-17.2513,35.297-25.7445,53.13-.1617-.1998-.3273-.3977-.511-.5849Zm-11.9162,17.0001c.9166-1.7756,1.8663-3.6127,2.8486-5.5096.0965.0662.194.1298.2928.1902-1.1248,1.9441-2.1688,3.7094-3.1414,5.3195Zm1.9817-6.2101l.076-.0795-.0759.0796c.0901.0859.1827.1667.2755.2468-2.398,4.6312-4.6268,8.9513-6.5781,12.7491-.6362.9201-1.1953,1.6756-1.6732,2.262,1.3831-3.4634,4.0372-9.1004,7.3988-15.8915.1824.2198.3702.4359.5768.6335Zm35.9572-69.8239l-.0034-.0016c.0039-.0068.0074-.0131.0114-.02-.0027.0073-.0052.0143-.008.0216Zm8.6655-9.4108l2.4668,1.4058h0c.1586.0903.3352.1753.5215.2399-.3798.6212-.9819,1.1375-1.6992,1.3673-.3461.1113-.712.1657-1.0853.1657-.3937,0-.7948-.0692-1.1896-.1874.2206-.3958.4091-.7232.5515-.9529l.0557-.0881.0566-.1955c.0001-.1213-.0606-.2402-.1703-.31l-.1977-.058c-.0406,0-.0779.0165-.1158.0297.2571-.4788.5258-.951.8057-1.4165Zm-1.7069,4.3198l.0109-.0204c.0171.0123.036.022.0532.0341-.0212-.005-.0428-.0085-.0641-.0136Zm-60.7773,109.2286c1.5828-4.7875,3.6617-9.2123,6.2906-14.3484.5185.2905,1.0056.5201,1.3578.6741-1.6945,3.3301-2.926,5.7822-3.5364,7.0488-1.4449,2.9987-2.5922,5.5244-3.0502,8.3403-.0559.3435-.0835.7006-.0835,1.0681.0005,1.8295.6793,3.9175,1.9297,5.9036-1.4969-.9301-2.7273-1.9605-3.1203-2.9109-.2973-.7104-.4096-1.4924-.4095-2.2645-.0003-1.3535.345-2.674.6218-3.5111Zm29.9552-41.7124l-.0182.0459c-.0381.0975-.0768.1951-.1152.2925-.173-.8457-.5067-1.6756-1.0007-2.4442,9.5026-19.9359,21.3477-44.4292,28.1381-57.9572.0585.0298.117.0597.1754.0897-11.1293,22.1194-20.0278,41.7536-27.1793,59.9733h0Zm26.8618-74.7596l.1135-.0771.0148-.0101.011-.0144c.1686-.2219.313-.4708.434-.7307.7515.3867,1.4697.8328,2.15,1.3371l-1.631,2.8954-2.3272-1.1062c.3876-.7665.7977-1.5309,1.235-2.2941Zm-4.0263,9.1071c.5762-1.8265,1.2804-3.6287,2.1128-5.417.8409.2184,1.6951.3853,2.5591.5034l-3.0884,5.483-.0053.2413c-.155.2624-.3391.5789-.5466.9398-.2015-.118-.4137-.2268-.6436-.294-.2892-.2743-.4525-.652-.4524-1.0392,0-.1393.0208-.2797.0643-.4171l-.1048-.0333.1049.0331Zm-1.1349,3.0939c.2136.0479.4423.1397.6707.2452.1562.0723.3127.1451.4691.2181-3.4667,6.1559-10.5838,19.2199-18.1453,33.4817,4.6817-10.1409,12.7735-26.8044,17.0055-33.9451Zm-66.1198,86.8171c.2749-5.8349,2.9913-11.2596,7.2566-14.5064,1.3585-1.0345,2.9299-1.9078,4.4537-2.7544,2.9793-1.6565,6.0848-3.3759,7.7444-6.439,1.1348-2.0977,1.3849-4.4893,1.6289-6.787.1453-1.374.2956-2.7903.6284-4.1172,1.0798-4.3077,4.2432-8.08,8.4609-10.0827,2.3178-1.1011,4.9291-1.6585,7.5828-1.6585,1.9079,0,3.8375.2881,5.6955.8691l.241.1069c-1.9695,4.0847-3.7583,7.7386-5.1597,10.4492-.7066,1.3666-1.3149,2.4938-1.7977,3.3149-.4785.8187-.8499,1.3413-1.023,1.46-.4067.2919-.8594.5575-1.3001.8157-.905.5311-1.8556,1.0853-2.5434,1.957-.2047.2593-.3742.5345-.5154.8199l-.0005-.0003c-.0027.004-.0045.0085-.0071.0125,0,.0001-.0002.0002-.0002.0004h0c-.8475,1.2684-1.355,2.7818-1.3551,4.339l.0007.0862c.0165,1.3602.4639,2.7399,1.2338,3.9196-3.6393,7.3609-6.4761,13.4369-7.8314,17.0231-2.0099-.9147-4.0197-1.7668-5.9894-2.5866-.226-.0941-.4553-.2103-.6791-.3243-.5574-.2822-1.1417-.584-1.8015-.585-.3201-.0002-.6557.0729-1.0042.2513-.6096.3115-1.0276.8699-1.1113,1.4998l-.0171.2505c.0027.9414.7317,1.4845,1.2384,1.8703,1.0591.8038,2.1582,1.3665,3.2148,1.908.952.4879,1.9272.9913,2.8572,1.6596-2.641,5.1607-4.7353,9.6171-6.3336,14.4521-.3453,1.0458-.6649,2.3758-.665,3.7301,0,.866.1309,1.7427.4726,2.5593.2398.5704.7015,1.1257,1.2816,1.6625-3.9786-2.3539-7.466-5.5214-10.0605-9.3438-3.1287-4.6087-4.8201-9.83-4.8199-14.8102,0-.3417.0079-.6823.024-1.0213l-.1099-.0052.1099.0052Z"/>
    </g>
  </g>
  <g id="uuid-76cbcd43-9cfa-4264-97c2-cc543271655f" data-name="OBJEKTY">
    <g>
      <polygon class="uuid-9e090171-ae6f-4724-86ca-e4d31cf226ca" points="95.374 127.8436 95.3744 127.845 95.3745 127.8452 95.374 127.8436"/>
      <path class="uuid-9e090171-ae6f-4724-86ca-e4d31cf226ca" d="m154.3287,18.3608c.0002-.2628-.0969-.5224-.2837-.7347-.2198-.2504-.5271-.3846-.8422-.3845-.1675,0-.3373.0377-.4971.115-.8337.4033-1.2424.4812-1.4144.4802l-.0972-.0117-.0047-.002-.0063-.0148-.0075-.0692c-.0054-.3183.345-1.1451.5733-1.6594.3143-.7238.6041-1.3702.6071-1.8795,0-.1544-.0283-.299-.0981-.4252-.2975-.5355-.8073-.8571-1.2072-1.0765-.3325-.1823-.6385-.2632-.9194-.2631-.9177.007-1.4852.8298-1.955,1.478-.3716.5267-.7347.9941-1.0677,1.0321l-.0708.0052c-.1575.0006-.3497-.0764-.5797-.2537-.5025-.3869-1.063-.5854-1.6384-.5851-.4344,0-.8761.1125-1.3069.3361-.8568.4453-1.5995,1.2925-2.1176,2.2645l-.0081-.0923-.0045-.0513-.2205-.1533-.02-.0139-.0238-.0042c-.1367-.0239-.2742-.0353-.4113-.0353l-.021.0002c-.2522-.2191-.557-.3509-.8754-.3508l-.178.013c-.1306.0189-.2408.1069-.2887.2299l-.265.6815c-.2245.1776-.422.3904-.5745.6368l-.0125.0201-.03.2348-.0031.0237.0071.0227c.1392.4497.5297.7708,1.0185.89l-.5067,2.1705c-.2844.4183-.5576.8369-.8265,1.2558-.0645-.2343-.1575-.4625-.3157-.668-.2979-.3878-.7516-.5466-1.191-.546-.3.0002-.5969.0722-.8478.1986-.4561.2275-.728.6198-.7272,1.0593,0,.1034.0148.2089.0451.3144l.0046.016.0928.1418.009.0139.0131.0108c.3192.2628.6695.481,1.045.6565l.044.058c.0994.3696.2386.7279.4128,1.0677-.4552.7927-.8828,1.5871-1.2856,2.3839l-.7033-.3344h0c-.1546-.0846-.2977-.1544-.4347-.2103-.249-.2392-.5845-.3842-.9717-.3992l-.0706-.0014c-.6724.0007-1.2915.3787-1.5251.9572l-.0266.1363c0,.1362.0763.2659.2048.3294l.0103.0048.0014.0007.0518.023-.0002.0059c.0001.3062.0902.6223.2708.8929.2473.3721.6251.5831,1.0372.5823.1053,0,.2127-.0135.3204-.0409.3096-.0787.5782-.2733.781-.5298.1074.0336.215.0659.3229.0979-.823,1.7797-1.5229,3.5741-2.0966,5.3932-.0663.21-.0984.4248-.0984.6373,0,.3732.1117.7334.2949,1.0569-.4641.1611-.7926.5289-1.0189.8594-.1191.0096-.2391.0259-.3588.0674-.5581.1954-.8859.7078-1.0987,1.0291-3.3853,5.1543-10.3228,19.6709-16.4478,32.4849-1.305,2.7302-2.5931,5.4252-3.8171,7.9671l-.2966-.131-.0056-.0024-.006-.0019c-1.9462-.6096-3.9625-.9116-5.9544-.9116-2.7609,0-5.475.5801-7.8898,1.7267-4.4118,2.0964-7.7225,6.0436-8.8575,10.5673-.3462,1.3821-.4987,2.8267-.6463,4.2185-.2484,2.3525-.4848,4.5578-1.5441,6.5153-1.5455,2.858-4.403,4.4518-7.4559,6.1465-1.5394.8555-3.1361,1.7419-4.5419,2.8119-4.4421,3.3833-7.2594,9.0096-7.5449,15.0555-.0165.3506-.0249.7026-.0249,1.0557.0002,5.1325,1.738,10.496,4.9467,15.2228,2.0839,3.0703,4.7264,5.7318,7.7336,7.899h0s.0005.0004.0008.0006l.0009.0007h0c1.811,1.3591,4.1592,2.8404,7.0641,4.0681,1.2843.5428,2.512.966,3.6555,1.2986.3489.1331.6561.2433.9078.3279,2.7743.9323,5.9432,1.4007,9.241,1.4008,2.7363,0,5.5615-.3226,8.3237-.9716,5.8759-1.3826,10.491-4.0322,12.355-7.1349,2.0869-3.4802,3.3701-7.637,3.817-12.3522.0945-.9976.1607-2.1313.1607-3.3502-.0002-2.9834-.3965-6.4773-1.7501-9.7301-.0559-.1354-.115-.2705-.1733-.4048-.2939-.6754-.5619-1.3002-.5657-1.9484l-.0002-.0162c-.0015-.8458.4614-1.6727.9774-2.4471,1.1454-1.725,2.5162-3.3416,3.8442-4.908,1.0358-1.222,2.1091-2.4872,3.0775-3.8071,2.5413-3.4625,3.834-6.7817,3.8344-9.8781,0-.2096-.006-.4181-.0177-.6253-.2246-3.9006-2.2412-7.9748-5.1514-10.403-3.0505-2.5436-5.7358-4.1879-8.9021-5.4471,5.6338-13.0093,12.1373-26.8251,19.6641-41.7811l.0811-.0163.0417-.0084.1636-.2228.0157-.0214.0043-.0263c.0251-.157.0519-.3145.0795-.4716.0952-.189.19-.3768.2856-.5659l.1042.0029c.1651,0,.3312-.0132.4979-.0419,1.0604-.1849,1.8621-.9456,2.5231-1.6263.7493-.7731,1.4413-1.565,2.0953-2.371.0922.1721.2105.3333.3832.458.3288.239.7212.3598,1.1405.3596.271,0,.5533-.05.8394-.1494.5734-.1974.8221-.6855.8193-1.1292l-.0173-.2069c-.063-.3735-.3146-.7466-.739-.9106-.0408-.2341-.2252-.5129-.7144-.6721l-.0021-.0007-.0085-.0025c.5546-.7852,1.0842-1.5829,1.5969-2.3922.0839.0623.1673.1259.2582.1735.244.1285.494.1921.7303.1921.37.001.7057-.1627.9157-.4621.3682-.1116.7142-.3344.9514-.6517.1827-.2449.2791-.5146.279-.7827.0001-.1975-.0526-.3929-.1562-.5726l-.0035-.0062-.0441-.0579-.0045-.0058-.0048-.0049c-.3208-.3238-.7526-.535-1.2139-.629.3866-.657.7718-1.3199,1.1592-1.989l.0724.0768.0031.0034.0034.003c.3004.27.6877.4152,1.0901.415.0914,0,.1835-.0074.2758-.0226.3653-.0591.656-.2453.8426-.5203.343-.0704.657-.2534.8602-.5474.1475-.2135.2224-.451.2222-.6923,0-.3415-.1484-.6852-.4257-.9893-.3193-.3492-.7765-.5518-1.2595-.607.6506-1.093,1.3251-2.1962,2.0456-3.3001.1252-.1923.1884-.4061.1883-.6185Zm-18.5245,3.8823l-.0004-.0047c-.0064-.2017.2037-.3495.3201-.4067l.0166-.0067c-.0026.0676-.0067.1351-.0067.2028,0,.1512.0159.3019.0286.4528-.1219-.0754-.2446-.1498-.3583-.2375Zm16.5668.8474c.1726.0669.3263.1641.4407.2902.1061.1146.235.3056.2328.4948-.0004.0872-.0237.177-.0911.2755l-.0447.0408c-.0405-.3998-.2114-.797-.5025-1.0763-.0109-.0104-.0242-.0151-.0353-.025Zm-6.7139,9.9393c-.0748.0214-.1544.0281-.2258.0583-.0147.0062-.0226.0207-.0361.0286.0222-.03.0455-.0596.0676-.0897l.1096-.0193.0848.0222Zm.7612.6909c.1536.0685.2456.2034.2691.3365l.0067.0817c-.0038.1694-.074.3477-.3263.4382-.1484.0519-.3659.1078-.6003.1077-.2339-.0002-.4819-.0541-.7081-.2183-.1678-.1215-.2496-.3246-.265-.553.1481-.1912.291-.3843.4351-.577-.0051.0191-.0189.0344-.0209.0545l-.0038.0762c-.0031.3367.2374.5234.4451.5535l.1038.0087c.2414-.0022.4824-.1288.6646-.3087Zm-4.7947,2.7419c-.5991.62-1.3026,1.2746-2.1212,1.4139-.1226.0211-.2468.0308-.3724.0308l-.1295-.0065c.1945-.8862.4244-1.7653.6926-2.6345.4663-.9094.8877-1.7228,1.2631-2.4371.8865.2281,1.8002.3502,2.7156.3502.1719,0,.3438-.0082.5156-.0164-.059.1558-.103.3193-.1207.4901-.7538.9609-1.5604,1.8987-2.4432,2.8096h0Zm-30.4829,41.9147l-.3927-.1736c1.1631-2.4153,2.4335-5.0702,3.8085-7.9473,5.86-12.261,12.465-26.0724,15.9521-31.6884-6.1161,10.8832-17.5833,35.2173-19.3679,39.8093Zm23.5652-50.7357c.017-.0895.0347-.1791.0353-.2693l.3809.181c-.0302.062-.0602.1239-.09.1858-.1089-.0315-.2177-.0641-.3262-.0975Zm1.0789.227l.2789.1326c-.1029-.0244-.2072-.0435-.3097-.0693.0102-.0211.0205-.0423.0308-.0633Zm4.4636-8.7339c-.0483.066-.0952.1319-.1431.1978l.0679-.2911c.0251.0311.0496.0626.0752.0933Zm-.5663-1.726c.2144-.1381.4578-.2308.7076-.2762.0717.1193.1272.2676.1267.4116-.0002.0839-.0276.163-.067.2401-.2567-.1534-.5316-.2415-.8106-.2643l.0433-.1111Zm4.1682-2.3091c.2673-.1387.6028-.2541.9725-.254.3663.0005.7679.1107,1.1875.4328.3459.2668.6851.4064,1.0243.4064l.1804-.0132c.6925-.1077,1.1344-.7474,1.5571-1.3298.2579-.3595.4855-.6575.7068-.8594.2227-.2026.4294-.3061.6642-.3065.1424,0,.3005.0386.4843.1293l.071.037h0c.3293.1792.722.4329.917.7881l.0112.0743c.0056.2916-.321,1.0632-.5502,1.5814-.324.7453-.626,1.4192-.6289,1.9514-.001.2375.0663.4568.2339.6171.1506.1467.3583.2187.6068.2177.4188-.0015.9709-.1868,1.7361-.555l.1803-.044c.1186-.0004.2219.0607.2896.1375.0568.0646.0998.1559.0994.2534l-.0684.2144c-.8261,1.2664-1.5929,2.5291-2.3284,3.7747l-.0836.0269-.0049.0016-.0975.0417c-.0287-.1469-.1424-.2635-.2913-.2907l-.0673-.0063c-.1269,0-.2469.066-.3136.1779-.2274.376-.4381.7644-.6368,1.1597-.8714-.1541-1.7272-.3744-2.5621-.661l-.1658-.5358-.0088-.0283-.2108-.1946-.0218-.0201-.0287-.0064-.0806-.009c-.1019,0-.2006.0425-.2708.1193-.0844.0926-.168.1859-.2515.2796-.3107-.1299-.6191-.2674-.9232-.4163l-.1611-.0374c-.1113,0-.2205.0508-.2918.1442l-.0751.2228.0916.2426c.2046.2322.4431.4341.6933.6198-.9468,1.1307-1.8206,2.3265-2.6135,3.5764-.1106-.0041-.2212-.0073-.3315-.0085-.1682-.0002-.3146.1108-.3578.2713l-.0129.0957c0,.1294.0687.2521.1851.3186l.0738.042c-.5491.9142-1.0556,1.8553-1.5178,2.8173-.159-.1014-.3167-.2067-.4659-.3286l-.2316-.0826-.2283.0795c-.0898.0714-.1391.1784-.139.2877l.0374.1609c.1536.315.3472.6063.5672.8746-.078.1764-.1541.3538-.2291.531-.549-.2013-1.0799-.4505-1.5848-.7462l.8721-2.083-.0192-.2584-.0042-.0557-.2448-.1524-.0167-.0104,1.4847-2.6357c.0778.0635.1557.1268.2324.1918l.0176.015.2223.0659.0469.0139.2195-.1343.0198-.0122.0132-.0191c.9222-1.334,1.6815-2.7555,2.2771-4.2469.0938.0413.1876.0829.2825.1209l.1363.0264c.1396,0,.2723-.0802.3341-.2144l.0331-.1522c0-.1339-.0737-.2621-.1998-.327l-.0189-.0096c.1765-.0259.3544-.0408.5269-.0911.1597-.0472.2638-.1929.2637-.3521l-.0132-.0977c-.0455-.1631-.1926-.2697-.3536-.2696l-.0935.0122c-.1401.0367-.2853.0479-.4308.0547.184-.5634.3511-1.1334.4889-1.7139l.0102-.087c.0009-.1459-.0894-.2822-.2324-.339l-.1345-.0256c-.1292,0-.2533.0684-.32.187l-.9743,1.7296c-.34-.1628-.6662-.3944-.9488-.7044-.2362-.2586-.4164-.5421-.5475-.8344.4243-.5599.8618-1.1199,1.3149-1.6806l.0816-.2305c.0001-.1068-.0471-.2134-.1365-.2856l-.2299-.0812c-.0343,0-.0671.0126-.1004.0222.4047-.5649.8885-1.0415,1.4052-1.3083l-.0505-.0977.0506.0977Zm8.1777,9.2364l-.0139-.0067c-.2839-.1404-.4784-.3776-.6289-.6693l.1495-.1386.0742-.0102c.0957.0005.189.0391.2904.1349.1782.168.2939.4608.2926.7147l-.002.0223c-.0543-.0138-.109-.0217-.1619-.0471Zm-1.0141-1.9073l.0002.0008s0,0,0-.0001v-.0007Zm-.0972,1.8574c.1766.2552.4025.4749.6861.6364l-.0226.0018c-.2242-.0001-.4363-.0795-.6011-.2272-.0712-.064-.1237-.1426-.1708-.2242.0361-.0622.0723-.1245.1085-.1869Zm-2.5699,2.8373l-.0499.0079-.0024.0004h-.0006c-.4354.0817-.7997.2939-1.0671.589l-.0409-.0169-.0975-.1534c-.0681-.1086-.1869-.1711-.3107-.1711l-.124.0217-.0148.0054-.0845.0612c-.937-.3278-1.9119-.5391-2.9006-.6406.7374-1.1329,1.5399-2.2204,2.4078-3.2501.2668.1375.5426.257.8297.3375l.0993.0137c.0977,0,.1926-.0391.2626-.1104l.0205-.0209.043-.1646c.6756.2136,1.3637.386,2.0617.5175-.4305.9579-.7787,1.9556-1.0316,2.9736Zm-3.2289,5.1289c-.0901.0068-.1807.0176-.2715.0353-.2285.0441-.4601.0654-.6918.0654-.8873.0002-1.7725-.3188-2.4871-.8599l.0018-.0034c.5104.1697,1.035.2643,1.5527.2643.4467,0,.8874-.0654,1.3068-.2,1.0469-.3368,1.8812-1.1205,2.3145-2.0566.0674-.0269.1247-.0643.1823-.1016l.0027.0049c-.61.9692-1.2407,1.9205-1.9105,2.8516Zm-24.8245,87.0151l.0002.022h0s0,.0002,0,.0004v.0026h.0002c.0072.8116.3261,1.5406.626,2.2325.0576.1323.1144.2635.1691.3947,1.3073,3.1407,1.6937,6.5363,1.6935,9.4445,0,1.1941-.0651,2.306-.1578,3.2842-.437,4.611-1.688,8.6625-3.7152,12.0446-2.574,4.3124-11.3516,7.7531-20.1209,7.7469-.0142,0-.0284-.0009-.0425-.0009.8145-.0322,1.6285-.0847,2.4395-.1826,2.3369-.2829,5.0184-.9347,6.8469-1.666l.0618-.0245c2.5532-1.0115,9.371-3.7695,10.386-16.8801.1097-1.4026.1577-2.6716.1577-3.8257.0007-5.0164-.9109-7.8624-1.608-10.0358-.4199-1.3083-.7507-2.3454-.7503-3.4665.0002-1.1248.3301-2.3468,1.2579-4.0336.8109-1.4749,1.9685-2.7739,3.0941-4.0354.7831-.8777,1.5949-1.7881,2.299-2.7667,2.627-3.658,5.1474-8.7263,5.15-12.9951,0-.6813-.0646-1.3425-.204-1.9741-.7735-3.4965-3.197-6.254-5.5205-8.1916,1.5684.9224,3.1102,2.0219,4.7651,3.4016,2.754,2.2941,4.6785,6.1819,4.889,9.8813.011.1933.0165.3877.0165.5833.0003,2.9216-1.2347,6.096-3.6919,9.4442-.9522,1.2967-2.0155,2.5517-3.0461,3.7667-1.3376,1.5777-2.7239,3.2123-3.8957,4.9766-.5641.8499-1.0987,1.791-1.0997,2.8525Zm2.041-12.1738c-.6785.9443-1.4761,1.8389-2.2505,2.7064-1.1442,1.2832-2.3337,2.6154-3.1893,4.1704-.989,1.7972-1.3494,3.1509-1.3492,4.3902.0003,1.2424.3597,2.3585.7858,3.6877.685,2.1384,1.5718,4.8997,1.5724,9.8198,0,1.1329-.0472,2.3802-.155,3.7604-1.0034,12.7146-7.476,15.2677-9.9264,16.2558l-.0618.0246c-2.0075.8033-4.7991,1.3942-6.6631,1.6188-1.1893.1438-2.3851.2142-3.5805.2142-3.5826,0-7.1619-.6324-10.5551-1.8138-.4549-.2048-.9227-.4274-1.3884-.6612-.5953-.4488-1.1136-.9473-1.4964-1.5518-1.1932-1.8843-1.8348-3.8521-1.8343-5.5359,0-.3305.0245-.65.0744-.9557.4403-2.7095,1.5607-5.1806,2.987-8.1396.6094-1.2646,1.8428-3.7205,3.5406-7.0571l1.899.8879c.238.8266,1.0067,1.366,1.795,1.5661.2377.0603.488.093.7386.093.2602,0,.5198-.0389.7667-.1163l5.916,2.7661.0018.0008c.2296.0995.4696.1482.7065.1482.4794.0002.9459-.2,1.2899-.574.3057-.3317.4654-.7493.4653-1.1749,0-.2831-.0706-.5696-.2136-.8363l-.0192-.0357c-.4622-.8502-1.1534-1.5972-1.9993-2.163-1.3669-.9141-2.7723-1.7607-4.1993-2.556,1.5588-3.468,4.4734-9.7136,8.1179-17.4205,1.097-.3072,2.1579-.9193,3.0989-1.7905,1.6781-1.0425,2.8424-2.6318,3.1815-4.414.0471-.248.0766-.4984.0918-.7501.233-.555.452-1.1128.6687-1.6646l.0182-.0468c2.2279-5.6759,4.6271-11.4916,7.2097-17.4755,2.4861,1.445,7.6333,5.0215,8.7812,10.2405.1247.5648.1827,1.1616.1827,1.7814.0029,4.0969-2.5519,9.1864-5.0085,12.601Zm-11.9048-28.2289l.5156.2284c-2.6465,5.0419-5.2764,10.1041-7.7498,14.9363-.2314.002-.4611.0293-.6906.0581.5497-.6628,1.4214-2.1879,2.6373-4.5235,1.3577-2.6123,3.1298-6.2245,5.2874-10.6993Zm22.7442-42.7117l.1992.0055.1624.1161.0027.002.0024.0015c.1284.0814.2585.1609.3887.24-.0776.1365-.1577.2779-.2405.424-.1746-.0815-.3492-.1628-.5236-.2433-.1689-.0779-.3479-.1437-.527-.2057.1636-.1777.3386-.3138.5356-.3401Zm5.2914-13.023l-.0437.0008c.0227-.0363.0461-.0724.0689-.1086l-.0252.1078Zm1.1962-1.895c.3499-.5134.7143-1.0267,1.0882-1.5404l.0169.0176.0252.0255c.1663.1685.3405.3292.5189.485l-.0093.0502c-.0002.1173.0568.2328.1607.3035.2592.1766.5388.3186.8309.4277l-.0004.0007.2077.1064-2.066,3.6681c-.4873-.3569-.9947-.6831-1.5173-.9833.095-.0481.1747-.121.1996-.2287l.5448-2.3322Zm-.1769,12.3397c-.7038,1.1957-1.4418,2.4752-2.2083,3.8246-.1378-.0633-.2756-.1292-.4133-.1974.1345-.395.2137-.6819.219-.8612l.0012.0002.002-.0105v-.0109c-.0012-.1663-.1135-.3109-.2742-.3526l-.0927-.0119c-.1294,0-.2522.0686-.3185.1852-.1155.2025-.2358.414-.3582.6295-.2054-.1137-.4092-.2299-.6099-.3478.3231-.9128.5579-1.6535.6904-2.1937l.0054-.0223-.0321-.1852,1.6698-2.8335-.0079.039c-.0001.1226.0618.2418.1718.3108.6194.3898,1.2803.7075,1.965.9606-.1419.3569-.2796.7156-.4094,1.0771Zm-5.4995,4.3174c.035.0165.0698.0331.1048.0497-.9409,2.4639-2.2983,5.7375-3.9423,9.5465-6.7051,12.4119-16.1694,30.4049-24.7664,46.9102-.4368-.1517-.8824-.2551-1.3308-.3134,10.879-21.2446,24.6837-46.869,29.9347-56.1931Zm-30.2908,56.8895c.4506.0368.9006.1319,1.3433.2771-1.9458,3.7369-3.8428,7.3898-5.6519,10.881-.3431-.3027-.6268-.6325-.8315-.9832,1.5911-3.1965,3.3215-6.6196,5.1401-10.175Zm-5.6241,2.9419c1.0234-1.4939,2.5706-2.5955,4.2993-2.8908.1453-.0249.2927-.035.4398-.0473-1.6336,3.1966-3.1969,6.2899-4.6484,9.2058-.0763-.2556-.1504-.5116-.212-.7822-.1984-.8707-.3902-1.9205-.3901-2.9663-.0001-.8791.1359-1.7537.5114-2.5192Zm7.6536-2.3942c.2421.1119.4796.2396.7116.3828-2.2044,4.0204-4.2462,7.6673-6.102,10.9007-.0621-.0342-.1244-.0677-.1851-.1045l-.1733-.1115c1.838-3.5475,3.7692-7.2653,5.7488-11.0675Zm30.626-56.2889c-.3165.5637-.639,1.1426-.964,1.7277.3008-.6717.5658-1.2784.7913-1.8135.0576.0286.1151.0571.1727.0858Zm.36-.6401c-.0839-.0418-.1678-.0836-.2518-.1252.0501-.1238.097-.2421.1412-.3555.1017.0455.2038.0903.3062.1343-.0651.1151-.1301.2303-.1955.3464Zm-45.9545,89.4274c-.0254.0814-.041.1684-.0555.2563l-.2296-.1074.2851-.1489Zm-1.2147-1.1658l-.0439.8596-.3185-.149c.1177-.2308.2405-.4717.3625-.7106Zm-1.0274.3999c-1.1802-.5128-2.1873-1.1154-2.8287-1.6885-.1198-.1078-.1674-.2485-.1683-.4152-.0005-.1796.0612-.3819.1492-.5527.1663-.3292.4857-.6292.8007-.7269l-.2126,1.7876-.0027.0436c0,.1264.0656.2452.1754.3124l.0274.0168.3091-.0061.0321-.0007.9856-.6594-.3471.7604-.0331.1522c0,.0902.0333.1797.0972.249.0709.0765.169.1182.2696.1181l.1243-.0217,1.1575-.4185c-.1823.357-.362.709-.5356,1.0497Zm.5875-3.3062l-.0198.1186c0,.1155.0546.2274.1523.298l.2145.0691.222-.0742c.116-.0886.2422-.2037.3725-.3283l.0944.0439c-.204.3988-.4039.7899-.5991,1.1724l-1.0742.3884.5214-1.1424.0329-.1523c0-.1052-.0453-.2082-.1288-.2795l-.2375-.0877-.2045.0624-1.3707.917.1702-1.4291.0026-.0438c.0002-.1693-.117-.3198-.2871-.3575-.0956-.0213-.1914-.0314-.2859-.0314-.7156.0043-1.3464.5583-1.6628,1.1717-.1541.2999-.232.6018-.2321.8854l.0032.0386c-.382-.2073-.7638-.4069-1.1385-.5989-1.0367-.5313-2.1017-1.0776-3.1055-1.8394-.5615-.4251-.9515-.7795-.9484-1.2914l.0101-.1484c.0505-.3817.3156-.7375.7181-.9432.2362-.1204.4555-.1686.6727-.1688.3856-.0007.7722.1572,1.1958.3668.0887.0438.1788.0895.2707.1362.2327.1182.4753.2418.73.3479,1.9805.8244,3.9997,1.6803,6.0175,2.5996-.0362.1019-.0724.2037-.1057.3004Zm8.5788-18.7974c-.5524-.9753-.8755-2.0693-.8878-3.1455l-.0006-.0775c0-.2875.0237-.5729.0606-.8558.0565.8945.2141,1.7567.3815,2.4926.1143.5021.2488,1.0328.4716,1.5351-.0084.0171-.0168.0341-.0254.0512Zm33.1189-57.1306c1.2654-2.3429,2.426-4.4728,3.4703-6.3698-1.491,3.2514-3.6929,7.8074-6.3602,13.1627-.2023.3835-.4099.7813-.6136,1.1683,1.2607-2.821,2.442-5.5034,3.5035-7.9613Zm-26.8787,59.4103c-.2812.0361-.5616.0577-.8383.0577-.0937,0-.1862-.0058-.2791-.0099,1.6464-3.2377,3.3834-6.7205,5.1501-10.3145.1909.2065.3726.4183.5346.6392-1.6025,3.3669-3.1375,6.6016-4.5673,9.6275Zm-3.6591,25.3165l-5.2239-2.4424c.0318-.0183.0653-.0316.095-.0554.1854-.15.3302-.3969.333-.654l-.0417-.2145-.0078-.0184-.0137-.0145-.1806-.1912-.0137-.0145-.0176-.0087-.2396-.0536-.0874.0059-.0284.0038-.0724.0542c.0234-.0894.0515-.1774.0784-.2482.0364-.0971.0889-.2266.1475-.3699l.145-.0474c.1541-.051.2528-.194.2528-.3494l-.011-.0895-.0004-.0015c-.0215-.0829-.05-.1601-.08-.2358.1147-.2652.2486-.569.3975-.9038,1.3917.7773,2.7612,1.603,4.0921,2.4932.7487.5006,1.3581,1.1594,1.763,1.9044l.0215.0402c.0893.1669.1249.3264.125.476.0004.2723-.1218.5164-.2746.6827-.171.1855-.4396.3411-.7496.3405-.1282,0-.2647-.0261-.4086-.0881Zm-8.6521-6.0001l-1.3644.7126.1012-1.9801-.0356-.131c.1608-.3143.3248-.6349.4912-.96.4155.1971.8306.3975,1.2451.6013-.1849.324-.3411.5878-.4548.7626l-.0599.2003c0,.1068.0469.2127.1354.2846l.2314.0822c.0936,0,.1877-.036.2587-.1065.1975-.1967.4285-.4783.6867-.8252.7375.3719,1.4711.7556,2.1997,1.1524-.0891.201-.1713.3884-.249.5664-.451-.3984-1.0625-.5825-1.6583-.5829l-.2576.0109c-.1647.0139-.33.0466-.4933.0881-.0666-.0623-.1486-.1071-.2437-.1072l-.0263.001c-.1918.0131-.3668.1-.5063.2309l-.0002-.0005Zm1.1191-6.1158c2.0444-2.9626,4.6792-7.31,7.4633-12.1291.0931.0429.187.0828.2813.1205-3.6661,7.2803-6.5789,13.0158-8.0679,15.7256-.4167-.2054-.8446-.4118-1.269-.6132.5066-.9896,1.0387-2.0267,1.5922-3.1039Zm14.9653-24.7322c.6611-1.3137,1.3388-2.6594,2.0239-4.0185-.6708,1.3816-1.3331,2.7414-1.9782,4.0567l-.0457-.0382Zm-5.6748,11.4956c-.0325-.0057-.0645-.0122-.0967-.0185.8376-1.6644,1.7141-3.4084,2.6278-5.2264.901-1.7919,1.839-3.6573,2.8044-5.5766l.0511.0442c-1.9264,3.9197-3.731,7.5298-5.3867,10.7773Zm-1.395.3586c.0796.0322.1602.0623.2411.0911-.0202.0402-.0404.0804-.0606.1205-.0818-.0316-.1629-.066-.2437-.1019.0209-.0364.0421-.0732.0631-.1097Zm1.0482.3207c-.0219.0428-.0438.0855-.0656.1281-.0301-.0061-.0601-.013-.0901-.0197.0215-.0427.0429-.0853.0645-.1281.0303.0068.0607.0132.0912.0197Zm-.475-.8901c-.0688-.0232-.1367-.0484-.2043-.0743.7031-1.2267,1.4126-2.4779,2.1218-3.7378-.6546,1.3022-1.2982,2.582-1.9174,3.8121Zm-.0198,1.6724c.0276.0071.0555.0137.0833.0204-1.0267,2-1.9883,3.8425-2.8837,5.5278.8649-1.7083,1.799-3.5597,2.8004-5.5482Zm-7.8506,18.7619c-.0934-.0175-.1852-.024-.2747-.024-.1492,0-.2921.0179-.4272.0347-.1193.0147-.2287.0274-.3203.0273-.1038.0002-.173-.0204-.2236-.054l-.0243-.0574c.2627-.1536.5737-.2531.8845-.279l.196-.0084c.5307-.0005,1.0592.1887,1.3419.5814l-.04.0946-.5729.1876c-.088-.2592-.2803-.4554-.5395-.5031Zm27.562-59.3216c-2.574,4.999-5.1581,10.0704-7.6597,15.0075-2.2698,4.2745-4.4209,8.2677-6.439,11.9553-.1926-.1176-.3869-.2307-.5865-.3292l-.1371-.0646c6.8105-13.0757,14.1575-27.0691,20.2473-38.4849-1.6968,3.7878-3.5289,7.8109-5.4249,11.9158Zm-29.4847,60.1987c.013-.1556.061-.2895.1238-.4139l.0754.0858.0072.0082.0089.0067c.2159.1646.4577.2088.6815.2083.1452,0,.2852-.0177.4141-.0334.1234-.0152.2385-.0292.3381-.0291l.1082.0089.011.0114-.0419.0137-.0271.0089-.188.2012-.0412.044.0764.2977.007.0274.0194.0206c.1331.1436.2844.1919.4014.1906.0953-.0002.1668-.0277.2033-.0448l.0166-.0079.1841-.179.3195-.1046c-.0753.2414-.1198.4586-.1199.6385,0,.1508.0287.2758.0684.3884l-2.6475-1.2378.0012-.1099Zm1.8709-3.7117c1.8954-2.7668,5.0557-8.5659,8.7501-15.78.1683.0159.3371.0277.5065.0277l.1771-.0029c.16-.0052.3194-.0258.4788-.0446-3.5027,7.4235-6.3067,13.4492-7.8442,16.8842-.6854-.3727-1.3754-.7337-2.0683-1.0844Zm15.0533-28.3038l-.0259-.0261c2.3531-4.7966,4.7494-9.7684,7.043-14.5964,1.5153-3.1899,3.0501-6.4529,4.5641-9.7056,3.0821-5.9446,6.0931-11.8583,8.7104-17.1116,2.0707-3.9221,4.0742-7.6578,5.964-11.1053-6.9337,13.9392-17.2513,35.297-25.7445,53.13-.1617-.1998-.3273-.3977-.511-.5849Zm-8.4072,11.0445c-.108-.0664-.2149-.1364-.3202-.211l.0356-.0689.1301.0827.0007.0004.0013.0008c.0656.0398.133.0764.2.1135-.0159.0276-.0317.0549-.0475.0825Zm-3.509,5.9556c.9166-1.7756,1.8663-3.6127,2.8486-5.5096.0965.0662.194.1298.2928.1902-1.1248,1.9441-2.1688,3.7094-3.1414,5.3195Zm2.6049-6.6346l-.1162-.106h0c-.103-.0985-.1855-.2157-.282-.3206.131.1334.27.2625.4193.3859l-.0211.0407Zm-.8422-.9315l.006-.0121c.0556.0753.1168.1482.1779.2212-.0588-.0719-.128-.1349-.1838-.209Zm.219,1.356l.076-.0795-.0759.0796c.0901.0859.1827.1667.2755.2468-2.398,4.6312-4.6268,8.9513-6.5781,12.7491-.6362.9201-1.1953,1.6756-1.6732,2.262,1.3831-3.4634,4.0372-9.1004,7.3988-15.8915.1824.2198.3702.4359.5768.6335Zm4.2902,1.0251l-.1548.0026c-.0469,0-.0936-.0033-.1404-.0048.0176-.0347.0353-.0692.053-.1039.2122.0196.4258.0328.6418.0328.0912,0,.1835-.0092.2752-.0126-.2248.038-.4497.0785-.6745.0858l.0036.11-.0038-.11Zm4.0803-1.868c-.2657.1613-.5452.3086-.8378.4388-.3544.1577-.7145.278-1.0756.3755,1.2998-2.7448,2.6801-5.6505,4.1198-8.6724.5116.9289.7916,1.9299.7916,2.9162l-.0038.1965c-.558,1.3179-1.1935,2.601-2.0552,3.7103-.2947.379-.6093.7243-.9389,1.035Zm26.8618-65.1292c.4199-1.0343.7993-1.9906,1.127-2.8467.1185.0571.2369.1144.3553.1718-.4604.8238-.9568,1.7205-1.4823,2.675Zm.725-3.8519l-.0034-.0016c.0039-.0068.0074-.0131.0114-.02-.0027.0073-.0052.0143-.008.0216Zm1.1165.5358c-.151-.0734-.3022-.1465-.4536-.2192.0459-.1226.0904-.2425.1339-.3604.1658.088.3326.1742.5005.2582-.0596.1058-.1199.2129-.1808.3214Zm10.8468-8.9736c-.1418-.0356-.3032-.1099-.4673-.2044l-1.7-.9689c.7755.1174,1.5408.293,2.2783.5594-.0106.2057-.0489.4114-.111.6138Zm-3.2979-.973l2.4668,1.4058h0c.1586.0903.3352.1753.5215.2399-.3798.6212-.9819,1.1375-1.6992,1.3673-.3461.1113-.712.1657-1.0853.1657-.3937,0-.7948-.0692-1.1896-.1874.2206-.3958.4091-.7232.5515-.9529l.0557-.0881.0566-.1955c.0001-.1213-.0606-.2402-.1703-.31l-.1977-.058c-.0406,0-.0779.0165-.1158.0297.2571-.4788.5258-.951.8057-1.4165Zm-1.7069,4.3198l.0109-.0204c.0171.0123.036.022.0532.0341-.0212-.005-.0428-.0085-.0641-.0136Zm-.2603-6.9149l-.0242-.0196,1.6687-2.9631c-.4636,1.0342-1.0123,2.0302-1.6445,2.9827Zm-60.517,116.1435c1.5828-4.7875,3.6617-9.2123,6.2906-14.3484.5185.2905,1.0056.5201,1.3578.6741-1.6945,3.3301-2.926,5.7822-3.5364,7.0488-1.4449,2.9987-2.5922,5.5244-3.0502,8.3403-.0559.3435-.0835.7006-.0835,1.0681.0005,1.8295.6793,3.9175,1.9297,5.9036-1.4969-.9301-2.7273-1.9605-3.1203-2.9109-.2973-.7104-.4096-1.4924-.4095-2.2645-.0003-1.3535.345-2.674.6218-3.5111Zm29.9552-41.7124l-.0182.0459c-.0381.0975-.0768.1951-.1152.2925-.173-.8457-.5067-1.6756-1.0007-2.4442,9.5026-19.9359,21.3477-44.4292,28.1381-57.9572.0585.0298.117.0597.1754.0897-11.1293,22.1194-20.0278,41.7536-27.1793,59.9733h0Zm26.6823-76.9088l-.0959.1096-.133-.0548c-.0283-.1655-.0389-.3329-.0496-.5003.1564.1234.2786.2773.2786.444v.0016Zm.0226.9638c-.0005-.0013-.0011-.0027-.0016-.004l.0031.0014c-.0005.0009-.001.0018-.0015.0026Zm.1569,1.1853l.1135-.0771.0148-.0101.011-.0144c.1686-.2219.313-.4708.434-.7307.7515.3867,1.4697.8328,2.15,1.3371l-1.631,2.8954-2.3272-1.1062c.3876-.7665.7977-1.5309,1.235-2.2941Zm-4.0263,9.1071c.5762-1.8265,1.2804-3.6287,2.1128-5.417.8409.2184,1.6951.3853,2.5591.5034l-3.0884,5.483-.0053.2413c-.155.2624-.3391.5789-.5466.9398-.2015-.118-.4137-.2268-.6436-.294-.2892-.2743-.4525-.652-.4524-1.0392,0-.1393.0208-.2797.0643-.4171l-.1048-.0333.1049.0331Zm-1.1349,3.0939c.2136.0479.4423.1397.6707.2452.1562.0723.3127.1451.4691.2181-3.4667,6.1559-10.5838,19.2199-18.1453,33.4817,4.6817-10.1409,12.7735-26.8044,17.0055-33.9451Zm-66.1198,86.8171c.2749-5.8349,2.9913-11.2596,7.2566-14.5064,1.3585-1.0345,2.9299-1.9078,4.4537-2.7544,2.9793-1.6565,6.0848-3.3759,7.7444-6.439,1.1348-2.0977,1.3849-4.4893,1.6289-6.787.1453-1.374.2956-2.7903.6284-4.1172,1.0798-4.3077,4.2432-8.08,8.4609-10.0827,2.3178-1.1011,4.9291-1.6585,7.5828-1.6585,1.9079,0,3.8375.2881,5.6955.8691l.241.1069c-1.9695,4.0847-3.7583,7.7386-5.1597,10.4492-.7066,1.3666-1.3149,2.4938-1.7977,3.3149-.4785.8187-.8499,1.3413-1.023,1.46-.4067.2919-.8594.5575-1.3001.8157-.905.5311-1.8556,1.0853-2.5434,1.957-.2047.2593-.3742.5345-.5154.8199l-.0005-.0003c-.0027.004-.0045.0085-.0071.0125,0,.0001-.0002.0002-.0002.0004h0c-.8475,1.2684-1.355,2.7818-1.3551,4.339l.0007.0862c.0165,1.3602.4639,2.7399,1.2338,3.9196-3.6393,7.3609-6.4761,13.4369-7.8314,17.0231-2.0099-.9147-4.0197-1.7668-5.9894-2.5866-.226-.0941-.4553-.2103-.6791-.3243-.5574-.2822-1.1417-.584-1.8015-.585-.3201-.0002-.6557.0729-1.0042.2513-.6096.3115-1.0276.8699-1.1113,1.4998l-.0171.2505c.0027.9414.7317,1.4845,1.2384,1.8703,1.0591.8038,2.1582,1.3665,3.2148,1.908.952.4879,1.9272.9913,2.8572,1.6596-2.641,5.1607-4.7353,9.6171-6.3336,14.4521-.3453,1.0458-.6649,2.3758-.665,3.7301,0,.866.1309,1.7427.4726,2.5593.2398.5704.7015,1.1257,1.2816,1.6625-3.9786-2.3539-7.466-5.5214-10.0605-9.3438-3.1287-4.6087-4.8201-9.83-4.8199-14.8102,0-.3417.0079-.6823.024-1.0213l-.1099-.0052.1099.0052Zm71.9688-84.9672l-.0405.0801c-.0585-.03-.1171-.0599-.1758-.0899.0767-.1525.153-.3039.2283-.4532l.0706.0244c-.0284.1462-.0562.2921-.0826.4387Zm10.7221-10.1887l.0042-.0266c.0057-.0363.0121-.0723.018-.1086.121.1409.2116.302.2102.4535l-.0216.1083-.0131.0007-.1707-.0192c-.1335-.0321-.2585-.0862-.3791-.1528l.1031.0031.0576.0017.1754-.2385.0159-.0216Zm1.1449-.5202l.0395.1624c.0011.1345-.0719.2667-.132.3462-.0296.04-.0735.0686-.1094.1042-.0583-.3071-.225-.6094-.4973-.8623-.0626-.0581-.1305-.0988-.1967-.1458.3406.0517.6665.1808.8959.3953Zm-16.4691-.1281l-.139.0182c-.2153.0012-.3539-.1465-.4275-.2559-.03-.0447-.0366-.1-.0575-.15.2593.1033.52.2019.7823.2952-.0536.0305-.1004.0778-.1584.0925h0Zm.4155-1.1676l.0397.0132.09.1804.0301.2035-.0054.0463c-.3693-.1278-.7351-.2669-1.0978-.4153.092-.073.2117-.124.3939-.1247.154-.0001.3395.0311.5494.0966Z"/>
    </g>
  </g>
</svg>