<?xml version="1.0" encoding="UTF-8"?>
<svg xmlns="http://www.w3.org/2000/svg" viewBox="0 0 165 165">
  <defs>
    <style>
      .uuid-c6a60e2f-ed92-4f7b-a72a-3186ba227a4a {
        fill: #eee7c2;
      }

      .uuid-c6a60e2f-ed92-4f7b-a72a-3186ba227a4a, .uuid-eb3ad610-cfdf-4edb-a2e9-611812d3d2f2 {
        stroke-width: 0px;
      }

      .uuid-eb3ad610-cfdf-4edb-a2e9-611812d3d2f2 {
        fill: #5e2751;
      }
    </style>
  </defs>
  <g id="uuid-291dd374-ea15-4d2f-bee9-b677d777c5ec" data-name="podklad">
    <g>
      <path class="uuid-c6a60e2f-ed92-4f7b-a72a-3186ba227a4a" d="m129.7834,133.9571c1.5205-3.6103,2.2284-7.5183,2.5185-10.9939.2511-3.0089.329-5.9018.4115-8.9642.0511-1.9116.1048-3.8722.2034-5.8786.4256,1.1244.6599,2.1764.7107,3.1819.353,6.9293-.2801,12.603-2.1179,18.972-.363,1.2575-.9776,2.5022-1.7263,3.6828Z"/>
      <path class="uuid-c6a60e2f-ed92-4f7b-a72a-3186ba227a4a" d="m106.0537,57.3212c-.0837.0767-.1676.1542-.2511.233-6.2697,5.914-11.7684,15.0317-6.6318,21.2638.7686.9323,1.2409,2.6989,1.4114,3.9285.3185,2.2901-.5313,4.5688-1.3529,6.7728l-.3345.9023c-1.2146,3.3428-2.8207,5.4879-4.9105,6.5575-2.1315,1.0923-4.727.6635-6.9134.034.0129-.3654.0033-.7196-.0238-1.0433.9942.5086,3.0243,1.2927,5.2482.6867,2.1455-.5848,3.9039-2.3101,5.2259-5.1277,1.1744-2.5027,2.8576-7.3773.9383-11.905-.087-.2056-.3172-.5465-.6364-1.0187-.7501-1.11-2.0045-2.9677-2.0045-4.0904,0-6.0512,4.4528-11.5157,6.3666-13.5844.8884-.9594,2.2126-2.2792,3.8686-3.6091Z"/>
      <path class="uuid-c6a60e2f-ed92-4f7b-a72a-3186ba227a4a" d="m116.8221,52.1841c-1.885.4229-3.7055.9604-5.4345,1.7164,1.6855-.8122,3.5129-1.438,5.4345-1.7164Z"/>
      <path class="uuid-c6a60e2f-ed92-4f7b-a72a-3186ba227a4a" d="m121.8333,52.3159c-.6623,1.0035-1.9312,3.4839-4.6855,8.9592-3.2263,6.4143-7.2417,14.3975-9.9379,18.5776-.0676.1046-.0739.2379-.0165.3485.0577.1106.17.1818.2947.1868.9544.0372,1.8528-.2393,2.7233-.5379-.7767,2.2225-1.6366,4.7645-2.3716,7.1598l-2.49,5.3896c-.2374.082-.4686.1894-.6889.3218-.8429.5075-1.4285,1.4556-1.5654,2.5361-.077.6052-.0077,1.2045.1896,1.7385-1.9361,4.5508-3.7132,9.7822-3.6765,15.0375-.4849.0417-.951.2158-1.3546.5112-.5834.4283-.9594,1.056-1.0596,1.768-.47,3.3466-.4774,6.7946-.4836,10.1289-.0031,1.405-.006,2.8099-.0417,4.2098-.1237,4.8009-.6842,10.9327-3.9516,15.7849-.1055.1571-.066.3703.0892.4786.4501.3158.9513.5348,1.4435.6427.3028.265.7084.3996,1.1656.3852.2788-.0094.5589-.0739.8208-.183,6.7557,1.0546,13.7673,1.4551,20.5785-.8032-14.5639,5.3888-22.4239,3.1535-33.2091-3.4284-1.7733-1.0827-3.0066-2.0459-3.9981-3.1228-1.5872-1.7244-2.6644-3.9247-3.5921-6.0453-1.5124-3.4581-2.097-7.2097-1.6919-10.8503.4505-4.0491,1.3761-7.4499,2.9137-10.7027,1.6797-3.5537,4.0079-6.6605,6.4955-8.6993.4255-.282.8335-.5716,1.2006-.8934.4871-.3321.9902-.6748,1.3501-1.1846.4091-.5796.6386-1.4376.7364-2.3087,2.2847.6436,4.9877,1.052,7.2809-.1228,2.2529-1.1539,3.9693-3.424,5.2472-6.9387l.3318-.8978c.852-2.2846,1.733-4.6469,1.3905-7.1118-.1923-1.3819-.7035-3.231-1.5637-4.2743-5.1671-6.2687,1.7001-15.7205,6.5725-20.3161,4.0449-3.8154,9.099-5.0434,14.528-5.9153.3405.0439.6817.1011,1.0258.1717Z"/>
      <path class="uuid-c6a60e2f-ed92-4f7b-a72a-3186ba227a4a" d="m105.7491,98.1152c-.0144.1537-.029.311-.0439.4741-.3779,4.0849-1.041,11.2478-2.2298,14.0035l-.4455-.0743c.8445-3.5029,1.555-7.5746,1.6153-11.5012.2747-.9808.5688-1.9557.8834-2.9255.0729.006.1463.0144.2206.0235Z"/>
      <path class="uuid-c6a60e2f-ed92-4f7b-a72a-3186ba227a4a" d="m105.0295,97.3807c-.0231.0009-.0458.0014-.0688.0022.2283-.7355.4667-1.4683.7151-2.1963.0463-.0235.0935-.0453.1419-.0648-.2752.7501-.5381,1.5033-.7882,2.2588Z"/>
      <path class="uuid-c6a60e2f-ed92-4f7b-a72a-3186ba227a4a" d="m100.3048,112.0638c-.0408-4.9464,1.5771-9.9064,3.4018-14.278.0558.0757.1146.1488.1767.2181.0019.1667.0072.3321.0136.4957-1.2999,4.4405-2.2689,9.0071-3.1149,13.6436l-.4772-.0794Z"/>
      <path class="uuid-c6a60e2f-ed92-4f7b-a72a-3186ba227a4a" d="m100.6582,112.8271c-.0789.4388-.1568.8779-.2338,1.3179-.0499-.4573-.0839-.9155-.1026-1.3742l.3364.0563Z"/>
      <path class="uuid-c6a60e2f-ed92-4f7b-a72a-3186ba227a4a" d="m101.6776,112.2921l-.2098-.0343c.4024-2.204.8329-4.3921,1.3134-6.5584-.4565,2.1644-.8236,4.3602-1.1035,6.5927Z"/>
      <path class="uuid-c6a60e2f-ed92-4f7b-a72a-3186ba227a4a" d="m103.7224,104.6551c-.2773,2.625-.7745,5.2174-1.3342,7.5614.3268-2.567.77-5.0837,1.3342-7.5614Z"/>
      <path class="uuid-c6a60e2f-ed92-4f7b-a72a-3186ba227a4a" d="m103.7849,95.3449c.1029-.8122.5112-1.526,1.1023-1.9421-.3676.799-.746,1.6303-1.1241,2.4886-.0082-.1796-.0017-.363.0218-.5465Z"/>
      <path class="uuid-c6a60e2f-ed92-4f7b-a72a-3186ba227a4a" d="m104.9978,113.6146c.3671.17.6626.4632.8412.8449.2461.5257.2188,1.1139-.0734,1.6134-.6817,1.1611-1.3684,2.3531-2.0423,3.5749l-.1001.1364c-4.1031,5.6175-6.4852,12.5408-6.7091,19.4939l-.0075.2561c-.0414,1.3562-.111,3.6263-.7165,4.7121-.1918.3445-.4829.5633-.8663.6513-.0099.0022-.0198.0041-.0293.0063-.3149-.0521-.6295-.106-.9436-.1604-.0902-.0154-.1813.0055-.2542.0544-.2036-.0674-.408-.1587-.6064-.2715,3.1933-4.9496,3.7497-11.0588,3.873-15.8569.0364-1.4054.0395-2.8159.0422-4.2268.0067-3.3106.0136-6.7347.4774-10.0335.0734-.5249.3511-.9877.7822-1.304.2868-.2103.6158-.3376.9594-.3748.0458,1.1987.1894,2.3984.4509,3.5895.0359.1628.1736.2788.3481.2729.1659-.0041.3064-.1256.334-.2896.1907-1.1239.3852-2.2447.586-3.3615l.2506.0417c-.1333,1.1388-.2434,2.2855-.3323,3.4458-.0135.1763.1088.3358.2834.3674.1753.0321.3458-.0721.396-.242.3055-1.0229.6196-2.1536.9224-3.3597l.2669.0449c-.0643.0939-.13.1745-.1971.2421-.1197.1192-.136.3067-.039.4451.0971.1382.2793.1866.4319.1156.6299-.2951,1.211-.4393,1.6716-.428Z"/>
      <path class="uuid-c6a60e2f-ed92-4f7b-a72a-3186ba227a4a" d="m106.1598,93.8138c-.0041.1201,0,.2385.014.3546-.019.0507-.0386.1013-.0576.1521-.0497.0078-.0991.0177-.1491.0287.064-.1786.1278-.3568.1927-.5354Z"/>
      <path class="uuid-c6a60e2f-ed92-4f7b-a72a-3186ba227a4a" d="m107.3747,97.6675c-.2415-.0312-.4849-.0729-.7291-.1151-.0477-.0086-.0957-.0168-.1438-.0249.0704-.7396.1306-1.3306.1841-1.7208.0281-.2053.0602-.4093.0966-.6129.2015.1369.4297.2239.6612.2893.0063.014.0127.0279.0187.0425.0996.513.0828,1.5224-.0877,2.1419Z"/>
      <path class="uuid-c6a60e2f-ed92-4f7b-a72a-3186ba227a4a" d="m106.9588,94.3351c.0599-.2573.1251-.513.1954-.7678.0679-.1722.1363-.3434.2051-.5153.0055.0019.011.0041.0163.006.6586.2482,1.1413.7626,1.3589,1.4475.0475.1482.1858.2479.342.2421l.5004-.0154c.7438.1341,1.4354.5497,1.8277,1.1357.1601.2388.2678.499.3224.7741-.8848-1.0093-1.997-1.3369-3.5528-1.6982l-.146-.0336c-.0552-.0118-.1106-.0245-.1659-.0372-.2261-.2763-.5357-.4581-.9036-.5379Z"/>
      <path class="uuid-c6a60e2f-ed92-4f7b-a72a-3186ba227a4a" d="m117.7199,73.9047c-.1419-.1159-.3499-.1015-.4741.0328-1.386,1.4906-2.6507,3.0207-3.8084,4.5861-.3003-.0472-.6041-.059-.8973-.0309l12.0134-26.0074c.9334.2125,1.8649.4382,2.7858.6834-3.8881,10.1496-8.823,22.4395-11.2977,27.1342-.0825-.2007-.2007-.3952-.3525-.5791-.2592-.3129-.6041-.5793-.9939-.7843.9712-1.5223,1.9999-3.0418,3.0878-4.5633.1065-.149.0787-.3554-.063-.4714Z"/>
      <path class="uuid-c6a60e2f-ed92-4f7b-a72a-3186ba227a4a" d="m112.9638,79.1743c-.7333,1.0233-1.4217,2.0608-2.0694,3.1121.0273-.136.0544-.2724.0812-.4079l1.2146-2.6291c.101-.0204.2017-.0376.3028-.0521.1527-.0218.3108-.029.4708-.0231Z"/>
      <path class="uuid-c6a60e2f-ed92-4f7b-a72a-3186ba227a4a" d="m113.0599,80.246c-1.0229,1.6766-1.9766,3.3552-2.8634,5.0416.0743-.2678.1446-.5354.2117-.8035.8103-1.4385,1.6908-2.8512,2.6517-4.2381Z"/>
      <path class="uuid-c6a60e2f-ed92-4f7b-a72a-3186ba227a4a" d="m122.6622,52.3528c.3298-.1297.7377-.1016,1.1951-.0173l-12.1544,26.3103c-.029.0077-.0585.0154-.0873.0226.1698-.7818.3597-1.5644.5882-2.3412.1477-.4084.2818-.7774.3983-1.099.213-.5865.3472-.955.4156-1.1939.0096-.0213.019-.0425.0276-.0638l-.0086-.0038c.0899-.343.0168-.3761-.1622-.4573-.1654-.0746-.3652-.0031-.4527.156-.3467.8021-.6304,1.612-.8711,2.4241-.3009.8321-.6585,1.8279-1.0451,2.9228-.0842.0295-.1683.0585-.252.0875-.7182.2492-1.4057.4876-2.1042.5683,2.7034-4.3323,6.5239-11.9267,9.6194-18.0809,2.1936-4.3607,4.4619-8.8702,4.8934-9.2345Z"/>
      <path class="uuid-c6a60e2f-ed92-4f7b-a72a-3186ba227a4a" d="m131.8193,28.5347c-.3458.4962-.5856,1.0551-.7946,1.5422-.1005.2352-.2034.4755-.3089.7215-.5875.1631-1.1815.2225-1.8229.0276-.6209-.1872-1.0156-.7952-.8987-1.3846.1935-.9707,1.5202-1.0781,2.5969-.9985l1.2282.0917Z"/>
      <path class="uuid-c6a60e2f-ed92-4f7b-a72a-3186ba227a4a" d="m135.0457,29.1926c-.0336.2556-.1311.5282-.2911.8109-.2192-.1184-.4835-.1786-.7872-.1786-.1818,0-.3775.0218-.5854.0657-.5376.1137-1.0474.3146-1.5411.5086-.0797.0312-.159.0626-.2379.0933.0204-.0475.0403-.0947.0607-.1418.258-.6011.5426-1.2659.9913-1.754l2.3925.1781c.0187.1256.0177.2652-.0017.4178Z"/>
      <path class="uuid-c6a60e2f-ed92-4f7b-a72a-3186ba227a4a" d="m141.9549,19.8031c-.3318-.6699-.8769-1.2152-1.5378-1.4838-.3227-.1314-.6649-.2039-1.0153-.2185.1872-.1124.3798-.2009.5721-.2589.1763-.0533.3467-.0801.5097-.0801.2879,0,.5544.083.796.2489.5787.3964.7328,1.0759.6753,1.7925Z"/>
      <path class="uuid-c6a60e2f-ed92-4f7b-a72a-3186ba227a4a" d="m140.4248,23.1365c-.8824.3933-1.9171.1581-2.461-.5606-.5007-.663-.5279-1.5627-.0806-2.6763.14-.348.3431-.6812.5856-.977.5779-.1791,1.1769-.1669,1.6863.0403.8404.3422,1.439,1.2784,1.4558,2.2773-.0938.247-.1962.475-.2973.6698-.1015.1971-.2787.5484-.4898.9963-.1206.0878-.2539.1648-.399.2302Z"/>
      <path class="uuid-c6a60e2f-ed92-4f7b-a72a-3186ba227a4a" d="m146.2255,27.1505c-.3091-.804-.9753-1.5001-1.8191-1.8155.3187-.2197.682-.3525,1.0645-.3525.1614,0,.3259.0231.4918.0739.653.199,1.0369.8112.9136,1.4565-.0761.3979-.2782.5503-.6508.6376Z"/>
      <path class="uuid-c6a60e2f-ed92-4f7b-a72a-3186ba227a4a" d="m143.2302,29.6323c.0902-.0957.1786-.1926.2674-.2895.3563-.3917.7253-.796,1.1937-1.1227.2628-.1836.6278-.2352,1.0162-.2842.0204.1921.0118.3847-.0295.5724-.1187.5352-.5515,1.0138-1.129,1.2491-.4609.1876-.9273.1861-1.3035,0-.0049-.0412-.0104-.0834-.0154-.1251Z"/>
      <path class="uuid-c6a60e2f-ed92-4f7b-a72a-3186ba227a4a" d="m143.3697,26.7344c.103-.2976.2556-.5827.4482-.8333.0481.0003.0889.0063.1237.0149.7007.1803,1.2826.7134,1.5745,1.3438-.4101.0539-.8542.1333-1.2235.3906-.4524.3168-.8199.6925-1.1445,1.0441-.0317-.6734.0091-1.3419.2216-1.9601Z"/>
      <path class="uuid-c6a60e2f-ed92-4f7b-a72a-3186ba227a4a" d="m134.5277,34.8133l.842-2.8584c.1093-.3698.1242-.7206.0458-1.0436-.0362-.1479-.0875-.281-.1523-.3999l.0693-.1192c.2199-.3765.3554-.7499.4019-1.1098.0213-.165.0259-.3163.0168-.4549l1.7835.1327c.1648.0114.3086-.0888.3571-.242s-.0146-.3199-.1527-.4029c-1.2136-.727-1.7095-6.0984-1.1616-7.6427.1302-.3674.3561-.712.6496-1.0024-.5244,1.3237-.4615,2.4727.1825,3.3248.6684.8829,1.8709,1.2342,2.9658.9-.3626.8376-.74,1.8107-.983,2.7135-.14.5199.0847,1.0438.5597,1.3047.4781.2628,1.0436.1714,1.4093-.2264.5726-.6241,1.0322-1.0385,1.3992-1.3095-.0173.0436-.0331.0875-.048.1314-.3204.9314-.305,1.9167-.2086,2.8747-.6806.6685-1.3011.9309-2.6699.1601-.053-.03-.1118-.0445-.1705-.0445-.0742,0-.1476.0232-.2092.0693-.1102.0834-.1609.2239-.1292.3582.3384,1.4285.4364,3.9638-.2696,4.8122-.8617,1.0356-3.3801,2.3884-4.5031,2.0608l-.0249-1.9861Z"/>
      <path class="uuid-c6a60e2f-ed92-4f7b-a72a-3186ba227a4a" d="m134.4904,31.8363l.2793-.4786c-.0028.1261-.0251.2602-.0662.4011l-.2054.6966-.0077-.6191Z"/>
      <path class="uuid-c6a60e2f-ed92-4f7b-a72a-3186ba227a4a" d="m127.5881,52.5195c-.9147-.247-1.831-.4709-2.7365-.6789l.2297-.4981c.0535-.116.0395-.2525-.0367-.3539-.0772-.1024-.2048-.1542-.33-.1355l-1.094.1617c-.2688.039-.5366.0789-.804.1189,1.3515-3.188,5.5985-13.1963,8.4108-19.7646.295-.0975.5823-.2108.8678-.3232.488-.1921.9494-.3739,1.4307-.4755.428-.0914.7016-.0543.8784.034l-.0331.0568c-.0408-.039-.0911-.0685-.1482-.0839-.149-.0417-.3077.0216-.3883.1542-.5801.9494-1.0085,1.9786-1.2721,3.0591-.0409.1672.047.34.2075.4048.1595.0648.3427.0017.4302-.1474l.6096-1.0451.0218,1.715-1.0634,3.608c-.4712,1.6004-2.5665,7.3533-5.1801,14.1937Z"/>
      <path class="uuid-c6a60e2f-ed92-4f7b-a72a-3186ba227a4a" d="m140.5155,75.8671c-.6439.8656-1.4158,1.6711-2.1622,2.4492-1.1068,1.1553-2.2515,2.349-3.0375,3.7926-.2616.4816-.4256.923-.4921,1.3302-.5417-.2136-1.1594-.247-1.8452.0508-.3679.1598-.7156.4101-1.0333.7435-4.232,4.4479-6.9722,12.2069-3.9062,18.0421.111.3797.2381.7386.3812,1.0664.5873,1.3465,2.1853,2.6653,3.7816,3.167.0326.0649.0648.1297.0964.1945-.1509,2.4994-.2161,4.9256-.2796,7.2768-.082,3.0528-.16,5.9361-.4091,8.9251-.383,4.5868-1.5052,9.9448-4.3134,14.3024-2.0738,2.3214-4.2447,4.0372-5.065,4.5222-8.1338,4.8108-16.8201,4.6894-25.1501,3.4557.1074-.1124.2017-.2348.281-.3649.5892-.9734.5465-2.1626.509-3.2128l-.0083-.2302c-.2501-7.6746,2.9029-14.9201,6.4475-21.3554l.189-.2559c1.0705-1.4486,2.1771-2.9463,2.2747-4.7711.0544-1.0283-.3594-1.5309-.7162-1.7711-.2478-.1672-.5514-.2646-.8964-.2933-.1609-.0638-.3295-.1113-.504-.1405l-.4904-.0819c1.1004-2.7406,1.725-8.5947,2.2298-14.055.0141-.1482.0271-.2918.0405-.4319.0298.0049.0602.0104.0902.0158.3543.0612.7074.1218,1.0546.1509.1509.0132.2885-.0701.3485-.2067.2715-.623.3376-1.734.2465-2.5234,1.6592.3902,2.7337.741,3.565,2.2138.0703.1251.2116.1946.353.1731.1424-.0207.2569-.1269.2882-.2674.1872-.8307.0485-1.6251-.4011-2.2963-.4976-.7438-1.3573-1.2681-2.3575-1.439l-.3172.006c-.3146-.7683-.905-1.3452-1.6852-1.6397,1.7994-4.35,4.0246-8.6229,6.7-12.8803.33.1662.6204.3839.8316.6386.3268.3947.4178.8148.27,1.2486-.0571.1676.0209.3511.1813.4264s.3517.0177.4438-.1333c2.2129-3.6183,7.7149-17.275,11.9615-28.3574,5.4843,1.5296,10.5191,3.8343,13.2375,8.418,2.5465,4.2937,2.245,10.0908-.7325,14.098Z"/>
      <path class="uuid-c6a60e2f-ed92-4f7b-a72a-3186ba227a4a" d="m127.5193,96.2939c-.0431.3389-.0698.7178-.0798,1.1235-.2566-4.5992,1.9841-9.5253,5.0098-12.7048.253-.2657.5238-.4628.8062-.5856.4229-.184.8299-.2122,1.2332-.0786-.3055.0083-.6169.0808-.9318.2177-.3753.1622-.7225.4218-1.0311.7705-2.886,3.2545-4.43,6.7265-5.0065,11.2574Z"/>
      <path class="uuid-c6a60e2f-ed92-4f7b-a72a-3186ba227a4a" d="m137.3544,86.1147l-.1443-.2402c-.2769-.4617-.8696-1.4512-1.7253-2.068.0096-.3892.1559-.8402.4415-1.365.7414-1.3625,1.8038-2.4704,2.9286-3.6439.7615-.7935,1.5486-1.6148,2.2185-2.5162,2.1318-2.8689,2.9627-6.6092,2.4359-10.1316,3.4449,4.1015,1.8492,9.6148.3028,13.4798-.3726.9309-.8012,1.8745-1.2155,2.7864-.441.9702-.8873,1.9519-1.2817,2.9503-.6906,1.3951-1.3002,2.83-1.656,4.3328-.4523-1.3623-1.2522-2.6181-2.3045-3.5844Z"/>
      <path class="uuid-c6a60e2f-ed92-4f7b-a72a-3186ba227a4a" d="m133.2619,105.8452c-.1981-.0307-.3966-.042-.5956-.0339-.019.0008-.0375.0031-.0557.0067-.4369-.6626-1.2019-1.2431-1.9438-1.807-.7294-.5542-1.484-1.1266-1.8202-1.7093-.0525-.0913-.1033-.1827-.1527-.2752-.4803-1.6927-.6957-3.9938-.4854-5.6452.558-4.3835,2.0495-7.7399,4.8371-10.8835.2412-.2722.5062-.472.7882-.594.4218-.184.8139-.2098,1.1942-.0794.2887.5475.7937.9419,1.2472,1.2966l.2829.2239c.2185.3925.411.8439.5686,1.3397.388,1.2218.9677,1.7779,1.8452,2.6191.0624.0604.1269.122.193.1858l.0008.0014c.0594.2384.1066.4791.1416.7211-3.8945.9304-7.1803,4.141-8.1329,8.0422-.5253,2.1492.4531,5.0316,2.0874,6.591Z"/>
    </g>
  </g>
  <g id="uuid-a9825738-10ef-4e73-8585-bf9600a07354" data-name="OBJEKTY">
    <path class="uuid-eb3ad610-cfdf-4edb-a2e9-611812d3d2f2" d="m97.3741,153.6721c.1573-.4197.237-.8683.2777-1.3283l1.827-4.5295c.2523.0005.518.0267.7827.0613,2.3241.3027,5.303.9561,8.4569,1.6487,4.0563.8901,8.2503,1.8107,11.3203,2.0282,5.4414.3856,10.8749-1.579,14.9149-5.3901,3.5677-3.366,5.6937-7.6847,6.4977-13.2026,1.0537-7.2263,1.1515-14.5666.2914-21.8175-.1604-1.3551-.3753-2.7796-1.065-3.9959-.399-.7024-.9445-1.2723-1.5591-1.6598.0194-.0394.0312-.0825.0348-.1278.01-.1341-.0585-.2628-.1758-.3285-1.8872-1.0628-3.2065-4.2847-2.6641-6.5044.892-3.6506,3.9662-6.6555,7.6103-7.5286.0635.0638.1491.095.2475.1022.146-.0003.2715-.091.3223-.2206.0481-.0082.0961-.0163.1441-.024.1137-.0182.2112-.0916.2602-.1963.0009-.0022.0022-.005.0031-.0077.0196-.0041.039-.0094.0577-.0176.1322-.0522.2192-.18.2192-.3223-.0009-1.9085.5304-3.7563,1.2392-5.5577.3657-.7378.7554-1.4661,1.1415-2.1876.5743-1.0741,1.1685-2.1845,1.6742-3.3044,2.2661-5.0175,3.1022-11.624-1.3457-15.1191-.0434-.0342-.0928-.0563-.1432-.0666-.3005-1.2455-.7777-2.4469-1.434-3.5537-2.8126-4.7434-8.1288-7.1648-13.5877-8.7103,2.6133-6.838,4.7052-12.5816,5.1771-14.1829l.4276-1.4515c.0129.112.0786.2112.1781.266,1.463.805,4.558-.9621,5.5488-2.1527.842-1.0112.7667-3.2868.5448-4.723,1.1429.4592,1.8958.2054,2.5109-.2782.0234.0312.0528.0588.0864.0811.5896.3856,1.3469.436,2.0794.1378.7858-.3201,1.3777-.9877,1.5455-1.7423.0607-.2755.071-.5578.038-.8352.5266-.13,1.017-.4098,1.1644-1.1801.1885-.9845-.4107-1.9529-1.3941-2.2521-1.0374-.3158-2.0209.1129-2.7011.8558-.6971.1631-1.5469.8067-2.6142,1.9695-.1781.1945-.4074.1733-.5625.088-.1526-.0839-.2917-.2633-.2238-.5148.3187-1.1829.8802-2.4991,1.3212-3.4422.5655-.4822.8954-1.1755.9204-1.9697.5249-1.4374.6019-3.0944-.6318-3.9401-.5539-.3793-1.211-.4695-1.9004-.2611-.6163.1868-1.2208.6038-1.7095,1.1503-.0729.0271-.1454.0571-.217.0892-.9119.4088-1.6126,1.1467-1.9239,2.0246-.5076,1.4311-.247,5.8932.8316,7.7645l-1.2033-.0899c-.1595-.2854-.3803-.4631-.5484-.566-.6648-.4057-1.6505-.3532-2.3449.1264-.0919.0638-.1794.1324-.2624.2048l-1.7526-.1305c-1.9184-.1429-3.1013.4096-3.3293,1.5558-.1857.9354.4197,1.8958,1.3783,2.1859.6009.1822,1.1575.1854,1.6868.0955-2.9402,6.8734-7.2653,17.0676-8.3675,19.6667-.4066.0612-.8122.1237-1.2152.188-8.7029-1.0669-16.2027,5.8642-19.12,9.0162-1.97,2.1284-6.5521,7.7595-6.5521,14.0563,0,1.3356,1.2781,3.2274,2.1238,4.4791.2633.3899.5122.7578.5724.9011,1.8143,4.2792.1976,8.9408-.9273,11.338-1.2304,2.6227-2.8363,4.2207-4.7731,4.7515-2.7578.7549-5.2927-.9395-5.3176-.9568-.1173-.0803-.271-.0803-.3892-.0024-.1179.0798-.176.2222-.1469.3608.0866.4091.1251.905.1175,1.4186-.0336-.01-.0671-.0205-.1002-.0314-.111-.0353-.2326-.0127-.3235.0607-.0908.0734-.1388.1872-.1278.3033.1604,1.6946-.3616,2.6766-1.2726,3.4919-.0069.0041-.0136.0091-.0205.0141l-.2845.1959c-.3136.2192-.6259.4571-.9354.7101-.1999.1314-.4076.2638-.6213.4005-1.1911.7596-2.5403,1.6212-3.6593,3.0379-3.6149,4.5774-7.1893,14.695-6.2073,20.3923,1.2038,6.9804,3.3298,9.7988,5.5805,12.7828.9336,1.2373,1.8985,2.5167,2.7949,4.1266.4705.8451.5865,1.8196.3191,2.673-.2048.6527-.5666,1.1148-1.075,1.3741-.4705.239-1.0062.286-1.5023.2462.1396-.0367.2918-.0789.4614-.1287.1477-.0436.2492-.1796.2492-.3336-.0005-.8656-.2887-1.7589-.5942-2.7047-.2031-.6299-.4124-1.2771-.5702-1.9915-.0343-1.6303-.894-3.3574-1.8227-4.9242-7.5365-12.7134-13.9117-26.2043-18.9493-40.0975-.0394-.1074-.0784-.217-.1192-.3268l.3163-.0852c.1515-.0398.2566-.1767.2575-.3336.0009-.1564-.1033-.294-.2542-.3362-.3237-.0897-.6061-.2525-.8285-.4691-.1201-.2439-.253-.4819-.4038-.7085.072-.0665.1391-.1377.1993-.2139.393-.4954.48-1.1343.2443-1.7997-.0398-.1128-.135-.1971-.2511-.223-.116-.0262-.2393.0096-.3235.0947-.3549.3585-.5776.7887-.6563,1.2464-.0412-.0348-.0834-.069-.1266-.1019-.1527-.1175-.3703-.0889-.4876.0629-.117.1523-.0888.3703.0629.4872.1052.0812.2036.1681.297.262-.316.1082-.6872.1482-1.0711.1051-.1269-.0141-.2461.0403-.3194.141-.0734.101-.087.2338-.0359.3475,1.2006,2.6536,2.3464,5.3194,3.4559,7.9743,4.3431,13.788,9.8764,27.2217,16.5051,40.0666.024.3889.2139.7565.5453,1.051.2365.4527.4739.9047.7129,1.356.6779,1.7716,1.3261,3.5283,1.9392,5.2549.048.135.1734.2272.3168.2312l1.3886.0414c.1146.0058.2307-.0535.2972-.1515.0668-.0979.0794-.2228.0328-.3321l-1.2237-2.8725c.7496.1582,1.7258.2167,2.5733-.2153.6812-.3472,1.1598-.9481,1.4227-1.7856.3245-1.0344.1877-2.2073-.3753-3.2183-.2646-.4764-.5348-.9232-.8072-1.3474.6472.4967,1.3822.9939,2.2389,1.5163,11.3188,6.9089,19.473,9.1133,35.199,2.9595l.2865-.107c4.13-1.5036,7.0483-4.149,9.0997-7.3016,1.8332-2.0536,3.5912-4.5803,4.348-7.2048,1.8604-6.4474,2.5018-12.1895,2.1447-19.2003-.0726-1.4261-.4846-2.9267-1.256-4.5701.2453.0276.4854.0326.7179.01.7156.2917,1.375.8832,1.8246,1.6755.6268,1.105.8208,2.3973.98,3.7348.8523,7.1905.7554,14.4697-.2893,21.6359-.7808,5.357-2.8375,9.5428-6.2869,12.7969-3.899,3.6782-9.1434,5.574-14.3884,5.2028-3.0199-.2144-7.189-1.1294-11.2211-2.014-3.1689-.6957-6.1618-1.3524-8.5158-1.6587-.2211-.0292-.4496-.0527-.6779-.0616-.0127-.0409-.0326-.0794-.0599-.1139-.0779-.0979-.2012-.1463-.3259-.1278-.4419.0693-.8095.2606-1.1108.533-.1197.0684-.2321.1513-.3373.2506-.5144.488-.6453,1.2179-.7408,1.7503l-.7537,4.16-.1187.6867-.0119.0643c-.0271.1542.0513.3074.1921.3753.1419.0679.3102.0321.4124-.0856.0726-.083.1386-.1686.1995-.2566l.3558-.6894Zm-30.7776-41.1217c2.1795,5.3877,4.4451,10.9229,6.9735,16.4547,1.2138,2.6545,2.3951,5.3601,3.5245,8.0708-3.926-7.9801-7.433-16.1732-10.498-24.5255Zm15.6222,27.475c-.0019.0041-.0036.0077-.0055.0118-.1689.3848-.2384.7783-.3053,1.1589-.0803.4532-.1496.7959-.3179,1.0369-.7386.0105-1.2674-.1962-1.9328-.6856-1.6869-4.2818-3.5305-8.6214-5.4548-12.8309-2.7972-6.1196-5.2745-12.2504-7.6701-18.1791-1.2143-3.0058-2.4506-6.0663-3.7369-9.1431-.6194-1.9684-1.2155-3.9458-1.786-5.928l.383-.1024c.048.1286.0942.2564.14.383,5.0524,13.934,11.4463,27.4642,19.0049,40.2148.7755,1.308,1.503,2.7291,1.6814,4.0638Zm52.0292-6.9613c1.5205-3.6103,2.2284-7.5183,2.5185-10.9939.2511-3.0089.329-5.9018.4115-8.9642.0511-1.9116.1048-3.8722.2034-5.8786.4256,1.1244.6599,2.1764.7107,3.1819.353,6.9293-.2801,12.603-2.1179,18.972-.363,1.2575-.9776,2.5022-1.7263,3.6828Zm-23.7298-76.6359c-.0837.0767-.1676.1542-.2511.233-6.2697,5.914-11.7684,15.0317-6.6318,21.2638.7686.9323,1.2409,2.6989,1.4114,3.9285.3185,2.2901-.5313,4.5688-1.3529,6.7728l-.3345.9023c-1.2146,3.3428-2.8207,5.4879-4.9105,6.5575-2.1315,1.0923-4.727.6635-6.9134.034.0129-.3654.0033-.7196-.0238-1.0433.9942.5086,3.0243,1.2927,5.2482.6867,2.1455-.5848,3.9039-2.3101,5.2259-5.1277,1.1744-2.5027,2.8576-7.3773.9383-11.905-.087-.2056-.3172-.5465-.6364-1.0187-.7501-1.11-2.0045-2.9677-2.0045-4.0904,0-6.0512,4.4528-11.5157,6.3666-13.5844.8884-.9594,2.2126-2.2792,3.8686-3.6091Zm10.7684-5.1371c-1.885.4229-3.7055.9604-5.4345,1.7164,1.6855-.8122,3.5129-1.438,5.4345-1.7164Zm5.0112.1319c-.6623,1.0035-1.9312,3.4839-4.6855,8.9592-3.2263,6.4143-7.2417,14.3975-9.9379,18.5776-.0676.1046-.0739.2379-.0165.3485.0577.1106.17.1818.2947.1868.9544.0372,1.8528-.2393,2.7233-.5379-.7767,2.2225-1.6366,4.7645-2.3716,7.1598l-2.49,5.3896c-.2374.082-.4686.1894-.6889.3218-.8429.5075-1.4285,1.4556-1.5654,2.5361-.077.6052-.0077,1.2045.1896,1.7385-1.9361,4.5508-3.7132,9.7822-3.6765,15.0375-.4849.0417-.951.2158-1.3546.5112-.5834.4283-.9594,1.056-1.0596,1.768-.47,3.3466-.4774,6.7946-.4836,10.1289-.0031,1.405-.006,2.8099-.0417,4.2098-.1237,4.8009-.6842,10.9327-3.9516,15.7849-.1055.1571-.066.3703.0892.4786.4501.3158.9513.5348,1.4435.6427.3028.265.7084.3996,1.1656.3852.2788-.0094.5589-.0739.8208-.183,6.7557,1.0546,13.7673,1.4551,20.5785-.8032-14.5639,5.3888-22.4239,3.1535-33.2091-3.4284-1.7733-1.0827-3.0066-2.0459-3.9981-3.1228-1.5872-1.7244-2.6644-3.9247-3.5921-6.0453-1.5124-3.4581-2.097-7.2097-1.6919-10.8503.4505-4.0491,1.3761-7.4499,2.9137-10.7027,1.6797-3.5537,4.0079-6.6605,6.4955-8.6993.4255-.282.8335-.5716,1.2006-.8934.4871-.3321.9902-.6748,1.3501-1.1846.4091-.5796.6386-1.4376.7364-2.3087,2.2847.6436,4.9877,1.052,7.2809-.1228,2.2529-1.1539,3.9693-3.424,5.2472-6.9387l.3318-.8978c.852-2.2846,1.733-4.6469,1.3905-7.1118-.1923-1.3819-.7035-3.231-1.5637-4.2743-5.1671-6.2687,1.7001-15.7205,6.5725-20.3161,4.0449-3.8154,9.099-5.0434,14.528-5.9153.3405.0439.6817.1011,1.0258.1717Zm-16.0842,45.7993c-.0144.1537-.029.311-.0439.4741-.3779,4.0849-1.041,11.2478-2.2298,14.0035l-.4455-.0743c.8445-3.5029,1.555-7.5746,1.6153-11.5012.2747-.9808.5688-1.9557.8834-2.9255.0729.006.1463.0144.2206.0235Zm-.7196-.7345c-.0231.0009-.0458.0014-.0688.0022.2283-.7355.4667-1.4683.7151-2.1963.0463-.0235.0935-.0453.1419-.0648-.2752.7501-.5381,1.5033-.7882,2.2588Zm-4.7247,14.6831c-.0408-4.9464,1.5771-9.9064,3.4018-14.278.0558.0757.1146.1488.1767.2181.0019.1667.0072.3321.0136.4957-1.2999,4.4405-2.2689,9.0071-3.1149,13.6436l-.4772-.0794Zm.3535.7632c-.0789.4388-.1568.8779-.2338,1.3179-.0499-.4573-.0839-.9155-.1026-1.3742l.3364.0563Zm1.0193-.5349l-.2098-.0343c.4024-2.204.8329-4.3921,1.3134-6.5584-.4565,2.1644-.8236,4.3602-1.1035,6.5927Zm2.0448-7.637c-.2773,2.625-.7745,5.2174-1.3342,7.5614.3268-2.567.77-5.0837,1.3342-7.5614Zm.0626-9.3103c.1029-.8122.5112-1.526,1.1023-1.9421-.3676.799-.746,1.6303-1.1241,2.4886-.0082-.1796-.0017-.363.0218-.5465Zm1.2129,18.2698c.3671.17.6626.4632.8412.8449.2461.5257.2188,1.1139-.0734,1.6134-.6817,1.1611-1.3684,2.3531-2.0423,3.5749l-.1001.1364c-4.1031,5.6175-6.4852,12.5408-6.7091,19.4939l-.0075.2561c-.0414,1.3562-.111,3.6263-.7165,4.7121-.1918.3445-.4829.5633-.8663.6513-.0099.0022-.0198.0041-.0293.0063-.3149-.0521-.6295-.106-.9436-.1604-.0902-.0154-.1813.0055-.2542.0544-.2036-.0674-.408-.1587-.6064-.2715,3.1933-4.9496,3.7497-11.0588,3.873-15.8569.0364-1.4054.0395-2.8159.0422-4.2268.0067-3.3106.0136-6.7347.4774-10.0335.0734-.5249.3511-.9877.7822-1.304.2868-.2103.6158-.3376.9594-.3748.0458,1.1987.1894,2.3984.4509,3.5895.0359.1628.1736.2788.3481.2729.1659-.0041.3064-.1256.334-.2896.1907-1.1239.3852-2.2447.586-3.3615l.2506.0417c-.1333,1.1388-.2434,2.2855-.3323,3.4458-.0135.1763.1088.3358.2834.3674.1753.0321.3458-.0721.396-.242.3055-1.0229.6196-2.1536.9224-3.3597l.2669.0449c-.0643.0939-.13.1745-.1971.2421-.1197.1192-.136.3067-.039.4451.0971.1382.2793.1866.4319.1156.6299-.2951,1.211-.4393,1.6716-.428Zm1.162-19.8008c-.0041.1201,0,.2385.014.3546-.019.0507-.0386.1013-.0576.1521-.0497.0078-.0991.0177-.1491.0287.064-.1786.1278-.3568.1927-.5354Zm1.2149,3.8537c-.2415-.0312-.4849-.0729-.7291-.1151-.0477-.0086-.0957-.0168-.1438-.0249.0704-.7396.1306-1.3306.1841-1.7208.0281-.2053.0602-.4093.0966-.6129.2015.1369.4297.2239.6612.2893.0063.014.0127.0279.0187.0425.0996.513.0828,1.5224-.0877,2.1419Zm-.4159-3.3324c.0599-.2573.1251-.513.1954-.7678.0679-.1722.1363-.3434.2051-.5153.0055.0019.011.0041.0163.006.6586.2482,1.1413.7626,1.3589,1.4475.0475.1482.1858.2479.342.2421l.5004-.0154c.7438.1341,1.4354.5497,1.8277,1.1357.1601.2388.2678.499.3224.7741-.8848-1.0093-1.997-1.3369-3.5528-1.6982l-.146-.0336c-.0552-.0118-.1106-.0245-.1659-.0372-.2261-.2763-.5357-.4581-.9036-.5379Zm10.761-20.4304c-.1419-.1159-.3499-.1015-.4741.0328-1.386,1.4906-2.6507,3.0207-3.8084,4.5861-.3003-.0472-.6041-.059-.8973-.0309l12.0134-26.0074c.9334.2125,1.8649.4382,2.7858.6834-3.8881,10.1496-8.823,22.4395-11.2977,27.1342-.0825-.2007-.2007-.3952-.3525-.5791-.2592-.3129-.6041-.5793-.9939-.7843.9712-1.5223,1.9999-3.0418,3.0878-4.5633.1065-.149.0787-.3554-.063-.4714Zm-4.7561,5.2696c-.7333,1.0233-1.4217,2.0608-2.0694,3.1121.0273-.136.0544-.2724.0812-.4079l1.2146-2.6291c.101-.0204.2017-.0376.3028-.0521.1527-.0218.3108-.029.4708-.0231Zm.0961,1.0717c-1.0229,1.6766-1.9766,3.3552-2.8634,5.0416.0743-.2678.1446-.5354.2117-.8035.8103-1.4385,1.6908-2.8512,2.6517-4.2381Zm9.6023-27.8932c.3298-.1297.7377-.1016,1.1951-.0173l-12.1544,26.3103c-.029.0077-.0585.0154-.0873.0226.1698-.7818.3597-1.5644.5882-2.3412.1477-.4084.2818-.7774.3983-1.099.213-.5865.3472-.955.4156-1.1939.0096-.0213.019-.0425.0276-.0638l-.0086-.0038c.0899-.343.0168-.3761-.1622-.4573-.1654-.0746-.3652-.0031-.4527.156-.3467.8021-.6304,1.612-.8711,2.4241-.3009.8321-.6585,1.8279-1.0451,2.9228-.0842.0295-.1683.0585-.252.0875-.7182.2492-1.4057.4876-2.1042.5683,2.7034-4.3323,6.5239-11.9267,9.6194-18.0809,2.1936-4.3607,4.4619-8.8702,4.8934-9.2345Zm9.1571-23.8181c-.3458.4962-.5856,1.0551-.7946,1.5422-.1005.2352-.2034.4755-.3089.7215-.5875.1631-1.1815.2225-1.8229.0276-.6209-.1872-1.0156-.7952-.8987-1.3846.1935-.9707,1.5202-1.0781,2.5969-.9985l1.2282.0917Zm3.2264.6579c-.0336.2556-.1311.5282-.2911.8109-.2192-.1184-.4835-.1786-.7872-.1786-.1818,0-.3775.0218-.5854.0657-.5376.1137-1.0474.3146-1.5411.5086-.0797.0312-.159.0626-.2379.0933.0204-.0475.0403-.0947.0607-.1418.258-.6011.5426-1.2659.9913-1.754l2.3925.1781c.0187.1256.0177.2652-.0017.4178Zm6.9092-9.3895c-.3318-.6699-.8769-1.2152-1.5378-1.4838-.3227-.1314-.6649-.2039-1.0153-.2185.1872-.1124.3798-.2009.5721-.2589.1763-.0533.3467-.0801.5097-.0801.2879,0,.5544.083.796.2489.5787.3964.7328,1.0759.6753,1.7925Zm-1.5301,3.3334c-.8824.3933-1.9171.1581-2.461-.5606-.5007-.663-.5279-1.5627-.0806-2.6763.14-.348.3431-.6812.5856-.977.5779-.1791,1.1769-.1669,1.6863.0403.8404.3422,1.439,1.2784,1.4558,2.2773-.0938.247-.1962.475-.2973.6698-.1015.1971-.2787.5484-.4898.9963-.1206.0878-.2539.1648-.399.2302Zm5.8006,4.014c-.3091-.804-.9753-1.5001-1.8191-1.8155.3187-.2197.682-.3525,1.0645-.3525.1614,0,.3259.0231.4918.0739.653.199,1.0369.8112.9136,1.4565-.0761.3979-.2782.5503-.6508.6376Zm-2.9953,2.4818c.0902-.0957.1786-.1926.2674-.2895.3563-.3917.7253-.796,1.1937-1.1227.2628-.1836.6278-.2352,1.0162-.2842.0204.1921.0118.3847-.0295.5724-.1187.5352-.5515,1.0138-1.129,1.2491-.4609.1876-.9273.1861-1.3035,0-.0049-.0412-.0104-.0834-.0154-.1251Zm.1396-2.8979c.103-.2976.2556-.5827.4482-.8333.0481.0003.0889.0063.1237.0149.7007.1803,1.2826.7134,1.5745,1.3438-.4101.0539-.8542.1333-1.2235.3906-.4524.3168-.8199.6925-1.1445,1.0441-.0317-.6734.0091-1.3419.2216-1.9601Zm-8.842,8.0789l.842-2.8584c.1093-.3698.1242-.7206.0458-1.0436-.0362-.1479-.0875-.281-.1523-.3999l.0693-.1192c.2199-.3765.3554-.7499.4019-1.1098.0213-.165.0259-.3163.0168-.4549l1.7835.1327c.1648.0114.3086-.0888.3571-.242s-.0146-.3199-.1527-.4029c-1.2136-.727-1.7095-6.0984-1.1616-7.6427.1302-.3674.3561-.712.6496-1.0024-.5244,1.3237-.4615,2.4727.1825,3.3248.6684.8829,1.8709,1.2342,2.9658.9-.3626.8376-.74,1.8107-.983,2.7135-.14.5199.0847,1.0438.5597,1.3047.4781.2628,1.0436.1714,1.4093-.2264.5726-.6241,1.0322-1.0385,1.3992-1.3095-.0173.0436-.0331.0875-.048.1314-.3204.9314-.305,1.9167-.2086,2.8747-.6806.6685-1.3011.9309-2.6699.1601-.053-.03-.1118-.0445-.1705-.0445-.0742,0-.1476.0232-.2092.0693-.1102.0834-.1609.2239-.1292.3582.3384,1.4285.4364,3.9638-.2696,4.8122-.8617,1.0356-3.3801,2.3884-4.5031,2.0608l-.0249-1.9861Zm-.0373-2.9771l.2793-.4786c-.0028.1261-.0251.2602-.0662.4011l-.2054.6966-.0077-.6191Zm-6.9023,20.6832c-.9147-.247-1.831-.4709-2.7365-.6789l.2297-.4981c.0535-.116.0395-.2525-.0367-.3539-.0772-.1024-.2048-.1542-.33-.1355l-1.094.1617c-.2688.039-.5366.0789-.804.1189,1.3515-3.188,5.5985-13.1963,8.4108-19.7646.295-.0975.5823-.2108.8678-.3232.488-.1921.9494-.3739,1.4307-.4755.428-.0914.7016-.0543.8784.034l-.0331.0568c-.0408-.039-.0911-.0685-.1482-.0839-.149-.0417-.3077.0216-.3883.1542-.5801.9494-1.0085,1.9786-1.2721,3.0591-.0409.1672.047.34.2075.4048.1595.0648.3427.0017.4302-.1474l.6096-1.0451.0218,1.715-1.0634,3.608c-.4712,1.6004-2.5665,7.3533-5.1801,14.1937Zm12.9274,23.3476c-.6439.8656-1.4158,1.6711-2.1622,2.4492-1.1068,1.1553-2.2515,2.349-3.0375,3.7926-.2616.4816-.4256.923-.4921,1.3302-.5417-.2136-1.1594-.247-1.8452.0508-.3679.1598-.7156.4101-1.0333.7435-4.232,4.4479-6.9722,12.2069-3.9062,18.0421.111.3797.2381.7386.3812,1.0664.5873,1.3465,2.1853,2.6653,3.7816,3.167.0326.0649.0648.1297.0964.1945-.1509,2.4994-.2161,4.9256-.2796,7.2768-.082,3.0528-.16,5.9361-.4091,8.9251-.383,4.5868-1.5052,9.9448-4.3134,14.3024-2.0738,2.3214-4.2447,4.0372-5.065,4.5222-8.1338,4.8108-16.8201,4.6894-25.1501,3.4557.1074-.1124.2017-.2348.281-.3649.5892-.9734.5465-2.1626.509-3.2128l-.0083-.2302c-.2501-7.6746,2.9029-14.9201,6.4475-21.3554l.189-.2559c1.0705-1.4486,2.1771-2.9463,2.2747-4.7711.0544-1.0283-.3594-1.5309-.7162-1.7711-.2478-.1672-.5514-.2646-.8964-.2933-.1609-.0638-.3295-.1113-.504-.1405l-.4904-.0819c1.1004-2.7406,1.725-8.5947,2.2298-14.055.0141-.1482.0271-.2918.0405-.4319.0298.0049.0602.0104.0902.0158.3543.0612.7074.1218,1.0546.1509.1509.0132.2885-.0701.3485-.2067.2715-.623.3376-1.734.2465-2.5234,1.6592.3902,2.7337.741,3.565,2.2138.0703.1251.2116.1946.353.1731.1424-.0207.2569-.1269.2882-.2674.1872-.8307.0485-1.6251-.4011-2.2963-.4976-.7438-1.3573-1.2681-2.3575-1.439l-.3172.006c-.3146-.7683-.905-1.3452-1.6852-1.6397,1.7994-4.35,4.0246-8.6229,6.7-12.8803.33.1662.6204.3839.8316.6386.3268.3947.4178.8148.27,1.2486-.0571.1676.0209.3511.1813.4264s.3517.0177.4438-.1333c2.2129-3.6183,7.7149-17.275,11.9615-28.3574,5.4843,1.5296,10.5191,3.8343,13.2375,8.418,2.5465,4.2937,2.245,10.0908-.7325,14.098Zm-12.9962,20.4268c-.0431.3389-.0698.7178-.0798,1.1235-.2566-4.5992,1.9841-9.5253,5.0098-12.7048.253-.2657.5238-.4628.8062-.5856.4229-.184.8299-.2122,1.2332-.0786-.3055.0083-.6169.0808-.9318.2177-.3753.1622-.7225.4218-1.0311.7705-2.886,3.2545-4.43,6.7265-5.0065,11.2574Zm9.8352-10.1792l-.1443-.2402c-.2769-.4617-.8696-1.4512-1.7253-2.068.0096-.3892.1559-.8402.4415-1.365.7414-1.3625,1.8038-2.4704,2.9286-3.6439.7615-.7935,1.5486-1.6148,2.2185-2.5162,2.1318-2.8689,2.9627-6.6092,2.4359-10.1316,3.4449,4.1015,1.8492,9.6148.3028,13.4798-.3726.9309-.8012,1.8745-1.2155,2.7864-.441.9702-.8873,1.9519-1.2817,2.9503-.6906,1.3951-1.3002,2.83-1.656,4.3328-.4523-1.3623-1.2522-2.6181-2.3045-3.5844Zm-4.0925,19.7305c-.1981-.0307-.3966-.042-.5956-.0339-.019.0008-.0375.0031-.0557.0067-.4369-.6626-1.2019-1.2431-1.9438-1.807-.7294-.5542-1.484-1.1266-1.8202-1.7093-.0525-.0913-.1033-.1827-.1527-.2752-.4803-1.6927-.6957-3.9938-.4854-5.6452.558-4.3835,2.0495-7.7399,4.8371-10.8835.2412-.2722.5062-.472.7882-.594.4218-.184.8139-.2098,1.1942-.0794.2887.5475.7937.9419,1.2472,1.2966l.2829.2239c.2185.3925.411.8439.5686,1.3397.388,1.2218.9677,1.7779,1.8452,2.6191.0624.0604.1269.122.193.1858l.0008.0014c.0594.2384.1066.4791.1416.7211-3.8945.9304-7.1803,4.141-8.1329,8.0422-.5253,2.1492.4531,5.0316,2.0874,6.591Z"/>
  </g>
</svg>