<?xml version="1.0" encoding="UTF-8"?>
<svg xmlns="http://www.w3.org/2000/svg" viewBox="0 0 165 165">
  <defs>
    <style>
      .uuid-e90a8da1-c883-43d7-a19e-ae35d91efb96 {
        fill: #eee7c2;
      }

      .uuid-e90a8da1-c883-43d7-a19e-ae35d91efb96, .uuid-3e9233a2-2ee9-4818-b1ed-f1536ca73939 {
        stroke-width: 0px;
      }

      .uuid-3e9233a2-2ee9-4818-b1ed-f1536ca73939 {
        fill: #5e2751;
      }
    </style>
  </defs>
  <g id="uuid-02b5b509-44f2-414b-b9fa-f6847e507fc2" data-name="podklad">
    <path class="uuid-e90a8da1-c883-43d7-a19e-ae35d91efb96" d="m85.5807,154.6215c-.9663.3759-1.9621.4702-2.8237.2826-.0377-.0352-.0734-.0736-.1076-.1152-.0811-.098-.2072-.1477-.3334-.1306-.0573.0076-.1119.0286-.1586.06-.1601-.0657-.3127-.1432-.4574-.2327-.7452-.4612-1.198-1.1857-1.3258-2.1114,2.2669.373,3.8225.6374,5.2064,2.2473Z"/>
    <path class="uuid-e90a8da1-c883-43d7-a19e-ae35d91efb96" d="m86.0663,151.4974c.3947.8448.4072,1.7725.0498,2.6144-1.5311-1.7677-3.2488-2.0754-5.5467-2.4539.0154-.0202.0289-.0423.0402-.0662l.0048-.0103c.2278-.5232.582-.9983,1.0174-1.3799.6338-.4622,1.4514-.6812,2.2189-.5222.1318.0274.2637.0641.3951.1004.1021.0283.2053.0568.3099.082.659.3819,1.1885.9455,1.5107,1.6357Z"/>
    <path class="uuid-e90a8da1-c883-43d7-a19e-ae35d91efb96" d="m129.4247,24.6155c.3607-1.6539.8015-3.6761.8673-5.6421.4823,2.1762-.1075,4.6084-.8015,6.7857l-1.1834,3.7186c.3911-1.62.7637-3.24,1.1175-4.8622Z"/>
    <path class="uuid-e90a8da1-c883-43d7-a19e-ae35d91efb96" d="m108.8224,86.4807c.0172-.1929-.1181-.3668-.3098-.3972-.1684-.0265-.3356-.0604-.502-.1003.1826-.0626.3775-.0594.5672.0442.334.1825.3847.515.3687.7617-.0121.1844-.0651.3728-.1472.5476-.1241.2641-.315.4958-.5292.6302.0115-.0404.0162-.0823.0142-.1242.3007-.394.4946-.87.5381-1.362Z"/>
    <path class="uuid-e90a8da1-c883-43d7-a19e-ae35d91efb96" d="m107.739,87.3411c-.0879-.0483-.1763-.0957-.2647-.142.0297-.2149.0437-.41.041-.5841.169.049.3398.092.5113.1291-.0605.2137-.159.4164-.2876.597Z"/>
    <path class="uuid-e90a8da1-c883-43d7-a19e-ae35d91efb96" d="m106.2401,87.6151c.0759.1735.1767.3385.2997.4921-.2185.7683-.5692,1.7204-1.0188,2.8095l-.1893.2951c-.4036.0572-.8021.1918-1.1752.3958l2.0835-3.9925Z"/>
    <path class="uuid-e90a8da1-c883-43d7-a19e-ae35d91efb96" d="m104.7342,92.1435l-.0191.0304c-.0064-.0045-.0129-.0087-.0194-.0129.0127-.0057.0262-.0117.0385-.0175Z"/>
    <path class="uuid-e90a8da1-c883-43d7-a19e-ae35d91efb96" d="m103.6041,93.1895c.0152-.028.0339-.0586.0553-.0906.1245.0452.252.0876.3811.1276l-.4412.6886c-.0077.0028-.0159.0054-.0235.0081-.1751-.2047-.0666-.5533.0283-.7337Z"/>
    <path class="uuid-e90a8da1-c883-43d7-a19e-ae35d91efb96" d="m102.909,94.2574c.0703.1165.162.2203.275.3059l-.3896.607c-.0126-.2991.0262-.6082.1146-.9129Z"/>
    <path class="uuid-e90a8da1-c883-43d7-a19e-ae35d91efb96" d="m102.0934,95.5612c.0366.2391.1002.4728.1924.6955.0526.1271.1715.2146.3084.2269.1369.0122.2696-.0529.3436-.1684l.5031-.7852c-.2466.5168-.5015,1.0454-.7629,1.5814-.0105-.0118-.0214-.0236-.0326-.035-.0796-.0821-.1919-.1226-.3046-.1102-.4109.0445-.8078.1724-1.1753.3723l.928-1.7773Z"/>
    <path class="uuid-e90a8da1-c883-43d7-a19e-ae35d91efb96" d="m101.6103,98.0459c-.0129-.0292-.0302-.057-.0502-.0813.2088-.109.4284-.1878.6544-.233.0354.0742.0495.1507.0492.2259-.1179.2396-.2367.4799-.3563.7219-.2059.2038-.4813.3572-.766.3719.0805-.2211.2049-.4201.3825-.5851.1149-.1064.15-.2761.0864-.4203Z"/>
    <path class="uuid-e90a8da1-c883-43d7-a19e-ae35d91efb96" d="m99.7338,98.4849c-.2089-.1645-.4116-.355-.6083-.5568.2177.1572.4512.2888.6951.3915l-.0868.1654Z"/>
    <path class="uuid-e90a8da1-c883-43d7-a19e-ae35d91efb96" d="m101.0325,99.7893c.0495.0023.0986.002.147-.0005-.0459.0468-.0921.093-.1381.1386-.0044-.0459-.0076-.0922-.009-.138Z"/>
    <path class="uuid-e90a8da1-c883-43d7-a19e-ae35d91efb96" d="m102.1847,99.7742c.8473-1.0262,1.528-2.3158,2.0374-3.8605l1.9931,1.0938c-.9245,1.9149-1.8469,3.8366-2.7646,5.7632-.7335-.4025-1.4573-.8821-1.9381-1.5572-.0092-.0134-.0185-.0266-.0275-.0401.239-.4767.4726-.9434.6997-1.3993Z"/>
    <path class="uuid-e90a8da1-c883-43d7-a19e-ae35d91efb96" d="m106.8636,97.3634l2.6889,1.4756c-.9198,1.8831-1.8359,3.7689-2.7481,5.6552l-2.6048-1.3307c-.0317-.0163-.0635-.0326-.0947-.0486.916-1.9239,1.8358-3.84,2.7588-5.7516Z"/>
    <path class="uuid-e90a8da1-c883-43d7-a19e-ae35d91efb96" d="m100.1506,99.5928c.0469.0191.0943.0373.1418.0539-.0059.282.0279.5678.096.8451-.1331.1021-.2695.1987-.4088.2902-.0354-.3912.0233-.7969.171-1.1891Z"/>
    <path class="uuid-e90a8da1-c883-43d7-a19e-ae35d91efb96" d="m88.5849,134.3557c-.0661-.8124-.3496-1.6256-.6234-2.4117-.2948-.8468-.5733-1.6465-.5975-2.4283-.0663-2.1366,1.0298-5.4411,2.1369-7.7671,1.6406-3.435,3.2575-6.9033,4.8752-10.372,1.6165-3.4662,3.2326-6.9328,4.8661-10.3538l.0175-.0338c.0228.1656.0583.3288.1072.4886.0329.1067.1111.1925.2145.2341.1033.0417.2199.0347.317-.0191.2533-.1403.4981-.2945.7346-.4624-.6593,1.3074-1.3285,2.6237-1.9833,3.9115-2.625,5.1648-5.3396,10.5045-7.0273,14.5014l-.4438,1.0415c-1.6676,3.8964-3.2427,7.577-2.2671,11.7231.1053.4472.2417.8873.4066,1.3176-.2294.5286-.458,1.057-.6864,1.586-.0045-.3065-.0199-.6245-.0469-.9554Z"/>
    <path class="uuid-e90a8da1-c883-43d7-a19e-ae35d91efb96" d="m103.1322,103.4389c-4.5859,9.6377-9.0825,19.4251-13.376,29.2785-.0459-.1583-.0883-.3183-.1262-.4787-.9191-3.9097.6093-7.4818,2.2278-11.2638l.4447-1.0446c1.678-3.974,4.3857-9.3013,7.0057-14.4541.6328-1.2445,1.2358-2.4344,1.8076-3.5696.5584.6663,1.2897,1.1367,2.0164,1.5323Z"/>
    <path class="uuid-e90a8da1-c883-43d7-a19e-ae35d91efb96" d="m116.3061,109.349c.1287-.2636.2566-.5267.3852-.79.3354-.0559.6443.0751.8557.2556.3013.2579.5595.758.303,1.3231l-1.5438-.7887Z"/>
    <path class="uuid-e90a8da1-c883-43d7-a19e-ae35d91efb96" d="m120.6912,111.5891l.8166-1.571c.1739-.3346.4306-.6239.7423-.8366.3001-.2048.6038-.1161.788.0352.1835.1506.329.4308.1868.7641-.3424.8042-.6889,1.5948-1.0386,2.3725l-1.4951-.7642Z"/>
    <path class="uuid-e90a8da1-c883-43d7-a19e-ae35d91efb96" d="m86.7325,147.6168c-.3264.7294-.7486,1.4886-1.4018,1.582-.1603.023-.3297.0041-.5063-.0334-.3239-.1767-.6716-.3167-1.0386-.4166.6482-1.5863,1.302-3.1697,1.9626-4.7539.2349-.4679.4654-.9108.6884-1.34.8958-1.7211,1.6677-3.2052,2.009-5.0417.4239-.989.8501-1.9784,1.2779-2.9666.4542.915,1.0402,1.7695,1.7296,2.5284-1.5815,3.4666-3.1552,6.9471-4.7206,10.4417Z"/>
    <path class="uuid-e90a8da1-c883-43d7-a19e-ae35d91efb96" d="m108.3006,135.3355c-1.1876,1.2521-2.6426,2.653-4.4303,3.5525-2.6738,1.3451-6.0196,1.394-8.7319.1275-.5825-.2717-1.1385-.6059-1.6577-.991-.374-.3442-.6611-.698-.741-.9966-.061-.228-.058-.5411-.0063-.8796.2878-.6294.5771-1.2607.8655-1.8889,3.7143,2.5801,7.0561,3.3043,9.9349,2.1514,2.3972-.9604,6.0816-5.1414,7.2972-7.7275.0591-.1258.1125-.2474.1592-.3649.0953.0419.1922.0791.2917.1121.9422.3116,1.7443.1388,2.4427-.3045-1.9581,3.0134-3.7927,5.4893-5.424,7.2096Z"/>
    <path class="uuid-e90a8da1-c883-43d7-a19e-ae35d91efb96" d="m121.8811,113.0266c-1.8635,4.0767-3.8214,7.7735-5.8383,11.0196l-.2529.4101c-.4935.8032-.9945,1.6178-1.548,2.2473-.2096-.2943-.4778-.5593-.7304-.8086-.3855-.38-.7834-.773-.9157-1.1988-.1109-.3562-.0433-.9041.1384-1.5612-.1531.6697-.0747,1.3103.5618,1.7605.0874.0618.1964.0824.3002.0575.1035-.0254.1916-.0941.2407-.1883l6.5128-12.5204,1.5314.7822Z"/>
    <path class="uuid-e90a8da1-c883-43d7-a19e-ae35d91efb96" d="m119.692,111.9083l-6.249,12.0133c-.1603-.4999.1907-1.2535.6836-2.2026l.1957-.3803c1.1573-2.3059,2.5382-5.0864,3.973-7.9738.2822-.5687.5697-1.1474.86-1.7311l.5367.2744Z"/>
    <path class="uuid-e90a8da1-c883-43d7-a19e-ae35d91efb96" d="m118.498,111.2982c-.2795.5617-.5665,1.1406-.8639,1.7382-1.4339,2.8866-2.8151,5.6656-3.9717,7.9712l-.1912.3715c-.1949.375-.4124.7961-.573,1.2213.5815-1.7385,1.7514-4.0046,2.5602-5.5725l.2469-.4788c.247-.4791.4832-.9656.713-1.4546.3695-.7861.7212-1.5786,1.0657-2.3544.2359-.5325.4724-1.0651.7146-1.5951l.2994.1532Z"/>
    <path class="uuid-e90a8da1-c883-43d7-a19e-ae35d91efb96" d="m117.5399,110.8084c-.2474.5422-.4888,1.0875-.7311,1.6323-.5543,1.2484-1.1279,2.54-1.7599,3.7704l-.2465.4781c-1.8676,3.6189-3.3751,6.7357-2.9122,8.2264.1879.6023.6523,1.0608,1.102,1.5045.2871.2834.5518.5445.7162.8104-.635.5315-1.3478.7789-2.1947.4989-.71-.235-1.2906-.7737-1.6354-1.4936-.1043-.3396-.1843-.7153-.2387-1.0806-.1205-.8122.0306-1.7383.4278-2.607,1.9219-4.2135,3.9049-8.3937,5.9158-12.535l1.5566.7952Z"/>
    <path class="uuid-e90a8da1-c883-43d7-a19e-ae35d91efb96" d="m103.8644,103.8214l2.6185,1.3377c-4.5717,9.4661-9.0501,18.9772-13.4584,28.5824-.5062.5075-.8736,1.3866-1.0099,2.204-.0749.1639-.1517.3318-.2265.4956-.692-.81-1.2606-1.7262-1.67-2.704,4.3819-10.0844,8.9763-20.0935,13.6687-29.9555.0257.0132.0514.0264.0776.0397Z"/>
    <path class="uuid-e90a8da1-c883-43d7-a19e-ae35d91efb96" d="m127.051,108.4403c1.4913.8189,2.8535,1.7797,2.7184,3.2523-.0838.9141-.7653,1.7099-1.7364,2.0268-1.6766.5481-3.2941-.0906-4.7614-.8155.873-1.6693,1.7452-3.3723,2.6156-5.1018l1.1638.6382Z"/>
    <path class="uuid-e90a8da1-c883-43d7-a19e-ae35d91efb96" d="m125.2521,107.453c-.4137.8224-.8301,1.6427-1.2449,2.4528.0675-.4719-.1108-.9395-.5008-1.2599-.4911-.4029-1.1473-.432-1.6726-.0742-.4115.2812-.7512.6632-.981,1.1058l-.8199,1.5756-.5488-.2803c.8676-1.7461,1.7559-3.5296,2.6158-5.2492l3.1522,1.7293Z"/>
    <path class="uuid-e90a8da1-c883-43d7-a19e-ae35d91efb96" d="m121.4538,105.3692c-.7727,1.5446-1.6442,3.2922-2.6269,5.2676l-.3192-.1631c.3633-.7776.1719-1.662-.4804-2.22-.2909-.2485-.6271-.3944-.9752-.4329.6273-1.2814,1.2559-2.5589,1.8857-3.8319l2.516,1.3803Z"/>
    <path class="uuid-e90a8da1-c883-43d7-a19e-ae35d91efb96" d="m116.1641,107.9566c-.1158.0493-.2298.1109-.3404.1853-.2551.1782-.4787.3869-.6763.6148l-7.6852-3.9264c.9091-1.8799,1.8222-3.7589,2.7389-5.6359l8.0892,4.4391c-.71,1.436-1.4195,2.8764-2.1262,4.3231Z"/>
    <path class="uuid-e90a8da1-c883-43d7-a19e-ae35d91efb96" d="m131.0842,103.3305c.9382.4873,1.6106.9044,1.718,1.843.1158,1.0148-.517,2.0147-1.5393,2.4317-1.6073.6562-3.1959.125-4.9101-.7313.7904-1.5786,1.5766-3.1767,2.3545-4.7782l2.377,1.2349Z"/>
    <path class="uuid-e90a8da1-c883-43d7-a19e-ae35d91efb96" d="m128.064,101.7615c-.7781,1.6024-1.5653,3.2012-2.355,4.7806-.0652-.0344-.1312-.0696-.1971-.1049l-2.9746-1.5876c.8461-1.6892,1.6556-3.296,2.3819-4.7212l3.1448,1.633Z"/>
    <path class="uuid-e90a8da1-c883-43d7-a19e-ae35d91efb96" d="m124.2653,99.7886c-.654,1.2851-1.4375,2.8377-2.3772,4.7144l-2.5348-1.3527c.7802-1.5728,1.5608-3.1384,2.3409-4.6973l2.5711,1.3357Z"/>
    <path class="uuid-e90a8da1-c883-43d7-a19e-ae35d91efb96" d="m121.0388,98.113c-.7789,1.5564-1.5585,3.1188-2.337,4.6891l-8.1403-4.345c.7518-1.5383,1.5061-3.0742,2.2634-4.6104l8.214,4.2663Z"/>
    <path class="uuid-e90a8da1-c883-43d7-a19e-ae35d91efb96" d="m112.1696,93.5064c-.7562,1.533-1.5095,3.0678-2.2599,4.6029l-2.7081-1.4458c.7402-1.5308,1.4828-3.0585,2.2263-4.5815l2.7416,1.4244Z"/>
    <path class="uuid-e90a8da1-c883-43d7-a19e-ae35d91efb96" d="m107.4976,91.0799l1.2745.662c-.7414,1.5185-1.4839,3.0462-2.2222,4.5737l-2.1069-1.1243c.0124-.0447.0247-.089.037-.1332.1764-.3752.3464-.7402.5088-1.0938.7238-.5834,1.2533-1.4132,1.4375-2.3236.0204-.1011-.0024-.2066-.063-.2904-.041-.0565-.0981-.1004-.1627-.1259l1.5369-2.3982c.215.0201.4328-.0105.6481-.094.6983-.2698,1.2433-1.0671,1.2975-1.8946.0423-.6426-.2316-1.1736-.7509-1.4576-.328-.1797-.6539-.2175-.9573-.1573,1.1819-.5539,2.4536-.161,3.7649.4756-.8706,1.7638-1.7397,3.5316-2.6085,5.3085-.4609-.2114-.9009-.4096-1.3142-.5922-.1821-.0802-.3956-.0018-.4823.1783-.0762.1473-.0139.3951.1626.4871Z"/>
    <path class="uuid-e90a8da1-c883-43d7-a19e-ae35d91efb96" d="m119.3145,89.8102c.0128-.0248.0255-.0497.0381-.0741l4.649,2.4752c-.8121,1.6135-1.6273,3.2359-2.444,4.8659-2.7182-1.3702-5.6363-2.8269-8.2961-4.1154.784-1.5875,1.5691-3.1718,2.3593-4.7579.788.4869,1.5618.9496,3.2003,1.7676.1814.0906.4011.0182.4935-.1613Z"/>
    <path class="uuid-e90a8da1-c883-43d7-a19e-ae35d91efb96" d="m114.99,87.8137c-.8011,1.6081-1.5989,3.2173-2.3931,4.8266-.9815-.4725-1.9216-.9187-2.7947-1.3242.8636-1.7671,1.7295-3.5289,2.5958-5.2837.0381.0206.0762.0406.1149.061.1691.2843.3948.5117.6509.6539.7948.4406,1.3424.7688,1.8261,1.0663Z"/>
    <path class="uuid-e90a8da1-c883-43d7-a19e-ae35d91efb96" d="m132.0141,96.834l.8376.5092c.1408.0853.2848.1684.429.2521.8576.4962,1.6667.9644,1.8204,1.8055.1867,1.02-.0546,1.8255-.6966,2.3298-.7809.613-2.0874.7018-3.177.2147-.2894-.1292-.9832-.4734-1.9762-.9735.7259-1.5047,1.4424-3.0088,2.1499-4.5104.2165.1315.4235.257.6128.3726Z"/>
    <path class="uuid-e90a8da1-c883-43d7-a19e-ae35d91efb96" d="m130.7771,96.0844c-.7138,1.5166-1.4399,3.0409-2.1729,4.5608-.6641-.3361-1.4281-.7235-2.2689-1.1501-.2822-.1433-.5714-.2898-.8674-.4402.8415-1.6398,1.5352-2.9583,1.9907-3.7632.2335-.0429.447-.1778.6088-.3907.0578-.0766.1087-.1633.146-.2474.5775.2587,1.6033.8542,2.5637,1.4306Z"/>
    <path class="uuid-e90a8da1-c883-43d7-a19e-ae35d91efb96" d="m127.3631,93.7438c-.1569.345-.3133.6913-.4697,1.0387-.0121.0268-.0208.0556-.0259.0846-.425.7277-1.0649,1.9227-2.0567,3.8551-.8266-.4194-1.697-.8599-2.5943-1.3125.817-1.6284,1.6308-3.2486,2.4417-4.8607.1618.0713.3852.1619.6404.2643.5158.2068,1.6002.6425,2.0645.9305Z"/>
    <path class="uuid-e90a8da1-c883-43d7-a19e-ae35d91efb96" d="m125.3851,91.1041c5.3966-10.7252,10.494-20.8558,15.0978-31.0863.2721-.6048.3298-1.2529.1617-1.8246-.1865-.6378-.6124-1.1504-1.197-1.4417-.641-.3194-1.4227-.3463-2.1437-.0737-2.1088.7961-4.0489,4.4686-5.0912,6.4418-2.9249,5.538-6.0175,11.6013-9.0085,17.4643-1.3926,2.7296-2.7847,5.4592-4.166,8.1478l-2.9089-1.5487c5.6103-11.2489,11.3765-22.4798,17.3357-33.7691.3123-.5922.6343-1.139,1.1367-1.3295.533-.2024,1.1615.0271,1.8129.3019.3781.1591.7605.31,1.1402.4608,2.1266.8404,4.1351,1.6344,4.8785,3.6978.8142,2.2594-.3265,5.0168-1.3331,7.4494l-.3468.8442c-1.5552,3.8578-3.18,7.4764-4.8156,10.9563-1.1911,2.5342-2.3884,4.9953-3.5681,7.4216-1.5508,3.1883-3.1475,6.4699-4.7014,9.8596-.433-.2605-1.1122-.5531-2.0946-.9478-.2315-.0929-.4362-.1747-.584-.2383.1322-.262.2638-.524.3953-.7858Z"/>
    <path class="uuid-e90a8da1-c883-43d7-a19e-ae35d91efb96" d="m129.7489,9.0091c8.6109,1.3343,16.8077,4.855,23.7032,10.1818.823.6354,1.4187,1.1862,1.8751,1.7344.3597.4313.4617.9864.2796,1.5222-.0203.0602-.0437.1179-.0704.1745-.2152.4579-.6258.7902-1.1286.9035-4.4002.9902-8.8398,3.4034-11.5874,6.2978-3.6576,3.8512-6.1894,6.8877-8.3114,11.0083-1.4441,2.8054-2.9044,5.6414-4.3774,8.5082-2.8467,3.8195-7.2575,13.1527-11.542,22.2196-1.4705,3.1127-2.8843,6.1057-4.1864,8.7698-.495.9932-.9898,1.9892-1.4848,2.9867-.0635.125-.1258.2495-.1892.3719-.06.1176-.1335.2603-.2034.4216-.1535.3094-.3046.614-.4573.9242-1.2989-.6339-3.0286-1.2399-4.6192-.3711,9.9033-18.2734,15.8068-36.8534,21.5195-54.827l1.2253-3.8521c.8652-2.7135,1.665-6.1857.1513-8.9718-.0566-.1038-.116-.2061-.1774-.3062-.2704-1.666-.9877-3.1503-2.4833-4.1454-.1682-.112-.3458-.2178-.5256-.3242-.6881-.4085-1.2824-.7619-1.3771-1.4624-.0712-.5267.202-1.073.7134-1.4239.926-.6364,2.0676-.5238,3.2536-.3404Z"/>
  </g>
  <g id="uuid-e29d6a9a-7b67-4d92-a805-b8ed36c81c3a" data-name="OBJEKTY">
    <path class="uuid-3e9233a2-2ee9-4818-b1ed-f1536ca73939" d="m80.6388,156.4667c1.0563.7367,2.6228.2474,3.7639-.4856.103-.0176.1944-.0786.2506-.1687.7316-1.1726.8178-2.5549.24-3.7922-.2369-.5078-.5673-.9586-.968-1.3364.8019-.2832,1.2765-1.1187,1.6388-1.9303,1.5256-3.4063,3.0579-6.7965,4.599-10.1761.3111.297.6395.5762.9818.8339.6607.6061,1.4909,1.1083,1.9795,1.3379,2.821,1.3259,7.1165,1.0847,9.9929-.5611,2.9891-1.7112,6.2655-5.1713,7.7901-8.2282.1697-.3406.442-.6946.7306-1.0698.4572-.5947.9285-1.2067,1.0864-1.887,2.6377-4.1015,5.4883-9.1417,8.3623-14.61,1.5521.7665,3.3897,1.4982,5.3333.8634,1.2516-.4088,2.132-1.4534,2.2423-2.6616.1382-1.5076-.9071-2.5586-1.9149-3.255.9501.1986,1.9506.1927,2.952-.2162,1.3281-.541,2.1477-1.8568,1.9939-3.1993-.1326-1.16-.8976-1.7446-1.65-2.168,1.0882.2093,2.2026-.0039,2.9748-.6099.86-.6748,1.2025-1.7558.9672-3.0438-.2153-1.1765-1.2574-1.7793-2.1769-2.3114l-1.2521-.7524c-.2394-.1461-.4666-.2842-.6817-.4141,7.5596-16.1095,13.7866-31.3907,14.611-34.7805.9327-3.8374.6149-6.6175-.9716-8.4992-2.3728-2.8137-5.6763-4.0754-7.6501-4.8297-.2498-.0956-.4768-.182-.6759-.2623l-.2578-.1047c-1.5354-.6265-2.8777-1.1738-4.9011.2567,1.1063-2.1511,2.2042-4.2843,3.2938-6.4006,2.0813-4.042,4.5788-7.0349,8.1908-10.8378,2.6525-2.7939,6.9491-5.1258,11.2132-6.0858.8182-.1843,1.467-.7689,1.7367-1.5611.2623-.7732.1086-1.6074-.4117-2.2325-.4915-.5901-1.1237-1.1763-1.9903-1.8458-6.9947-5.4022-15.3082-8.9735-24.0422-10.3268-1.2857-.1989-2.6364-.3272-3.7846.4617-.0718.0487-.1399.1008-.2048.1549.0323-.0652.0678-.1294.1064-.1911l-.6284-.3885c-.4985.806-.6103,1.8442-.3074,2.8502.4787,1.5909,1.5743,2.69,2.6338,3.7537.6763.678,1.3203,1.324,1.8047,2.081.2865,2.1301-.1859,4.7425-.7782,7.4564-4.4628,20.4608-11.9185,40.7572-22.1582,60.3224-.0936.1742-.0333.3766.1233.4794-.0508.056-.0989.1142-.1441.1739-.8039-.4066-1.536-.9693-2.1287-1.6508-.3018-.3462-.7414-.5464-1.2059-.5487-.4794-.0024-.9373.2023-1.2567.5603-.1033.1169-.2021.2376-.2958.3622-.2811.3749-.3468.8601-.1736,1.2965.1691.428.5412.7311.9936.8102,1.0973.1923,2.1616.4941,3.1842.9029l-2.2688,4.3471-1.1934-.5833c.1035-.6436-.0234-1.3301-.3579-1.8884-.0327-.0549-.0793-.1006-.1353-.1322-1.0103-.5696-2.5856-.4129-3.2309.7236-.4619.8173-.1965,1.928.6052,2.4628.4357.291.9158.3315,1.3515.1154.2974-.1481.5462-.4047.7081-.7105.4369.4649.9894.8732,1.6311,1.2039l-2.5857,4.9542c-.642-.2551-1.2111-.7682-1.5205-1.4255-.2169-.459-.674-.76-1.1932-.7864-.5203-.0262-1.0064.228-1.2685.6635-.2035.3388-.3459.7246-.4096,1.1145-.0924.5544.1528,1.0834.6394,1.3805.4965.3033,1.1164.2771,1.5794-.0659l.407-.3035c.3105.3335.6349.653.9874.915l-.805,1.5419c-1.6406,3.4351-3.2576,6.9036-4.875,10.3718-1.6164,3.4672-3.2325,6.934-4.8722,10.3657-.8627,1.8061-2.2885,5.5254-2.2085,8.1083.0278.895.338,1.7862.6381,2.6486.2708.7767.5262,1.5102.5853,2.229.0914,1.131.0436,2.0953-.1112,2.9749-.8969,2.095-1.7843,4.1946-2.6606,6.2945-.6818,1.3612-1.4,2.9287-2.0782,4.958-.7002.1891-1.3547.5557-1.8987,1.0441-.5397.4194-.9648.983-1.176,1.6326-.0273.0833-.0233.1697.0058.2456-.0745.0081-.1458.0385-.204.0888-.0822.072-.1293.1778-.1268.2878.0356,1.3834.6436,2.5093,1.7116,3.1712.1524.0936.3124.1777.4779.2501l.6919.268Zm3.0996-1.0101c-.9663.3759-1.9621.4702-2.8237.2826-.0377-.0352-.0734-.0736-.1076-.1152-.0811-.098-.2072-.1477-.3334-.1306-.0573.0076-.1119.0286-.1586.06-.1601-.0657-.3127-.1432-.4574-.2327-.7452-.4612-1.198-1.1857-1.3258-2.1114,2.2669.373,3.8225.6374,5.2064,2.2473Zm.4856-3.1241c.3947.8448.4072,1.7725.0498,2.6144-1.5311-1.7677-3.2488-2.0754-5.5467-2.4539.0154-.0202.0289-.0423.0402-.0662l.0048-.0103c.2278-.5232.582-.9983,1.0174-1.3799.6338-.4622,1.4514-.6812,2.2189-.5222.1318.0274.2637.0641.3951.1004.1021.0283.2053.0568.3099.082.659.3819,1.1885.9455,1.5107,1.6357ZM126.3576,15.2341c-.501-.5031-.989-.9922-1.4074-1.5225.1645.0981.3285.1954.4832.2985.8071.5368,1.3625,1.2299,1.7232,2.0438-.2616-.281-.5319-.5518-.799-.8199Zm1.2249,10.2166c.3607-1.6539.8015-3.6761.8673-5.6421.4823,2.1762-.1075,4.6084-.8015,6.7857l-1.1834,3.7186c.3911-1.62.7637-3.24,1.1175-4.8622Zm-20.6023,61.8651c.0172-.1929-.1181-.3668-.3098-.3972-.1684-.0265-.3356-.0604-.502-.1003.1826-.0626.3775-.0594.5672.0442.334.1825.3847.515.3687.7617-.0121.1844-.0651.3728-.1472.5476-.1241.2641-.315.4958-.5292.6302.0115-.0404.0162-.0823.0142-.1242.3007-.394.4946-.87.5381-1.362Zm-1.0834.8604c-.0879-.0483-.1763-.0957-.2647-.142.0297-.2149.0437-.41.041-.5841.169.049.3398.092.5113.1291-.0605.2137-.159.4164-.2876.597Zm-5.5892-2.1605c-.0776-.195-.0473-.4123.0788-.5808.0807-.1084.1662-.2134.2564-.3147.178-.2.4334-.3141.7007-.3124.2563.0014.4885.1062.6529.2952.6517.7484,1.4561,1.3681,2.34,1.8171-.0138.0408-.0262.0818-.0377.1233l-.1563.2995c-1.0906-.4419-2.2275-.7671-3.4003-.972-.201-.0354-.3594-.1647-.4347-.3554Zm4.0904,2.4344c.0759.1735.1767.3385.2997.4921-.2185.7683-.5692,1.7204-1.0188,2.8095l-.1893.2951c-.4036.0572-.8021.1918-1.1752.3958l2.0835-3.9925Zm-1.5059,4.5285l-.0191.0304c-.0064-.0045-.0129-.0087-.0194-.0129.0127-.0057.0262-.0117.0385-.0175Zm-4.651-.5942c-.1971.0978-.398.0759-.613-.0678-.486-.3248-.6537-.9921-.3729-1.4843.4017-.7077,1.4334-.8331,2.1399-.4898.2018.38.2793.8299.2203,1.2576-.0502-.0618-.098-.1253-.1437-.1899-.0371-.3718-.2216-.6878-.5261-.888-.1337-.0878-.3091-.0792-.434.0212-.1251.1009-.1706.27-.1131.4194.0879.2318.2009.4568.3362.6726-.0342.3068-.2408.6242-.4936.749Zm3.521,1.6401c.0152-.028.0339-.0586.0553-.0906.1245.0452.252.0876.3811.1276l-.4412.6886c-.0077.0028-.0159.0054-.0235.0081-.1751-.2047-.0666-.5533.0283-.7337Zm-.6951,1.0679c.0703.1165.162.2203.275.3059l-.3896.607c-.0126-.2991.0262-.6082.1146-.9129Zm-.8156,1.3039c.0366.2391.1002.4728.1924.6955.0526.1271.1715.2146.3084.2269.1369.0122.2696-.0529.3436-.1684l.5031-.7852c-.2466.5168-.5015,1.0454-.7629,1.5814-.0105-.0118-.0214-.0236-.0326-.035-.0796-.0821-.1919-.1226-.3046-.1102-.4109.0445-.8078.1724-1.1753.3723l.928-1.7773Zm-.4831,2.4847c-.0129-.0292-.0302-.057-.0502-.0813.2088-.109.4284-.1878.6544-.233.0354.0742.0495.1507.0492.2259-.1179.2396-.2367.4799-.3563.7219-.2059.2038-.4813.3572-.766.3719.0805-.2211.2049-.4201.3825-.5851.1149-.1064.15-.2761.0864-.4203Zm-1.8765.4389c-.2089-.1645-.4116-.355-.6083-.5568.2177.1572.4512.2888.6951.3915l-.0868.1654Zm-2.1827-.5388c-.2665.1979-.5638.1447-.7536.0286-.2278-.139-.3385-.3743-.2961-.6299.0493-.2985.1579-.5943.3147-.8541.1233-.2046.3465-.3194.5981-.3068.2504.0129.4605.1489.5621.3639.1438.3055.3292.5844.5461.8317-.1004-.0208-.208-.0001-.2961.0649l-.6753.5017Zm3.4814,1.8433c.0495.0023.0986.002.147-.0005-.0459.0468-.0921.093-.1381.1386-.0044-.0459-.0076-.0922-.009-.138Zm1.1522-.0152c.8473-1.0262,1.528-2.3158,2.0374-3.8605l1.9931,1.0938c-.9245,1.9149-1.8469,3.8366-2.7646,5.7632-.7335-.4025-1.4573-.8821-1.9381-1.5572-.0092-.0134-.0185-.0266-.0275-.0401.239-.4767.4726-.9434.6997-1.3993Zm4.679-2.4108l2.6889,1.4756c-.9198,1.8831-1.8359,3.7689-2.7481,5.6552l-2.6048-1.3307c-.0317-.0163-.0635-.0326-.0947-.0486.916-1.9239,1.8358-3.84,2.7588-5.7516Zm-6.7131,2.2294c.0469.0191.0943.0373.1418.0539-.0059.282.0279.5678.096.8451-.1331.1021-.2695.1987-.4088.2902-.0354-.3912.0233-.7969.171-1.1891Zm-11.5657,34.763c-.0661-.8124-.3496-1.6256-.6234-2.4117-.2948-.8468-.5733-1.6465-.5975-2.4283-.0663-2.1366,1.0298-5.4411,2.1369-7.7671,1.6406-3.435,3.2575-6.9033,4.8752-10.372,1.6165-3.4662,3.2326-6.9328,4.8661-10.3538l.0175-.0338c.0228.1656.0583.3288.1072.4886.0329.1067.1111.1925.2145.2341.1033.0417.2199.0347.317-.0191.2533-.1403.4981-.2945.7346-.4624-.6593,1.3074-1.3285,2.6237-1.9833,3.9115-2.625,5.1648-5.3396,10.5045-7.0273,14.5014l-.4438,1.0415c-1.6676,3.8964-3.2427,7.577-2.2671,11.7231.1053.4472.2417.8873.4066,1.3176-.2294.5286-.458,1.057-.6864,1.586-.0045-.3065-.0199-.6245-.0469-.9554Zm14.5473-30.9169c-4.5859,9.6377-9.0825,19.4251-13.376,29.2785-.0459-.1583-.0883-.3183-.1262-.4787-.9191-3.9097.6093-7.4818,2.2278-11.2638l.4447-1.0446c1.678-3.974,4.3857-9.3013,7.0057-14.4541.6328-1.2445,1.2358-2.4344,1.8076-3.5696.5584.6663,1.2897,1.1367,2.0164,1.5323Zm13.174,5.9101c.1287-.2636.2566-.5267.3852-.79.3354-.0559.6443.0751.8557.2556.3013.2579.5595.758.303,1.3231l-1.5438-.7887Zm4.3851,2.2401l.8166-1.571c.1739-.3346.4306-.6239.7423-.8366.3001-.2048.6038-.1161.788.0352.1835.1506.329.4308.1868.7641-.3424.8042-.6889,1.5948-1.0386,2.3725l-1.4951-.7642Zm-33.9588,36.0277c-.3264.7294-.7486,1.4886-1.4018,1.582-.1603.023-.3297.0041-.5063-.0334-.3239-.1767-.6716-.3167-1.0386-.4166.6482-1.5863,1.302-3.1697,1.9626-4.7539.2349-.4679.4654-.9108.6884-1.34.8958-1.7211,1.6677-3.2052,2.009-5.0417.4239-.989.8501-1.9784,1.2779-2.9666.4542.915,1.0402,1.7695,1.7296,2.5284-1.5815,3.4666-3.1552,6.9471-4.7206,10.4417Zm21.5681-12.2813c-1.1876,1.2521-2.6426,2.653-4.4303,3.5525-2.6738,1.3451-6.0196,1.394-8.7319.1275-.5825-.2717-1.1385-.6059-1.6577-.991-.374-.3442-.6611-.698-.741-.9966-.061-.228-.058-.5411-.0063-.8796.2878-.6294.5771-1.2607.8655-1.8889,3.7143,2.5801,7.0561,3.3043,9.9349,2.1514,2.3972-.9604,6.0816-5.1414,7.2972-7.7275.0591-.1258.1125-.2474.1592-.3649.0953.0419.1922.0791.2917.1121.9422.3116,1.7443.1388,2.4427-.3045-1.9581,3.0134-3.7927,5.4893-5.424,7.2096Zm13.5805-22.3089c-1.8635,4.0767-3.8214,7.7735-5.8383,11.0196l-.2529.4101c-.4935.8032-.9945,1.6178-1.548,2.2473-.2096-.2943-.4778-.5593-.7304-.8086-.3855-.38-.7834-.773-.9157-1.1988-.1109-.3562-.0433-.9041.1384-1.5612-.1531.6697-.0747,1.3103.5618,1.7605.0874.0618.1964.0824.3002.0575.1035-.0254.1916-.0941.2407-.1883l6.5128-12.5204,1.5314.7822Zm-2.1891-1.1183l-6.249,12.0133c-.1603-.4999.1907-1.2535.6836-2.2026l.1957-.3803c1.1573-2.3059,2.5382-5.0864,3.973-7.9738.2822-.5687.5697-1.1474.86-1.7311l.5367.2744Zm-1.194-.6102c-.2795.5617-.5665,1.1406-.8639,1.7382-1.4339,2.8866-2.8151,5.6656-3.9717,7.9712l-.1912.3715c-.1949.375-.4124.7961-.573,1.2213.5815-1.7385,1.7514-4.0046,2.5602-5.5725l.2469-.4788c.247-.4791.4832-.9656.713-1.4546.3695-.7861.7212-1.5786,1.0657-2.3544.2359-.5325.4724-1.0651.7146-1.5951l.2994.1532Zm-.958-.4897c-.2474.5422-.4888,1.0875-.7311,1.6323-.5543,1.2484-1.1279,2.54-1.7599,3.7704l-.2465.4781c-1.8676,3.6189-3.3751,6.7357-2.9122,8.2264.1879.6023.6523,1.0608,1.102,1.5045.2871.2834.5518.5445.7162.8104-.635.5315-1.3478.7789-2.1947.4989-.71-.235-1.2906-.7737-1.6354-1.4936-.1043-.3396-.1843-.7153-.2387-1.0806-.1205-.8122.0306-1.7383.4278-2.607,1.9219-4.2135,3.9049-8.3937,5.9158-12.535l1.5566.7952Zm-2.8378-1.4498c-.3383.5309-.5871,1.1032-.8071,1.6098l-3.8777,8.9256c-.7565,1.7406-1.6136,3.7137-1.0961,5.8411.0665.2739.1579.5346.2718.7791.2168.6698.5579,1.3125,1.0935,1.5768-.9603,2.3655-4.7131,6.7071-7.0271,7.6339-2.6617,1.0656-5.8058.3433-9.3476-2.1477,4.3353-9.4363,8.7365-18.7795,13.2286-28.0819l7.5616,3.8633Zm-10.8378-5.5373l2.6185,1.3377c-4.5717,9.4661-9.0501,18.9772-13.4584,28.5824-.5062.5075-.8736,1.3866-1.0099,2.204-.0749.1639-.1517.3318-.2265.4956-.692-.81-1.2606-1.7262-1.67-2.704,4.3819-10.0844,8.9763-20.0935,13.6687-29.9555.0257.0132.0514.0264.0776.0397Zm23.1867,4.6189c1.4913.8189,2.8535,1.7797,2.7184,3.2523-.0838.9141-.7653,1.7099-1.7364,2.0268-1.6766.5481-3.2941-.0906-4.7614-.8155.873-1.6693,1.7452-3.3723,2.6156-5.1018l1.1638.6382Zm-1.7989-.9873c-.4137.8224-.8301,1.6427-1.2449,2.4528.0675-.4719-.1108-.9395-.5008-1.2599-.4911-.4029-1.1473-.432-1.6726-.0742-.4115.2812-.7512.6632-.981,1.1058l-.8199,1.5756-.5488-.2803c.8676-1.7461,1.7559-3.5296,2.6158-5.2492l3.1522,1.7293Zm-3.7983-2.0837c-.7727,1.5446-1.6442,3.2922-2.6269,5.2676l-.3192-.1631c.3633-.7776.1719-1.662-.4804-2.22-.2909-.2485-.6271-.3944-.9752-.4329.6273-1.2814,1.2559-2.5589,1.8857-3.8319l2.516,1.3803Zm-5.2897,2.5874c-.1158.0493-.2298.1109-.3404.1853-.2551.1782-.4787.3869-.6763.6148l-7.6852-3.9264c.9091-1.8799,1.8222-3.7589,2.7389-5.6359l8.0892,4.4391c-.71,1.436-1.4195,2.8764-2.1262,4.3231Zm14.9201-4.6261c.9382.4873,1.6106.9044,1.718,1.843.1158,1.0148-.517,2.0147-1.5393,2.4317-1.6073.6562-3.1959.125-4.9101-.7313.7904-1.5786,1.5766-3.1767,2.3545-4.7782l2.377,1.2349Zm-3.0202-1.5691c-.7781,1.6024-1.5653,3.2012-2.355,4.7806-.0652-.0344-.1312-.0696-.1971-.1049l-2.9746-1.5876c.8461-1.6892,1.6556-3.296,2.3819-4.7212l3.1448,1.633Zm-3.7987-1.9728c-.654,1.2851-1.4375,2.8377-2.3772,4.7144l-2.5348-1.3527c.7802-1.5728,1.5608-3.1384,2.3409-4.6973l2.5711,1.3357Zm-3.2265-1.6757c-.7789,1.5564-1.5585,3.1188-2.337,4.6891l-8.1403-4.345c.7518-1.5383,1.5061-3.0742,2.2634-4.6104l8.214,4.2663Zm-8.8692-4.6066c-.7562,1.533-1.5095,3.0678-2.2599,4.6029l-2.7081-1.4458c.7402-1.5308,1.4828-3.0585,2.2263-4.5815l2.7416,1.4244Zm-4.6721-2.4265l1.2745.662c-.7414,1.5185-1.4839,3.0462-2.2222,4.5737l-2.1069-1.1243c.0124-.0447.0247-.089.037-.1332.1764-.3752.3464-.7402.5088-1.0938.7238-.5834,1.2533-1.4132,1.4375-2.3236.0204-.1011-.0024-.2066-.063-.2904-.041-.0565-.0981-.1004-.1627-.1259l1.5369-2.3982c.215.0201.4328-.0105.6481-.094.6983-.2698,1.2433-1.0671,1.2975-1.8946.0423-.6426-.2316-1.1736-.7509-1.4576-.328-.1797-.6539-.2175-.9573-.1573,1.1819-.5539,2.4536-.161,3.7649.4756-.8706,1.7638-1.7397,3.5316-2.6085,5.3085-.4609-.2114-.9009-.4096-1.3142-.5922-.1821-.0802-.3956-.0018-.4823.1783-.0762.1473-.0139.3951.1626.4871Zm11.817-1.2697c.0128-.0248.0255-.0497.0381-.0741l4.649,2.4752c-.8121,1.6135-1.6273,3.2359-2.444,4.8659-2.7182-1.3702-5.6363-2.8269-8.2961-4.1154.784-1.5875,1.5691-3.1718,2.3593-4.7579.788.4869,1.5618.9496,3.2003,1.7676.1814.0906.4011.0182.4935-.1613Zm-4.3245-1.9964c-.8011,1.6081-1.5989,3.2173-2.3931,4.8266-.9815-.4725-1.9216-.9187-2.7947-1.3242.8636-1.7671,1.7295-3.5289,2.5958-5.2837.0381.0206.0762.0406.1149.061.1691.2843.3948.5117.6509.6539.7948.4406,1.3424.7688,1.8261,1.0663Zm17.0241,9.0202l.8376.5092c.1408.0853.2848.1684.429.2521.8576.4962,1.6667.9644,1.8204,1.8055.1867,1.02-.0546,1.8255-.6966,2.3298-.7809.613-2.0874.7018-3.177.2147-.2894-.1292-.9832-.4734-1.9762-.9735.7259-1.5047,1.4424-3.0088,2.1499-4.5104.2165.1315.4235.257.6128.3726Zm-1.237-.7496c-.7138,1.5166-1.4399,3.0409-2.1729,4.5608-.6641-.3361-1.4281-.7235-2.2689-1.1501-.2822-.1433-.5714-.2898-.8674-.4402.8415-1.6398,1.5352-2.9583,1.9907-3.7632.2335-.0429.447-.1778.6088-.3907.0578-.0766.1087-.1633.146-.2474.5775.2587,1.6033.8542,2.5637,1.4306Zm-3.414-2.3406c-.1569.345-.3133.6913-.4697,1.0387-.0121.0268-.0208.0556-.0259.0846-.425.7277-1.0649,1.9227-2.0567,3.8551-.8266-.4194-1.697-.8599-2.5943-1.3125.817-1.6284,1.6308-3.2486,2.4417-4.8607.1618.0713.3852.1619.6404.2643.5158.2068,1.6002.6425,2.0645.9305Zm9.1307-45.7469l.2609.1061c.2021.0817.4337.1698.6881.2671,1.9071.7288,5.0994,1.9484,7.3489,4.6157,1.4249,1.6892,1.6927,4.2563.8193,7.8487-.8203,3.3731-7.0057,18.5579-14.5191,34.579-1.4391-.8616-2.2618-1.3132-2.7694-1.5081-.0135-.0968-.0382-.1914-.0746-.2804-.003-.0073-.0062-.0141-.0094-.0209,1.5825-3.4608,3.213-6.8118,4.7955-10.0644,2.8052-5.769,5.7069-11.734,8.4048-18.4248l.3435-.8384c1.058-2.5564,2.2571-5.4539,1.3461-7.9818-.8566-2.3772-3.1163-3.2706-5.3015-4.1344-.3752-.1481-.7519-.2976-1.1254-.4551-.7631-.3214-1.5741-.61-2.3615-.3112-.8049.3054-1.2401,1.1293-1.528,1.675-5.9587,11.2884-11.724,22.5182-17.3341,33.7667l-2.4165-1.2864c-.1465-.336-.032-.7493.1441-1.1501.1248-.2521.2518-.5074.3763-.7597.4738-.9335.9682-1.9298,1.4802-2.9772,5.2836-10.6049,10.5726-20.956,15.7075-30.9481.4001-.5319.7635-.9383,1.0825-1.2003,1.9621-1.6094,3.0862-1.1513,4.6417-.5169Zm-11.1087,43.1071c5.3966-10.7252,10.494-20.8558,15.0978-31.0863.2721-.6048.3298-1.2529.1617-1.8246-.1865-.6378-.6124-1.1504-1.197-1.4417-.641-.3194-1.4227-.3463-2.1437-.0737-2.1088.7961-4.0489,4.4686-5.0912,6.4418-2.9249,5.538-6.0175,11.6013-9.0085,17.4643-1.3926,2.7296-2.7847,5.4592-4.166,8.1478l-2.9089-1.5487c5.6103-11.2489,11.3765-22.4798,17.3357-33.7691.3123-.5922.6343-1.139,1.1367-1.3295.533-.2024,1.1615.0271,1.8129.3019.3781.1591.7605.31,1.1402.4608,2.1266.8404,4.1351,1.6344,4.8785,3.6978.8142,2.2594-.3265,5.0168-1.3331,7.4494l-.3468.8442c-1.5552,3.8578-3.18,7.4764-4.8156,10.9563-1.1911,2.5342-2.3884,4.9953-3.5681,7.4216-1.5508,3.1883-3.1475,6.4699-4.7014,9.8596-.433-.2605-1.1122-.5531-2.0946-.9478-.2315-.0929-.4362-.1747-.584-.2383.1322-.262.2638-.524.3953-.7858Zm-1.0515.4475l-4.6435-2.4725c1.3831-2.6925,2.7782-5.4261,4.1722-8.1598,2.9894-5.861,6.0808-11.9217,9.0039-17.4546.9254-1.7525,2.8515-5.3987,4.6978-6.0962.5298-.2001,1.0964-.1839,1.5542.0441.4044.2017.6871.5432.8179.9883.1181.4029.0732.8698-.1269,1.3136-.9707,2.1579-1.9628,4.3095-2.9761,6.4654-3.7849,8.0524-7.8537,16.1384-12.1077,24.5924-.1303.259-.2607.5196-.3918.7793Zm5.4152-82.5424c8.6109,1.3343,16.8077,4.855,23.7032,10.1818.823.6354,1.4187,1.1862,1.8751,1.7344.3597.4313.4617.9864.2796,1.5222-.0203.0602-.0437.1179-.0704.1745-.2152.4579-.6258.7902-1.1286.9035-4.4002.9902-8.8398,3.4034-11.5874,6.2978-3.6576,3.8512-6.1894,6.8877-8.3114,11.0083-1.4441,2.8054-2.9044,5.6414-4.3774,8.5082-2.8467,3.8195-7.2575,13.1527-11.542,22.2196-1.4705,3.1127-2.8843,6.1057-4.1864,8.7698-.495.9932-.9898,1.9892-1.4848,2.9867-.0635.125-.1258.2495-.1892.3719-.06.1176-.1335.2603-.2034.4216-.1535.3094-.3046.614-.4573.9242-1.2989-.6339-3.0286-1.2399-4.6192-.3711,9.9033-18.2734,15.8068-36.8534,21.5195-54.827l1.2253-3.8521c.8652-2.7135,1.665-6.1857.1513-8.9718-.0566-.1038-.116-.2061-.1774-.3062-.2704-1.666-.9877-3.1503-2.4833-4.1454-.1682-.112-.3458-.2178-.5256-.3242-.6881-.4085-1.2824-.7619-1.3771-1.4624-.0712-.5267.202-1.073.7134-1.4239.926-.6364,2.0676-.5238,3.2536-.3404Z"/>
  </g>
</svg>