<?xml version="1.0" encoding="UTF-8"?>
<svg xmlns="http://www.w3.org/2000/svg" viewBox="0 0 165 165">
  <defs>
    <style>
      .uuid-cd220ba1-da8e-4384-81c2-331907d8ba85 {
        fill: #eee7c2;
      }

      .uuid-cd220ba1-da8e-4384-81c2-331907d8ba85, .uuid-fd6b6e89-d76f-43c6-b740-853f0633c8b8 {
        stroke-width: 0px;
      }

      .uuid-fd6b6e89-d76f-43c6-b740-853f0633c8b8 {
        fill: #5e2751;
      }
    </style>
  </defs>
  <g id="uuid-4b3062e9-1411-491d-a1e1-f2cf16130000" data-name="podklad">
    <path class="uuid-cd220ba1-da8e-4384-81c2-331907d8ba85" d="m97.8924,141.6482c-.1234.2381-.254.4903-.3803.7551-.0387-.1912-.0532-.388-.0396-.5812.0688-.9586.6144-1.8561,1.1427-2.7244l.0695-.1151c3.6136-5.9529,5.2561-11.5677,4.8818-16.6896-.0382-.5209.1618-1.0162.5479-1.3584.3278-.2898.7489-.4299,1.179-.3958-.0269.1931.0906.3788.2833.4344.2.058.4103-.0495.4815-.2452.0041-.0122.0079-.0224.012-.0346.636.1535,1.2634.3504,1.8733.5872-.3254.911-.4618,1.5018-.3778,1.7181.0003.0006.0007.0019.001.0026-3.6744,7.0635-7.0068,13.4921-9.6743,18.6469Z"/>
    <path class="uuid-cd220ba1-da8e-4384-81c2-331907d8ba85" d="m109.1744,107.7508c.987-.3482,2.22-1.2787,2.6666-2.3827.014-.0351.0277-.0708.04-.106.1873.3345.2636.7494.2083,1.1751-.3627.7092-.7156,1.4011-1.0556,2.0722-.2508.2906-.5267.5712-.8082.8575-.2409.2455-.4819.491-.7095.7441-.2524.2819-.4886.5748-.7104.8774-.2028-.1522-.4024-.3099-.5986-.4712-.2129-.1823-.4217-.3643-.627-.543.126-.3348.2479-.6792.3709-1.027.0817-.2314.1635-.4634.247-.6937.286-.2052.6141-.375.9764-.5027Z"/>
    <path class="uuid-cd220ba1-da8e-4384-81c2-331907d8ba85" d="m108.6462,107.1053c.4829-1.1267,1.0746-2.1008,1.966-2.5873.2015-.0065.4058.0275.6039.1193-.0128.1402-.0494.2854-.1095.434-.3551.877-1.3964,1.6502-2.1962,1.9327-.0899.0314-.1777.0656-.2642.1013Z"/>
    <path class="uuid-cd220ba1-da8e-4384-81c2-331907d8ba85" d="m112.8532,106.6806c.0005-.0047.0011-.0083.0018-.012.9083-1.7756,1.8837-3.6644,2.9134-5.64.5128.2096,1.0202.4326,1.5205.6692-2.1079,4.1139-3.9994,7.8803-5.544,11.0712-.5311-.2523-1.0488-.5329-1.5516-.8388.4663-.9345.9642-1.9236,1.491-2.9625.5465-.6441,1.0024-1.3657,1.1689-2.2871Z"/>
    <path class="uuid-cd220ba1-da8e-4384-81c2-331907d8ba85" d="m144.0058,51.497c-3.691,6.7827-8.809,16.2344-14.0443,26.0494-.4167-.1887-.8357-.369-1.2579-.5383,5.2949-9.5126,10.6686-18.7431,15.0827-25.5605.0741.014.1473.0304.2195.0493Z"/>
    <path class="uuid-cd220ba1-da8e-4384-81c2-331907d8ba85" d="m121.7332,97.9001c-.7409,1.4259-1.4542,2.7988-2.1301,4.0993-.046-.0258-.0921-.0517-.1379-.0775,4.4605-8.507,8.4822-16.1263,12.0111-22.7591.0013.0004.0021.0012.0031.0015-3.4105,6.5408-6.8265,13.1157-9.7462,18.7357Z"/>
    <path class="uuid-cd220ba1-da8e-4384-81c2-331907d8ba85" d="m132.1817,79.5315c.1519.0806.3037.1617.4549.243.0813.0443.1633.0888.2456.1333-4.7746,9.6185-9.5887,19.1507-11.635,23.0765-.3155-.2021-.6346-.399-.9567-.5896.6744-1.2978,1.3923-2.6795,2.1456-4.1296,2.9197-5.62,6.3353-12.1945,9.7456-18.7337Z"/>
    <path class="uuid-cd220ba1-da8e-4384-81c2-331907d8ba85" d="m110.8557,121.6763c-.0288.0448-.0568.0893-.0856.1342-.3273-.2039-.6641-.3963-1.0083-.5754,1.3742-1.8413,2.5473-3.8248,3.6594-5.8056.5127.026,1.0176-.031,1.4941-.2048-1.3539,2.215-2.7266,4.3642-4.0596,6.4516Z"/>
    <path class="uuid-cd220ba1-da8e-4384-81c2-331907d8ba85" d="m110.9987,122.9246c.0964.0816.1788.1693.2317.2666.2259.4151-.0439,1.0182-.8017,1.7919-.8345.8519-1.6338,1.7353-2.3978,2.6481.991-1.6028,1.9878-3.1714,2.9678-4.7067Z"/>
    <path class="uuid-cd220ba1-da8e-4384-81c2-331907d8ba85" d="m111.8509,114.2989c.0572-.1182.1149-.2361.1728-.3562.0732.0279.1466.0542.2205.0801-.0599.1145-.1208.2314-.1805.346-.0711-.0228-.1426-.0459-.2128-.0699Z"/>
    <path class="uuid-cd220ba1-da8e-4384-81c2-331907d8ba85" d="m111.6923,115.0805c-.6832,1.3095-1.3612,2.611-2.0284,3.8922.4936-1.1112,1.1133-2.4404,1.841-3.9563.0623.0221.1244.0435.1874.0642Z"/>
    <path class="uuid-cd220ba1-da8e-4384-81c2-331907d8ba85" d="m112.6823,113.1825c-.0796-.0333-.1596-.0658-.2392-.099,1.5279-3.1234,3.4183-6.8669,5.5618-11.0365.1323.067.2637.134.3951.2027-1.9267,3.6757-3.8443,7.3434-5.7177,10.9328Z"/>
    <path class="uuid-cd220ba1-da8e-4384-81c2-331907d8ba85" d="m113.1081,114.2688c.0158.0037.0322.0071.0486.0103-.0577.1033-.1147.2056-.1721.309-.0441-.0066-.088-.0138-.1316-.0219.0556-.1072.1097-.2112.1654-.3184.0299.0073.0599.0141.0897.0209Z"/>
    <path class="uuid-cd220ba1-da8e-4384-81c2-331907d8ba85" d="m112.5745,115.3191c-.3661.6481-.7391,1.2951-1.1246,1.9373.3427-.6577.6829-1.3102,1.0211-1.9596.0347.0079.0691.0151.1035.0223Z"/>
    <path class="uuid-cd220ba1-da8e-4384-81c2-331907d8ba85" d="m113.865,114.6347c.0308-.0551.0611-.1097.0917-.1649.118.0354.236.0702.3552.1033-.1456.031-.2948.0511-.447.0616Z"/>
    <path class="uuid-cd220ba1-da8e-4384-81c2-331907d8ba85" d="m113.6099,113.4608c-.0104.0188-.0206.0371-.0311.056-.0503-.0175-.1009-.0345-.1512-.0526,1.9601-3.7559,3.8502-7.3696,5.6695-10.8405.0466.026.0939.0523.1404.0784-2.9604,5.6957-5.1341,9.8676-5.6275,10.7586Z"/>
    <path class="uuid-cd220ba1-da8e-4384-81c2-331907d8ba85" d="m118.7679,101.5478c-.1332-.0694-.2666-.1377-.4004-.2051,3.4916-6.7795,7.6228-14.6302,11.9503-22.7555.1507.072.3008.1453.4506.2192-3.8017,7.1445-7.9166,14.9522-12.0005,22.7414Z"/>
    <path class="uuid-cd220ba1-da8e-4384-81c2-331907d8ba85" d="m129.5881,78.2473c-4.1399,7.7672-8.335,15.7283-11.9376,22.7452-.4989-.2361-1.0033-.4598-1.5143-.6693,3.6162-6.9229,7.8635-14.8474,12.1791-22.6165.4263.169.8508.35,1.2728.5406Z"/>
    <path class="uuid-cd220ba1-da8e-4384-81c2-331907d8ba85" d="m108.6653,112.6567c.096-.1678.1955-.3338.2986-.4975.0567.0435.1138.0862.1709.1294-.0868.1746-.1722.3471-.2568.5176-.0714-.0485-.1423-.0986-.2127-.1495Z"/>
    <path class="uuid-cd220ba1-da8e-4384-81c2-331907d8ba85" d="m108.5236,113.5236c-.534,1.084-1.0135,2.0706-1.4307,2.9464.3189-1.0653.7034-2.115,1.1965-3.1064.0757.0533.1544.1065.2342.16Z"/>
    <path class="uuid-cd220ba1-da8e-4384-81c2-331907d8ba85" d="m109.1981,113.9376c.1219.0694.2473.1383.3763.2068.3783.2003.7916.4071,1.2267.5943-1.1358,2.3969-2.0196,4.3732-2.5788,5.8007-.6044-.2344-1.2249-.4317-1.8543-.5884.5294-1.2501,1.5079-3.3265,2.8301-6.0133Z"/>
    <path class="uuid-cd220ba1-da8e-4384-81c2-331907d8ba85" d="m109.4486,111.4495c.0965-.1311.1955-.2597.2979-.3865-.0741.1479-.1476.2943-.2199.4395-.0262-.0176-.0521-.0356-.078-.053Z"/>
    <path class="uuid-cd220ba1-da8e-4384-81c2-331907d8ba85" d="m109.9455,113.4445c-.1291-.0684-.2616-.1414-.3958-.2187.077-.1562.1553-.3142.2346-.4738.4901.3322,1.0015.6356,1.539.8917-.0613.1276-.1217.254-.1819.3792-.4233-.1816-.828-.3838-1.1959-.5784Z"/>
    <path class="uuid-cd220ba1-da8e-4384-81c2-331907d8ba85" d="m107.6943,111.1209c.2123.1821.4282.3644.6487.5448-.1025.1612-.201.3238-.2965.4884-.3862-.3556-.7045-.7505-.8828-1.1736.0351-.0744.0691-.1495.102-.2246.141.1244.2841.2461.4286.365Z"/>
    <path class="uuid-cd220ba1-da8e-4384-81c2-331907d8ba85" d="m98.636,141.934c3.4845-6.7323,6.8269-13.1749,10.0107-19.2942.2132-.2521.4211-.507.6251-.7659.3672.1862.725.3883,1.072.6043-1.3572,2.1267-2.7474,4.3174-4.1116,6.5774-.9664,1.6013-2.0176,3.4373-2.9417,5.4115-1.6755,2.9511-3.0256,6.0864-4.0152,9.3431-.3591.0934-.6903.0425-.9867-.1522-.1204-.0787-.2313-.1803-.3301-.2981.1902-.4833.4366-.9597.6774-1.4259Z"/>
    <path class="uuid-cd220ba1-da8e-4384-81c2-331907d8ba85" d="m100.3167,143.1422c.2194-.6714.4547-1.3374.7047-1.9962-.0444.2347-.0848.4701-.121.7055-.0755.4942-.2818.9414-.5837,1.2908Z"/>
    <path class="uuid-cd220ba1-da8e-4384-81c2-331907d8ba85" d="m98.9924,144.78c-.0675-.0467-.1348-.0933-.2031-.1392.0795.006.1601.007.2416.0028-.0118.0418-.024.0835-.0354.1254-.0008.0035-.0019.0075-.0031.011Z"/>
    <path class="uuid-cd220ba1-da8e-4384-81c2-331907d8ba85" d="m97.6328,145.1789c-.0029-.0336-.0056-.0669-.0073-.1006-.0035-.065-.0047-.1303-.0042-.195.4652.2051.9666.575,1.4366.9243-.3814-.0094-.8521-.2555-1.4251-.6288Z"/>
    <path class="uuid-cd220ba1-da8e-4384-81c2-331907d8ba85" d="m99.4191,146.5742c.0479-.0101.0955-.0229.1431-.0386.0456.071.0931.1427.1434.2152-.0961-.058-.1911-.1172-.2865-.1766Z"/>
    <path class="uuid-cd220ba1-da8e-4384-81c2-331907d8ba85" d="m135.4908,81.5199c1.4937.9186,2.6737,1.6432,3.8589,3.5089,1.8061,2.8428,2.0821,5.3526.9519,8.6644-.4619,1.3524-1.1721,2.6725-2.1706,4.0345-.8244,1.1247-3.2636,4.8398-2.2634,8.1717-1.0265-.2946-2.1371-.5518-3.2586-.4995-2.244.1046-4.532,1.5032-6.1209,3.741-1.4107,1.9877-2.1658,4.3054-2.8959,6.5465-.817,2.5068-.5782,6.862,1.9944,8.5186.0484.031.0964.0619.1439.0915-.0109.0056-.0213.0113-.0313.0178-.1115.0704-.1809.191-.1856.3224-.0485,1.48.0105,3.0142.0675,4.4975.085,2.1994.1729,4.4725-.0955,6.5719-.2684,2.0952-1.1355,4.5131-2.2093,6.1606-2.7365,4.1973-7.2803,6.8712-12.4667,7.336-3.1978.2863-6.3983-.2505-9.1741-1.4602-.6606-.6023-1.1236-1.1817-1.4254-1.6571.0337-.0645.0496-.1376.0449-.2117-.0085-.1201-.071-.23-.1697-.2986-.0756-.0523-.1529-.1076-.232-.1654-.082-.2048-.1108-.354-.0951-.4283.0534-.1897.1074-.3792.1634-.5681.042-.0196.0835-.04.1254-.0618.8661-.4532,1.4779-1.3441,1.6364-2.381.3743-2.4481,1.2557-4.8815,2.3112-7.1402,1.9197-3.377,4.2724-6.5086,7.0001-9.2942.3834-.3917,1.5509-1.584.932-2.7244-.1265-.2324-.3087-.4119-.4993-.56.0315-.0499.0639-.1001.0956-.1499,1.5177-2.3768,3.0874-4.8342,4.6239-7.3797.0627-.1037.0737-.2287.0327-.3411.0921-.0987.1774-.2031.2572-.3092,1.3229-.4565,2.4492-1.3777,2.8828-2.7674.0697-.2245.1194-.4564.1682-.688.0786-.3731.1536-.7251.3198-1.0202.0493-.087.1146-.1681.1906-.2384.1922.0216.375.0853.5331.1913.2486.1665.3898.4038.4639.6805-.1826,2.2259-.7336,4.39-1.6399,6.4377-.1363.3085-.2809.6146-.4258.9202-.4465.9465-.9088,1.9243-1.1347,2.9827-.3616,1.6919.0216,3.2682,1.0245,4.2162.6304.5947,1.5822.8726,2.484.723.7669-.1274,1.3677-.5363,1.6934-1.1534.0946-.179.0386-.4007-.1297-.5136-.1694-.113-.3946-.0804-.5245.0748-.4437.5305-1.0779.4615-1.4169.3737-.9127-.2385-1.7149-1.0611-1.8769-1.9176-.2659-1.4081.357-2.8497.9597-4.244.1044-.2413.2082-.4817.3074-.7208.7762-1.8746,1.2802-3.849,1.4979-5.8673.033-.3078.0899-.8343-.0195-1.3661.0068-.0893.0133-.1787.0189-.2684.0214-.3423-.0424-.663-.1852-.9269-.2307-.4288-.6075-.6667-1.0585-.6712-.2796-.0025-.5701.0905-.828.2518-.4041.0193-.8156.1501-1.1867.3905-1.0617.6866-1.4839,1.794-1.8923,2.8656-.2154.5659-.4239,1.1122-.7167,1.5719-.4895.146-1.0062.2208-1.517.2249.6663-1.2334,2.676-5.0909,5.496-10.5167.4233.2526.8419.5145,1.2541.7862.0928.0618.2086.08.3169.0527.1084-.0278.1997-.1001.2519-.1992,1.9654-3.7498,6.9208-13.5478,11.8337-23.4419.0327.0187.0654.0373.0987.0556.6606.4622,1.2665.8346,1.8107,1.1686Z"/>
    <path class="uuid-cd220ba1-da8e-4384-81c2-331907d8ba85" d="m117.0922,112.8833c.1104-.2584.2109-.5222.3104-.783.3691-.9682.7187-1.8847,1.5128-2.4362-.0905.2617-.1473.5288-.2023.7899-.044.2072-.0873.415-.1501.6162-.243.7796-.7822,1.3874-1.4708,1.8131Z"/>
    <path class="uuid-cd220ba1-da8e-4384-81c2-331907d8ba85" d="m141.3963,62.5042c-2.2145,4.6347-5.1662,10.6538-8.1621,16.6936-.074-.0407-.1481-.0803-.2216-.1203-.1547-.0831-.3094-.1663-.4646-.2484,3.6997-7.0933,7.371-14.1028,10.3716-19.7616-.5003,1.1133-1.0066,2.261-1.5233,3.4368Z"/>
    <path class="uuid-cd220ba1-da8e-4384-81c2-331907d8ba85" d="m131.1411,78.1064c-.1501-.074-.2999-.1467-.4504-.2191,4.6559-8.7361,9.523-17.7614,14.0471-26.0774.1072.0688.2088.1466.3033.2356.078.0737.1504.1531.2184.237-3.0286,5.1816-8.1747,14.661-14.1184,25.8239Z"/>
    <path class="uuid-cd220ba1-da8e-4384-81c2-331907d8ba85" d="m146.0966,50.8699c-.0097-.0212-.0187-.0423-.028-.0634l.0614.0081c-.0106.0176-.0225.0377-.0333.0552Z"/>
    <path class="uuid-cd220ba1-da8e-4384-81c2-331907d8ba85" d="m149.5943,46.6911c.0094-.0116.0191-.0242.0283-.0363.0278-.0038.0551-.0066.0829-.0097-.0375.0141-.0744.03-.1112.046Z"/>
    <path class="uuid-cd220ba1-da8e-4384-81c2-331907d8ba85" d="m149.1707,45.9326c-.6064.1383-1.1861.4224-1.6693.8071.5172-.9473,1.0286-1.8823,1.5319-2.8021.0904-.1648.0519-.3679-.0864-.4886.7885-.1174,1.4906-.0207,2.1157.2889-.8303.9122-1.4427,1.629-1.8919,2.1947Z"/>
    <path class="uuid-cd220ba1-da8e-4384-81c2-331907d8ba85" d="m148.6728,39.9039c.1029-.2401.2046-.479.3124-.67.2364-.4165.3784-.8637.5159-1.2955.1411-.4447.2746-.8649.4993-1.2275.0877-.1422.3273-.1837.4624-.1955.3289-.0289.7119.0389,1.0588.1557.393.1322.7396.3263.908.5148.2017.2254.2379.5947.2616,1.0186l.0964,1.7354c-.0326.019-.0623.0423-.0883.0695-.0407.0425-.0786.0874-.1135.1346-.0532-.0239-.1128-.0364-.1748-.0344-.1756.0058-.3264.1269-.3702.2969l-.4177,1.6147-1.2037-.3406c-.5965-.2831-1.1978-.4913-1.7981-.5069l-.5495-.155c.2396-.272.4171-.6854.601-1.1148Z"/>
    <path class="uuid-cd220ba1-da8e-4384-81c2-331907d8ba85" d="m144.2967,47.1898c.5126-.8146,1.0232-1.6268,1.4809-2.4273.9223-.5743,1.7643-.9664,2.532-1.1774-1.4154,1.8039-3.0783,4.193-4.9114,7.0098-.3662-.0305-.7404-.0262-1.1129-.0032.5753-1.1202,1.3031-2.2768,2.0114-3.4018Z"/>
    <path class="uuid-cd220ba1-da8e-4384-81c2-331907d8ba85" d="m141.5976,51.6412c.0223-.0039.0444-.0096.0657-.0177.099-.0359.1798-.1106.2239-.2054.3365-.0328.6779-.0543,1.0111-.0517-4.396,6.824-9.7065,15.957-14.9367,25.3573-.0919-.0337-.1835-.0667-.2754-.0992,6.4567-11.0318,12.835-22.1836,13.9114-24.9832Z"/>
    <path class="uuid-cd220ba1-da8e-4384-81c2-331907d8ba85" d="m127.2781,77.3217c.0977.0339.1958.0686.2935.1037-4.3144,7.7705-8.5566,15.6863-12.1696,22.6055-.4184-.1604-.8392-.3118-1.2637-.4547l-.0412-.0139c2.2442-3.7487,7.7009-12.8863,13.181-22.2406Z"/>
    <path class="uuid-cd220ba1-da8e-4384-81c2-331907d8ba85" d="m88.241,118.8054c.5113-.5895,1.2675-1.2753,2.0673-2.0022,1.9551-1.775,4.3361-3.9382,5.1163-6.3767.2159.1942.4749.3462.7725.4507,1.2061.4221,2.8815-.0089,3.9831-.6331,2.7653-1.5672,5.1258-3.8153,6.8261-6.5008,1.191-1.8805,1.7488-3.5692,1.7051-5.163-.0519-1.9259-1.1156-3.6587-2.633-4.3606,1.2822-3.816,2.6337-7.7364,4.9541-11.0837,2.6318-3.7949,6.2561-6.221,9.9436-6.6565,1.857-.219,3.706.0456,5.5232.591-4.4615,7.6181-9.2663,15.7148-13.337,22.5109-.0622.1039-.0737.2303-.0307.344.0426.113.1179.1978.2506.2369.5567.177,1.1064.3691,1.6504.5755-.8042,1.5436-1.5773,3.0376-2.3094,4.4626-.1387-.364-.3572-.6872-.6452-.9373-.0306-.0266-.0617-.0523-.0934-.0772-.0321-.1842-.091-.3631-.1769-.5354-.0759-.1536-.243-.2403-.4121-.2155-.3765.0554-.7172.1631-1.0269.314-.5539.0693-1.1399.3306-1.7146.7799-1.5832,1.2383-2.4302,3.075-3.249,4.8507-.3814.8272-.7757,1.6823-1.2364,2.4545-.9326,1.563-2.5789,2.7905-4.0966,3.0528-.8977.1553-1.6762-.033-2.3135-.5593-.1362-.1112-.3275-.1211-.473-.0234-.1457.0976-.2099.2793-.1579.4467.2337.7519.7704,1.3004,1.5528,1.585,1.2497.4576,3.0682.1766,4.4067-.6835,1.4921-.9584,2.7482-2.2866,3.6353-3.8246.2324.3562.5446.7038.9351,1.0429-1.1234,2.2113-1.7199,4.686-2.1981,6.8887-.6794-.0836-1.3526.1238-1.8706.5824-.5724.5073-.8686,1.2394-.8125,2.009.3621,4.9537-1.2423,10.4113-4.7688,16.2207l-.0695.1145c-.577.9485-1.1738,1.9289-1.2556,3.0795-.0427.5934.1081,1.2029.3952,1.7051-.0482.1489-.0911.3007-.1275.4542-.2831.0029-.5632.0765-.833.2473-.118-.0691-.2347-.1329-.3498-.1885-1.9581-.9501-3.9-1.9954-5.7735-3.106-2.9749-1.7653-6.4735-4.2666-7.1254-7.972-.4041-2.2973,1.0851-9.1646,5.3724-14.1004Z"/>
    <path class="uuid-cd220ba1-da8e-4384-81c2-331907d8ba85" d="m106.2875,110.8415c.0068.0285.0141.0571.0218.0858-.8285,1.6428-2.103,3.0651-3.6503,4.0589-.9281.5959-2.1506.874-3.1239.7445.2195-.0025.4436-.0236.672-.0628,1.7321-.2997,3.5978-1.6774,4.6421-3.4285.4822-.8076.8853-1.6825,1.2754-2.5276.6499-1.4106,1.2717-2.7589,2.2235-3.815-.3146.5849-.5758,1.2252-.8143,1.8684-.2708.2207-.507.471-.7037.7476-.5448.7646-.7274,1.5487-.5427,2.3288Z"/>
  </g>
  <g id="uuid-5839356a-63ab-4c9c-83ca-91aa6e175015" data-name="OBJEKTY">
    <path class="uuid-fd6b6e89-d76f-43c6-b740-853f0633c8b8" d="m106.202,150.5497c3.1444.4694,7.2907.1278,12.5285-2.1435,1.6861-.7311,3.2996-2.0432,4.6659-3.7934,1.628-2.0851,2.4191-4.5679,3.2149-7.3632.5516-1.9366.6243-4.1661.6943-6.3225.0626-1.9234.1272-3.912.5389-5.6182.0422-.1755-.0394-.3561-.1959-.4409.072-.0177.1387-.0552.1922-.1108.1046-.1093.138-.2693.0855-.4112-.2471-.6686-.5707-1.3133-.8836-1.937-1.0897-2.1705-2.2163-4.415-.6209-8.4663,2.5908-6.5773,6.7581-6.4702,10.0992-5.6426.1234.0301.2544-.0005.3516-.0828.097-.0825.1486-.2068.1381-.3336-.2179-2.7083.378-4.3694,1.5537-6.4868,2.1162-3.8102,3.8339-7.2715,3.4191-11.0503-.6099-5.5588-5.6525-9.2594-9.8739-11.6621,2.8194-5.0351,5.244-10.5578,7.5911-15.9028.1201-.2736.2392-.5454.3584-.816,1.8196-3.8102,3.1562-6.7163,3.6337-7.981.0055-.0146.0102-.0293.0139-.0445.4046-.0061.6336-.2136.7509-.3758.1664-.1163.2961-.259.3877-.4266.3101-.57.117-1.2951-.1951-2.0428.152-.2803.2992-.5513.4417-.8129.313.3239.7003.597,1.1415.8017.9346.4338,1.5523.3741,2.2089.2472.3946.2816.8744.5456,1.4309.5545.477.0079.9652-.247,1.2436-.6499.0379-.0555.0707-.1114.0987-.1685.0731-.0321.1365-.0865.1797-.1576l.1581-.2607c.0822-.1359.0759-.3082-.0167-.4363-.4065-.5673-1.1472-.8706-1.9341-.7903-.2944.0301-.5676.1098-.8091.232l-3.1231-.4272c.3365-.6113.6388-1.1544.9026-1.6206.0584-.103.0661-.2231.0286-.3294.2693-.0794.5956-.3355.9945-.6695.3442-.287.938-.3887,1.468-.4617.3455-.0478.6621.0784,1.005.2559-.0197.1264.0226.2578.1197.3494,1.0727,1.0096,2.8005,1.2525,4.1103.5774.1076-.0559.1839-.1578.2074-.2764.0864-.4446-.0328-.923-.3267-1.3129-.294-.39-.7212-.6352-1.173-.6744-.2811-.0242-.5671.0327-.8292.1599-.1527-.0138-.3101-.0117-.4694.006-.3877.044-.7412.1802-1.0295.3879-.6983-.4628-1.3642-.7589-2.3926-.7827.466-.5589,1.0332-1.2087,1.6907-1.9223.0259-.0283.0465-.059.0634-.092.4956.1106.9955.2013,1.497.2736.2054.0294.3991-.1055.4433-.3081.0438-.2034-.0741-.4093-.2759-.4642-.47-.138-.9581-.3763-1.4418-.6389.0109-.023.0195-.0468.0265-.0723l.2016-.7798c.146.2796.3676.5058.6383.6406.13.0644.2771.0534.3945-.0243.1179-.0776.1857-.2117.1774-.3524l-.0042-.0822c.2258.0401.4582.0419.6872-.001.1506-.0272.2718-.1396.3109-.2884.1258-.4733-.0339-1.0079-.4171-1.3942-.2007-.2033-.4416-.3443-.6983-.4165l-.0973-1.7531c-.0232-.4189-.0586-1.0516-.4626-1.5026-.5145-.5738-1.7415-1.009-2.6267-.9307-.6252.0551-.9249.3391-1.0661.5675-.2762.4461-.4309.9332-.5809,1.4039-.1196.3773-.2331.7343-.4014,1.0566-.0331-.2636-.1703-.5066-.4015-.6857-.4304-.334-1.0225-.344-1.4091-.0244-.1071.0883-.1601.2263-.1395.3635l.0674.4495c-.0675.0155-.1319.0483-.1857.0989-.1594.1497-.1667.4006-.017.5601.066.0697.1821.1932.345.2997l.1227.8226-.8035-.2268c-.1884-.053-.3875.0397-.4682.218-.0809.1789-.019.3894.1456.4954.3996.2594.8098.5032,1.2285.7323-.5719.5543-1.1587,1.5-1.6434,2.3443l-.1447.0935c-.4817.3166-.9361.6155-1.3954.564-.5068-.056-.8643-.5022-1.2791-1.0185-.0903-.1122-.1832-.228-.2807-.3425.003-.0334.0063-.0671.0085-.1007.0248-.3159-.116-.6152-.3768-.7999-.2596-.1844-.5888-.2183-.8782-.0905-.0238.0099-.0479.0215-.0712.0333-.1398-.0187-.2813.0383-.3685.154-.0728.0965-.1356.2002-.1879.3097-.1447.1846-.2531.3978-.3086.62-.0996.3972-.0237.7824.2133,1.084.0661.0833.1638.1381.2703.1494,1.0189.1057,2.0036.3743,2.9312.7998-.674,1.3028-1.4998,2.5214-2.4603,3.6302-.7498-.4284-1.3028-.6717-1.9858-.8531-.0992-.2715-.2987-.4984-.5686-.6301-.387-.1891-.8427-.1419-1.1859.1237-.1323.1027-.2508.2144-.355.3336-.1457.0589-.2878.149-.4139.2837-.3541.3753-.4287.8969-.1956,1.3613.0623.1229.1419.2336.2357.329.295.6089,1.0148.874,1.6288.8174.455-.0416.8203-.25,1.0269-.5649l1.8405.8919c-.7682,2.1351-6.89,12.8805-13.9737,24.9873-1.9674-.6113-3.9838-.9158-6.0277-.6747-3.9133.462-7.7407,3.0101-10.5017,6.9921-2.4564,3.5436-3.8378,7.6584-5.1735,11.6374-.0695.2078.042.4318.2492.5015,1.4027.472,2.415,2.0255,2.4624,3.7782.0389,1.4315-.4784,2.974-1.5827,4.7174-1.6307,2.5758-3.8952,4.7325-6.5475,6.2358-.915.5185-2.3482.9221-3.3299.5742-.4176-.1464-.6962-.4064-.8515-.7962-.0664-.1657-.2355-.2673-.4143-.2462-.1779.0208-.3196.1585-.3454.3357-.3695,2.5228-2.9771,4.8915-5.0723,6.7943-.8183.7429-1.5912,1.4451-2.1332,2.0689-4.1376,4.7633-6.0536,11.9219-5.5545,14.7571.7075,4.0233,4.3806,6.6646,7.5014,8.5161,1.8922,1.1224,3.8539,2.1782,5.8318,3.137.3662.1784.7679.4563,1.1931.7509.0502.0349.101.07.1517.1051.0462.0422.0929.0835.1394.1254.1817.9012.6541,1.6941,1.0696,2.3114,1.0854.7466,2.5583,1.6063,4.4099,2.3014,2.2828.857,4.3273,1.1582,5.8166,1.2595Zm41.8268-100.2009c-.0395.0646-.0746.1318-.1055.2011-.0096.0219-.0169.0434-.0229.0653-.4079.0459-.7835.0046-1.3338-.2503-.1767-.0823-.3423-.1774-.4943-.2841l1.9565.2681Zm5.5182-4.007c.0143-.0257.0251-.0521.0333-.0793.0955.1422.1502.298.16.4517-.2515.1035-.5181.1675-.7891.193.2457-.1212.4531-.3065.5958-.5654Zm-1.2684-.235c.0191-.018.0395-.0357.0598-.0523.1071.0294.2059.0709.2956.125-.1426.0823-.3237.1174-.516.1191.0439-.068.0976-.1328.1606-.1918Zm-.5639-6.2197c.0897.0907.175.218.2116.3596-.0932-.009-.186-.0283-.2759-.0574l-.0209-.3777c.0312.0241.0599.0495.0852.0756Zm-6.1897-1.8658c-.0429.0913-.124.1627-.2103.1887l-.09-.6042c.0795.006.1638.0355.2322.089.146.113.1088.2404.0681.3266Zm-6.5303,5.1148c-.0602-.005-.1625-.0312-.1738-.1583-.0163-.1865.0056-.3665.0625-.5274.1281.0824.2488.1862.3657.3046-.016.0852-.035.1697-.0569.2535-.0315.1229-.1374.133-.1974.1276Zm-3.5842,5.7083c-.1363.0162-.2556-.0179-.3528-.079-.0704-.2897.0176-.5708.1696-.8058.1223-.0101.2789.0022.482.0378.1488.0261.2881.0518.4201.0787-.0475.2964-.2071.7082-.7189.7682Zm-39.5181,91.804c-.1234.2381-.254.4903-.3803.7551-.0387-.1912-.0532-.388-.0396-.5812.0688-.9586.6144-1.8561,1.1427-2.7244l.0695-.1151c3.6136-5.9529,5.2561-11.5677,4.8818-16.6896-.0382-.5209.1618-1.0162.5479-1.3584.3278-.2898.7489-.4299,1.179-.3958-.0269.1931.0906.3788.2833.4344.2.058.4103-.0495.4815-.2452.0041-.0122.0079-.0224.012-.0346.636.1535,1.2634.3504,1.8733.5872-.3254.911-.4618,1.5018-.3778,1.7181.0003.0006.0007.0019.001.0026-3.6744,7.0635-7.0068,13.4921-9.6743,18.6469Zm11.282-33.8975c.987-.3482,2.22-1.2787,2.6666-2.3827.014-.0351.0277-.0708.04-.106.1873.3345.2636.7494.2083,1.1751-.3627.7092-.7156,1.4011-1.0556,2.0722-.2508.2906-.5267.5712-.8082.8575-.2409.2455-.4819.491-.7095.7441-.2524.2819-.4886.5748-.7104.8774-.2028-.1522-.4024-.3099-.5986-.4712-.2129-.1823-.4217-.3643-.627-.543.126-.3348.2479-.6792.3709-1.027.0817-.2314.1635-.4634.247-.6937.286-.2052.6141-.375.9764-.5027Zm-.5282-.6455c.4829-1.1267,1.0746-2.1008,1.966-2.5873.2015-.0065.4058.0275.6039.1193-.0128.1402-.0494.2854-.1095.434-.3551.877-1.3964,1.6502-2.1962,1.9327-.0899.0314-.1777.0656-.2642.1013Zm4.207-.4247c.0005-.0047.0011-.0083.0018-.012.9083-1.7756,1.8837-3.6644,2.9134-5.64.5128.2096,1.0202.4326,1.5205.6692-2.1079,4.1139-3.9994,7.8803-5.544,11.0712-.5311-.2523-1.0488-.5329-1.5516-.8388.4663-.9345.9642-1.9236,1.491-2.9625.5465-.6441,1.0024-1.3657,1.1689-2.2871Zm31.1526-55.1836c-3.691,6.7827-8.809,16.2344-14.0443,26.0494-.4167-.1887-.8357-.369-1.2579-.5383,5.2949-9.5126,10.6686-18.7431,15.0827-25.5605.0741.014.1473.0304.2195.0493Zm.241-.7578c.3294-.5035.6538-.9945.9713-1.4682-.2647.4854-.5397.9898-.8235,1.5119-.0489-.0159-.098-.0303-.1477-.0437Zm-22.5137,47.1608c-.7409,1.4259-1.4542,2.7988-2.1301,4.0993-.046-.0258-.0921-.0517-.1379-.0775,4.4605-8.507,8.4822-16.1263,12.0111-22.7591.0013.0004.0021.0012.0031.0015-3.4105,6.5408-6.8265,13.1157-9.7462,18.7357Zm10.4485-18.3686c.1519.0806.3037.1617.4549.243.0813.0443.1633.0888.2456.1333-4.7746,9.6185-9.5887,19.1507-11.635,23.0765-.3155-.2021-.6346-.399-.9567-.5896.6744-1.2978,1.3923-2.6795,2.1456-4.1296,2.9197-5.62,6.3353-12.1945,9.7456-18.7337Zm-21.326,42.1448c-.0288.0448-.0568.0893-.0856.1342-.3273-.2039-.6641-.3963-1.0083-.5754,1.3742-1.8413,2.5473-3.8248,3.6594-5.8056.5127.026,1.0176-.031,1.4941-.2048-1.3539,2.215-2.7266,4.3642-4.0596,6.4516Zm.1429,1.2483c.0964.0816.1788.1693.2317.2666.2259.4151-.0439,1.0182-.8017,1.7919-.8345.8519-1.6338,1.7353-2.3978,2.6481.991-1.6028,1.9878-3.1714,2.9678-4.7067Zm.8523-8.6258c.0572-.1182.1149-.2361.1728-.3562.0732.0279.1466.0542.2205.0801-.0599.1145-.1208.2314-.1805.346-.0711-.0228-.1426-.0459-.2128-.0699Zm-.1586.7817c-.6832,1.3095-1.3612,2.611-2.0284,3.8922.4936-1.1112,1.1133-2.4404,1.841-3.9563.0623.0221.1244.0435.1874.0642Zm.99-1.898c-.0796-.0333-.1596-.0658-.2392-.099,1.5279-3.1234,3.4183-6.8669,5.5618-11.0365.1323.067.2637.134.3951.2027-1.9267,3.6757-3.8443,7.3434-5.7177,10.9328Zm.4258,1.0863c.0158.0037.0322.0071.0486.0103-.0577.1033-.1147.2056-.1721.309-.0441-.0066-.088-.0138-.1316-.0219.0556-.1072.1097-.2112.1654-.3184.0299.0073.0599.0141.0897.0209Zm-.5336,1.0503c-.3661.6481-.7391,1.2951-1.1246,1.9373.3427-.6577.6829-1.3102,1.0211-1.9596.0347.0079.0691.0151.1035.0223Zm1.2905-.6844c.0308-.0551.0611-.1097.0917-.1649.118.0354.236.0702.3552.1033-.1456.031-.2948.0511-.447.0616Zm-.2551-1.1739c-.0104.0188-.0206.0371-.0311.056-.0503-.0175-.1009-.0345-.1512-.0526,1.9601-3.7559,3.8502-7.3696,5.6695-10.8405.0466.026.0939.0523.1404.0784-2.9604,5.6957-5.1341,9.8676-5.6275,10.7586Zm5.158-11.9131c-.1332-.0694-.2666-.1377-.4004-.2051,3.4916-6.7795,7.6228-14.6302,11.9503-22.7555.1507.072.3008.1453.4506.2192-3.8017,7.1445-7.9166,14.9522-12.0005,22.7414Zm10.8202-23.3005c-4.1399,7.7672-8.335,15.7283-11.9376,22.7452-.4989-.2361-1.0033-.4598-1.5143-.6693,3.6162-6.9229,7.8635-14.8474,12.1791-22.6165.4263.169.8508.35,1.2728.5406Zm-20.9228,34.4094c.096-.1678.1955-.3338.2986-.4975.0567.0435.1138.0862.1709.1294-.0868.1746-.1722.3471-.2568.5176-.0714-.0485-.1423-.0986-.2127-.1495Zm-.1418.8669c-.534,1.084-1.0135,2.0706-1.4307,2.9464.3189-1.0653.7034-2.115,1.1965-3.1064.0757.0533.1544.1065.2342.16Zm.6746.414c.1219.0694.2473.1383.3763.2068.3783.2003.7916.4071,1.2267.5943-1.1358,2.3969-2.0196,4.3732-2.5788,5.8007-.6044-.2344-1.2249-.4317-1.8543-.5884.5294-1.2501,1.5079-3.3265,2.8301-6.0133Zm.2505-2.4881c.0965-.1311.1955-.2597.2979-.3865-.0741.1479-.1476.2943-.2199.4395-.0262-.0176-.0521-.0356-.078-.053Zm.4969,1.995c-.1291-.0684-.2616-.1414-.3958-.2187.077-.1562.1553-.3142.2346-.4738.4901.3322,1.0015.6356,1.539.8917-.0613.1276-.1217.254-.1819.3792-.4233-.1816-.828-.3838-1.1959-.5784Zm-2.2512-2.3236c.2123.1821.4282.3644.6487.5448-.1025.1612-.201.3238-.2965.4884-.3862-.3556-.7045-.7505-.8828-1.1736.0351-.0744.0691-.1495.102-.2246.141.1244.2841.2461.4286.365Zm-9.0583,30.8131c3.4845-6.7323,6.8269-13.1749,10.0107-19.2942.2132-.2521.4211-.507.6251-.7659.3672.1862.725.3883,1.072.6043-1.3572,2.1267-2.7474,4.3174-4.1116,6.5774-.9664,1.6013-2.0176,3.4373-2.9417,5.4115-1.6755,2.9511-3.0256,6.0864-4.0152,9.3431-.3591.0934-.6903.0425-.9867-.1522-.1204-.0787-.2313-.1803-.3301-.2981.1902-.4833.4366-.9597.6774-1.4259Zm1.6807,1.2082c.2194-.6714.4547-1.3374.7047-1.9962-.0444.2347-.0848.4701-.121.7055-.0755.4942-.2818.9414-.5837,1.2908Zm-1.3243,1.6378c-.0675-.0467-.1348-.0933-.2031-.1392.0795.006.1601.007.2416.0028-.0118.0418-.024.0835-.0354.1254-.0008.0035-.0019.0075-.0031.011Zm-1.3596.3989c-.0029-.0336-.0056-.0669-.0073-.1006-.0035-.065-.0047-.1303-.0042-.195.4652.2051.9666.575,1.4366.9243-.3814-.0094-.8521-.2555-1.4251-.6288Zm.9999,2.367c-.1842-.274-.381-.585-.5519-.9228.9545.6952,2.0016,1.2945,3.1148,1.7901.0312.0279.0631.0556.0951.0838.5124.4471,1.254,1.0051,2.2379,1.5325-2.683-.9616-4.4426-1.8105-4.8959-2.4836Zm.7865-.9717c.0479-.0101.0955-.0229.1431-.0386.0456.071.0931.1427.1434.2152-.0961-.058-.1911-.1172-.2865-.1766Zm29.0948-14.6732c-.0688,2.1087-.1396,4.2889-.6646,6.1319-.7726,2.713-1.5376,5.1202-3.0771,7.0922-1.2852,1.6461-2.7918,2.8754-4.357,3.5539-8.0134,3.4754-13.3018,2.3713-16.4044.7245,2.1905.5844,4.5318.7988,6.8695.5889,5.4297-.4859,10.1895-3.29,13.0594-7.692,1.134-1.7395,2.0492-4.2885,2.3314-6.4928.2769-2.1642.1877-4.4717.1017-6.7023-.0493-1.2725-.0996-2.5825-.0812-3.853l2.709,1.194c-.3646,1.7045-.4271,3.6094-.4868,5.4547Zm14.6819-40.4686c.3895,3.5472-1.2748,6.8903-3.3242,10.5797-1.172,2.111-1.8022,3.7998-1.6842,6.3961-3.3295-.7203-7.7996-.6178-10.5027,6.2443-1.7256,4.3804-.4636,6.894.6496,9.1116.1855.3688.3649.7267.5281,1.0848-1.003-.3163-1.681-.5581-2.8473-1.3091-2.0208-1.3015-2.5021-5.0536-1.6701-7.6066.7118-2.1852,1.4481-4.4445,2.7893-6.3333,1.4487-2.0413,3.5091-3.3153,5.5114-3.4085,1.2743-.0591,2.5423.3256,3.7681.6976.1506.0458.3139-.0023.4164-.122.102-.1194.1238-.2881.055-.4302-1.5086-3.1111,1.0612-7.0173,1.8848-8.1406,1.0471-1.4286,1.7931-2.8172,2.2809-4.2475,1.0374-3.0394.9735-5.4545-.275-8.0022,1.2758,1.5795,2.1907,3.399,2.4198,5.4859Zm-7.7051-9.9125c1.4937.9186,2.6737,1.6432,3.8589,3.5089,1.8061,2.8428,2.0821,5.3526.9519,8.6644-.4619,1.3524-1.1721,2.6725-2.1706,4.0345-.8244,1.1247-3.2636,4.8398-2.2634,8.1717-1.0265-.2946-2.1371-.5518-3.2586-.4995-2.244.1046-4.532,1.5032-6.1209,3.741-1.4107,1.9877-2.1658,4.3054-2.8959,6.5465-.817,2.5068-.5782,6.862,1.9944,8.5186.0484.031.0964.0619.1439.0915-.0109.0056-.0213.0113-.0313.0178-.1115.0704-.1809.191-.1856.3224-.0485,1.48.0105,3.0142.0675,4.4975.085,2.1994.1729,4.4725-.0955,6.5719-.2684,2.0952-1.1355,4.5131-2.2093,6.1606-2.7365,4.1973-7.2803,6.8712-12.4667,7.336-3.1978.2863-6.3983-.2505-9.1741-1.4602-.6606-.6023-1.1236-1.1817-1.4254-1.6571.0337-.0645.0496-.1376.0449-.2117-.0085-.1201-.071-.23-.1697-.2986-.0756-.0523-.1529-.1076-.232-.1654-.082-.2048-.1108-.354-.0951-.4283.0534-.1897.1074-.3792.1634-.5681.042-.0196.0835-.04.1254-.0618.8661-.4532,1.4779-1.3441,1.6364-2.381.3743-2.4481,1.2557-4.8815,2.3112-7.1402,1.9197-3.377,4.2724-6.5086,7.0001-9.2942.3834-.3917,1.5509-1.584.932-2.7244-.1265-.2324-.3087-.4119-.4993-.56.0315-.0499.0639-.1001.0956-.1499,1.5177-2.3768,3.0874-4.8342,4.6239-7.3797.0627-.1037.0737-.2287.0327-.3411.0921-.0987.1774-.2031.2572-.3092,1.3229-.4565,2.4492-1.3777,2.8828-2.7674.0697-.2245.1194-.4564.1682-.688.0786-.3731.1536-.7251.3198-1.0202.0493-.087.1146-.1681.1906-.2384.1922.0216.375.0853.5331.1913.2486.1665.3898.4038.4639.6805-.1826,2.2259-.7336,4.39-1.6399,6.4377-.1363.3085-.2809.6146-.4258.9202-.4465.9465-.9088,1.9243-1.1347,2.9827-.3616,1.6919.0216,3.2682,1.0245,4.2162.6304.5947,1.5822.8726,2.484.723.7669-.1274,1.3677-.5363,1.6934-1.1534.0946-.179.0386-.4007-.1297-.5136-.1694-.113-.3946-.0804-.5245.0748-.4437.5305-1.0779.4615-1.4169.3737-.9127-.2385-1.7149-1.0611-1.8769-1.9176-.2659-1.4081.357-2.8497.9597-4.244.1044-.2413.2082-.4817.3074-.7208.7762-1.8746,1.2802-3.849,1.4979-5.8673.033-.3078.0899-.8343-.0195-1.3661.0068-.0893.0133-.1787.0189-.2684.0214-.3423-.0424-.663-.1852-.9269-.2307-.4288-.6075-.6667-1.0585-.6712-.2796-.0025-.5701.0905-.828.2518-.4041.0193-.8156.1501-1.1867.3905-1.0617.6866-1.4839,1.794-1.8923,2.8656-.2154.5659-.4239,1.1122-.7167,1.5719-.4895.146-1.0062.2208-1.517.2249.6663-1.2334,2.676-5.0909,5.496-10.5167.4233.2526.8419.5145,1.2541.7862.0928.0618.2086.08.3169.0527.1084-.0278.1997-.1001.2519-.1992,1.9654-3.7498,6.9208-13.5478,11.8337-23.4419.0327.0187.0654.0373.0987.0556.6606.4622,1.2665.8346,1.8107,1.1686Zm-18.3986,31.3634c.1104-.2584.2109-.5222.3104-.783.3691-.9682.7187-1.8847,1.5128-2.4362-.0905.2617-.1473.5288-.2023.7899-.044.2072-.0873.415-.1501.6162-.243.7796-.7822,1.3874-1.4708,1.8131Zm24.3042-50.3791c-2.2145,4.6347-5.1662,10.6538-8.1621,16.6936-.074-.0407-.1481-.0803-.2216-.1203-.1547-.0831-.3094-.1663-.4646-.2484,3.6997-7.0933,7.371-14.1028,10.3716-19.7616-.5003,1.1133-1.0066,2.261-1.5233,3.4368Zm-10.2552,15.6022c-.1501-.074-.2999-.1467-.4504-.2191,4.6559-8.7361,9.523-17.7614,14.0471-26.0774.1072.0688.2088.1466.3033.2356.078.0737.1504.1531.2184.237-3.0286,5.1816-8.1747,14.661-14.1184,25.8239Zm13.9767-26.995c.0411-.075.0827-.1516.1232-.2268.0623.1518.13.3048.1993.4574-.1036-.085-.2113-.1615-.3225-.2306Zm.6257-1.149c.1532-.2815.3055-.5606.4577-.8402-.0083.309.0374.6177.1366.9214l-.5943-.0812Zm.3531.9076c-.0097-.0212-.0187-.0423-.028-.0634l.0614.0081c-.0106.0176-.0225.0377-.0333.0552Zm-.5198,3.2142c.0924-.1728.1843-.343.2745-.5106.0288.1689.031.3163.0058.4228-.0794.0349-.1733.0644-.2803.0878Zm2.4178-5.9934c-.1761.1289-.5125.5804-.9894,1.3172-.0491-.4341.0622-.8103.2006-1.0936.2267-.464.6235-.8745,1.1-1.1736-.336.5618-.3315.7923-.263.9199-.0165.0086-.0329.019-.0483.0301Zm1.5996-1.3996c.0094-.0116.0191-.0242.0283-.0363.0278-.0038.0551-.0066.0829-.0097-.0375.0141-.0744.03-.1112.046Zm-.4236-.7586c-.6064.1383-1.1861.4224-1.6693.8071.5172-.9473,1.0286-1.8823,1.5319-2.8021.0904-.1648.0519-.3679-.0864-.4886.7885-.1174,1.4906-.0207,2.1157.2889-.8303.9122-1.4427,1.629-1.8919,2.1947Zm.5265-3.6321l.4402.1241c.0703.034.1411.0698.212.1063-.2164-.0722-.4357-.1494-.6522-.2304Zm-1.0244-2.3965c.1029-.2401.2046-.479.3124-.67.2364-.4165.3784-.8637.5159-1.2955.1411-.4447.2746-.8649.4993-1.2275.0877-.1422.3273-.1837.4624-.1955.3289-.0289.7119.0389,1.0588.1557.393.1322.7396.3263.908.5148.2017.2254.2379.5947.2616,1.0186l.0964,1.7354c-.0326.019-.0623.0423-.0883.0695-.0407.0425-.0786.0874-.1135.1346-.0532-.0239-.1128-.0364-.1748-.0344-.1756.0058-.3264.1269-.3702.2969l-.4177,1.6147-1.2037-.3406c-.5965-.2831-1.1978-.4913-1.7981-.5069l-.5495-.155c.2396-.272.4171-.6854.601-1.1148Zm-1.0874,2.3466c.3258.1609.6561.3123.9906.4549-.6147.1208-1.2677.3502-1.9611.6861.3895-.5793.7143-.9611.9705-1.1409Zm-.1535-2.255c.1471-.0274.2869-.0866.4113-.1702-.1054.2361-.2359.5049-.3441.6223l-.0672-.4521Zm-3.1352,7.1943c.5126-.8146,1.0232-1.6268,1.4809-2.4273.9223-.5743,1.7643-.9664,2.532-1.1774-1.4154,1.8039-3.0783,4.193-4.9114,7.0098-.3662-.0305-.7404-.0262-1.1129-.0032.5753-1.1202,1.3031-2.2768,2.0114-3.4018Zm-.0883-1.5391c.009-.0187.0164-.0375.0226-.0567.0531-.0138.1057-.0299.1576-.0473-.2493.4056-.5058.8132-.7626,1.2207-.0564.0894-.1121.1786-.1684.2682.2686-.451.5189-.9129.7508-1.3849Zm-5.2058,3.9372c-.0153-.0074-.0309-.0136-.0465-.0189-.0423-.0142-.0862-.0214-.1301-.0215.0311-.0893.0563-.1828.075-.2805.5875.1786,1.098.43,1.8375.8673.1625.0961.3703.0641.4967-.0766.6524-.7278,1.2485-1.503,1.7829-2.3191-.607.9791-1.1944,1.9699-1.6608,2.9397-.0149.002-.0293.0038-.0435.0055-.0125.0013-.0249.0031-.037.0061l-2.2741-1.102Zm2.595,2.0533c.0223-.0039.0444-.0096.0657-.0177.099-.0359.1798-.1106.2239-.2054.3365-.0328.6779-.0543,1.0111-.0517-4.396,6.824-9.7065,15.957-14.9367,25.3573-.0919-.0337-.1835-.0667-.2754-.0992,6.4567-11.0318,12.835-22.1836,13.9114-24.9832Zm-14.3196,25.6805c.0977.0339.1958.0686.2935.1037-4.3144,7.7705-8.5566,15.6863-12.1696,22.6055-.4184-.1604-.8392-.3118-1.2637-.4547l-.0412-.0139c2.2442-3.7487,7.7009-12.8863,13.181-22.2406Zm-39.0371,41.4837c.5113-.5895,1.2675-1.2753,2.0673-2.0022,1.9551-1.775,4.3361-3.9382,5.1163-6.3767.2159.1942.4749.3462.7725.4507,1.2061.4221,2.8815-.0089,3.9831-.6331,2.7653-1.5672,5.1258-3.8153,6.8261-6.5008,1.191-1.8805,1.7488-3.5692,1.7051-5.163-.0519-1.9259-1.1156-3.6587-2.633-4.3606,1.2822-3.816,2.6337-7.7364,4.9541-11.0837,2.6318-3.7949,6.2561-6.221,9.9436-6.6565,1.857-.219,3.706.0456,5.5232.591-4.4615,7.6181-9.2663,15.7148-13.337,22.5109-.0622.1039-.0737.2303-.0307.344.0426.113.1179.1978.2506.2369.5567.177,1.1064.3691,1.6504.5755-.8042,1.5436-1.5773,3.0376-2.3094,4.4626-.1387-.364-.3572-.6872-.6452-.9373-.0306-.0266-.0617-.0523-.0934-.0772-.0321-.1842-.091-.3631-.1769-.5354-.0759-.1536-.243-.2403-.4121-.2155-.3765.0554-.7172.1631-1.0269.314-.5539.0693-1.1399.3306-1.7146.7799-1.5832,1.2383-2.4302,3.075-3.249,4.8507-.3814.8272-.7757,1.6823-1.2364,2.4545-.9326,1.563-2.5789,2.7905-4.0966,3.0528-.8977.1553-1.6762-.033-2.3135-.5593-.1362-.1112-.3275-.1211-.473-.0234-.1457.0976-.2099.2793-.1579.4467.2337.7519.7704,1.3004,1.5528,1.585,1.2497.4576,3.0682.1766,4.4067-.6835,1.4921-.9584,2.7482-2.2866,3.6353-3.8246.2324.3562.5446.7038.9351,1.0429-1.1234,2.2113-1.7199,4.686-2.1981,6.8887-.6794-.0836-1.3526.1238-1.8706.5824-.5724.5073-.8686,1.2394-.8125,2.009.3621,4.9537-1.2423,10.4113-4.7688,16.2207l-.0695.1145c-.577.9485-1.1738,1.9289-1.2556,3.0795-.0427.5934.1081,1.2029.3952,1.7051-.0482.1489-.0911.3007-.1275.4542-.2831.0029-.5632.0765-.833.2473-.118-.0691-.2347-.1329-.3498-.1885-1.9581-.9501-3.9-1.9954-5.7735-3.106-2.9749-1.7653-6.4735-4.2666-7.1254-7.972-.4041-2.2973,1.0851-9.1646,5.3724-14.1004Zm18.0465-7.9639c.0068.0285.0141.0571.0218.0858-.8285,1.6428-2.103,3.0651-3.6503,4.0589-.9281.5959-2.1506.874-3.1239.7445.2195-.0025.4436-.0236.672-.0628,1.7321-.2997,3.5978-1.6774,4.6421-3.4285.4822-.8076.8853-1.6825,1.2754-2.5276.6499-1.4106,1.2717-2.7589,2.2235-3.815-.3146.5849-.5758,1.2252-.8143,1.8684-.2708.2207-.507.471-.7037.7476-.5448.7646-.7274,1.5487-.5427,2.3288Z"/>
  </g>
</svg>