<?xml version="1.0" encoding="UTF-8"?>
<svg xmlns="http://www.w3.org/2000/svg" viewBox="0 0 165 165">
  <defs>
    <style>
      .uuid-b3ded8c8-597f-4190-be42-e36584e59b61 {
        fill: #eee7c2;
      }

      .uuid-b3ded8c8-597f-4190-be42-e36584e59b61, .uuid-5791973f-3410-4daa-ad42-ceedd88911f5 {
        stroke-width: 0px;
      }

      .uuid-5791973f-3410-4daa-ad42-ceedd88911f5 {
        fill: #5e2751;
      }
    </style>
  </defs>
  <g id="uuid-58b24afd-fb96-456a-9a8f-6ae548ce123f" data-name="podklad">
    <path class="uuid-b3ded8c8-597f-4190-be42-e36584e59b61" d="m150.9987,127.3336c-.0871-.1001-.1809-.1958-.2807-.2861.2234-1.0269,1.8258-8.3934,3.2393-14.8001-.7621,5.0564-1.753,10.108-2.9586,15.0862Z"/>
    <path class="uuid-b3ded8c8-597f-4190-be42-e36584e59b61" d="m102.4355,90.4693c.2366.3351.4662.6599.6758.9725.2507.3738.5182.7824.7943,1.2132-.5541.0692-1.104.1382-1.6451.2069-.4692-1.0328-.9344-2.0605-1.3947-3.0841.3513-.0129.7029-.0273,1.0544-.043.172.2491.3451.4938.5152.7345Z"/>
    <path class="uuid-b3ded8c8-597f-4190-be42-e36584e59b61" d="m105.8709,100.6497c-.0297-.0148-.0605-.03-.0908-.0465-.728-1.6107-1.458-3.2131-2.1846-4.8082-.3876-.8505-.7732-1.6965-1.1561-2.5397.5623-.0712,1.1361-.1436,1.7119-.215.0885.1392.1772.2799.2664.4224.3158.6193.625,1.2302.9217,1.8238.2452.4903.6372.9606,1.0163,1.4155.0165.0197.033.0395.0492.0592.443.7681.8389,1.4831,1.1456,2.0762.0035.0993-.003.1993-.0208.3005-.0838.4792-.1974.857-.34,1.1309-.4224.1296-.8622.2566-1.3187.3808Z"/>
    <path class="uuid-b3ded8c8-597f-4190-be42-e36584e59b61" d="m49.0363,93.1894l.8408-.0052c2.8147-.027,6.8056-.3794,8.9535-3.116.3308-.4214.589-.8622.8621-1.329.2807-.4798.5742-.9806.9725-1.4955-.1969.3478-.3351.7315-.4081,1.1404-.275,1.5429-.5779,2.9032-1.5018,3.9244-.2063.2285-.8345.7231-1.5623,1.2962-.4592.3616-.8878.7012-1.2762,1.0174-2.2806-.2726-4.6155-.1103-6.8913.0476-2.6311.1833-5.3461.3721-7.9385-.119,2.3117-1.3354,5.1748-1.3484,7.9493-1.3614Z"/>
    <path class="uuid-b3ded8c8-597f-4190-be42-e36584e59b61" d="m56.0429,95.0562c.6344.0823,1.2635.1999,1.8839.3624,1.3865.3638,2.7301.9552,4.0293,1.5269.9465.4167,1.9252.8472,2.9213,1.1915,2.1524.7437,4.4625,1.1129,6.6966,1.4698,3.1655.5057,6.4329,1.0277,9.1939,2.636-5.3088.9368-11.3671-.8557-17.2322-2.5908-2.5548-.7559-4.968-1.4698-7.2713-1.9469-2.0421-.4227-2.094-.7245-2.0935-.7575.0073-.2907.9211-1.1091,1.872-1.8915Z"/>
    <path class="uuid-b3ded8c8-597f-4190-be42-e36584e59b61" d="m86.4879,138.1688c-.2339-3.6082-.3172-7.2865-.3975-10.8438l-.0065-.294c-.0048-.1934.0095-.357.0428-.4998.0413-.1793.0984-.3212.169-.4332.8784.0519,1.7319.0898,2.5253.109-.0381.218-.0351.4322-.033.5936.0286,2.1611.0862,4.4214.1557,6.7012-.0977,1.0285-.1371,2.0908-.1587,3.1509-.1277,6.2712.0925,10.9547.6723,14.3184.0046.0265.0141.0508.0273.0725-.5244-.0901-1.0452-.2002-1.5613-.3302-.6831-4.1572-1.1639-8.3563-1.4355-12.5446Z"/>
    <path class="uuid-b3ded8c8-597f-4190-be42-e36584e59b61" d="m86.8739,125.7223c.2185-.0403.4673-.0276.731-.0144l.4062.0206c.3253.0165.6437.0327.9552.0474-.0048.0089-.01.0181-.0146.0273-.655-.0146-1.3544-.0425-2.0778-.0809Z"/>
    <path class="uuid-b3ded8c8-597f-4190-be42-e36584e59b61" d="m89.4671,125.8118c.0057-.0046.0114-.0089.0171-.0132.1406.0059.2802.0111.4184.0157-.1423,0-.2875-.0008-.4354-.0024Z"/>
    <path class="uuid-b3ded8c8-597f-4190-be42-e36584e59b61" d="m89.3632,146.4935c-.129-1.8547-.1949-3.9649-.1985-6.3494.0722,2.1138.1428,4.2516.1985,6.3494Z"/>
    <path class="uuid-b3ded8c8-597f-4190-be42-e36584e59b61" d="m93.5743,133.3195c-.1801,5.8404-.35,11.3572-1.6105,17.0023-.0698.3115-.1488.6039-.3505.7575-.1787.1363-.444.1525-.6788.1574-.0103,0-.0208.0003-.0309.0005-.3705-.0376-.7404-.0852-1.1083-.1428.046-.0387.0747-.0968.0738-.1612-.0516-3.8592-.195-8.0351-.3334-12.0736-.0612-1.7827-.1233-3.5922-.178-5.3891.3061-3.2431,1.1902-5.994,3.9498-7.287.188-.0879.3816-.1666.5787-.2385-.1614,2.4781-.2379,4.9648-.312,7.3744Z"/>
    <path class="uuid-b3ded8c8-597f-4190-be42-e36584e59b61" d="m145.8361,106.6444c-.1141.0086-.1999.1082-.1912.222.0024.0322.0049.0641.0073.0957-7.7008.8032-15.0898,1.6451-22.5387,2.6614-3.122.4259-6.5447,1.065-8.7182,3.1715.0341-.2134.063-.4289.0862-.6463.3565-3.3081-.3794-6.5755-1.0912-9.7354-.0235-.1044-.1233-.1738-.2288-.1601-.106.0138-.1842.1057-.1807.2128l.4022,11.6365c.003.0903.0644.1682.1517.1926.032.0089.0652.0097.0963.0035-.7591,2.5535-2.3115,4.6318-4.3135,5.666-1.3516.6982-2.917.9611-4.4306,1.2153-1.7544.2945-3.5685.5993-5.09,1.5802-.3153.2033-.6142.434-.9032.6569-.1082.0836-.2177.1682-.3286.2515-.0051-.0217-.0138-.0425-.0263-.0622-.0605-.0971-.1882-.1263-.2853-.066-1.6099,1.0025-3.0976,1.4983-4.6375,1.7216-.2991-.0203-.5485-.0408-.7721-.0595-.8178-.0673-1.3116-.1082-2.636-.0114-.2877.0208-.5836.0552-.834.1877-.434-.0184-.8803-.0411-1.3419-.0647l-.4108-.0208c-.4909-.0246-1.1099-.0557-1.525.3838-3.5595-.222-7.5007-.6745-9.4843-1.0615-.0587-.0114-.1204.0032-.1676.0403-.0474.0371-.076.0931-.079.1528-.1106,2.2479-.2821,4.4401-.4476,6.5601-.2878,3.681-.5593,7.1581-.5419,10.9106.0016.2805.2764.5858.595.9401.1744.1939.4992.5547.4982.6537-.1277.1566-.578.1963-1.2164.1295-.7543-.9171-2.2446-1.7647-5.067-2.1633-.0495-.007-.0993.0043-.1401.0303.0536-2.6346.1249-5.544.1966-8.4534.0771-3.135.1541-6.2702.2085-9.063.5146.1495,1.0336.3005,1.5604.4538.5119.2274,1.0642.4327,1.8038.4551.1009.0035.1966-.0736.2115-.1782.0038-.0254.007-.0514.0109-.0768.5111-.2978.4687-.8725.443-1.2265l-.2077-2.835c-.0081-.1066-.0955-.1896-.2026-.192-.0186-.0011-.0392.0019-.0581.007.0238-.0549.0324-.1182.0389-.1674.1452-1.0893.4195-2.0204.8151-2.7679.5254-.9928,1.5142-1.8055,2.5797-2.1211.2593-.0765.5769-.1398.9246-.1422.4603.1174.9206.2347,1.3798.3532.1008.0259.2055-.0274.2442-.1242.0387-.0968-.0005-.2071-.0917-.258-.4538-.2528-.9549-.3827-1.4834-.3867-3.2172-.8206-6.453-1.6284-9.5958-2.4129-8.9548-2.2354-18.2117-4.5464-27.2996-7.224.6794-1.7755.8562-4.0988.9014-5.0561,4.0425.3715,14.4326,2.9026,23.6189,5.1405,6.3007,1.535,12.2596,2.9865,15.0971,3.4717l-.0338,4.4138c-.0011.0811.046.155.1192.1893.0736.0343.1601.023.222-.0295,1.3087-1.107,1.8658-3.278,1.2692-4.9415-.573-1.5972-.8703-2.7247.1766-3.8016.0549-.0568.073-.1395.0467-.2139-.0265-.0744-.093-.1274-.1711-.1366-7.7122-.9073-33.6764-6.6047-41.4172-9.5265,2.5379.4233,5.1587.2415,7.7016.0644,2.1224-.1471,4.2962-.2985,6.4162-.0925-1.0474.879-1.7041,1.5439-1.7138,1.9467-.0133.5549.9592.8703,2.4236,1.1737,2.2866.4736,4.6916,1.1848,7.2378,1.9385,6.1074,1.8068,12.4221,3.6753,17.9567,2.4975.0822-.0176.1458-.083.1609-.1658.0152-.0827-.0213-.1666-.0922-.212-2.9248-1.8731-6.4222-2.4318-9.804-2.9721-2.2166-.3543-4.5085-.7205-6.6266-1.4523-.9801-.3386-1.951-.7659-2.8899-1.1791-1.3138-.5785-2.6725-1.1764-4.0909-1.5485-.5125-.1344-1.0301-.2388-1.5504-.3186.3513-.2829.6891-.5487.9682-.7686.7729-.6085,1.3833-1.0894,1.6134-1.3436.9974-1.1028,1.3157-2.5229,1.6024-4.1299.1582-.8876.665-1.6405,1.4274-2.12.7821-.4919,1.7514-.629,2.6582-.3767.8519.2372,1.8049.3483,2.8361.3297.7992-.0144,1.607-.0914,2.3883-.1653,1.2478-.1184,2.5378-.2409,3.7918-.1052,1.6938.1836,3.3107.8295,4.8747,1.4539l2.4158.9644c.8644.3454,1.5313,1.0109,1.878,1.8741.3558.8865.3313,1.8595-.0698,2.7399-.4865,1.0685-.8492,2.1811-1.0842,3.314-.0341.0974-.052.1968-.0584.2964-.2545,1.3609-.3251,2.7474-.2047,4.1183.0089.1006.089.1804.1896.1885.1022.0081.1925-.057.2179-.155.1774-.6899.3494-1.3173.522-1.9039,1.1959,2.0727,3.5249,3.3776,6.0768,3.9287l-3.3259.3253c-.3413.033-.8568.0839-1.1848.4319-.3659.3884-.3469.9444-.301,1.4349l.0246.2596c.2739,2.8964.5574,5.891-1.0339,8.1708-.807,1.1561-1.9704,1.9345-3.2023,2.7587-.4681.3132-.9479.634-1.4071.9787-.612.3157-1.1942.688-1.6911,1.1851-1.154,1.1553-1.4612,2.3285-1.4022,3.4205-.0736.3359-.1125.6674-.1087.9863.0098.9227.3562,1.664,1.0299,2.203.0724.0581.1747.0608.2504.0065.0752-.0546.1057-.152.0738-.2393-.0511-.1406-.106-.2856-.1628-.4352-.287-.7554-.6064-1.5967-.6653-2.4816.3405-1.4723,1.4055-3.0671,2.4123-3.9084.1587-.1328.3229-.262.4903-.3884.4276-.2177.8784-.4124,1.3398-.6109.7556-.3256,1.5369-.6623,2.2376-1.1258,2.7561-1.8233,3.4048-5.4762,3.4638-8.2195l.0014-.0614c.01-.4752.0203-.9663.2269-1.3644.423-.8135,1.5093-1.0368,2.6203-1.1572,7.6183-.8249,14.5194-1.7178,21.8232-4.3003,1.1418-.4035,3.2009-1.7275,4.0455-2.766.0901-.1112.2258-.2591.3946-.4316,1.4447-.9541,2.2909-1.8206,2.7591-2.4048.3694-.2656.6891-.4581.9006-.5201,8.0604-2.3536,16.7594-2.8367,25.172-3.3034,2.8437-.1577,5.5938-.3102,8.259-.5295,2.3926-.0368,4.2887.0084,5.3786.1517.6447.0847,1.3124.215,1.8287.5896.3657.2653.6231.6225.8059,1.0328.4327,3.2006.5181,6.4322.2545,9.6548-.0571.1171-.1231.2299-.1993.3383-.4219.5985-1.082.9436-1.7808,1.3089-.4587.2396-.9328.4873-1.3438.8162-.4129.3299-.7445.7264-1.0128,1.1627l-2.1985.0254c-.6625.0075-1.3722.0421-1.9877.2569l-2.1498.1366c-.099.0062-.1785.0817-.192.1771-1.0361.0803-2.0784.1604-3.1317.241Z"/>
    <path class="uuid-b3ded8c8-597f-4190-be42-e36584e59b61" d="m150.1609,106.9159c-.3715.5219-.467,1.165-.5381,1.8333l-.0271.2547c-.1133,1.0632-.229,2.1538-.3367,3.2596.0079-.321.0162-.6421.0244-.9617.0359-1.4204.073-2.8832.0908-4.3062.2621-.0268.5236-.053.7867-.0798Z"/>
    <path class="uuid-b3ded8c8-597f-4190-be42-e36584e59b61" d="m150.8241,128.0489c-.2799-.5474-.7462-1.0147-1.2889-1.2735-.2962-.1412-.602-.2126-.8997-.2126-.1963,0-.3889.0311-.5728.093-.2004-1.0179-.3824-2.0404-.5323-3.0619-.3542-2.4107-.5411-4.8836-.7218-7.2754-.1247-1.6521-.2496-3.1928-.3746-4.7338-.1125-1.3901-.225-2.7804-.3377-4.2519.9487-.0987,1.9036-.1968,2.8628-.2948-.0181,1.4055-.0549,2.8502-.0903,4.2532-.0738,2.9116-.1493,5.881-.076,8.8102-.01,2.1794.1144,4.3167.4589,6.3272.0189.1114.1244.1869.2353.1698.1117-.0167.1893-.1201.1747-.2323-.2686-2.0402-.4005-4.1429-.4541-6.2686.0175-3.6953.4248-7.5215.8005-11.0499l.027-.2547c.0676-.6361.1571-1.2438.5043-1.6916.0714-.0922.1509-.1745.2375-.2477,1.3357-.1349,2.6833-.2696,4.0436-.4048-1.5694,6.9906-4.5036,20.4926-4.5336,20.6311-.0165.0752.0105.1536.0698.2031.1985.1658.3713.3551.5176.5614-.0167.0679-.0335.1363-.0503.2045Z"/>
    <polygon class="uuid-5791973f-3410-4daa-ad42-ceedd88911f5" points="160.6988 99.0985 160.6991 99.1149 160.6991 99.1169 160.6988 99.0985"/>
    <polygon class="uuid-b3ded8c8-597f-4190-be42-e36584e59b61" points="100.3001 51.9081 100.3002 51.908 100.3004 51.9078 100.3001 51.9081"/>
    <path class="uuid-b3ded8c8-597f-4190-be42-e36584e59b61" d="m70.0476,123.3434l-.0419.0104-.0028.0029c-4.3981-1.2785-10.3058-2.9987-16.0059-4.67-.1443-.1205-.2993-.2234-.4714-.2929-.2257-.0914-.471-.1367-.7313-.1366l-.2211.012c-.3093-.0909-.6185-.1818-.9261-.2721l-.0237-.0483-.004-.0081-.0048-.0074c-.4714-.7238-1.3596-1.1904-2.2501-1.1923l-.0453.0004c-.3719.0068-.7048.1075-.9884.2789-3.5212-1.0391-6.6995-1.9848-9.0439-2.6974-1.178-.3581-2.1456-.6574-2.8402-.8799-.3472-.1113-.6263-.2034-.8282-.2737-.1907-.0656-.3159-.1164-.3412-.1307-.4329-.3414-.7156-.8945-.7637-1.5222l-.0073-.1894c-.0002-.5493.1875-1.0549.5073-1.4079.0224-.0087.0928-.0244.207-.0225.9669-.0037,4.1327.7657,8.0909,1.8496,3.9648,1.0837,8.751,2.4815,13.0471,3.7361,7.3703,2.1523,14.3284,4.185,17.0703,4.6762l.0004.0483v-.0005c.0017.1047-.0028.2075.0347.3168.0234.0836.1069.1473.2021.183-.0892.7949-.0991,1.4084-.1069,1.9913-.0071.5193-.0184,1.0158-.0809,1.6026l-.0764.0098c-.0917,0-.1791-.0169-.2478-.0369-.3129-.091-.6412-.1863-.9845-.2863l-.2314-.1049c-.4736-.2175-.9798-.4501-1.6555-.582l-.0327-.0064-.2023.0502Z"/>
    <path class="uuid-b3ded8c8-597f-4190-be42-e36584e59b61" d="m51.5806,136.879c-.067-.0283-.1356-.0531-.2053-.0752-.0413-1.0386-.0609-2.1956-.0609-3.431,0-.8773.0093-1.7916.0267-2.7251.065-1.4262.1521-2.9243.2354-4.3561.1602-2.7549.2784-4.9025.2785-6.3394,0-.1926-.0021-.3721-.0067-.5391.0056-.076.0111-.1505.0165-.2251.2346-.0956.4532-.1614.6504-.192.3694.1087.745.2188,1.127.3309.1535.1599.2888.3764.3973.6588.0762.1893.1224.7145.1204,1.4177.0008,3.1048-.7557,9.8953-1.1943,12.3084-.1802,1.0023-.3889,2.109-1.0553,2.8742-.0948.1093-.2099.2043-.3297.2929Z"/>
    <path class="uuid-b3ded8c8-597f-4190-be42-e36584e59b61" d="m83.6676,112.5501c-.0013.0027-.0026.0054-.004.0082.0013-.0027.0027-.0054.004-.0082Z"/>
    <path class="uuid-5791973f-3410-4daa-ad42-ceedd88911f5" d="m34.2834,112.9832c-.0279-.0169-.0398-.0261-.0448-.031-.0584-.0889-.1049-.1865-.1445-.2889.0544.1127.1213.2168.1893.3199Z"/>
    <path class="uuid-b3ded8c8-597f-4190-be42-e36584e59b61" d="m48.3344,119.3106c-.0076-.3322-.0533-.6382-.1321-.9202.0356-.1591.0837-.3037.1589-.4297l.1211-.1508c.8245.243,1.688.4973,2.5941.7639.0297.1871.051.4491.0593.7896-.2339,3.2535-.4377,7.4164-.5087,11.2622-.0609,1.3426-.1022,2.6251-.1022,3.7372,0,.9048.0291,1.6877.0963,2.3106-.0402-.0015-.0798-.0054-.1202-.0054-.2702,0-.5426.0385-.8102.0967l-.0537-.5103-.1492.0157.1492-.0158c-.5766-5.4575-1.1721-11.0961-1.3025-16.9436Z"/>
    <path class="uuid-b3ded8c8-597f-4190-be42-e36584e59b61" d="m151.2555,129.6719c-.0052.0604-.0052.1213-.0141.181.0051-.0603.0108-.1204.0141-.181Z"/>
    <path class="uuid-b3ded8c8-597f-4190-be42-e36584e59b61" d="m155.5568,67.6614c-.5359-1.2478-2.22-2.1002-3.5573-2.364-1.7755-.3502-7.3509-.5517-13.8068-.7851-10.3014-.3723-23.1218-.8361-27.0343-2.1475-.5355-.1796-1.0842-.4051-1.4691-.8359-1.1315-1.2659-.1809-3.2101,1.0861-4.6075,2.2138-2.4421,4.6145-4.7522,7.1407-6.8724-4.1726-.8968-8.4475-1.2584-12.7112-1.075-5.5745.2396-9.5319,1.6107-12.0979,4.1915-.6588.6626-4.688,5.1666-9.3535,10.3817-10.5928,11.8416-18.1317,20.2419-18.655,20.4786-1.4572.6595-2.4816,1.3203-3.2412,1.9695.0049-.0035.0097-.0062.0149-.0094.881-.5538,1.9707-.7091,2.99-.4252.8135.2267,1.7286.3322,2.7174.3146.7834-.014,1.5831-.0901,2.3566-.1637.8683-.0822,1.7567-.1665,2.6465-.1665.41,0,.8203.0178,1.2291.0622,1.7503.1895,3.3938.8459,4.984,1.4807l2.4158.9649c.9706.3875,1.7194,1.1348,2.1089,2.1046.3927.9785.3648,2.0962-.0771,3.0662-.377.8279-.6777,1.683-.9,2.5538.2142-.1003.457-.1536.6859-.196.0322-.0054.0673-.0122.1047-.0187.45-1.1897.9568-2.3989,1.5869-3.9014l.0541-.129c.0032-.0114.0073-.0225.0125-.0333.0103-.0216.0652-.0484.1595-.079l-.0059-.0365c.0338-.0057.069-.0027.1006.0078,1.7273-.4846,11.7092-1.8141,15.1949-2.0029-3.387-7.5529-6.4916-14.8956-8.8496-22.4357l-.0914.0933-.1895-1.8709c.0782-.0626.1618-.1189.2394-.1823.0001-.0101.0026-.0206.0029-.0308l.4993.4993c.0563.1847.1256.3653.1962.5256l7.6813,17.4948c.1404.3199.2872.6539.4511.9841.0665.0092.126.0503.1574.1128.1622.3248.3286.6547.4973.9885.185.2512.3914.4846.6258.689.6843.5969,1.6132.9766,2.9235,1.1949,3.295.5484,6.6642-.165,9.923-.8555,1.7127-.3629,3.4839-.738,5.2384-.9319,2.8054-.3099,5.3654.3432,7.8412.9747,1.1072.2823,2.1938.5595,3.275.7437,1.7411-.085,3.4803-.1518,5.2151-.1931.4051-.125.8129-.2816,1.2237-.4741,1.7644-.8273,4.1981-3.4387,6.1539-5.537.8778-.9422,1.7073-1.8325,2.3593-2.4363l9.1923-8.5178c.2299-.2137.4073-.4202.5419-.6331.4119-.6501.483-1.2992.2126-1.9293Z"/>
  </g>
  <g id="uuid-5f2c8e2b-a637-4a98-bf82-1b637a61e8ca" data-name="OBJEKTY">
    <g>
      <polygon class="uuid-5791973f-3410-4daa-ad42-ceedd88911f5" points="159.3566 96.0115 159.3569 96.0279 159.3569 96.0298 159.3566 96.0115"/>
      <polygon class="uuid-5791973f-3410-4daa-ad42-ceedd88911f5" points="98.9579 48.821 98.958 48.821 98.9582 48.8207 98.9579 48.821"/>
      <path class="uuid-5791973f-3410-4daa-ad42-ceedd88911f5" d="m159.3675,96.742c0-.2186-.0049-.4338-.0092-.6425l-.0013-.0693v-.0023c-.0204-.9202-.0501-2.1337-.1028-3.3652v.001s-.0164-.4606-.0164-.4606v.0004c-.0341-1.0147-.0708-2.2071-.4908-3.2076-.1332-.9722-.2977-1.942-.4942-2.9075l-.0042-.0204-.0609-.1182-.0096-.0185-.506-.5439-.0113-.0121-.0873-.0601-.0135-.0093-.0151-.0062c-3.7347-1.5163-7.4382-1.8177-11.2408-1.8177-1.2508,0-2.5126.0326-3.7905.0656-1.3126.0338-2.6635.0676-4.03.0676l-.202-.0002c-.6441,0-1.2889.0085-1.9342.017,1.8152-1.0271,3.9896-3.3594,5.9371-5.4454.8724-.9363,1.6964-1.8199,2.3301-2.407l9.1923-8.5178c.2644-.2449.4732-.4889.6355-.7454.3028-.4776.4594-.9784.4592-1.4772,0-.3307-.0688-.6594-.2053-.9772-.6376-1.4628-2.4926-2.3994-3.9669-2.695-1.8392-.3611-7.418-.5604-13.8953-.7955-5.1373-.1856-10.9019-.394-15.8618-.7173-4.957-.322-9.1215-.7648-11.0137-1.4012-.5507-.1838-.9554-.3706-1.2274-.6767-.2545-.2859-.3615-.6158-.3625-.9882-.005-.8845.6506-1.9911,1.4459-2.8637,2.2906-2.5266,4.7834-4.9116,7.4084-7.0884l.0331-.0275.0825-.2488.0294-.0886-.2228-.2194-.0306-.0302-.0419-.0093c-3.642-.8149-7.3643-1.2256-11.0923-1.2256-.7264,0-1.4529.0156-2.179.0468-5.7032.2448-9.7936,1.662-12.4739,4.3577-.6759.6801-4.7028,5.182-9.3738,10.4034-3.7741,4.2188-8.2455,9.2171-11.8519,13.2083-1.8032,1.9955-3.3901,3.7394-4.5652,5.0077-.5875.6341-1.072,1.1494-1.4284,1.5172-.1782.1838-.3243.3307-.4344.4365-.1054.1023-.1844.1682-.2003.1771-3.7341,1.6873-4.773,3.4355-5.6476,4.9363-.2658.4545-.5138.8771-.8188,1.2657-1.9747,2.5282-5.793,2.8774-8.5148,2.9001l-.8381.0051c-3.0098.0152-6.1572.0217-8.6945,1.7275l-.0373.0251-.1052.2516-.0294.0703.0823.1359-.0231.0891-.0073.0281.0038.0291c.0678.5135.147.9645.2205,1.3829.1299.7388.2402,1.369.2401,2.0762,0,.4131-.0375.8536-.1317,1.3599-.3903,2.1327-1.5213,4.6184-3.0275,5.3171-.4154.1966-.9026.3522-1.3794.5041-1.2028.3858-2.5176.7896-3.0201,2.0665-.1455.3745-.1848.7615-.1849,1.1312,0,.254.0186.5005.0358.7308.0399.5345.0803.8456.1201,1.1517.0387.2997.0773.5944.1157,1.1117.0422.5456.0884,1.2518.4759,1.8366.1054.1471.2904.2474.5986.3904.9189.4135,2.9407,1.0432,6.4184,2.0993,1.4279.4335,3.0297.9199,4.3087,1.3361.6393.2081,1.1981.3986,1.6121.5554.2068.0783.3777.1483.5021.2065.1133.051.1855.0989.1971.1102.0709.1111.13.236.1788.3719-.036.224-.0512.4384-.0621.6167-.0815,1.323-.1223,2.6462-.1223,3.968,0,5.0491.5948,10.0773,1.7758,14.9993l-.0002.0207c0,.1469.0098.2922.0251.436l-.0006.1696c0,1.2957.0939,2.4492.211,3.7855l.0333.3805.0057.0624.0027.0298.0886.1685.0292.0557.2139.0644.029.0087.0302-.0032c.2028-.0219.4702-.0284.7573-.0283.1826,0,.3735.0025.5625.0051.188.0023.3789.0048.5643.0048.3071,0,.5987-.0065.8414-.032.1627-.0173.293-.1428.3159-.3048.1519-1.0502.2281-1.9633.2282-2.7363-.0004-.8701-.0958-1.5626-.2973-2.0794-.117-.2997-.2938-.5347-.4978-.7305.0865-.0767.1754-.1512.2504-.2379.8112-.9385,1.0351-2.2134,1.2184-3.2144.3992-2.2021,1.1967-9.0853,1.1975-12.4173-.002-.7917-.0399-1.3726-.1595-1.6929-.0144-.0377-.0333-.0685-.0486-.1048,4.284,1.255,9.3242,2.7253,15.1906,4.4315-.0542,2.7916-.1312,5.923-.2083,9.0575-.0786,3.1884-.1565,6.3739-.2111,9.2016-.2892.0974-.5954.1753-.9021.246-.565.1307-1.1655.2675-1.7098.5917-.6159.3711-1.054,1.0923-1.0891,1.7983l-.0018.0775c0,.0884.0259.1678.0396.2517-.2832-.057-.5714-.0936-.8633-.0936-.6693,0-1.3478.1492-1.9719.4467-.4604.2168-.6562.6349-.6531,1.0145,0,.134.0226.2646.0641.3851.1349.3952.5139.7701,1.0557.7712.088,0,.1795-.0101.2736-.0311.1107-.0247.2247-.0608.3385-.0966-.1222.2026-.1973.4302-.197.6821l.0079.1463.0026.0234.0618.1384.0096.0216.0159.0176c.3292.3671.757.5037,1.1768.502.8831-.0038,1.7781-.5552,2.1539-.7788.4097-.2487,1.012-.4654,1.4918-.4636.1359,0,.2612.0167.3695.0515.0211.0068.0293.0222.0485.03-.6475.1813-1.2816.4139-1.8843.7203-.3396.1717-.5438.5103-.543.8768l.0289.2412c.1069.4482.4965.7723.9513.7727l.0259-.0004h.0039v-.0002c1.4843-.0016,2.9265-.5948,3.9541-1.5847.1854.3027.5158.5111.9142.5865l.0319.006.1976-.0482.0659-.0161.0649-.124c.0432.0278.0832.0618.1366.069l.1269.0081c.5614-.0064,1.1836-.4269,1.7197-1.0479.5331-.624.9715-1.4625,1.0934-2.3501.0206-.1505.0333-.3131.0333-.4848.0002-.4166-.0854-.8882-.3104-1.3641.4615-.009.8687-.0848,1.1074-.3665.0826-.0997.1245-.221.1235-.3387-.0137-.385-.3375-.7029-.6395-1.0496-.0911-.1012-.2114-.235-.3063-.355l-.1144-.1597-.0267-.0508-.0025-.0071c-.0005-.1127-.0009-.2252-.0009-.3373,0-3.5971.2629-6.9602.5408-10.519.1556-1.9944.3152-4.0565.4263-6.1699,2.0117.3575,5.4761.7479,8.7341.9633-.0215.0659-.0473.1244-.0643.1979-.0397.1706-.0583.3559-.0583.5626l.0009.0777.0068.2937c.0803,3.5614.1636,7.2463.3984,10.8677.264,4.0673.7267,8.1434,1.377,12.1833-.0798-.0229-.16-.045-.2394-.069l-.1027-.0151c-.1465-.0001-.2829.0901-.3361.2346l-.0217.1225c-.0001.1389.0813.2699.2154.3282.2038.0878.4117.1661.6213.2402.3268,1.949.6971,3.8888,1.1118,5.8132.0345.1622.1765.2786.3416.2822l2.2849.0453.006.0008h.0096c.194,0,.3527-.1548.3571-.3493.0413-1.8266.3267-3.6405.8481-5.3915l.0099-.0333-.0354-.2134-.012-.0721-.1422-.0776c.1785-.2715.2489-.5779.2973-.7902,1.2733-5.7017,1.4512-11.505,1.6242-17.1077.0747-2.4271.1534-4.9313.317-7.4204.3259-.0996.6567-.1902.9852-.2774.8746-.2324,1.7927-.4741,2.622-.9507.4252-.2448.8091-.5416,1.1756-.8241.282-.2177.5711-.4404.8643-.6294,1.4147-.9133,3.0847-1.1976,4.8775-1.4983,1.5447-.2598,3.1587-.5283,4.5963-1.2703,2.3611-1.2213,4.1178-3.7692,4.8089-6.8336,1.9852-2.3192,5.5449-3.008,8.8043-3.4495,7.3881-1.0082,14.7197-1.8444,22.3561-2.6418.1085,1.4103.217,2.7513.3252,4.089.1249,1.5402.2496,3.08.3742,4.7305.1812,2.3992.3688,4.8831.7256,7.3148.2484,1.6882.5813,3.3738.9419,5.0366l.2309,1.8237c.0357.2791.0802.642.2192.99.1379.3472.3802.6854.799.8807.2243.1052.4642.1558.7031.1558.1935,0,.3854-.0371.5702-.1008l.0038.001.0287.0078.1878-.0237.0513-.0065.1118-.113.325-.3049.0046-.0043.0039-.0043.1238-.1365.002-.0022.0031-.0037c.5006-.6133.7399-1.3856.7398-2.1629-.0001-.6809-.1871-1.3658-.543-1.9605,1.4074-5.7688,2.5281-11.6382,3.3389-17.5009.1967-1.4254.4254-2.715.9339-3.7395.5272-.0522,1.0553-.1044,1.5866-.1566l.5604-.0065c.5759-.0084,1.2152-.04,1.6856-.4811.4212-.4026.5154-.9631.5822-1.4675.0898-.6917.1632-1.3841.2216-2.0767.3047-.6949.359-1.4672.3595-2.2011Zm-14.9221,6.3767c-.1783.0139-.3082.1586-.3213.3323-7.6533.799-15.0024,1.637-22.4102,2.6477-2.9924.4103-6.2725,1.024-8.4986,2.9602.0117-.0903.0263-.1795.0361-.2705.0646-.6.0936-1.1985.0936-1.7947-.0003-2.7223-.6041-5.3975-1.1877-7.9896-.0378-.1652-.1834-.2786-.3484-.2788l-.0466.0031c-.178.0232-.311.1752-.311.3546l.0004.0121h-.0001l.4022,11.6365c.0043.1317.0898.2357.204.2938-.7648,2.4537-2.2701,4.4399-4.1885,5.4299-1.3228.6841-2.8728.947-4.3867,1.2007-1.7537.2953-3.5897.5997-5.1464,1.6021-.3224.208-.6245.4413-.9136.6642-.0692.0535-.1392.1067-.209.16-.066-.0585-.1443-.0994-.23-.0992l-.1888.054c-1.5893.9892-3.0493,1.4759-4.5667,1.698-.2891-.0198-.5328-.0398-.7512-.058-.4705-.0388-.84-.0693-1.3229-.0693-.3558,0-.7722.0165-1.3365.0578-.2739.0204-.568.0587-.8391.1863-.4265-.0182-.8643-.0403-1.3183-.0635l-.4108-.0209c-.1185-.0059-.2469-.0124-.3804-.0124-.3939-.0003-.8451.0657-1.1974.3925-3.5388-.2227-7.4495-.6724-9.4104-1.0552l-.0321-.0062-.1993.0479-.0667.016-.0135.0262c-.0345-.0925-.0683-.1841-.1047-.2798-.2849-.7488-.5928-1.5694-.653-2.4169.3336-1.4241,1.3827-2.9946,2.356-3.8047.1528-.1279.3114-.2526.4732-.3749.4188-.2126.8625-.405,1.3199-.6017.7556-.3258,1.5453-.6652,2.2611-1.1385,2.8266-1.8771,3.4695-5.5821,3.531-8.3414l.0013-.0612c.0086-.4759.0246-.9454.21-1.2987.3651-.7244,1.3946-.9613,2.5034-1.0771,7.6197-.8251,14.535-1.7192,21.857-4.308,1.1789-.421,3.2317-1.738,4.1119-2.8128.0834-.103.2147-.2463.3772-.4127,1.4314-.9478,2.2807-1.8108,2.7596-2.4044.3565-.2568.671-.4415.8432-.4901,8.0377-2.3474,16.7256-2.8312,25.1382-3.2976,2.8414-.1575,5.5905-.3101,8.2564-.5293.5234-.0081,1.023-.0122,1.4954-.0122,1.6817-.0001,3.0205.0524,3.8578.1627.639.083,1.2819.2137,1.7601.5623.3356.2437.5734.572.7479.9569.2658,1.9757.3999,3.9633.3999,5.9531,0,1.2039-.0494,2.4085-.1469,3.612-.0512.1022-.1078.2014-.1745.2961-.3925.5593-1.027.8972-1.7277,1.2623-.4586.2397-.9415.4911-1.368.832-.4046.3232-.7278.7109-.9955,1.1307l-2.1238.0245c-.6577.0079-1.3706.0417-2.0089.2581l-2.1364.1357c-.1211.0079-.2081.0856-.2667.1829-1.0123.0784-2.0301.1566-3.0589.2354h0Zm-70.4565,39.8539h0c-.0992.729-.4548,1.3998-.8672,1.8998-.34.4171-.7222.7012-.9991.8151l-.2488-2.5816c-.0168-.177-.1617-.3216-.3489-.3231l-.014.0005h0s-.0002,0-.0003,0l-.0073.0002.0002.0027c-.1827.008-.3319.1503-.3422.3344-.0305.5575-.0632,1.0484-.0959,1.5398-.0217.3286-.0435.6629-.0648,1.0118-.0216-.0236-.0464-.0468-.0594-.0713l-.0345-.138.0402-.1747.0286-.1402c.0001-.1249-.0659-.2447-.1797-.31l-.1773-.0472c-.1094-.0001-.2177.0506-.2874.1445-.8732,1.1807-2.3889,1.9214-3.9434,1.9205h-.0014c-.1735-.0005-.2502-.1149-.2808-.2242l-.0091-.0752c.0037-.0941.0312-.1746.1522-.2393.7357-.3738,1.515-.6505,2.3162-.8221l.0328-.0071.1677-.1281.0565-.0432.0083-.2487.0011-.0337-.0134-.0309c-.1569-.3654-.4546-.6318-.8393-.7539-.1914-.0614-.3926-.087-.5956-.087-.6719.0015-1.3687.2769-1.853.5679-.7512.4543-1.3571.6713-1.7849.6695-.2349-.0011-.4067-.0686-.5496-.1835.0246-.2565.2123-.4758.5067-.6495.3122-.1839.7186-.2983,1.0325-.3348l.1929-.0219c.8752-.1021,1.9407-.2035,2.45-1.1001l.0455-.1742c.0002-.1208-.0623-.2387-.1725-.3052-.3362-.205-.6957-.2891-1.0515-.2888-.2888,0-.5745.059-.853.1453-.1968-.1523-.2453-.3611-.2469-.5464l.001-.0444v-.0007c.0159-.4469.3396-.9815.7413-1.2162.4346-.2603.9456-.3807,1.5047-.5093.3997-.0927.8207-.1893,1.2264-.3524l.0417-.0168.1558-.2256.0256-.0372.0009-.0452c.0022-.1161.0045-.2344.0067-.3519.1051.0818.2192.1697.3115.2422.901.7106,1.3242,1.0336,2.7514,1.4193.4719.1285,1.0933.2762,1.6954.358.2995.4247.4541.8939.4547,1.4193,0,.1275-.009.2582-.0273.3924Zm-11.8157,1.0163l-.1173.0137c-.2044.0002-.3254-.1388-.3807-.2896l-.0264-.1559c.0044-.1402.0512-.2681.2474-.3658.5273-.251,1.1015-.3773,1.6647-.3773.2758,0,.545.0414.8087.1019-.3018.1639-.5888.3351-.8331.4884-.4463.2809-.9343.4888-1.3632.5845l.0327.1464-.0328-.1464Zm11.6724-5.4276c0,.1139.0002.2281.0009.3428.0145.3799.3202.6813.6334,1.0396.087.0966.2102.2336.3094.3561l.1079.1442c-.0912.0336-.2603.069-.4904.0637-.1354,0-.2956-.0109-.4655-.0272-.8013-.9374-2.3228-1.7713-5.1141-2.1657l-.0073-.001c.053-2.5865.1227-5.4262.1927-8.2698.0753-3.0638.1502-6.1231.2045-8.868.4509.131.9039.2628,1.3646.3969.5146.2283,1.0889.4408,1.8492.4633l.0112.0002c.1751-.002.3251-.1269.3533-.307l.0032-.0231c.3848-.2681.4684-.6892.4656-1.0107,0-.1121-.0078-.2154-.0139-.3015l-.2077-2.8352v-.0005c-.0106-.1379-.1096-.2318-.2311-.282l.0058-.025.0017-.0073.0009-.0069c.1433-1.076.4139-1.9904.799-2.7176.5038-.9548,1.4666-1.7458,2.4897-2.0474.2449-.0723.544-.1307.8682-.1348.3937.1004.7871.2009,1.1799.302-.0399.0267-.0775.0532-.1176.08-.4656.3116-.9448.6322-1.4062.9782-.615.3184-1.2066.696-1.7146,1.2043-1.0913,1.0898-1.455,2.2207-1.4531,3.2739l.0067.2426c-.0692.3224-.1088.6426-.1088.954l.0004.0452v-.0013c.0079.959.3776,1.7543,1.0861,2.3185l.0394.0316.3008.0078.025.0007c-.1105,2.1216-.2691,4.1977-.4259,6.2062-.279,3.5688-.5432,6.9504-.5433,10.5803Zm-1.326,1.6583c-.1578-.0375-.3005-.0614-.4651-.1064-.9491-.2609-1.363-.4543-1.8477-.7974.9385.2316,1.7202.5329,2.3128.9037Zm-3.8141-19.9633l-.0419.0104-.0028.0029c-4.3981-1.2785-10.3058-2.9987-16.0059-4.67-.1443-.1205-.2993-.2234-.4714-.2929-.2257-.0914-.471-.1367-.7313-.1366l-.2211.012c-.3093-.0909-.6185-.1818-.9261-.2721l-.0237-.0483-.004-.0081-.0048-.0074c-.4714-.7238-1.3596-1.1904-2.2501-1.1923l-.0453.0004c-.3719.0068-.7048.1075-.9884.2789-3.5212-1.0391-6.6995-1.9848-9.0439-2.6974-1.178-.3581-2.1456-.6574-2.8402-.8799-.3472-.1113-.6263-.2034-.8282-.2737-.1907-.0656-.3159-.1164-.3412-.1307-.4329-.3414-.7156-.8945-.7637-1.5222l-.0073-.1894c-.0002-.5493.1875-1.0549.5073-1.4079.0224-.0087.0928-.0244.207-.0225.9669-.0037,4.1327.7657,8.0909,1.8496,3.9648,1.0837,8.751,2.4815,13.0471,3.7361,7.3703,2.1523,14.3284,4.185,17.0703,4.6762l.0004.0483v-.0005c.0017.1047-.0028.2075.0347.3168.0234.0836.1069.1473.2021.183-.0892.7949-.0991,1.4084-.1069,1.9913-.0071.5193-.0184,1.0158-.0809,1.6026l-.0764.0098c-.0917,0-.1791-.0169-.2478-.0369-.3129-.091-.6412-.1863-.9845-.2863l-.2314-.1049c-.4736-.2175-.9798-.4501-1.6555-.582l-.0327-.0064-.2023.0502Zm-18.467,13.5356c-.067-.0283-.1356-.0531-.2053-.0752-.0413-1.0386-.0609-2.1956-.0609-3.431,0-.8773.0093-1.7916.0267-2.7251.065-1.4262.1521-2.9243.2354-4.3561.1602-2.7549.2784-4.9025.2785-6.3394,0-.1926-.0021-.3721-.0067-.5391.0056-.076.0111-.1505.0165-.2251.2346-.0956.4532-.1614.6504-.192.3694.1087.745.2188,1.127.3309.1535.1599.2888.3764.3973.6588.0762.1893.1224.7145.1204,1.4177.0008,3.1048-.7557,9.8953-1.1943,12.3084-.1802,1.0023-.3889,2.109-1.0553,2.8742-.0948.1093-.2099.2043-.3297.2929Zm-10.3632-37.2367c.1031-.5546.1447-1.0399.1447-1.4929,0-.7665-.1186-1.4374-.252-2.1976-.041-.2337-.0828-.4892-.124-.7458,7.4452,2.8544,32.5798,8.4047,41.0549,9.5313-.3105.4772-.4495.975-.4485,1.492.0009.7355.247,1.5061.5562,2.3699.1412.3934.209.822.209,1.2571.0007.8389-.2654,1.6885-.7157,2.3629l.028-3.6151v-.0029c0-.1748-.1266-.3242-.2994-.3524-2.7335-.4487-8.8058-1.9275-15.2302-3.4926-9.3723-2.2822-19.9802-4.8691-23.9234-5.173l-.0305-.0023-.1832.062-.0606.0205-.0961.2054-.013.0277-.0011.0305c-.026.7687-.1808,3.4449-.9529,5.2904l-.0123.0294.0048.201.0016.067.1794.1533.0242.0208.0307.009c9.1704,2.7083,18.5105,5.04,27.5413,7.2947,2.6835.6699,5.4354,1.3577,8.1844,2.0544-1.0432.4279-1.977,1.2314-2.5046,2.2251-.3293.6227-.5716,1.3622-.7389,2.1893-2.6412-.4642-9.638-2.5056-17.0316-4.6651-6.2551-1.8268-11.0865-3.2202-14.6049-4.1573-3.522-.9368-5.7157-1.4193-6.7494-1.4214-.314.0049-.5317.0317-.6831.1793-.3708.3947-.6035.908-.6889,1.465-.0218-.2039-.0435-.3751-.0651-.5411-.0389-.2999-.0772-.5947-.116-1.1131-.0165-.2194-.0334-.4475-.0334-.6724-.0002-.3095.0324-.6118.1359-.8771.1808-.4633.521-.7763.9742-1.028.4522-.2505,1.0126-.4305,1.597-.6165.4896-.1562,1.0016-.3187,1.4676-.5391,2.0604-.9901,3.0988-4.1227,3.4249-5.8322Zm67.7801-39.7546c-.001.5222.1625,1.028.543,1.4521.4164.4646.9921.696,1.5331.8782,1.9916.6656,6.1713,1.1055,11.1592,1.4334,4.9851.3266,10.7665.5356,15.9174.7219,6.4518.2325,12.0394.4368,13.7831.7823,1.3049.2521,2.9564,1.1071,3.4485,2.276.0997.2325.1483.464.1484.6974-.0002.3552-.1133.7184-.3499,1.0925-.1262.1995-.2945.3964-.5173.6035l-9.1921,8.5176c-.659.6104-1.489,1.5018-2.3671,2.4442-1.951,2.0971-4.3944,4.7051-6.1078,5.5035-.3996.1873-.796.3387-1.1896.4609-1.7212.0413-3.4467.1074-5.1735.1916-1.0687-.1828-2.1474-.4573-3.2502-.7385-2.0377-.5195-4.1456-1.0587-6.4115-1.0589-.4869,0-.9811.025-1.4832.0804-1.7645.1951-3.5402.5714-5.253.9343-2.4479.5189-4.9484,1.0472-7.4213,1.047-.8192,0-1.6354-.0579-2.446-.1927-1.2949-.2159-2.1932-.5875-2.8494-1.1599-.2227-.1942-.4197-.4174-.5982-.6589-.166-.3284-.3298-.6531-.4894-.9726l-.0166-.0333-.1553-.1113c-.1555-.3157-.2977-.6363-.4334-.9456l-7.6813-17.4949c-.0969-.2189-.1956-.4635-.2402-.6967,4.0316-3.3636,7.1687-7.7509,9.0172-12.6943v-.0002s.0226-.1248.0226-.1248c0-.1275-.0685-.2492-.1857-.3137l-.0008-.0005-.1706-.0433c-.1093-.0001-.2171.0505-.2866.1439l-8.5671,11.4664c-.2001.2704-.4695.6223-.5502,1.0671l-.0012.0066-.0164.1766c-1.0298.8381-2.1161,1.6094-3.2554,2.3032-.5887.359-1.2066.7072-1.8056,1.0446-1.8384,1.037-3.7552,2.1143-5.2242,3.7233-1.5458,1.6944-2.4573,3.8272-3.3356,5.8729-.8371,1.9532-1.6993,3.9571-3.0746,5.53l-.04.0458.0186.3494.0077.1455.4346-.0106.0609-.0015,16.3326-16.6815c2.3309,7.4005,5.3733,14.6125,8.6912,22.0186-3.6554.2274-13.1917,1.4989-14.9822,1.9868l-.0773-.006-.1903-.0147.0171.1052-.0101.0039-.1174.1062-.003.0063-.0136.0365-.0528.1259c-.6161,1.4694-1.1141,2.6589-1.558,3.8265l-.0216.0038c-.139.0259-.2847.0606-.4302.1037.2114-.7658.4743-1.5206.8072-2.2516.2439-.5353.3662-1.1137.3662-1.6907,0-.5088-.0952-1.0168-.2864-1.4935-.404-1.0071-1.1846-1.786-2.1924-2.188l-2.4158-.9649c-1.5903-.6343-3.2461-1.2976-5.0234-1.4905-.4153-.045-.831-.0631-1.2453-.0631-.8992,0-1.7924.0851-2.6606.1672-.7735.0737-1.5696.1492-2.3452.163l-.208.0018c-.8967,0-1.7264-.1047-2.4664-.3109-.3478-.0969-.7036-.1446-1.0569-.1446-.3116,0-.6198.0444-.9208.1176.6072-.4063,1.328-.816,2.2356-1.2269.0699-.0341.1245-.0825.2175-.1638.6642-.595,2.7938-2.8988,6.0118-6.4534,3.2157-3.5526,7.5101-8.3473,12.4756-13.8981,4.6636-5.2133,8.6985-9.7231,9.348-10.376,2.528-2.5432,6.4428-3.9084,11.998-4.1474.7164-.0308,1.433-.0462,2.1495-.0462,3.433,0,6.8596.3604,10.2228,1.0616-2.444,2.0693-4.7708,4.3113-6.9194,6.6815-.8823.9768-1.6255,2.2105-1.6297,3.356Zm-52.9476,35.0384c.6072.0811,1.2089.1934,1.8018.3486,1.3709.3596,2.7078.9473,4.0069,1.5192.9465.4167,1.9288.849,2.9327,1.196,2.1693.7493,4.4879,1.119,6.722,1.4762,3.0085.48,6.0862.9869,8.7261,2.3995-.8533.1244-1.7219.1959-2.6103.1959-4.4711.0008-9.338-1.4363-14.0879-2.8422-2.5549-.7559-4.9714-1.471-7.2834-1.95-1.0095-.2086-1.5243-.388-1.7734-.5108-.1149-.0562-.1679-.0981-.1909-.1207l.0162-.0412c.0755-.1461.3205-.4171.6448-.7197.3113-.2922.699-.6237,1.0953-.9508Zm95.382-5.0214c-5.2057.0869-12.6868.5527-19.3818,1.2307-6.7028.6812-12.5936,1.5623-14.6851,2.5162l-.0236.0108-.1185.1155-.0187.0182-.0114.0235c0,.0008-.125.24-.4504.6316-.8409.6188-1.8314,1.508-2.4969,2.1651-1.3152.8843-3.1751,1.8658-5.7618,2.7685-.1068-.2808-.2446-.5964-.418-.952-.0751-.8668-.6647-1.5977-1.2381-2.2906-.6304-1.092-1.3224-2.2207-1.9083-3.1552-.0292-.0577-.0588-.1155-.0883-.1732,13.6112-1.6822,30.6614-3.422,42.3757-3.4218,2.5304,0,4.7964.0855,6.7379.2656-.8337.0855-1.6608.1772-2.5126.247Zm-66.9579,18.4083c0-1.1375-.1085-2.2811-.2108-3.3648l-.1494.0141.1494-.0142-.0246-.2593c-.012-.1276-.0219-.2578-.0219-.3817-.0009-.2617.0466-.4838.1714-.6127.1469-.1638.4604-.2244.8289-.2578l4.9568-.4847c.3899.0331.7804.0504,1.1684.0504.2635,0,.5259-.0077.7862-.023,3.9821-.234,7.3614-.6667,10.2267-1.2195l1.7958-.1758c-5.246,1.3205-10.4443,1.9683-16.0378,2.5739-1.2284.1352-2.4963.3881-3.0604,1.4581-.2715.5247-.2792,1.0911-.2906,1.6128l-.0013.0612c-.029,1.4106-.2343,3.0554-.7981,4.5403.3842-1.1136.5111-2.3126.5112-3.5173Zm-.8064,4.2372c-.0013.0027-.0026.0054-.004.0082.0013-.0027.0027-.0054.004-.0082Zm19.118-23.7134c-.3306-.6407-.6612-1.2841-.9896-1.9248.6595.377,1.4577.6411,2.4548.8071.8547.1424,1.7108.203,2.5657.203,2.5543-.0002,5.097-.5402,7.5668-1.0628,1.7024-.3608,3.459-.7326,5.1838-.9231.4727-.0522.9391-.0758,1.4005-.0758,2.1703-.0003,4.2263.5226,6.2386,1.0364.2631.0671.5229.1287.7844.1942-3.7011.2153-7.3948.4888-11.0255.7646-1.8392.1398-3.674.2791-5.5005.4094l-1.3853.0998c-2.3918.173-4.8455.3492-7.2938.472Zm.1642,2.3995c.2087.3112.4342.6581.6617,1.0108-.4358.0546-.8694.1089-1.2969.1631-.4228-.9308-.8419-1.8573-1.2574-2.7807.2501-.0096.5002-.0196.7504-.0306.1569.2261.314.4494.4684.6678h0c.2366.3351.4656.6591.6738.9695Zm1.0884,1.6758c.0704.1111.1407.2225.2117.3357.3147.617.6226,1.2257.9182,1.8169.257.5128.6562.9891,1.0352,1.4445l.0405.0487c.4327.7504.8184,1.4477,1.1202,2.0295l.0002.0126-.0195.223c-.0771.4421-.1821.7827-.3038,1.033-.3813.1163-.7766.2305-1.1857.3424-.72-1.5928-1.4418-3.1774-2.1603-4.7546-.3593-.7885-.7164-1.5722-1.0717-2.3541.4669-.059.9392-.1187,1.4149-.1777Zm-21.2919,5.1191c.2462-.7958.4972-1.5273.7675-2.2562,2.1634-.3661,9.2693-1.4316,18.3672-2.5911.3856.8485.7736,1.7003,1.1636,2.5561.7018,1.5403,1.4062,3.0877,2.109,4.6424-.9438.242-1.952.4717-3.0425.6831l-11.9069,1.1653c-3.0916-.2864-6.1987-1.7119-7.4579-4.1996Zm2.4467-6.4131c1.3674-.234,10.3951-1.7475,15.0945-1.9574.4241.9437.8533,1.8922,1.285,2.8438-8.4952,1.0843-15.218,2.0815-17.7651,2.4976.399-1.0276.8456-2.0964,1.3856-3.384Zm7.1241-23.8085l6.854,15.6102c.171.3906.3552.8046.568,1.2126l-.0017.1005c.0021,1.4496.744,2.8583,1.6019,4.1703-.1995.0081-.3989.0161-.598.0233-3.1934-7.1183-6.1259-14.0466-8.4241-21.1169Zm-.8534-1.8954l-.0403-.0052-.1855.0786-.0277.0117-14.2742,14.5793c.4572-.8992.8745-1.8177,1.2653-2.7284.8635-2.015,1.7529-4.0814,3.2063-5.6726,1.3798-1.5131,3.2367-2.5626,5.0474-3.5825.6021-.3392,1.226-.691,1.8266-1.0568,1.053-.6412,2.0593-1.3508,3.0214-2.1129.0594.1724.1205.3478.1837.4915l-.0229-.0029Zm1.228-2.6287l6.3281-8.4699c-1.5854,3.1782-3.7381,6.0502-6.3281,8.4699Zm-10.3844,33.5782c-.0318-.1287-.0594-.2712-.0591-.3979l.0007-.029.0386-.1954.0241-.0494c.0615-.1093.2026-.1885.3833-.2479-.1212.3368-.2382.6823-.3539,1.0308-.0101-.0377-.0242-.0732-.0336-.1113Zm26.3744,3.244c1.0875-.3739,2.0414-.7625,2.8942-1.1544-.6491.4165-1.3019.77-1.7673.9335-.3765.1331-.7511.2574-1.1259.3817.0027-.0247.0079-.0487.0081-.074l-.0091-.0867Zm-44.8735-14.4102c.2892,0,.5806.0391.8655.1183.8057.2242,1.6968.3372,2.655.3372l.2239-.002c.807-.0145,1.6185-.0922,2.3998-.166.858-.0815,1.7314-.1642,2.5944-.1641.392,0,.7819.017,1.1672.0588,1.6663.1802,3.2713.8192,4.8351,1.444l2.4158.9644c.8271.3309,1.4623.9647,1.7944,1.7907.1597.3981.2392.8135.2392,1.2296,0,.4714-.1021.9436-.3063,1.3922-.4911,1.0787-.8572,2.2018-1.0945,3.3456l.0015.0003c-.0331.0999-.0516.2004-.0593.2992l-.0012-.0002c-.1755.9384-.2645,1.889-.2645,2.8386,0,.4408.0191.8814.0577,1.3205.0154.1733.153.3107.327.3248l.0291.0012c.1626.0005.3056-.1104.346-.2678l.0002-.001c.1469-.5716.29-1.0922.4328-1.5897,1.124,1.7341,3.0242,2.8992,5.158,3.5114l-2.478.2424c-.3406.0355-.8972.0786-1.2794.4783-.2977.3165-.3666.7224-.3663,1.0991,0,.1554.0115.3082.0251.4528l.0246.2596c.1059,1.1191.2125,2.2484.2124,3.3403,0,1.7353-.2689,3.3685-1.22,4.7306-.6302.9041-1.4964,1.5783-2.45,2.2356-.0266-.0847-.0731-.1627-.1556-.2089-.4652-.2593-.9805-.3913-1.5194-.401h0c-3.2177-.8207-6.4537-1.6286-9.5966-2.4131-8.9057-2.2232-18.1077-4.522-27.1436-7.1797.6122-1.6968.7949-3.7796.8498-4.788,4.1149.4133,14.367,2.9078,23.4427,5.1193,6.215,1.514,12.0878,2.9445,14.9816,3.4512l-.0331,4.3313.1426.2265.0513.0814.3174-.0421.0436-.0058.0336-.0284c.9946-.8439,1.5597-2.2516,1.5611-3.6209,0-.5104-.0793-1.0161-.2476-1.4857-.2968-.8251-.5123-1.5148-.5112-2.113.0023-.5559.1737-1.0359.6542-1.5334l.0298-.0307.056-.2557.0199-.0912-.244-.1947-.0335-.0267-.0425-.005c-7.3163-.8593-31.1887-6.0633-40.127-9.0748.7249.0659,1.4518.1067,2.1799.1067,1.4173,0,2.8341-.0986,4.2244-.1954,1.379-.0956,2.7762-.1927,4.1627-.1926.6276,0,1.2518.0264,1.8723.0751-.3942.3403-.7401.6554-.9863.9265-.3018.3384-.4931.6118-.5067.8919l-.0002.0148c-.001.1832.0856.3487.2193.4777.4023.3824,1.226.5995,2.3241.8317,2.278.4717,4.6796,1.1817,7.2257,1.9354,4.7798,1.4135,9.6967,2.8711,14.2886,2.8719,1.2758,0,2.5267-.1129,3.7419-.3715l.0446-.0095.1927-.1985.07-.0721-.1323-.3042-.0182-.0419-.0385-.0246c-2.9606-1.8948-6.48-2.4528-9.8612-2.994-2.2166-.3541-4.5002-.7197-6.6013-1.4459-.9722-.3358-1.9396-.7614-2.8785-1.1746-1.3138-.5784-2.6794-1.18-4.1133-1.5563-.4118-.108-.8282-.1835-1.2448-.2558.2578-.2057.5065-.4023.7173-.5684.7747-.6108,1.3808-1.0853,1.6318-1.3608,1.0312-1.1418,1.3512-2.5958,1.6389-4.2042.1516-.8474.6322-1.5612,1.3596-2.0194.5002-.3147,1.0818-.4775,1.6725-.4775Zm-29.5248,27.2858c-.0279-.0169-.0398-.0261-.0448-.031-.0584-.0889-.1049-.1865-.1445-.2889.0544.1127.1213.2168.1893.3199Zm105.6604-25.566c1.3367,0,2.6529-.0347,3.9303-.0678,1.2714-.0328,2.524-.0652,3.7624-.0652,3.7245,0,7.3163.2936,10.9101,1.7372l.3667.394c.0955.4739.1768.9493.2567,1.4249-.0365-.0294-.0647-.0648-.1031-.0927-.6273-.454-1.3822-.599-2.0869-.6923-.0258-.0034-.0608-.0056-.0875-.0089.0135-.0018.0272-.0033.0407-.0051.1731-.0237.3046-.1688.3094-.3445v-.002s0-.002,0-.002v-.0051c0-.1716-.1217-.3194-.2908-.3516-2.4322-.4603-5.7782-.6549-9.7193-.6551-11.8484.0002-29.0706,1.764-42.7469,3.4572-.4445-.8673-.8964-1.7429-1.3411-2.6053,2.3495-.1223,4.6973-.2902,6.9865-.4554l1.3843-.0994c1.8286-.1307,3.664-.2703,5.5043-.4101,4.4648-.3394,9.018-.6849,13.5652-.9077.8031.1352,1.6071.2208,2.4179.2208.9622,0,1.9345-.1209,2.924-.4185,1.2302-.0288,2.4604-.046,3.6798-.046l.218.0002.0003-.15-.0002.15h.1193Zm-90.9436,5.6332l.8408-.0052c2.8229-.0302,6.8614-.3697,9.0705-3.1733.3388-.4317.6005-.8792.8737-1.3458.0948-.162.1964-.3279.2969-.4932-.0023.0123-.0074.0236-.0096.0359-.2738,1.5415-.5761,2.8693-1.4653,3.8501-.184.206-.8185.7087-1.5439,1.279-.4417.3478-.8534.6744-1.2307.9808-.8763-.1017-1.7589-.1422-2.6417-.1422-1.4126,0-2.8254.0983-4.2127.1946-1.3819.0963-2.7835.1937-4.1747.1937-1.0944,0-2.1786-.0799-3.2455-.2476,2.1871-1.0835,4.8384-1.1161,7.4422-1.1268l-.0007-.15.0009.15Zm-.6658,26.2603c-.0076-.3322-.0533-.6382-.1321-.9202.0356-.1591.0837-.3037.1589-.4297l.1211-.1508c.8245.243,1.688.4973,2.5941.7639.0297.1871.051.4491.0593.7896-.2339,3.2535-.4377,7.4164-.5087,11.2622-.0609,1.3426-.1022,2.6251-.1022,3.7372,0,.9048.0291,1.6877.0963,2.3106-.0402-.0015-.0798-.0054-.1202-.0054-.2702,0-.5426.0385-.8102.0967l-.0537-.5103-.1492.0157.1492-.0158c-.5766-5.4575-1.1721-11.0961-1.3025-16.9436Zm3.9479,20.7828c0,.6588-.0645,1.451-.1857,2.3548-.151.0068-.3077.0122-.4835.0121-.1814,0-.3709-.0025-.5583-.0049-.188-.0025-.3792-.005-.5649-.005-.1428,0-.2724.0054-.4052.0096.1893-.3711.2671-.7552.2667-1.1361-.0005-.564-.1495-1.1228-.2904-1.6606-.1074-.4075-.2134-.8165-.2612-1.2173l.0413-.1293.0096-.03-.0364-.3466c.1763.0473.3591.0797.5536.0796l.1332-.0037c.3752-.0204.7492-.1374,1.0936-.3124.1838.1408.3369.3232.4374.5794l.1398-.0546-.1397.0546c.1631.4153.2505,1.0239.2501,1.8105Zm15.2617,6.0522c.0747,0,.1411.0289.2125.0399-.3801.248-.9623.3375-1.5668.4019l-.0597.0068c.501-.2612.9878-.4511,1.4141-.4485Zm23.2685,10.2154l-1.6591-.0331c-.3646-1.7104-.6936-3.4324-.9883-5.162.8353.2214,1.6973.348,2.5591.348l.1205-.0007c.2368.0237.4743.0405.7117.0561-.4297,1.5638-.6799,3.1715-.744,4.7918Zm-1.4968-29.8572l-.0008-.0994c0-.1187.0131-.2233.0266-.3273.1875.0024.3739.0046.5528.0046.8135-.0002,1.524-.0274,2.1039-.0858-1.3247.9497-2.1292,2.3077-2.6168,3.8753-.0273-1.1398-.0511-2.2691-.0657-3.3674Zm-3.0798-.2275c.0298-.1296.0694-.2281.1126-.3126.7888.0458,1.5538.0793,2.2753.0988-.0102.1109-.0237.2268-.0237.3201l.0012.1313c.0286,2.1596.0861,4.4181.1556,6.6958-.0974,1.0308-.137,2.0929-.1586,3.151-.0234,1.1481-.0352,2.2433-.0352,3.287.0001,4.5816.2269,8.1678.6866,10.9119-.4125-.0755-.8234-.1597-1.2305-.2603-.6736-4.1196-1.1495-8.2796-1.4185-12.4292-.2336-3.604-.317-7.2802-.3973-10.8375l-.0065-.2939-.0009-.0684c0-.1536.0139-.2827.0399-.3939Zm5.2498,24.3947c-.1227.0985-.3601.1245-.5911.1268l-.0198.0004c-.2993-.0305-.5974-.0717-.8951-.1153l.0031-.0067-.0004-.0338c-.0517-3.8615-.1951-8.0382-.3335-12.0767-.061-1.7792-.1231-3.5848-.1776-5.3778.3082-3.2281,1.1788-5.9001,3.8631-7.1573.1143-.0535.2346-.0983.3533-.1456-.1512,2.4022-.2284,4.8087-.3001,7.1409-.18,5.8408-.3503,11.3469-1.607,16.9742-.0663.3103-.1513.5683-.2949.6708Zm22.3977-38.8717h0c-.0079.0736-.0253.1433-.0345.2164l-.1898-5.4927c.1855,1.1832.3135,2.3718.3134,3.5621,0,.5713-.0277,1.1428-.0892,1.7142Zm35.327,19.3043c-.2115-.9246-.4244-1.8585-.629-2.7997l-.1822-1.4395c.0672-.011.1356-.0272.2001-.0272.2515-.0002.4821.0757.6565.1588.5296.2507.998.7977,1.1687,1.3662l.0304.1104c-.2332.9279-.4742,1.8531-.7223,2.7752l-.5222-.1441Zm-1.0619-4.9066c-.1891-.9695-.364-1.9423-.5065-2.9138-.3532-2.4036-.54-4.8732-.7206-7.2649-.1247-1.6526-.2497-3.1937-.3746-4.7346-.1087-1.3431-.2173-2.6894-.3262-4.1055.8452-.0879,1.6952-.1752,2.5488-.2625-.0187,1.3515-.0532,2.7354-.0872,4.0829-.0526,2.0721-.1061,4.1747-.1061,6.2725,0,.8484.0088,1.6961.03,2.5408h0l-.0006.2398c0,2.1027.1278,4.1654.4617,6.1134.0011.0062.0074.0092.0087.0152-.159-.0369-.3188-.0564-.4771-.0564-.1539,0-.3021.0378-.4502.0731Zm1.3111-17.9341c.0096-.475.0192-.9504.0255-1.4204.1227-.0125.2456-.025.3685-.0374-.2379.4497-.3344.9492-.3939,1.4578Zm.1527,18.1173c.0933-.0656.1644-.1571.1643-.2758l-.0028-.0451-.0002-.0016c-.2675-2.0325-.3991-4.1291-.4527-6.2502.0176-3.6843.4239-7.5051.7996-11.0328l.027-.2548c.066-.6337.1589-1.2129.4738-1.6155l.1877-.1958c1.2498-.1262,2.5115-.2523,3.783-.3787-1.5339,6.8402-4.2915,19.5226-4.4781,20.3818-.1573-.1273-.3232-.2414-.5016-.3314Zm1.2327.3314c.1805-.8294.9432-4.3353,1.8464-8.4598-.5366,2.8455-1.1378,5.6808-1.8141,8.4927-.011-.0107-.0211-.0223-.0322-.0329Zm.4108,2.9605c-.0052.0604-.0052.1213-.0141.181.0051-.0603.0108-.1204.0141-.181Zm8.1642-25.6572c-.0524.4252-.1373.8311-.3652,1.0408-.0986.0938-.2281.1523-.3774.1956l-.0853-.0242-.0258-.0073-.0266.0021c-.5723.0437-1.1404.0871-1.7068.1305l-.565.0065c.1663-.2022.3456-.3938.5562-.562.3641-.2914.8118-.5268,1.2528-.7569.4928-.2584,1.005-.532,1.4455-.9112-.0325.2953-.0638.5908-.1024.8859l.1487.0194-.1488-.0193Z"/>
    </g>
  </g>
</svg>