<?xml version="1.0" encoding="UTF-8"?>
<svg xmlns="http://www.w3.org/2000/svg" viewBox="0 0 165 165">
  <defs>
    <style>
      .uuid-89173178-1859-4623-9519-988b6e17a94f {
        fill: #eee7c2;
      }

      .uuid-89173178-1859-4623-9519-988b6e17a94f, .uuid-b145bf11-382f-4e72-af9a-be00b3927e27 {
        stroke-width: 0px;
      }

      .uuid-b145bf11-382f-4e72-af9a-be00b3927e27 {
        fill: #5e2751;
      }
    </style>
  </defs>
  <g id="uuid-ee406b57-0155-49ea-8f66-f18c1c4dd015" data-name="podklad">
    <path class="uuid-89173178-1859-4623-9519-988b6e17a94f" d="m97.9805,126.5471c.6531-.7725,1.3656-1.4601,1.9567-1.8096.5407-.3195,1.2172-.5109,1.871-.6962,1.2272-.3478,2.4961-.7073,3.0533-1.9271.3619-.7921.2721-1.7425-.2399-2.544-.9412-1.474-2.2898-1.0768-3.48-.727-.1973.0581-.3962.1163-.5961.1677-.9481.2438-1.8508.5827-2.6968,1.0093l.2959-12.9837c.0792-3.4043.1694-7.2632,1.1415-10.7532,1.0628-3.8164,3.1362-6.8399,5.8377-8.5134,2.0849-1.2917,4.423-1.7879,6.8848-1.8092-.7851.2519-1.5127.5678-2.1485.9355-3.5713,2.0649-6.1495,5.0546-7.456,8.6466-1.3443,3.695-1.7873,7.5899-2.1574,11.5883-.1626,1.7536-.0086,4.0928.3926,5.9593.1393.6458.6974,1.0746,1.3579,1.0421.6615-.0328,1.1752-.5147,1.2503-1.1731.2424-2.1328.4928-4.2651.7658-6.3949.5434-4.2342,1.2161-8.309,3.4531-11.6144.5273-.7791,1.0712-1.3891,1.6425-1.8394-1.3518,2.034-2.3875,4.5922-3.1819,7.8165-.4997,2.0278-.9544,4.421-.5355,6.7993.4514,2.564,1.9126,4.643,3.9083,5.5619,1.4614.6727,3.3082.5972,4.7067-.1927.5021-.2839.8236-.8013.8605-1.384.0362-.5843-.2189-1.1399-.6829-1.4851-1.7531-1.306-2.9614-3.6303-3.233-6.2188-.3121-2.9797.4499-5.9459,1.1872-8.8149.1546-.6012.5305-1.1661.856-1.2862.1146-.042.2135-.0251.33.0569.1501.106.2426.2995.241.5053-.0088,1.5321-.4074,3.0567-.793,4.5315-.2593.992-.5275,2.0176-.6827,3.0542-.3573,2.3863.0494,5.474,2.2631,6.9845.2444.1669.5082.3121.7719.4563.5115.2807.9944.5451,1.2965.9658.6082.8472.3387,2.0994.1011,3.2044l-.0667.3113c-.0788.379-.2231.7025-.4289.9619-.507.6373-.9278.5196-1.567.3408-.1754-.0494-.3512-.098-.5295-.1306l-.1873-.0335c-2.1637-.3928-4.4013-.799-6.8591-.267-.5603.1215-1.1966.8368-1.1396,1.4992.0448.53.4615.9677,1.025,1.0695l8.5842,1.5304c.1484.026.1774.1559.1781.2093.0002.0556-.0173.188-.184.2189-1.1984.2235-2.7727-.0175-4.2949-.2506-1.6302-.2499-3.3154-.508-4.6067-.2028-.5414.128-.9126.6492-.9229,1.2971-.0101.6302.3348,1.1489.8716,1.2939l8.8689,2.0448c.0246.0068.0911.0254.0762.1189-.0148.0931-.0827.09-.1089.0887-2.2961-.1004-5.2982-.315-7.0772-.4752-.7193-.0649-1.6145-.1456-2.4015.2224-.6773.317-1.1555,1.0136-1.162,1.6939-.0033.3476.1184.9933.9712,1.4112.2942.1448.641.2309,1.0115.2543l8.0033.9846c.1271.0127.1553.1194.1616.1513.0107.0462.0136.1322-.0772.1875-.4803.2924-2.5371.2412-4.3523.1957-2.2054-.0545-4.2884-.1064-5.2206.2829-1.0954.4568-1.2223,1.1646-1.136,1.6783.1296.7724.8163,1.3838,1.6361,1.4548,2.8081.2401,5.6419.1136,8.4243-.3783.2196-.0389.4303.0341.5773.1984.1493.1676.1999.398.1354.6167-.4663,1.5738-1.9445,2.9668-3.6788,3.4657-2.0778.5981-4.5847.3948-6.8768-.5563-.6857-.2847-1.3771-.6861-2.0531-1.189.3014-1.3425.453-2.6886.0098-3.956-.0444-.1271-.0951-.2539-.1461-.3814-.1451-.3615-.2817-.7031-.2484-1.0281.0582-.559.5862-1.0004,1.1455-1.4678.6939-.58,1.48-1.237,1.2616-2.2314-.0117-.0536-.0356-.1034-.0689-.1463-.5551-.7034-1.5971-.4055-2.3301.1683-1.2716.9958-2.3846,2.2397-3.3486,3.749-.1872-.6815-.319-1.393-.4102-2.1239Z"/>
    <path class="uuid-89173178-1859-4623-9519-988b6e17a94f" d="m117.6941,95.3602c.0411-.2731.0645-.5496.0712-.826,1.2456,1.1238,2.2593,2.5801,2.9364,4.2609.937,2.3259,1.1094,4.7901.5236,6.992-.14.0117-.2958.0088-.4683-.0094-1.7901-.1868-3.3915-1.5213-3.8993-3.2463-.4639-1.5779-.0644-3.2059.3582-4.9302.1795-.7321.3655-1.4898.4782-2.241Z"/>
    <path class="uuid-89173178-1859-4623-9519-988b6e17a94f" d="m121.1863,117.3066c.4549.5473.4546,1.4379.0136,1.995-.0727.0257-.1479.0452-.2267.0582-.6137.078-1.231-.3119-1.5712-.8034-.1021-.1484-.3345-.5422-.2872-1.0059.004-.0232.0089-.0457.0146-.0677.2181-.1921.4995-.3275.8146-.3891.4821-.0939.9557.0037,1.2422.2129Z"/>
    <path class="uuid-89173178-1859-4623-9519-988b6e17a94f" d="m112.1028,155.076c-2.3903.9278-4.9823,1.437-7.5945,1.4603-1.6394-.21-3.2048-.7613-4.5356-1.6543-.7575-.5083-1.2401-.9971-1.518-1.5394-.4722-.92-.6529-2.3509-.5874-3.2883.0599-.8545.1338-1.6992.2212-2.5399.8729-3.3471,1.4069-6.8162,1.9303-10.2164.1887-1.2262.3771-2.4482.5792-3.6575.2333.2142.4695.4183.7083.6105-.078.3201-.163.6399-.2468.9574-.5632,2.1324-1.1461,4.3368.2615,6.0692.8211,1.0108,2.1014,1.5827,3.5114,1.5686,2.7666-.0278,5.5139-1.258,7.5371-3.3761.0602-.0626.1208-.0436.1624-.0164.0574.0385.0722.0903.0447.1526-.9843,2.209-2.1967,3.6585-3.8153,4.562-1.6563.9246-3.761.8262-5.3635-.2509l-.2482-.169c-.5138-.3526-.8845-.6073-1.2765-.4464-.5239.2158-.6611.9298-1.1705,3.5854l-.3135,1.6197c-.1778.9032.1457,2.2807.5601,3.0907,1.1602,2.2636,4.3031,2.246,5.6452,2.2384,3.531-.0199,5.7834-1.1515,7.5316-3.7843.7389-1.1132,1.5196-3.1626,1.7402-4.5702.2767-1.766.4761-3.3757.7064-5.239.072-.5784.146-1.1794.2264-1.8156.3775,1.7064.5683,3.4486.5695,5.2015,0,.1846.1356.3385.3221.3589.1832.0198.3521-.1014.3914-.2817l.9007-4.1078c.0922.5128.2238,1.078.4035,1.7254.0454.1637.1983.2735.3689.264.0786-.005.1517-.0349.2088-.0823-2.3441,5.6678-5.2573,11.9542-7.3147,13.2478-.1797.1129-.3622.2204-.5467.3231Z"/>
    <path class="uuid-89173178-1859-4623-9519-988b6e17a94f" d="m122.0386,87.6035c.1728.0464.3452-.0385.419-.1965.0091-.0197.0164-.0399.0219-.0605.0651.0572.1301.1154.1941.1759,1.2432,1.1685,2.0009,2.8437,2.6694,4.3217.9416,2.0822,3.0739,7.8287,2.5344,16.1972-.7248,11.238-2.8075,20.6186-6.357,28.6016-.0578-.6735-.2105-1.3393-.4556-1.9767-.0541-.1414-.1906-.2341-.3442-.2309-.1516.0027-.2858.1009-.3344.2449-.6271,1.8466-.68,2.7534-.747,3.9016-.0079.1294-.0158.2618-.0243.3992-.0979-.7213-.1076-1.3428-.06-1.9925l2.1813-9.9505c.0334-.1522.0666-.3035.1003-.4572.2621-.5223.3875-1.1215.3735-1.7112,2.0976-9.6723,4.2805-21.078,2.1195-31.7506-.1147-1.0598-.4-2.9891-1.0222-3.9123-.1002-.1484-.2942-.2015-.4556-.1234-.1618.0774-.2418.2619-.1882.433.3779,1.2077.6906,2.4262.945,3.6503.0335.2995.0555.559.0679.7474.4131,3.6952-.0832,7.4791-1.4339,10.9421-.0455.1159-.0916.2301-.1437.3347.4004-2.1434.1588-4.4642-.7274-6.6657-.8111-2.0151-2.0826-3.7272-3.6514-4.9747-.1613-1.3849-.7252-2.6729-1.5685-3.4457-.8017-.735-1.8057-.9837-2.905-.7194-.6239.1499-1.2399.4873-1.7813.9755-.4557.4103-.8851.8536-1.2911,1.3312-.0505.0185-.1009.038-.1511.0575-1.1604.4601-2.1922,1.3749-3.1545,2.7963-2.3258,3.4363-3.0162,7.6021-3.571,11.9271-.2736,2.1331-.5243,4.2691-.7674,6.4057-.0425.3744-.3328.521-.5682.5329-.2455.0122-.5373-.1058-.616-.4736-.3877-1.8001-.5367-4.054-.3805-5.7406.3654-3.9494.8023-7.7937,2.117-11.4071,1.266-3.48,3.6676-6.2617,7.1395-8.2688,1.2394-.7167,2.8542-1.2127,4.5486-1.407,2.3931.2685,4.8524.8548,7.2683,1.4894Z"/>
    <path class="uuid-89173178-1859-4623-9519-988b6e17a94f" d="m93.8195,71.5072c3.8909-4.3912,20.8477-25.2406,23.8633-30.9552,3.3874-6.4193,4.368-13.0753,2.7609-18.7424-.0743-.2629-.1547-.525-.235-.7877-.3758-1.2268-.7307-2.3856-.5203-3.6035.0872-.5084.2895-.9647.5838-1.3209.419-.5057.9408-.7801,1.5515-.8146.82-.0472,1.7971.3621,2.5516,1.0662.7779.7278,8.6134,7.9897,15.4954,14.3365.0283.1204.0674.2386.1192.3514.3535.7789,1.0648,1.2761,1.7044,1.6815.3757.2383.7578.4724,1.1442.702,2.9454,2.711,5.4419,4.9978,6.7147,6.1426.8129.7307,1.6795,1.4224,2.5168,2.0917.7664.6115,1.5482,1.2364,2.2944,1.8954,1.0929,1.578,2.1306,3.1931,3.1126,4.844.2592.4358.4933.8564.6443,1.2713-.1113.3125-.2931.5804-.4965.7836-.4853.4839-1.3535.8534-2.3303.4403l-.2468-.1046c-1.0297-.4378-2.0935-.8904-3.2236-1.028-1.4404-.1755-2.8504.174-4.1596.5772-2.9417.9071-7.2635,3.6454-12.0036,7.1657-.2161.1449-.4312.2905-.6461.4366-4.5664,3.1032-25.6633,21.421-28.3015,24.5365-1.3295-.7268-2.5863-1.5999-3.8188-2.4565-3.3715-2.3437-6.8225-4.7425-9.9818-7.4549.3002-.3586.6025-.7097.9069-1.0543Z"/>
    <path class="uuid-89173178-1859-4623-9519-988b6e17a94f" d="m85.4717,147.2948c-.1997-.2609-.3881-.5229-.5661-.7872-1.1338-1.6849-2.7444-4.5206-3.3689-6.1637-4.4357-11.6644-4.3254-21.5378-2.636-34.651.5732-4.4466,1.9845-9.8773,3.9744-15.2916,2.2537-6.1333,5.6861-12.2709,9.5574-17.141,3.0334,2.6571,6.3368,4.9983,9.5643,7.2854,1.1713.8299,2.3649,1.6755,3.6359,2.3895-.9359,1.3421-1.8286,2.694-2.6795,4.0583-1.1926,1.7997-2.3836,3.8007-3.6156,6.0675-4.5283,8.335-7.6976,16.6892-9.42,24.8318-1.2509,5.9142-1.4847,10.8233-.6951,15.1288l-3.2246,12.0922c-.1898.7138-.3736,1.4451-.5261,2.181Z"/>
    <path class="uuid-89173178-1859-4623-9519-988b6e17a94f" d="m86.6956,145.3001l2.8609-10.7307c.1858.7449.404,1.4712.6553,2.1829.0595.1679.233.2678.4083.2338.1753-.0332.2997-.1899.2931-.3681-.0851-2.2026-.0991-4.3757-.043-6.5174.6713-1.8069,1.4755-3.306,2.5058-5.0134.9331-1.547,2.2051-2.8396,3.7216-3.8095l-.0027.1371c-.0391,1.6443-.0418,3.3104.1313,4.9043-.7719.9499-1.4304,1.9823-1.7264,2.7355-1.1,2.7999-4.7601,14.5908-4.8465,18.1463-.0185.7547.5156,1.21,1.0532,1.3264.6329.1397,1.2292-.1675,1.4798-.7587.0618-.1454.1156-.2917.1614-.4335.6854-2.1346,1.1598-4.3557,1.6191-6.5036.372-1.7431.757-3.5457,1.2513-5.2814.5574-1.957,1.2238-3.6724,2.009-5.1593.4126.9478.966,1.8226,1.7058,2.5951.0067.0075.013.0145.0198.0215-1.2146,5.3496-2.0962,9.8034-2.5761,14.3747-.5844,2.2319-1.3217,4.4034-2.3089,6.4521-.0946.1956-.2206.3826-.3729.5598-2.3226-1.0539-4.5233-2.4783-6.5073-4.2334-.8056-.7128-1.5082-1.4194-2.1215-2.1342.1647-.9172.3921-1.8362.6296-2.7263Z"/>
    <path class="uuid-89173178-1859-4623-9519-988b6e17a94f" d="m90.8928,156.2209c-.1185-.022-.2343-.0432-.3533-.0648-.8295-.1524-1.6571-.3045-2.4847-.4565-.1494-.1048-.2962-.2159-.4321-.3463-1.756-1.6868-2.0052-4.0024-1.7-6.3998.5341.5842,1.127,1.1646,1.786,1.7473,1.9607,1.7347,4.1276,3.1553,6.4154,4.2251-.8567.6576-2.0769,1.1171-3.2314,1.2949Z"/>
  </g>
  <g id="uuid-754aef12-4920-4947-8eac-8a714c54a9b0" data-name="OBJEKTY">
    <path class="uuid-b145bf11-382f-4e72-af9a-be00b3927e27" d="m91.1743,155.2815c.852-.3027,1.6544-.7349,2.2629-1.2778,2.7156,1.169,5.5855,1.8495,8.4682,1.9824.3908.0183.7812.0254,1.1718.0222,2.655.3227,5.4893-.1895,7.9229-1.5308,2.5242-.9877,4.8308-2.4282,6.7205-4.2489,1.8892-1.8203,3.3759-4.0031,4.4596-5.7017,9.8934-15.4988,13.4611-34.7213,9.7883-52.7385-.5642-2.7681-1.3363-5.6467-3.1469-7.9494-1.9958-2.5367-5.2219-4.2524-9.0789-4.829-2.163-.324-5.4036-.3484-8.8904-.0671-.6914.0556-1.1912.5817-1.2151,1.2782-.024.6942.4319,1.2493,1.12,1.3532.5477.0823,1.1495.1446,1.61.1663,3.3077.1574,7.0214.639,9.4916,3.0152,1.4258,1.3718,2.2643,3.2334,2.897,4.8738,4.4934,11.6512,4.0069,26.407-1.1344,38.3152,1.8766-6.2368,3.051-13.2195,3.56-21.107.5502-8.5304-1.6331-14.4096-2.5972-16.5413-.696-1.539-1.4853-3.2836-2.8332-4.5501-2.348-2.2071-5.6306-2.4315-8.805-2.6487-1.8351-.1256-3.7323-.2551-5.4389-.7635-.6783-.2021-1.3323-.4654-1.9663-.7716.0512-.0616.1029-.1229.1546-.184.8155-.9611,6.4199-6.4842,13.2934-12.6497,2.5259-2.2343,5.0517-4.4327,7.2509-6.3061,2.1401-1.7961,4.2864-3.5343,6.353-5.1173,4.5297-3.1428,9.0088-5.8468,13.863-5.1887.5356.0723,1.0834.1907,1.6124.3044,1.3153.2837,2.6758.5761,4.0925.2507.9649-.2223,1.768-.7517,2.2614-1.4896.5803-.8696.5793-1.712.3665-2.4584.142-.5806.0864-1.2038-.1802-1.7918-.5154-1.1399-1.2627-2.2466-2.2205-3.2893-.4374-.4768-.9023-.9282-1.381-1.3632-1.5536-2.2968-3.2222-4.5125-4.9996-6.638.0126-.1515-.0726-.3004-.2202-.3627-.0439-.0185-.0884-.0368-.1322-.0553-1.9127-2.2559-3.9493-4.4096-6.1022-6.4507-.2839-.2694-.5896-.4588-.9075-.5632-.6406-.2108-1.2347-.0833-1.6271.3493-.1714.1888-.294.4274-.3644.6866-6.443-6.0741-13.5779-12.8332-14.302-13.5254-.8734-.8348-1.9884-1.2954-2.9834-1.2325-.7838.0498-1.4767.4197-2.005,1.0707-.3613.4454-.6093,1.0089-.7162,1.6284-.2348,1.3602.1395,2.6286.5019,3.8549.0743.2524.1491.5043.218.7571,1.4661,5.3687.5178,11.7076-2.6714,17.8497-2.8313,5.4523-19.2821,26.1209-22.8983,30.2899-.2911.3358-.5804.6792-.8676,1.0297-1.1244-1.0121-2.2058-2.0701-3.2248-3.1879-.5859-.6433-1.2215-1.4012-1.349-2.2662-.0664-.4484.0712-.9666.3511-1.3194.141-.1779.3829-.3962.7335-.4255.1945-.0164.3409-.1842.3302-.3791-.0101-.1948-.1725-.3463-.3685-.3421-1.2875.0306-2.4317,1.0795-2.6123,2.3428-.522.1562-.9876-.0863-1.2335-.2578-.6796-.4744-1.1035-1.3418-1.0309-2.1086.1161-1.2254.9404-2.2395,1.9209-3.1471.1691-.1.3283-.2479.4825-.407,1.285.224,2.3332,1.4583,2.3251,2.7699-.001.1883.1421.3452.3301.3624.1879.0159.3562-.115.3869-.3004.1436-.8604.3406-2.038-.1495-3.0319-.2925-.593-.9015-1.0485-1.5728-1.173-.5247-.0937-1.0077.0374-1.3597.3706-.0963.0906-.1976.2-.3012.3112-.0147.0164-.031.0338-.0481.0525-.1718.146-.344.2973-.5139.4532-.0023-.0028-.0054-.0063-.0087-.0093-.1299-.1513-.3578-.1683-.5092-.038-.1509.1299-.1678.3579-.0379.5087.0121.0143.0244.0277.0367.0407-.8657.889-1.5818,1.9293-1.6998,3.1693-.096,1.0131.4532,2.1519,1.3363,2.7689.686.4789,1.4662.5686,2.141.2454.1204-.0572.1991-.1762.2048-.3093.0096-.2121.0585-.4198.14-.615-.0187.193-.015.3861.0125.5731.1575,1.0661.8722,1.9253,1.5301,2.6473,1.0455,1.1469,2.1529,2.2295,3.3035,3.264-3.9284,4.9348-7.4103,11.1563-9.6944,17.3721-2.0076,5.4632-3.4329,10.9492-4.0126,15.4488-1.7041,13.2259-1.8123,23.1926,2.6775,34.9986.7178,1.8885,2.4461,4.827,3.4445,6.3101.3008.4469.6301.8874.9905,1.3238-.4294,2.6218-.3032,5.2228,1.4598,7.227l1.0252.9229c.4329.2778.9006.4775,1.3905.5726.2408.0468.4856.0707.7322.0697.308,0,.6325-.0311.9617-.0765.1719.0314.3446.0631.5163.095l1.2082-.5131Zm-5.0533-96.4733c.4312.0718.8611.3921,1.0527.7814.1166.2366.184.4894.2156.757-.4426-.6701-1.1018-1.2024-1.8572-1.4622.201-.1112.4231-.106.5889-.0761Zm7.842,94.6343c.1329-.1732.2469-.3549.3378-.544.5421-1.1249,1.0102-2.2835,1.4186-3.4657.0295.9501.2331,2.1249.6761,2.9899.3361.6552.895,1.2299,1.7582,1.809.4515.303.9279.5691,1.4244.7984-1.9112-.292-3.7968-.8274-5.6152-1.5877Zm2.5083-25.1862c-.9402,1.6559-1.724,3.5978-2.3643,5.8461-.5007,1.759-.8881,3.5735-1.2633,5.3281-.4549,2.1305-.9254,4.3336-1.5999,6.4339-.0395.1218-.0854.2472-.1384.3721-.1375.323-.4277.3875-.6631.3351-.2288-.0497-.4931-.2373-.484-.6029.0811-3.3124,3.5235-14.6593,4.7969-17.8999.2127-.5424.6536-1.2668,1.1904-1.991.1223.7513.2923,1.4808.5257,2.1784Zm-.0716-8.0746l.0132-.5864c.8977-.4885,1.8689-.8712,2.8956-1.1347.2076-.0537.415-.1142.6206-.175,1.2885-.3791,2.0485-.5461,2.6676.423.3792.594.4511,1.2881.1917,1.856-.4185.9158-1.4752,1.2148-2.5939,1.532-.698.1982-1.4201.4024-2.0411.7696-.5288.3121-1.119.8354-1.6882,1.4473-.1048-1.3499-.0976-2.7485-.0654-4.1318Zm.1641,5.1155c.6531-.7725,1.3656-1.4601,1.9567-1.8096.5407-.3195,1.2172-.5109,1.871-.6962,1.2272-.3478,2.4961-.7073,3.0533-1.9271.3619-.7921.2721-1.7425-.2399-2.544-.9412-1.474-2.2898-1.0768-3.48-.727-.1973.0581-.3962.1163-.5961.1677-.9481.2438-1.8508.5827-2.6968,1.0093l.2959-12.9837c.0792-3.4043.1694-7.2632,1.1415-10.7532,1.0628-3.8164,3.1362-6.8399,5.8377-8.5134,2.0849-1.2917,4.423-1.7879,6.8848-1.8092-.7851.2519-1.5127.5678-2.1485.9355-3.5713,2.0649-6.1495,5.0546-7.456,8.6466-1.3443,3.695-1.7873,7.5899-2.1574,11.5883-.1626,1.7536-.0086,4.0928.3926,5.9593.1393.6458.6974,1.0746,1.3579,1.0421.6615-.0328,1.1752-.5147,1.2503-1.1731.2424-2.1328.4928-4.2651.7658-6.3949.5434-4.2342,1.2161-8.309,3.4531-11.6144.5273-.7791,1.0712-1.3891,1.6425-1.8394-1.3518,2.034-2.3875,4.5922-3.1819,7.8165-.4997,2.0278-.9544,4.421-.5355,6.7993.4514,2.564,1.9126,4.643,3.9083,5.5619,1.4614.6727,3.3082.5972,4.7067-.1927.5021-.2839.8236-.8013.8605-1.384.0362-.5843-.2189-1.1399-.6829-1.4851-1.7531-1.306-2.9614-3.6303-3.233-6.2188-.3121-2.9797.4499-5.9459,1.1872-8.8149.1546-.6012.5305-1.1661.856-1.2862.1146-.042.2135-.0251.33.0569.1501.106.2426.2995.241.5053-.0088,1.5321-.4074,3.0567-.793,4.5315-.2593.992-.5275,2.0176-.6827,3.0542-.3573,2.3863.0494,5.474,2.2631,6.9845.2444.1669.5082.3121.7719.4563.5115.2807.9944.5451,1.2965.9658.6082.8472.3387,2.0994.1011,3.2044l-.0667.3113c-.0788.379-.2231.7025-.4289.9619-.507.6373-.9278.5196-1.567.3408-.1754-.0494-.3512-.098-.5295-.1306l-.1873-.0335c-2.1637-.3928-4.4013-.799-6.8591-.267-.5603.1215-1.1966.8368-1.1396,1.4992.0448.53.4615.9677,1.025,1.0695l8.5842,1.5304c.1484.026.1774.1559.1781.2093.0002.0556-.0173.188-.184.2189-1.1984.2235-2.7727-.0175-4.2949-.2506-1.6302-.2499-3.3154-.508-4.6067-.2028-.5414.128-.9126.6492-.9229,1.2971-.0101.6302.3348,1.1489.8716,1.2939l8.8689,2.0448c.0246.0068.0911.0254.0762.1189-.0148.0931-.0827.09-.1089.0887-2.2961-.1004-5.2982-.315-7.0772-.4752-.7193-.0649-1.6145-.1456-2.4015.2224-.6773.317-1.1555,1.0136-1.162,1.6939-.0033.3476.1184.9933.9712,1.4112.2942.1448.641.2309,1.0115.2543l8.0033.9846c.1271.0127.1553.1194.1616.1513.0107.0462.0136.1322-.0772.1875-.4803.2924-2.5371.2412-4.3523.1957-2.2054-.0545-4.2884-.1064-5.2206.2829-1.0954.4568-1.2223,1.1646-1.136,1.6783.1296.7724.8163,1.3838,1.6361,1.4548,2.8081.2401,5.6419.1136,8.4243-.3783.2196-.0389.4303.0341.5773.1984.1493.1676.1999.398.1354.6167-.4663,1.5738-1.9445,2.9668-3.6788,3.4657-2.0778.5981-4.5847.3948-6.8768-.5563-.6857-.2847-1.3771-.6861-2.0531-1.189.3014-1.3425.453-2.6886.0098-3.956-.0444-.1271-.0951-.2539-.1461-.3814-.1451-.3615-.2817-.7031-.2484-1.0281.0582-.559.5862-1.0004,1.1455-1.4678.6939-.58,1.48-1.237,1.2616-2.2314-.0117-.0536-.0356-.1034-.0689-.1463-.5551-.7034-1.5971-.4055-2.3301.1683-1.2716.9958-2.3846,2.2397-3.3486,3.749-.1872-.6815-.319-1.393-.4102-2.1239Zm-7.0346,1.4985c.5293-11.0481,2.9755-21.3082,7.3928-30.9641-.7611,3.2979-.8431,6.8077-.9161,9.9385l-.305,13.3988c-1.7899,1.0515-3.2855,2.5147-4.3597,4.2951-.6953,1.1524-1.2901,2.2125-1.8119,3.3318Zm-.8251,5.7734c-.0566-.2542-.1098-.5111-.1589-.7695l.1222-.4588c.0102-.0378.0203-.0752.0306-.113-.001.4469.0014.8919.0061,1.3413Zm.0306-3.858c-.1592.4343-.3107.8864-.456,1.3633-.4634-3.8335-.1525-8.1719.929-13.2824.7664-3.6235,1.8223-7.2905,3.1598-10.9801-2.2083,7.2679-3.4124,14.8775-3.6327,22.8993Zm24.4421-37.3593c.8661.3169,1.6842.7654,2.4347,1.3265.0313.4415.0172.8897-.0481,1.325-.1079.7186-.2896,1.4594-.4653,2.1764-.4271,1.7406-.8688,3.5407-.35,5.3053.5885,1.9983,2.4466,3.5451,4.5174,3.7611.1095.0112.2156.0179.3175.0195-.1179.3334-.2543.66-.4093.9771l-.1907.3794c-.1034.2043-.2085.4099-.305.6199-.2076.1482-.3915.3341-.5402.5541-.6099.9031-.3161,1.801-.0802,2.5227l1.2865,3.927c-.3616.0003-.7255.0907-1.0596.26-.2881.1302-.5516.3188-.7708.5612-.2234.2468-.3784.5212-.4656.8094-.0931.1042-.176.2176-.247.3381-.3241.553-.3851,1.2501-.1671,1.9135.1673.5068.4764.9329.8757,1.2185-.2585.358-.4895.7372-.6907,1.1317-.5619.2756-1.0266.8083-1.2422,1.4672-.2318.7071-.1184,1.3929.2996,1.876-.221.6885-.1864,1.3183.1051,1.8795.4061.7834,1.2677,1.2399,2.1725,1.1843-.3621.3484-.7317.587-1.1.7098-.1811.0603-.3699.097-.5582.1352-.6043.1211-1.3565.272-1.8247,1.1571-.2546.481-.3281,1.0471-.2138,1.57-.1912.5922-.1689,1.2037.0728,1.7346.3555.7798,1.2154,1.2696,2.1943,1.2476.3786-.0085.7284-.0978,1.0267-.2534-.011.0713-.0219.1425-.033.2122-.133.8505-.2433,1.5543-.2959,2.2352l-.8932,4.0742c-.1658-1.5296-.4738-3.0417-.921-4.5199-.0487-.162-.2045-.2685-.3746-.2549-.1689.0132-.306.1434-.3282.3123-.1807,1.3582-.3284,2.5507-.4653,3.6589-.2302,1.8575-.4285,3.4617-.7033,5.2156-.2037,1.2991-.9496,3.2608-1.6287,4.2829-1.599,2.4081-3.6725,3.4435-6.9342,3.4616-1.8818.0106-4.1499-.1895-4.9981-1.8458-.3527-.6882-.6352-1.9057-.4949-2.6218l.3141-1.6226c.3237-1.6869.5575-2.9058.7079-3.0478.0043-.0001.0085.0007.0132.0016.1049.0204.3835.2107.6086.3657l.2541.1731c1.8535,1.2462,4.198,1.3546,6.118.2823,1.7617-.9831,3.0718-2.5404,4.1224-4.8986.1707-.3821.0465-.8121-.3015-1.0455-.3502-.235-.7964-.1869-1.0867.1175-1.8895,1.9771-4.4489,3.1262-7.0222,3.1518-1.1884.012-2.2623-.4627-2.944-1.3017-1.176-1.448-.6648-3.3814-.1239-5.429.0591-.2226.1178-.4462.1753-.6706.6453.4557,1.304.8254,1.9596,1.0975,2.4422,1.0132,5.1214,1.2256,7.3531.5835,1.9614-.5645,3.6379-2.1537,4.1713-3.9548.1363-.4604.0285-.947-.2886-1.3026-.3129-.35-.7763-.51-1.2421-.4282-2.7203.4809-5.4918.6052-8.2365.3697-.4926-.042-.9099-.4026-.9861-.8553-.0442-.261-.0038-.5979.7018-.8926.7907-.3295,2.987-.2753,4.9249-.2271,2.5412.0636,4.1285.0745,4.7453-.3007.33-.2006.4902-.5758.4082-.9563-.0836-.387-.386-.6678-.7799-.7159l-8.0236-.9862c-.2955-.0195-.5521-.0813-.761-.1837-.3792-.1864-.5701-.4411-.5673-.7567.0038-.3997.3247-.8497.7458-1.0471.6107-.2848,1.3653-.2169,2.0311-.1577,1.787.1613,4.8031.3772,7.1108.478.4275.0187.7867-.2746.8528-.6974.0669-.4234-.1845-.8133-.6121-.9308l-8.8707-2.0456c-.2456-.0664-.3286-.3555-.3249-.582.0039-.2598.1186-.5473.3671-.606,1.1546-.2728,2.7695-.0258,4.3312.2136,1.5819.2419,3.2177.4928,4.5363.2472.4573-.0853.7755-.4687.7737-.9318-.0016-.4589-.2933-.8339-.7735-.9171l-8.5842-1.5305c-.2242-.0435-.4152-.2183-.4325-.4207-.0223-.2629.3364-.6805.5733-.7319,2.3175-.5012,4.4831-.1085,6.5777.2717l.1872.034c.1561.0283.3098.0717.464.115.6778.1896,1.5217.4259,2.3266-.5876.2766-.3473.4685-.7729.5705-1.2633l.0652-.3063c.2564-1.1897.5751-2.6703-.2201-3.7772-.3979-.554-.9762-.8712-1.5359-1.1779-.2427-.133-.4864-.2662-.7117-.4202-1.9376-1.3221-2.281-4.1111-1.9562-6.2807.1492-.9984.4124-2.0054.6671-2.9785.3968-1.5177.807-3.0871.817-4.7097.0021-.4456-.2024-.857-.5476-1.1001-.3113-.2192-.6565-.2694-.995-.1443-.6467.238-1.1219,1.0676-1.306,1.7839-.7177,2.7947-1.5316,5.9614-1.2055,9.0693.2917,2.7862,1.6077,5.2989,3.5192,6.7233.2678.1992.415.5208.3936.8606-.0216.3383-.2067.6376-.4956.8012-1.2019.6794-2.792.7442-4.0489.1649-1.754-.8076-3.0949-2.7352-3.4992-5.0306-.3955-2.2461.0436-4.5475.5253-6.502.9409-3.8184,2.2206-6.665,3.9691-8.7875,1.4262-.4411,2.9439-.0961,3.9965.2896Zm-3.1879-1.1863c.1766-.1787.3574-.3512.5424-.5187.4527-.4076.9599-.6875,1.4671-.8096.8658-.2084,1.6228-.0236,2.2487.5497.5733.5257.999,1.3663,1.2169,2.3093-.6422-.4173-1.3252-.7609-2.0388-1.0228-.417-.1525-.9009-.2987-1.4254-.4005-.6282-.122-1.3143-.1798-2.0108-.1074Zm6.2885,3.9448c.0411-.2731.0645-.5496.0712-.826,1.2456,1.1238,2.2593,2.5801,2.9364,4.2609.937,2.3259,1.1094,4.7901.5236,6.992-.14.0117-.2958.0088-.4683-.0094-1.7901-.1868-3.3915-1.5213-3.8993-3.2463-.4639-1.5779-.0644-3.2059.3582-4.9302.1795-.7321.3655-1.4898.4782-2.241Zm6.71,3.6443c.234,3.3352.1232,6.6923-.2034,10.027-.1652-.2483-.3889-.4674-.6654-.6467-.2658-.1725-.5537-.2854-.8463-.3422-.3365-.0653-.6794-.0552-1.0017.0285-.1963-.019-.3941-.0132-.5873.0159l.1392-.2775c.2215-.4539.4079-.9252.5589-1.4086.183-.0632.3443-.1528.4828-.2688.325-.2707.4915-.6489.6338-1.0136.7658-1.9626,1.2649-4.0251,1.4893-6.114Zm-.5883,11.2804c-.0177-.2869-.0809-.5567-.1854-.8038.1747.291.2003.589.1854.8038Zm-1.7417,1.214c-.5515.034-1.1773-.2752-1.2532-1.0352-.0401-.3991.0095-.9631.4703-1.3825.1348-.1235.2907-.2151.4581-.2747.2057.0371.3923.1088.5726.2206.6224.3866.7658.9616.7766,1.3757.0197.7603-.5398,1.0655-1.0244,1.0962Zm.8194,1.0166c.3748-.1272.7109-.3564.9803-.6519-.2541,1.9292-.569,3.8446-.9189,5.7403-.0325-.7637-.4371-1.5031-1.3324-1.8746-.0098-.0039-.0201-.0077-.0298-.0121l-1.3471-4.1139c.0449.0533.092.1046.1416.1551,1.0348,1.0488,2.0148.9245,2.5063.757Zm-4.8697,20.7679c.8379-.0766,1.5712-.5899,1.8839-1.2765l-.2195,1.0021c-.1421.0027-.2731.0894-.3285.2264-.1784.445-.6402.7189-1.2353.7324-.564.0128-1.2526-.2375-1.5203-.8253-.0495-.1084-.0854-.2223-.1076-.3403.3965.359.9325.5356,1.5272.4812Zm-1.3765-1.5095c-.0049-.0116-.0093-.0234-.0142-.0353.0241-.0553.0506-.1101.0795-.1649.327-.6119.9139-1.0557,1.5322-1.1577.2281-.0378.5495-.0506.7803.104.2971.1991.3654.6307.3032.9481-.127.6492-.7858,1.0432-1.3707,1.0965-.2896.0263-.9977.0025-1.3104-.7907Zm2.7792-1.8537c-.1569-.1053-.3382-.1775-.5388-.2164-.2301-.0447-.4862-.045-.7601-.0003-.4708.0778-.926.2979-1.3102.6194.3032-.4476.721-.5315,1.2371-.6356.2174-.0431.4352-.0877.645-.1578.5232-.1747,1.034-.5182,1.5177-1.0209.2276-.2359.4362-.5024.6137-.7893.0069-.0039.0131-.0084.0196-.0125l-.7778,3.5493c.0037-.5504-.2352-1.0611-.6462-1.336Zm-1.456-3.7701c.6947.6312,1.8315.8458,2.531.1111.0777-.0814.1462-.1697.2043-.264-.0406.4064-.186.8147-.3977,1.1909-.1622.087-.3414.1529-.5372.193-.7099.148-1.422-.1663-1.7321-.7627-.0911-.1754-.1448-.3609-.1617-.558.0296.0302.0607.0602.0934.0897Zm.1381-1.1882c.0427-.0934.0904-.1891.1445-.2871.2939-.5333.8454-.5994,1.2307-.4939.3707.1012.7599.409.7422.9671-.0075.2441-.0909.451-.2475.6153-.3899.4092-1.0936.2418-1.523-.1475-.1263-.1152-.3401-.3529-.347-.654Zm2.7324-.8786c-.3333-.4058-.7771-.6746-1.2536-.7671-.1128-.0219-.2279-.0338-.3433-.035-.3348-.0046-.6541.0783-.9385.2389.1184-.4197.2715-.8302.4566-1.2255.0702-.0205.1416-.0353.2135-.0424,1.2204-.1271,2.2614,1.028,2.468,2.1871.0213.1202.0354.2424.0419.365-.0315.1449-.0629.2895-.0943.4335-.0791-.403-.2545-.7938-.5504-1.1544Zm-1.2145-2.517c-.1461-.0284-.2961-.044-.4483-.0458.1716-.2808.3612-.551.5668-.807.0709-.0884.0963-.2043.0686-.3138-.0272-.1094-.1042-.1996-.2077-.2442-.3985-.1709-.7151-.5364-.8686-1.0032-.0328-.0999-.0569-.2005-.0725-.3009.0341.0594.0711.1178.1113.1755.2773.3997.6776.7192,1.1277.8986.3886.1551.7591.1987,1.1001.1565.1768-.0166.3551-.0577.5312-.1271.0373-.0147.0716-.0355.1015-.0608.5005-.2434.8914-.6826,1.1119-1.1909-.2983,1.5536-.6168,3.0928-.9411,4.6098-.4483-.8555-1.2421-1.5645-2.1808-1.7468Zm1.56-4.2598c.4549.5473.4546,1.4379.0136,1.995-.0727.0257-.1479.0452-.2267.0582-.6137.078-1.231-.3119-1.5712-.8034-.1021-.1484-.3345-.5422-.2872-1.0059.004-.0232.0089-.0457.0146-.0677.2181-.1921.4995-.3275.8146-.3891.4821-.0939.9557.0037,1.2422.2129Zm-.9717-.9686c.365-.1061.7677-.0927,1.1316.0586.7431.3083.9616.9661.8693,1.5702-.0645-.4212-.24-.8317-.5317-1.1771-.2662-.2052-.5809-.343-.9193-.4087-.1779-.0345-.3625-.0497-.5499-.043Zm-18.0303,9.1524c.3715-.2905.9829-.5665,1.264-.344.0502.4846-.3644.8713-1.0343,1.4309-.6158.514-1.3127,1.0968-1.4007,1.9478-.0519.5022.1332.9641.2965,1.3708.0468.117.0936.234.1346.3514.3476.9936.2649,2.0941.0402,3.2146-.2502-.2131-.4974-.4395-.7397-.6789l.0045-.0231c.0336-.1931-.0927-.3773-.2847-.4165-.0669-.0111-.098-.009-.1445.0007-.7351-.8104-1.2635-1.7457-1.6396-2.7659.9925-1.6779,2.1557-3.0319,3.5036-4.0878Zm9.9185,29.5856c-2.3903.9278-4.9823,1.437-7.5945,1.4603-1.6394-.21-3.2048-.7613-4.5356-1.6543-.7575-.5083-1.2401-.9971-1.518-1.5394-.4722-.92-.6529-2.3509-.5874-3.2883.0599-.8545.1338-1.6992.2212-2.5399.8729-3.3471,1.4069-6.8162,1.9303-10.2164.1887-1.2262.3771-2.4482.5792-3.6575.2333.2142.4695.4183.7083.6105-.078.3201-.163.6399-.2468.9574-.5632,2.1324-1.1461,4.3368.2615,6.0692.8211,1.0108,2.1014,1.5827,3.5114,1.5686,2.7666-.0278,5.5139-1.258,7.5371-3.3761.0602-.0626.1208-.0436.1624-.0164.0574.0385.0722.0903.0447.1526-.9843,2.209-2.1967,3.6585-3.8153,4.562-1.6563.9246-3.761.8262-5.3635-.2509l-.2482-.169c-.5138-.3526-.8845-.6073-1.2765-.4464-.5239.2158-.6611.9298-1.1705,3.5854l-.3135,1.6197c-.1778.9032.1457,2.2807.5601,3.0907,1.1602,2.2636,4.3031,2.246,5.6452,2.2384,3.531-.0199,5.7834-1.1515,7.5316-3.7843.7389-1.1132,1.5196-3.1626,1.7402-4.5702.2767-1.766.4761-3.3757.7064-5.239.072-.5784.146-1.1794.2264-1.8156.3775,1.7064.5683,3.4486.5695,5.2015,0,.1846.1356.3385.3221.3589.1832.0198.3521-.1014.3914-.2817l.9007-4.1078c.0922.5128.2238,1.078.4035,1.7254.0454.1637.1983.2735.3689.264.0786-.005.1517-.0349.2088-.0823-2.3441,5.6678-5.2573,11.9542-7.3147,13.2478-.1797.1129-.3622.2204-.5467.3231Zm8.6134-19.0002c.1407.7607.1454,1.5434.0104,2.311-.0311.1776.0733.3509.2449.4063.0288.0094.0581.0146.087.0164-.3008.7541-.6178,1.5391-.9468,2.3391.1646-1.0947.2091-1.8526.248-2.5246.0497-.8512.089-1.5257.3566-2.5481Zm3.8848-4.2325c6.3201-12.6308,7.1803-28.4269,2.2454-41.2233-.6615-1.7142-1.5427-3.6651-3.0704-5.1345-1.6189-1.558-3.7008-2.3521-5.862-2.7717-1.3658-.2652-2.7635-.3812-4.0961-.4447-.4372-.0206-1.0118-.08-1.5366-.1588-.3904-.0595-.5143-.3675-.5057-.6143.0082-.2498.158-.5521.5512-.5836,3.4347-.2771,6.6147-.2549,8.7255.0615,3.6791.5517,6.7371,2.1704,8.6186,4.5622,1.7175,2.1839,2.4604,4.9656,3.0071,7.6464,3.6357,17.8355.1038,36.8635-9.6897,52.2062-1.0623,1.6648-2.5171,3.8016-4.3521,5.5701-1.2389,1.1935-2.6637,2.2176-4.215,3.0507,3.0031-3.8103,6.7098-13.3533,8.8378-18.8319.6307-1.6253,1.1299-2.9093,1.342-3.3343Zm-2.5624-44.2398c.1728.0464.3452-.0385.419-.1965.0091-.0197.0164-.0399.0219-.0605.0651.0572.1301.1154.1941.1759,1.2432,1.1685,2.0009,2.8437,2.6694,4.3217.9416,2.0822,3.0739,7.8287,2.5344,16.1972-.7248,11.238-2.8075,20.6186-6.357,28.6016-.0578-.6735-.2105-1.3393-.4556-1.9767-.0541-.1414-.1906-.2341-.3442-.2309-.1516.0027-.2858.1009-.3344.2449-.6271,1.8466-.68,2.7534-.747,3.9016-.0079.1294-.0158.2618-.0243.3992-.0979-.7213-.1076-1.3428-.06-1.9925l2.1813-9.9505c.0334-.1522.0666-.3035.1003-.4572.2621-.5223.3875-1.1215.3735-1.7112,2.0976-9.6723,4.2805-21.078,2.1195-31.7506-.1147-1.0598-.4-2.9891-1.0222-3.9123-.1002-.1484-.2942-.2015-.4556-.1234-.1618.0774-.2418.2619-.1882.433.3779,1.2077.6906,2.4262.945,3.6503.0335.2995.0555.559.0679.7474.4131,3.6952-.0832,7.4791-1.4339,10.9421-.0455.1159-.0916.2301-.1437.3347.4004-2.1434.1588-4.4642-.7274-6.6657-.8111-2.0151-2.0826-3.7272-3.6514-4.9747-.1613-1.3849-.7252-2.6729-1.5685-3.4457-.8017-.735-1.8057-.9837-2.905-.7194-.6239.1499-1.2399.4873-1.7813.9755-.4557.4103-.8851.8536-1.2911,1.3312-.0505.0185-.1009.038-.1511.0575-1.1604.4601-2.1922,1.3749-3.1545,2.7963-2.3258,3.4363-3.0162,7.6021-3.571,11.9271-.2736,2.1331-.5243,4.2691-.7674,6.4057-.0425.3744-.3328.521-.5682.5329-.2455.0122-.5373-.1058-.616-.4736-.3877-1.8001-.5367-4.054-.3805-5.7406.3654-3.9494.8023-7.7937,2.117-11.4071,1.266-3.48,3.6676-6.2617,7.1395-8.2688,1.2394-.7167,2.8542-1.2127,4.5486-1.407,2.3931.2685,4.8524.8548,7.2683,1.4894Zm-13.3212-3.3275c1.7833.5313,3.7216.6635,5.596.792.9401.0644,1.8646.1275,2.7561.2367-.783-.0407-1.5732-.0123-2.3473.0767-3.5581-.3848-6.9919-.0755-9.9785,1.7745-.7125.4415-1.3836.9702-2.0063,1.5764.2702-.4507.5464-.9025.8259-1.3514.965-1.4549,1.9311-2.7749,2.9211-3.9952.715.3537,1.4563.6588,2.233.8902Zm46.7649-33.0198c.0383-.0391.0752-.0789.111-.1195-.042.295-.1533.5918-.3555.8946-.3903.5846-1.0376,1.0062-1.8223,1.1867-1.2606.2901-2.4848.0265-3.7784-.2525-.5428-.1169-1.104-.2378-1.6681-.3143-2.4447-.3313-4.8186.1617-7.1212,1.1071,1.8349-1.1301,3.4676-1.9633,4.7992-2.3887,1.1776-.3762,2.4389-.7039,3.6811-.5553.1255.0157.2501.0356.3755.0599.8495.1649,1.6904.5277,2.5079.8797l.2368.1021c1.0628.4549,2.2249.2253,3.0341-.5999Zm-5.2299-9.5653c-.0372-.0303-.0737-.0604-.111-.0906-.7912-.6457-1.61-1.3122-2.3695-2.0098-.8951-.8222-2.4237-2.25-4.2908-4.0019,1.0222.5279,2.0739,1.0228,3.1501,1.4826,1.2622,1.4954,2.4702,3.0355,3.6212,4.6197Zm-11.2829-11.3973c.2007-.2214.4915-.2714.8672-.1486.2158.0716.43.2063.6361.4017,1.7636,1.6724,3.4491,3.4212,5.0513,5.2403-1.4599-.6796-2.8666-1.4262-4.2066-2.2317-.8333-.7844-1.704-1.6043-2.5922-2.4415-.0206-.3085.066-.6236.2442-.8203Zm-45.21,41.367c3.7461-4.3188,20.0796-24.8182,22.9932-30.4297,3.2728-6.3034,4.2413-12.8283,2.7269-18.3729-.07-.2572-.1458-.5137-.2216-.7706-.3546-1.2002-.6894-2.3338-.4825-3.5278.0858-.4985.2815-.9463.565-1.2965.4035-.4973.9046-.7684,1.4896-.8048.7857-.0498,1.7197.3468,2.4393,1.0333.7419.7096,8.215,7.7891,14.779,13.9764.0265.1178.0635.2335.1126.3437.3351.7614,1.0143,1.2454,1.6251,1.6397.3588.2318.7238.4594,1.0929.6827,2.8093,2.6429,5.1904,4.8721,6.4045,5.988.7754.7122,1.6024,1.386,2.4015,2.038.7314.5957,1.4775,1.2044,2.1893,1.8467,1.0399,1.541,2.0267,3.1187,2.96,4.7317.2464.4258.4687.8368.6115,1.2426-.108.3066-.2833.5699-.479.7698-.467.4762-1.3002.842-2.234.4416l-.2359-.1014c-.9843-.4243-2.0013-.863-3.0831-.9929-1.3789-.1655-2.731.183-3.9868.5838-2.8217.9016-6.9732,3.6031-11.5289,7.0726-.2076.1429-.4143.2864-.6208.4305-4.3875,3.0601-24.6754,21.0976-27.216,24.1613-1.2702-.7062-2.4702-1.5559-3.647-2.3897-3.219-2.2811-6.514-4.6159-9.5281-7.2592.2891-.3526.5802-.6979.8733-1.0368Zm-8.2877,75.634c-.1997-.2609-.3881-.5229-.5661-.7872-1.1338-1.6849-2.7444-4.5206-3.3689-6.1637-4.4357-11.6644-4.3254-21.5378-2.636-34.651.5732-4.4466,1.9845-9.8773,3.9744-15.2916,2.2537-6.1333,5.6861-12.2709,9.5574-17.141,3.0334,2.6571,6.3368,4.9983,9.5643,7.2854,1.1713.8299,2.3649,1.6755,3.6359,2.3895-.9359,1.3421-1.8286,2.694-2.6795,4.0583-1.1926,1.7997-2.3836,3.8007-3.6156,6.0675-4.5283,8.335-7.6976,16.6892-9.42,24.8318-1.2509,5.9142-1.4847,10.8233-.6951,15.1288l-3.2246,12.0922c-.1898.7138-.3736,1.4451-.5261,2.181Zm1.2238-1.9946l2.8609-10.7307c.1858.7449.404,1.4712.6553,2.1829.0595.1679.233.2678.4083.2338.1753-.0332.2997-.1899.2931-.3681-.0851-2.2026-.0991-4.3757-.043-6.5174.6713-1.8069,1.4755-3.306,2.5058-5.0134.9331-1.547,2.2051-2.8396,3.7216-3.8095l-.0027.1371c-.0391,1.6443-.0418,3.3104.1313,4.9043-.7719.9499-1.4304,1.9823-1.7264,2.7355-1.1,2.7999-4.7601,14.5908-4.8465,18.1463-.0185.7547.5156,1.21,1.0532,1.3264.6329.1397,1.2292-.1675,1.4798-.7587.0618-.1454.1156-.2917.1614-.4335.6854-2.1346,1.1598-4.3557,1.6191-6.5036.372-1.7431.757-3.5457,1.2513-5.2814.5574-1.957,1.2238-3.6724,2.009-5.1593.4126.9478.966,1.8226,1.7058,2.5951.0067.0075.013.0145.0198.0215-1.2146,5.3496-2.0962,9.8034-2.5761,14.3747-.5844,2.2319-1.3217,4.4034-2.3089,6.4521-.0946.1956-.2206.3826-.3729.5598-2.3226-1.0539-4.5233-2.4783-6.5073-4.2334-.8056-.7128-1.5082-1.4194-2.1215-2.1342.1647-.9172.3921-1.8362.6296-2.7263Zm4.1973,10.9208c-.1185-.022-.2343-.0432-.3533-.0648-.8295-.1524-1.6571-.3045-2.4847-.4565-.1494-.1048-.2962-.2159-.4321-.3463-1.756-1.6868-2.0052-4.0024-1.7-6.3998.5341.5842,1.127,1.1646,1.786,1.7473,1.9607,1.7347,4.1276,3.1553,6.4154,4.2251-.8567.6576-2.0769,1.1171-3.2314,1.2949Z"/>
  </g>
</svg>