<?xml version="1.0" encoding="UTF-8"?>
<svg xmlns="http://www.w3.org/2000/svg" viewBox="0 0 165 165">
  <defs>
    <style>
      .uuid-7af9be9e-ab7d-4016-9085-bb4e773f5d14 {
        fill: #eee7c2;
      }

      .uuid-7af9be9e-ab7d-4016-9085-bb4e773f5d14, .uuid-da208993-ccfc-4ebb-b8bc-ad381ba24f3e {
        stroke-width: 0px;
      }

      .uuid-da208993-ccfc-4ebb-b8bc-ad381ba24f3e {
        fill: #5e2751;
      }
    </style>
  </defs>
  <g id="uuid-571fc5e9-60c0-4cbd-a876-99eacd400a54" data-name="podklad">
    <path class="uuid-7af9be9e-ab7d-4016-9085-bb4e773f5d14" d="m129.8557,80.5819c.115-.0666.2338-.1265.3565-.1801.0263.0541.0452.1103.0579.1567.094.3481.0086.7964-.2968.9423-.1128.054-.2266.0808-.3354.0874.016-.3444.0898-.6861.2178-1.0062Z"/>
    <path class="uuid-7af9be9e-ab7d-4016-9085-bb4e773f5d14" d="m133.3821,64.1465c.1005.2605-.0928.377-.1809.4153-.0527.0225-.3236.1219-.4616-.1634-.1937-.4014-.342-.8512-.4446-1.3474.3288.0385.7664.2627,1.087,1.0955Z"/>
    <path class="uuid-7af9be9e-ab7d-4016-9085-bb4e773f5d14" d="m103.5046,21.7774c3.5877-.5076,7.2585-.1947,10.7104.9144-.4485.6491-.627,1.4801-.4983,2.2588-4.2047-.217-7.6315-1.2821-10.2121-3.1732Z"/>
    <path class="uuid-7af9be9e-ab7d-4016-9085-bb4e773f5d14" d="m139.7565,83.6314c4.2486.8452,8.0363,3.7954,9.8933,7.705,1.8571,3.9091,1.7501,8.7125-.278,12.5361-.2657.5003-.6031,1.0474-1.0957,1.3093-.4452.237-1.02.2439-1.5745.2156-.6399-.0324-1.2826-.0991-1.9242-.1979.2739-.7769-.182-1.7447-.8305-2.4207-.4158-.434-.8634-.829-1.3311-1.1972.3685.0484.7508.0239,1.0864-.1979.5727-.3788.6585-1.1.6733-1.6098.0032-.1184.0057-.2364.0064-.3518.1994-.515.2448-1.0905.1156-1.6746-.1197-.539-.2736-1.0938-.4601-1.6528-.5206-2.2352-1.6357-4.1449-3.3893-5.8183-.4603-.4735-.9536-.8933-1.4772-1.2432-.058-.0441-.1165-.0865-.1759-.1297-1.9968-1.456-4.6857-2.0524-6.1897-.1028-.2083.27-.3826.5912-.5168.9555-.0735.1967-.134.395-.1824.5925-.0708-.8237-.0226-1.7217.169-2.7079.2157-1.1111.8236-2.1827,1.6687-2.94,1.768-1.5834,4.4002-1.3499,5.8125-1.0693Z"/>
    <path class="uuid-7af9be9e-ab7d-4016-9085-bb4e773f5d14" d="m129.3923,90.0338c.0023-1.311.9133-4.3933,1.6682-5.22.7232-.7925,2.1176-1.7668,3.0397-1.955.7351-.1506,1.48-.2094,2.2246-.1921-1.0351.1792-2.0855.5844-2.9694,1.3761-1.0003.8968-1.6913,2.114-1.9464,3.43-.5961,3.0687.0856,5.3626,1.3752,7.2136.1675.3147.3558.6206.5604.9165,1.3835,2.9145,3.9155,4.3619,6.7112,5.2858,1.1919.7407,2.3041,1.5116,3.2535,2.5012.3529.3669.7751,1.0341.6438,1.4834-4.6442-1.2506-8.9466-3.9029-12.1449-7.4941-.1021-.1146-.2065-.2344-.3112-.3584-1.3232-2.0589-2.1078-4.4181-2.1047-6.9869Z"/>
    <path class="uuid-7af9be9e-ab7d-4016-9085-bb4e773f5d14" d="m123.1854,112.587c.3523-.6788.5648-1.4793.7259-2.2534l.4375-2.0977c1.3134-4.4882,2.9545-8.8791,4.9116-13.1365.368.9572.975,1.7962,1.5659,2.4953,2.6674,4.0665,7.3126,6.998,12.1973,8.1585-.6072.2043-1.1904.6226-1.6559,1.1996-7.824,9.6976-12.7155,20.4709-14.9538,32.9355l-.0542.3011c-.5891,3.285-1.1981,6.681-2.698,9.6579-1.7584,3.4916-3.3473,6.2098-6.4202,6.8111-.6072.1188-1.2492.1472-1.8949.0905-1.0754-.2703-1.9088-.4888-2.4817-.6527-.7191-.327-1.3816-.7685-1.9321-1.3166-.0982-.1797-.1723-.3725-.2203-.5718-.0184-.0765-.0322-.1503-.0422-.2223.0035-.005.0077-.0106.0112-.0157.3303-.4648.5506-1.0288.6493-1.6587.1394-.1508.296-.3067.467-.4722.2287-.2231.4573-.4462.6597-.6844.885-1.0363,1.2922-2.3652,1.6518-3.5377.0454-.1497.0916-.2993.1375-.4485.0764-.0066.1531-.015.2298-.0252.0712.0648.1456.1254.223.1808.223.208.4831.3593.7636.4432.4697.1405.8298.0691,1.1002-.0817.3063-.0808.5981-.2327.8676-.4532.8179-.6695,1.3747-1.9736,1.3867-3.2436.0049-.5881-.0568-1.3513-.5148-1.9656-.0659-.2912-.1701-.5749-.3125-.8482-.0597-.1146-.1291-.222-.2079-.3185-.0434-.8759-.0304-1.7476.1768-2.554.2561-.9925.7932-1.8744,1.3619-2.8085.1277-.2094.2565-.4215.3832-.6365.1737-.2711.3221-.5444.4465-.8034.0888-.1721.1734-.3468.2523-.5246.193-.435.331-.8887.4142-1.342.3159-1.2924.3664-2.6513.1364-3.9606-.0385-.2179-.0901-.451-.18-.6744.735-2.5337,1.3924-5.0906,1.9693-7.6563.3976-.5419.6986-1.1453.8928-1.6873.8922-2.495.09-3.7002-.7671-4.2756.1025-.4497.2076-.8982.3166-1.3459Z"/>
    <path class="uuid-7af9be9e-ab7d-4016-9085-bb4e773f5d14" d="m111.0076,137.0189c.6845-.1405,1.3032-.5221,1.742-1.0743.7373-.9286.8227-2.088.2278-3.1018-.1477-.252-.3285-.4802-.5321-.6791l-.0006-.3127c.0002-.174-.1019-.331-.2601-.402-.2553-.1154-.5225-.1922-.7938-.2345-.0078-.7277.2212-1.5228.528-2.1155.167-.3233.3536-.6442.541-.966.6747-1.16,1.3721-2.3587,1.2563-3.75-.0425-.5119-.195-.9903-.3428-1.4523-.0553-.1738-.1089-.342-.1552-.5061.0511.0066.1037.0111.1566.0146.9153.0533,1.6765-.4183,1.8951-1.1743.2007-.697-.0412-1.539-.893-1.7993-.2464-.0751-.4978-.0854-.7387-.0413-.2133-.4672-.2757-1.0353-.161-1.6186.0233-.1211.054-.2386.091-.3526.2975.2198.6574.3152,1.0066.251.5224-.0957.9401-.5359,1.0639-1.12.1233-.5843-.0811-1.1556-.5192-1.4547-.1118-.0761-.2522-.0971-.3807-.057-.0627.0197-.1255.0418-.1874.0658-.197-.0954-.4153-.1461-.6244-.1369-.0905.0041-.1769.0192-.2572.0434-.0858-.2177-.1303-.4487-.125-.6669.015-.7131.4211-1.4721,1.1174-2.0953.4117.6342,1.1218,1.0124,1.8031.9483.0399-.0047.079-.0131.1165-.0279.4028-.1544.648-.5437.6405-1.0136-.0011-.0776-.0083-.1541-.0218-.229.0725-.0453.1331-.1115.1702-.1941.284-.6283.0116-1.3161-.6783-1.7116-.3191-.1833-.7009-.2812-1.066-.2547-.3487-.8073-.4186-1.8376-.2187-2.7576.045-.2089.1082-.4173.1865-.6222.2609.6764.7559,1.2594,1.314,1.624,1.0157.6633,2.1794.6465,3.0828-.0307-.5223,1.8047-.2885,3.8349.704,5.4882-.1772.0304-.3551.0753-.5316.1347-1.7493.5903-3.671,2.1699-4.0191,4.3651-.2791,1.7606.6524,3.5406,2.1664,4.1397.4762.1884.9531.2402,1.3803.1508.1539-.0326.2966-.0801.4296-.1404-.2939,1.433-.6107,2.8603-.9465,4.2851-2.2247-.3321-4.5651,1.258-5.2607,3.6005-.221.7431-.2811,1.5354-.1934,2.3303-.0604.433-.0919.8585-.1111,1.2599-.0513,1.069.0056,2.2706,1.3275,2.9999.388.2139.8177.3348,1.2555.3603.054.0279.1099.0526.1667.0729-.3627,1.2561-.7323,2.5084-1.1055,3.7557-.2509.2387-.4861.5476-.6973.9208-.6143.53-.9851,1.2571-1.0741,2.1132-.0496.472-.0069.9698.1152,1.455.0226.1937.0606.3902.1174.5867-.0391.1288-.0787.2569-.1183.3856-2.0914-.229-3.8665-2.3407-3.8492-4.6404.0029-.3998.0505-.8038.0965-1.2071.0988-.8623.2009-1.7537-.0871-2.6301-.1167-.3548-.2891-.6767-.4771-.9813.5115.2547,1.1052.3276,1.7285.2001Z"/>
    <path class="uuid-7af9be9e-ab7d-4016-9085-bb4e773f5d14" d="m113.0645,121.4869c.0014-.2172.0366-.4348.1184-.6555.001-.0016.0015-.0038.0024-.0054.1865-.0248.3768-.0081.5478.0586.2044.0783.431-.0019.5407-.1888.0466-.0799.066-.1701.0593-.2571.1876.2049.1015.5355.0878.5815-.1167.4047-.5835.5609-.9946.5372-.1205-.0072-.2446-.0299-.3618-.0706Z"/>
    <path class="uuid-7af9be9e-ab7d-4016-9085-bb4e773f5d14" d="m114.0594,116.7166c.1079.0505.2191.0916.3343.1229-.1237.0152-.2408-.042-.3343-.1229Z"/>
    <path class="uuid-7af9be9e-ab7d-4016-9085-bb4e773f5d14" d="m115.3997,111.7968c.2144-.0865.4466-.1289.6631-.054.1466.052.2734.2622.2768.4605.0009.071-.0128.1216-.0393.1511-.3321-.005-.6855-.2229-.9005-.5577Z"/>
    <path class="uuid-7af9be9e-ab7d-4016-9085-bb4e773f5d14" d="m119.8379,103.1425c.0049-.0006.0103-.0012.0157-.0018.9816-.0972,1.4694.1799,1.6329.9261.1232.5622.0047,1.1628-.3251,1.6779.0025-.1639-.0091-.3298-.0351-.4949-.0892-.5616-.3355-1.0561-.7068-1.4413-.1579-.2538-.3555-.4803-.5816-.666Z"/>
    <path class="uuid-7af9be9e-ab7d-4016-9085-bb4e773f5d14" d="m117.924,107.4018c.5358.1509,1.0993.0957,1.6099-.1511-.8856.7323-1.7914.2838-2.1429.0545-.6661-.4357-1.2149-1.2796-1.0923-2.13.0289-.0372.0581-.0733.0872-.1093-.0669.4547.0136.9041.2416,1.3132.2821.5053.7425.869,1.2965,1.0227Z"/>
    <path class="uuid-7af9be9e-ab7d-4016-9085-bb4e773f5d14" d="m117.6141,119.5551c.2329.7787.8054,1.4301,1.5314,1.7417.1239.0533.2494.0964.3755.1284-.0037.001-.0074.002-.0117.0027-.3247.0681-.6547-.0208-.8737-.1082-1.1204-.4431-1.8317-1.84-1.6196-3.1802.0939-.5901.3346-1.132.6676-1.6109-.3355,1.0286-.3258,2.1713-.0695,3.0264Z"/>
    <path class="uuid-7af9be9e-ab7d-4016-9085-bb4e773f5d14" d="m116.9801,142.0841c.0602.7971.1149,1.5716.0672,2.3072-.0265.0448-.0542.0901-.0823.1345-.5031.7869-1.2559,1.3617-2.0704,1.6204-.0787-.1289-.15-.2627-.2129-.3998.377-1.233.7552-2.4732,1.129-3.7157.3858-.1146.8034-.0995,1.1694.0534Z"/>
    <path class="uuid-7af9be9e-ab7d-4016-9085-bb4e773f5d14" d="m118.291,135.2187c.5793-1.6146,1.1276-3.2455,1.6436-4.8876.1181.5138.1204,1.1058.0122,1.6994-.1374.5493-.3284,1.0844-.5707,1.5963-.0046.0096-.0094.021-.0145.0311-.1283.2488-.2675.4946-.4103.7378-.1865.2884-.4054.5715-.6603.823Z"/>
    <path class="uuid-7af9be9e-ab7d-4016-9085-bb4e773f5d14" d="m116.6312,146.1952c-.0532.1156-.1115.2296-.1771.3419-.085.1475-.1619.252-.2413.3204-.1435.0226-.2915.0194-.443-.01-.0512-.009-.1002-.0222-.1487-.037.3561-.1595.6966-.3661,1.01-.6153Z"/>
    <path class="uuid-7af9be9e-ab7d-4016-9085-bb4e773f5d14" d="m116.4318,127.9988c.7599-.5318,1.6663-.8062,2.5366-.6992-.0445.1825-.0882.3644-.1333.5472-.0089-.0032-.0177-.0056-.0265-.0088-.7695-.2592-1.6141-.1948-2.3768.1607Z"/>
    <path class="uuid-7af9be9e-ab7d-4016-9085-bb4e773f5d14" d="m122.6551,114.897c.2133.2194.3559.4887.4298.8087-.0947-.2787-.2349-.5462-.4344-.7879l.0046-.0208Z"/>
    <path class="uuid-7af9be9e-ab7d-4016-9085-bb4e773f5d14" d="m121.9238,119.5152c-.0727.0912-.1473.1779-.2238.26.0667-.2671.1181-.5312.1606-.7771.1493-.8724.3104-1.742.4839-2.6088.0852.588-.0204,1.2765-.1668,1.9642-.0831.3867-.1676.7743-.2539,1.1617Z"/>
    <path class="uuid-7af9be9e-ab7d-4016-9085-bb4e773f5d14" d="m121.5742,121.0372c-.4506,1.9066-.9451,3.8071-1.483,5.6951-.023-.0133-.0467-.0263-.0703-.0391.4271-1.8087.8241-3.6252,1.1824-5.4479.1278-.0607.2513-.1308.371-.2081Z"/>
    <path class="uuid-7af9be9e-ab7d-4016-9085-bb4e773f5d14" d="m119.7996,127.6185c.009.0102.0177.0211.0261.0311-.0607.2077-.1218.4147-.1835.6217-.001-.0002-.0009-.0007-.0021-.001.0539-.2169.1069-.4352.1595-.6518Z"/>
    <path class="uuid-7af9be9e-ab7d-4016-9085-bb4e773f5d14" d="m117.2869,137.0282c.1084-.0533.2-.1233.2775-.2017-.1872.4015-.3472.8179-.4598,1.2553-.1844.7165-.2341,1.4527-.2248,2.1895-.1762-.0431-.3573-.0512-.5348-.0275.3183-1.0683.6321-2.1401.9419-3.2156Z"/>
    <path class="uuid-7af9be9e-ab7d-4016-9085-bb4e773f5d14" d="m127.8709,82.9112c.0052.0323.0092.0651.0137.0979-.0127-.0146-.0255-.0287-.0388-.0434.0083-.0182.017-.0363.0251-.0546Z"/>
    <path class="uuid-7af9be9e-ab7d-4016-9085-bb4e773f5d14" d="m127.4772,83.9634c.1796.3323.2951.6869.3608,1.0593-.1346,1.5096-.3279,3.0183-.5768,4.5172-.0053-.0618-.0097-.1241-.0147-.1866-.0854-1.1235-.1743-2.2837-.1127-3.4077.0352-.6504.15-1.3285.3435-1.9823Z"/>
    <path class="uuid-7af9be9e-ab7d-4016-9085-bb4e773f5d14" d="m126.3664,89.4206c.1192,1.565.2322,3.0431-.0068,4.5183-.0121.0763-.004.1518.0208.221l-2.889,13.8622c-.221.7567-.4332,1.5166-.636,2.2786.1418-1.2544.2747-2.5035.4057-3.736.116-1.0925.2326-2.1849.3543-3.2762.7542-6.7514,1.7362-13.5063,2.8655-20.2414.1101.0515.2149.1107.3148.177-.3152.8703-.4954,1.7942-.5436,2.6734-.0648,1.181.0263,2.3719.1143,3.523Z"/>
    <path class="uuid-7af9be9e-ab7d-4016-9085-bb4e773f5d14" d="m127.4439,81.8424c-.1072.1804-.2072.3664-.301.558-.1614-.097-.3331-.1792-.5113-.2481.0454-.2665.0909-.5331.1363-.7996.0592.036.1167.0694.1716.101.0842.0487.168.0961.2462.1506.0976.0682.1836.1486.2582.2382Z"/>
    <path class="uuid-7af9be9e-ab7d-4016-9085-bb4e773f5d14" d="m127.2485,80.6115c-.1338-.0803-.2468-.1614-.2931-.2535-.004-.0086-.0075-.017-.0109-.0255.0453-.2607.0903-.5202.136-.7802.0097.3536.0589.7102.1681,1.0592Z"/>
    <path class="uuid-7af9be9e-ab7d-4016-9085-bb4e773f5d14" d="m134.3796,43.6802c.4263,1.3121.1411,2.3536-.2207,3.6719-.082.2986-.1667.6071-.2467.9315l-2.0197,8.2096c-.5613,2.279-.7593,4.2333-.5958,5.8453-.4147.1683-.7751.4513-1.0465.8147.0889-.5353.1635-1.0112.2202-1.4138,1.2453-6.1428,2.5421-12.2435,3.8271-18.2825.0297.0738.058.1485.0821.2234Z"/>
    <path class="uuid-7af9be9e-ab7d-4016-9085-bb4e773f5d14" d="m126.4634,77.9692c-.1225.575-.2378,1.1068-.3427,1.5813-.0459.2105-.1084.4956-.0745.7927-.0714.4135-.1424.8253-.2128,1.2397-.052-.1306-.1156-.2561-.192-.3745-.718-1.1135-2.3812-1.4756-3.5602-.7739-.1115.0668-.1887.1788-.2096.3075-.0598.3636-.0404.7318.046,1.0829-.3649.5993-.339,1.3298.1007,1.9813.3179.472.7802.8001,1.2945.9333l-3.4892,14.0303c-.1009-.0371-.1886-.0701-.2686-.1001-.2581-.0972-.4474-.1662-.6791-.2174-.2254-.0499-.4906-.0831-.898-.1125.3838-2.0075.8926-4.244,1.4285-6.6006.7681-3.3797,1.5627-6.874,2.0525-9.9951,1.9225-12.2419,3.4486-19.7415,7.4327-36.2572.0766.1201.1713.2331.2831.3357.4318.3962,1.0606.599,1.6427.5296.0163-.0017.032-.0035.0479-.006-.0294.322-.1013.6635-.1819,1.0113l-2.3757,10.2858c-.6312.0384-1.2128.42-1.4763,1.0198-.1169.2648-.1711.5495-.1619.8465.0159.5283.3969.9334.9301.9865.2689.0264.5227-.0437.7252-.1859.3162.0689.6426-.0123.9203-.2364.023-.0184.0449-.0379.0671-.0577.1984.1294.3679.3256.4011.5275.0119.1194-.0186.4329-.0836.898-1.111,5.4795-2.182,10.9938-3.1663,16.5273Z"/>
    <path class="uuid-7af9be9e-ab7d-4016-9085-bb4e773f5d14" d="m125.0655,82.8415c-.0331.1395-.0847.2767-.154.4059-.0793.1452-.2184.3474-.4404.4929l.1896-.7613c.136-.0708.2774-.1126.4048-.1375Z"/>
    <path class="uuid-7af9be9e-ab7d-4016-9085-bb4e773f5d14" d="m124.9107,81.971l.0466-.1843c.0271.0532.051.108.0712.1661-.0396.0054-.0786.0115-.1179.0181Z"/>
    <path class="uuid-7af9be9e-ab7d-4016-9085-bb4e773f5d14" d="m123.5647,82.7773c-.2767-.1939-.5009-.4658-.6482-.7726.3123-.2623.7743-.3997,1.1403-.2573l-.1717.6909c-.1201.1002-.2272.2134-.3204.339Z"/>
    <path class="uuid-7af9be9e-ab7d-4016-9085-bb4e773f5d14" d="m123.5531,83.7738l-.027.1085c-.3039-.0838-.5848-.2862-.7758-.5691-.0341-.0513-.0634-.1001-.0886-.1488.2519.258.5528.4679.8913.6094Z"/>
    <path class="uuid-7af9be9e-ab7d-4016-9085-bb4e773f5d14" d="m130.2337,43.8933c-.0934-.0207-.1871-.0338-.282-.0394-.2525-.0152-.4891.0275-.6949.1211.0586-.2411.1182-.4869.1771-.7315.6747.1038,1.3278.3614,1.9095.7548.2421.1639.3699.434.3417.7214-.0114.1161-.046.2216-.1012.3138-.0255-.064-.0534-.1268-.0854-.1899-.2388-.472-.7267-.8312-1.2648-.9502Z"/>
    <path class="uuid-7af9be9e-ab7d-4016-9085-bb4e773f5d14" d="m130.7994,45.4631c-.0283.005-.0574.0092-.0866.0127-.3233.0382-.7016-.0838-.9407-.3036-.0863-.0792-.1838-.1981-.2193-.3523.1058-.0785.2402-.0913.3461-.0849.3305.02.6728.2325.8113.5072.0362.0712.0659.145.0892.2208Z"/>
    <path class="uuid-7af9be9e-ab7d-4016-9085-bb4e773f5d14" d="m128.0898,58.589l-.2076.8988c-.0304.1319-.1465.1345-.1957.1302-.1325-.014-.1339-.101-.1346-.1353-.0049-.1645.0243-.3207.0873-.4643.0876-.1989.2535-.349.4505-.4294Z"/>
    <path class="uuid-7af9be9e-ab7d-4016-9085-bb4e773f5d14" d="m128.9054,58.9811l.0212-.0931c.0002.0306-.0024.0619-.0084.0937-.004-.0004-.0088-.0003-.0128-.0005Z"/>
    <path class="uuid-7af9be9e-ab7d-4016-9085-bb4e773f5d14" d="m133.8356,41.3855c-.2175-.1819-.4508-.3432-.696-.4771.0133-.0118.0264-.023.039-.035.1152.0496.2335.0929.3539.1278.1421.0427.2923.0086.4015-.0798-.0325.1551-.0655.3098-.0984.4641Z"/>
    <path class="uuid-7af9be9e-ab7d-4016-9085-bb4e773f5d14" d="m132.0888,24.5701c-1.2066-1.1946-3.7417-.6199-4.2376-.492-4.266,1.0953-9.2115.9906-13.185.9068-.0141-.0002-.0275-.0008-.041-.0009-.1634-.64-.0186-1.3694.3877-1.8869.041.0604.0969.111.1665.1459,1.5982.8082,3.7136.6403,5.7509.0223,1.4976-.2197,2.8799-.6352,4.2525-1.2604.4294-.1952.8604-.4077,1.2945-.6213,1.5428-.7599,3.1299-1.5417,4.7232-1.552.2074.0147.4153.037.6247.0686,2.7199.411,3.4438,2.9431,4.0601,5.9633.6061,2.9665-.0585,6.115-.6446,8.8934-.0875.4141-.1749.8277-.2623,1.2418-.2172.6113-.4451,1.2149-.6775,1.8098-.0765-.3471-.2266-.674-.45-.9652-.0644-.0826-.1551-.1387-.2551-.1608-.0382-.0085-.0781-.012-.118-.0102-.0591.0029-.1163.0109-.1718.0222-.2535-.1876-.5337-.3173-.8209-.3839.0374-.0572.0615-.1237.0691-.1952.0717-.6765.1721-1.4021.2752-2.1506.2906-2.1037.6197-4.4873.3821-6.4587-.1291-1.0747-.3546-2.1744-1.1228-2.9358Z"/>
    <path class="uuid-7af9be9e-ab7d-4016-9085-bb4e773f5d14" d="m132.8029,38.9326c.1332.1575.2931.2689.4702.3298-.077.1747-.1706.3368-.2724.4824-.2902-.2294-.5388-.5291-.7237-.8797-.2921-.554-.3884-1.1686-.2769-1.7237.2059-.0087.4052.0477.5797.1382-.0049.0118-.0112.0246-.0164.0371-.2174.5027-.1144,1.1972.2395,1.6158Z"/>
    <path class="uuid-7af9be9e-ab7d-4016-9085-bb4e773f5d14" d="m129.1798,34.4536l.0483-.1863c.8872-1.849,1.9466-3.5378,3.1682-4.6135-.0528,1.3749-.2551,2.8415-.4412,4.1898-.0624.4498-.1234.891-.1773,1.3189-.0563-.0201-.1163-.0368-.1748-.0498-.804-.1755-1.803.3048-2.3513.8611-.3276.3322-.6391.6365-.9338.8544.4398-.7083.6595-1.5744.8619-2.3747Z"/>
    <path class="uuid-7af9be9e-ab7d-4016-9085-bb4e773f5d14" d="m110.4273,111.2255c.3299-.82.6216-1.5203.858-2.0554-.0162,1.4329-.5122,2.8543-1.3859,3.9891.1468-.533.3245-1.1849.5279-1.9337Z"/>
    <path class="uuid-7af9be9e-ab7d-4016-9085-bb4e773f5d14" d="m102.3291,145.3905c-1.3396-2.7397-.742-7.8468,1.7751-15.215,1.0061,1.2292,2.6504,1.7438,4.1442,1.2557,1.3021-.4262,2.2007-1.4978,2.4655-2.9402.2952-1.6065-.2717-3.2565-1.444-4.2034-.8198-.6608-2.6299-.6229-3.6082.0111.9684-2.9309,2.175-6.301,3.2702-9.2133.1248.0276.2584-.0001.3642-.0816,2.2055-1.6978,3.2976-4.6679,2.7179-7.3905-.0264-.1255-.1062-.234-.2195-.295-.0946-.0522-.2041-.067-.3089-.0436,1.6875-6.3793,3.984-15.4671,5.106-21.6819,2.7121-15.0278,6.0795-29.8511,10.0081-44.0596.2764-.9992.64-2.211,1.0885-3.49.8609-.0981,1.638-.8869,2.2087-1.467.4095-.4149,1.105-.6903,1.518-.6002l.0017.0004c.149.033.2337.1059.284.2439.0084.0231.0184.0448.0303.0656-.0716.012-.1431.0285-.2132.0496-.1378.042-.2475.1487-.2926.2856-.2744.8405-.1759,1.8082.2702,2.6552.2276.432.5321.8071.8881,1.1041-.0748.056-.1542.108-.2355.1555-.6147-.13-1.228-.0764-1.7793.1631-.1652.072-.2699.2363-.2655.4161.0045.1797.1174.3386.2856.4023.6036.2278,1.2519.2031,1.8536-.043.0939.0313.1805.0664.2599.1023.4113.1853.7962.4744,1.1173.8251-.0337.1577-.0674.3153-.101.4724-1.1664,5.4821-2.3442,11.0153-3.4848,16.5862-.0853-.0755-.1771-.1436-.2724-.203.0538-.2087.064-.4253.0229-.6289-.0713-.3549-.2884-.6376-.6108-.8086l2.3703-10.264c.1183-.5111.2197-1.0146.2214-1.5026.4518-.2616.7465-.7143.7983-1.2471.0592-.6062-.2184-1.1965-.7252-1.5392-.8156-.552-1.7541-.8792-2.7108-.9452-.2149-.0151-.4091.1272-.4599.3358-4.4688,18.4055-6.055,26.0498-8.0806,38.9495-.4856,3.0919-1.2771,6.5715-2.0418,9.9366-.5815,2.5601-1.1314,4.9768-1.5271,7.1261-.0231.1258.0092.2545.0874.3544.0789.0993.1969.1602.3234.1664,1.1698.0623,1.3197.1184,1.8148.3058.1884.0711.4197.1583.7553.2673.1194.0393.2439.0256.3507-.0333.1075-.0594.1848-.1608.2146-.2798l3.6498-14.6759c.4706-.0853.8859-.329,1.2015-.7051-1.0501,6.3611-1.9656,12.7432-2.6774,19.1212-.1225,1.0929-.2383,2.1872-.3546,3.2808-.2323,2.1808-.4699,4.4153-.755,6.6375-.032.0218-.065.0433-.0989.063-1.2839-2.0291-1.2116-4.8544.2135-6.7196.5778-.7568.7984-1.6952.6055-2.5747-.1831-.8361-.7797-1.7949-2.5826-1.6157-.4168.0418-.8398.1629-1.2386.3447-1.2826-.1126-2.6159.7585-3.0161,2.0564-.0145.0469-.0272.0936-.0388.1406-.44.6111-.7705,1.324-.9283,2.0511-.2387,1.1031-.1554,2.3075.2624,3.2851-.0681.0627-.1317.1341-.1892.2153-.2178.3074-.3093.6705-.274,1.0445-.0583.0444-.1164.0917-.1745.1407-.5503.4699-1.4782,1.46-1.5079,2.8181-.0106.4984.1216.9753.3556,1.3791-.1035.2625-.1157.56-.0371.8504-.1693.3177-.2952.6708-.3692,1.0477-.1525.7748-.0617,1.5379.2348,2.1756-.0855.0748-.1641.1583-.2346.2501-.3481.1288-.6621.3489-.8944.6473-.0752.0971-.1069.2216-.0865.343.0657.396.2802.7354.597.98.0639.4099.1883.7995.3057,1.1669.1387.4347.2695.8452.3041,1.2568.0927,1.1144-.5065,2.1437-1.1397,3.2333-.1949.3349-.3891.6688-.5626,1.005-.4007.7747-.6364,1.6703-.6282,2.5048-.1295.0151-.2582.0372-.3843.066-.0787.0062-.1567.0149-.2344.0277-.832.1351-1.5885.6631-2.0754,1.4482-.4996.806-.6389,1.7448-.3815,2.5778.1752.5683.4949,1.0478.8038,1.5124.2785.4178.5413.8138.6834,1.2458.2269.6912.1403,1.4505.0483,2.2534-.05.4342-.0987.8699-.1019,1.3008-.0208,2.6729,2.0137,5.1315,4.47,5.5025-.023.0745-.0461.1502-.0691.2247-.3339,1.0909-.7134,2.3269-1.4785,3.2239-.1314.1538-.2748.3007-.4218.4457-.1866-1.7639-1.3422-3.4532-3.0044-4.3269-.4143-.2172-.8387-.3729-1.2649-.4672-1.2211-.2701-2.4601-.0357-3.5436.6929-.4716-.3744-.8952-.8667-1.2226-1.5359Z"/>
    <path class="uuid-7af9be9e-ab7d-4016-9085-bb4e773f5d14" d="m108.7965,125.4946c-.3609-.3228-.7719-.5205-1.2015-.6155-.3261-.0721-.6628-.0852-.9962-.0493.708-.2227,1.6994-.1915,2.1164.1448.9096.7349,1.3643,2.084,1.1304,3.3574-.2044,1.1137-.8867,1.9376-1.8715,2.2599-.1697.0551-.3409.0939-.5133.116.6824-.2189,1.2962-.7436,1.7178-1.5144.5944-1.0846.7286-2.705-.382-3.6989Z"/>
    <path class="uuid-7af9be9e-ab7d-4016-9085-bb4e773f5d14" d="m109.2888,154.078c-.3807.223-.7913.3057-1.1483.3258.3236-.2633.6114-.5702.8506-.9106.0887.2019.1882.3973.2977.5849Z"/>
    <path class="uuid-7af9be9e-ab7d-4016-9085-bb4e773f5d14" d="m103.5812,148.0223c.1468.0885.2951.1696.4444.244-1.049,1.1462-.9992,2.9317-.4709,4.1851.3521.8344,1.0011,1.5554,1.8066,2.0626-1.0492-.0316-1.9347-.6409-2.5183-1.7406-.8737-1.6464-.5528-3.5693.7382-4.751Z"/>
    <path class="uuid-7af9be9e-ab7d-4016-9085-bb4e773f5d14" d="m106.8369,155.1457c.2143.0551.4348.0951.6564.1198.8633.0943,1.6536-.0688,2.2917-.4585.1322.1673.2725.3274.4211.48.1448.2491.3323.4734.5392.679l-4.8115-.6088c.3076-.0387.6111-.1044.9031-.2114Z"/>
  </g>
  <g id="uuid-5b91bd50-1bfd-4df2-ac2d-59a319100a48" data-name="OBJEKTY">
    <path class="uuid-da208993-ccfc-4ebb-b8bc-ad381ba24f3e" d="m107.3582,155.2998c1.5403.1074,3.2943.3033,4.2721.5353.0253.0033.048-.0041.073-.0051.6349.2202,1.286.3906,1.9436.4571l2.7683-.2241c3.3709-.9647,5.0905-4.3776,6.4855-7.147,1.5573-3.092,2.178-6.5521,2.7783-9.8983l.0538-.3017c2.2117-12.3148,7.0436-22.9579,14.7725-32.5374.4599-.5699,1.049-.9351,1.6168-1.0012.3771-.0439.7782.0655,1.203.1817.2202.0606.4404.1205.6617.1623,1.2501.2382,2.5018-.0671,3.6199-.8826,1.7002-1.2404,2.99-3.6025,3.2857-6.017.5866-4.7987-1.2559-9.8168-4.8081-13.0959-3.1353-2.8942-8.6084-5.904-13.7109-4.8611-1.258.2567-2.8125,1.4562-3.5151,2.2249-.976,1.0693-1.8965,4.4071-1.8986,5.8143-.0019,1.2351.1668,2.4242.4816,3.5584-.0024.0053-.0054.0105-.0078.0165-1.1349,2.3875-2.1701,4.8177-3.1043,7.2844l2.5487-12.2309c.2553-1.2238.4714-2.4887.298-3.6594.0162-.1852.0322-.3692.0465-.5541.0513-.6615.0686-1.4804-.1493-2.2098.0558.0277.1125.0538.1699.0772l.0012.0003c.0222.1475.0528.294.0923.4384.0375.1398.1413.2519.2775.3002,1.0148.363,1.9202-.2854,2.3656-1.0892.4455-.8037.5161-1.9145-.3296-2.584-.0993-.0785-.2278-.1111-.3531-.0881-.1499.027-.2974.0617-.4405.1032-.1868-.0909-.3977-.1323-.6217-.1139-.1314.0104-.251.0789-.3262.1873-.113.1614-.2132.3315-.2992.5076-.3265.2174-.6248.4757-.8958.765-.0528-.089-.0983-.1821-.1328-.2765-.3027-.8206-.154-1.7278.073-2.837l2.4351-13.2343c.1016-.4971.3982-.9104.7976-1.1429.1166.5612.2861,1.0716.5084,1.5307.3366.699,1.0635.8256,1.6075.5902.5314-.2298.9269-.8341.6537-1.5426-.4152-1.0779-1.1423-1.664-2.0417-1.6641-.1384-1.4861.057-3.3131.5856-5.4608l2.0202-8.2093c.0778-.3166.1606-.6191.2403-.91.3845-1.4028.7168-2.6145.2093-4.1781-.1434-.4398-.3658-.8611-.6475-1.2401.4196-1.9748.8398-3.9489,1.2577-5.9241.9925-2.8024,1.7634-5.7711,1.7497-8.8042-.0164-3.558-1.7026-7.7088-5.3245-8.3955-.3543-.0671-.7039-.0972-1.0503-.0967-2.8098-.1796-5.344.9966-7.2781,2.0775-.9407.5256-2.0596,1.0253-3.2074,1.3777-1.5779.223-3.2968.2197-5.2935.0082-.0004-.0007-.0003-.0013-.0006-.0026-.0288-.1555-.1383-.2841-.2876-.3372-4.0901-1.4413-8.5056-1.7874-12.77-1.0015-.1672.0309-.3019.155-.3465.3191-.0439.1642.0098.3395.1393.4501,2.8716,2.4604,6.8609,3.8086,11.861,4.0103.0301.0556.0628.1106.0969.1641.1315.2054.4042.2657.6094.1348.1018-.0653.1679-.1644.1928-.274,3.9792.084,8.8649.1602,13.1503-.9397,1.1973-.3072,2.7703-.3562,3.3964.2641.6051.5997.7654,1.5604.868,2.4135.033.2722.0538.5539.0652.8437-1.8399.0742-3.6735,4.2769-3.9267,5.2059l-.0686.2649c-.4488.9387-.8575,1.9252-1.2283,2.9195-.1094.1026-.2295.1923-.3634.2676-.1429.0809-.2287.2342-.2237.3981.0047.152.0873.2906.2168.3663-.4056,1.1725-.7574,2.336-1.0575,3.4214-3.9358,14.2335-7.3092,29.0838-10.0259,44.1382-1.3767,7.627-4.5368,19.6199-6.1439,25.5453-1.9215,4.7335-4.6193,12.5743-5.2801,14.6585-.0424.1334-.0793.2679-.1101.4044-.8423.8994-1.084,2.0478-.6739,3.1293-2.8412,8.068-3.4868,13.5207-1.9784,16.6043.3595.737.8164,1.2922,1.3178,1.721-1.4518,1.4528-1.8096,3.7692-.7909,5.6883.4937.9301,1.1911,1.5897,2.0113,1.9345.4703.3803,3.2934,1.3988,4.8337,1.5063Zm20.9475-76.0465c.115-.0666.2338-.1265.3565-.1801.0263.0541.0452.1103.0579.1567.094.3481.0086.7964-.2968.9423-.1128.054-.2266.0808-.3354.0874.016-.3444.0898-.6861.2178-1.0062Zm3.5263-16.4354c.1005.2605-.0928.377-.1809.4153-.0527.0225-.3236.1219-.4616-.1634-.1937-.4014-.342-.8512-.4446-1.3474.3288.0385.7664.2627,1.087,1.0955Zm-29.8774-42.3691c3.5877-.5076,7.2585-.1947,10.7104.9144-.4485.6491-.627,1.4801-.4983,2.2588-4.2047-.217-7.6315-1.2821-10.2121-3.1732Zm36.2518,61.8541c4.2486.8452,8.0363,3.7954,9.8933,7.705,1.8571,3.9091,1.7501,8.7125-.278,12.5361-.2657.5003-.6031,1.0474-1.0957,1.3093-.4452.237-1.02.2439-1.5745.2156-.6399-.0324-1.2826-.0991-1.9242-.1979.2739-.7769-.182-1.7447-.8305-2.4207-.4158-.434-.8634-.829-1.3311-1.1972.3685.0484.7508.0239,1.0864-.1979.5727-.3788.6585-1.1.6733-1.6098.0032-.1184.0057-.2364.0064-.3518.1994-.515.2448-1.0905.1156-1.6746-.1197-.539-.2736-1.0938-.4601-1.6528-.5206-2.2352-1.6357-4.1449-3.3893-5.8183-.4603-.4735-.9536-.8933-1.4772-1.2432-.058-.0441-.1165-.0865-.1759-.1297-1.9968-1.456-4.6857-2.0524-6.1897-.1028-.2083.27-.3826.5912-.5168.9555-.0735.1967-.134.395-.1824.5925-.0708-.8237-.0226-1.7217.169-2.7079.2157-1.1111.8236-2.1827,1.6687-2.94,1.768-1.5834,4.4002-1.3499,5.8125-1.0693Zm2.9999,16.4344c-.3268.2114-.7592.3611-1.2264.3456-.3283-.0915-.6493-.1866-.9618-.2858-.0698-.0414-.1393-.0874-.2087-.1388-.5137-.3837-1.0526-.7635-1.599-1.1486-1.757-1.239-3.5433-2.498-4.8264-4.0881-.0644-.1599-.1253-.3243-.1827-.4938-.5283-1.5553-.3512-3.3797.4296-4.436.4929-.6659,1.1875-.9906,2.0644-.9641.2691.0077.5625.062.8965.1653.5532.1707,1.0851.4399,1.5916.7872.3798.2881.7359.5815,1.068.8826,1.509,1.4648,2.7042,3.5993,3.4101,5.7216.1916.8775.2863,1.8124.2879,2.8154-.1759.3662-.4541.6509-.7431.8377Zm-13.3641-10.032c.0023-1.311.9133-4.3933,1.6682-5.22.7232-.7925,2.1176-1.7668,3.0397-1.955.7351-.1506,1.48-.2094,2.2246-.1921-1.0351.1792-2.0855.5844-2.9694,1.3761-1.0003.8968-1.6913,2.114-1.9464,3.43-.5961,3.0687.0856,5.3626,1.3752,7.2136.1675.3147.3558.6206.5604.9165,1.3835,2.9145,3.9155,4.3619,6.7112,5.2858,1.1919.7407,2.3041,1.5116,3.2535,2.5012.3529.3669.7751,1.0341.6438,1.4834-4.6442-1.2506-8.9466-3.9029-12.1449-7.4941-.1021-.1146-.2065-.2344-.3112-.3584-1.3232-2.0589-2.1078-4.4181-2.1047-6.9869Zm-6.2069,22.5532c.3523-.6788.5648-1.4793.7259-2.2534l.4375-2.0977c1.3134-4.4882,2.9545-8.8791,4.9116-13.1365.368.9572.975,1.7962,1.5659,2.4953,2.6674,4.0665,7.3126,6.998,12.1973,8.1585-.6072.2043-1.1904.6226-1.6559,1.1996-7.824,9.6976-12.7155,20.4709-14.9538,32.9355l-.0542.3011c-.5891,3.285-1.1981,6.681-2.698,9.6579-1.7584,3.4916-3.3473,6.2098-6.4202,6.8111-.6072.1188-1.2492.1472-1.8949.0905-1.0754-.2703-1.9088-.4888-2.4817-.6527-.7191-.327-1.3816-.7685-1.9321-1.3166-.0982-.1797-.1723-.3725-.2203-.5718-.0184-.0765-.0322-.1503-.0422-.2223.0035-.005.0077-.0106.0112-.0157.3303-.4648.5506-1.0288.6493-1.6587.1394-.1508.296-.3067.467-.4722.2287-.2231.4573-.4462.6597-.6844.885-1.0363,1.2922-2.3652,1.6518-3.5377.0454-.1497.0916-.2993.1375-.4485.0764-.0066.1531-.015.2298-.0252.0712.0648.1456.1254.223.1808.223.208.4831.3593.7636.4432.4697.1405.8298.0691,1.1002-.0817.3063-.0808.5981-.2327.8676-.4532.8179-.6695,1.3747-1.9736,1.3867-3.2436.0049-.5881-.0568-1.3513-.5148-1.9656-.0659-.2912-.1701-.5749-.3125-.8482-.0597-.1146-.1291-.222-.2079-.3185-.0434-.8759-.0304-1.7476.1768-2.554.2561-.9925.7932-1.8744,1.3619-2.8085.1277-.2094.2565-.4215.3832-.6365.1737-.2711.3221-.5444.4465-.8034.0888-.1721.1734-.3468.2523-.5246.193-.435.331-.8887.4142-1.342.3159-1.2924.3664-2.6513.1364-3.9606-.0385-.2179-.0901-.451-.18-.6744.735-2.5337,1.3924-5.0906,1.9693-7.6563.3976-.5419.6986-1.1453.8928-1.6873.8922-2.495.09-3.7002-.7671-4.2756.1025-.4497.2076-.8982.3166-1.3459Zm-12.1779,24.4319c.6845-.1405,1.3032-.5221,1.742-1.0743.7373-.9286.8227-2.088.2278-3.1018-.1477-.252-.3285-.4802-.5321-.6791l-.0006-.3127c.0002-.174-.1019-.331-.2601-.402-.2553-.1154-.5225-.1922-.7938-.2345-.0078-.7277.2212-1.5228.528-2.1155.167-.3233.3536-.6442.541-.966.6747-1.16,1.3721-2.3587,1.2563-3.75-.0425-.5119-.195-.9903-.3428-1.4523-.0553-.1738-.1089-.342-.1552-.5061.0511.0066.1037.0111.1566.0146.9153.0533,1.6765-.4183,1.8951-1.1743.2007-.697-.0412-1.539-.893-1.7993-.2464-.0751-.4978-.0854-.7387-.0413-.2133-.4672-.2757-1.0353-.161-1.6186.0233-.1211.054-.2386.091-.3526.2975.2198.6574.3152,1.0066.251.5224-.0957.9401-.5359,1.0639-1.12.1233-.5843-.0811-1.1556-.5192-1.4547-.1118-.0761-.2522-.0971-.3807-.057-.0627.0197-.1255.0418-.1874.0658-.197-.0954-.4153-.1461-.6244-.1369-.0905.0041-.1769.0192-.2572.0434-.0858-.2177-.1303-.4487-.125-.6669.015-.7131.4211-1.4721,1.1174-2.0953.4117.6342,1.1218,1.0124,1.8031.9483.0399-.0047.079-.0131.1165-.0279.4028-.1544.648-.5437.6405-1.0136-.0011-.0776-.0083-.1541-.0218-.229.0725-.0453.1331-.1115.1702-.1941.284-.6283.0116-1.3161-.6783-1.7116-.3191-.1833-.7009-.2812-1.066-.2547-.3487-.8073-.4186-1.8376-.2187-2.7576.045-.2089.1082-.4173.1865-.6222.2609.6764.7559,1.2594,1.314,1.624,1.0157.6633,2.1794.6465,3.0828-.0307-.5223,1.8047-.2885,3.8349.704,5.4882-.1772.0304-.3551.0753-.5316.1347-1.7493.5903-3.671,2.1699-4.0191,4.3651-.2791,1.7606.6524,3.5406,2.1664,4.1397.4762.1884.9531.2402,1.3803.1508.1539-.0326.2966-.0801.4296-.1404-.2939,1.433-.6107,2.8603-.9465,4.2851-2.2247-.3321-4.5651,1.258-5.2607,3.6005-.221.7431-.2811,1.5354-.1934,2.3303-.0604.433-.0919.8585-.1111,1.2599-.0513,1.069.0056,2.2706,1.3275,2.9999.388.2139.8177.3348,1.2555.3603.054.0279.1099.0526.1667.0729-.3627,1.2561-.7323,2.5084-1.1055,3.7557-.2509.2387-.4861.5476-.6973.9208-.6143.53-.9851,1.2571-1.0741,2.1132-.0496.472-.0069.9698.1152,1.455.0226.1937.0606.3902.1174.5867-.0391.1288-.0787.2569-.1183.3856-2.0914-.229-3.8665-2.3407-3.8492-4.6404.0029-.3998.0505-.8038.0965-1.2071.0988-.8623.2009-1.7537-.0871-2.6301-.1167-.3548-.2891-.6767-.4771-.9813.5115.2547,1.1052.3276,1.7285.2001Zm-1.9754-1.5397c-.4908-.6629-.5779-1.5975-.2115-2.2725.2892-.5317.8304-.9067,1.4343-1.0639.1281-.0036.2578.0074.3866.0305.1798.6213.5473,1.1514,1.1451,1.4888.137.0763.3035.0753.4395-.0037.0474-.0273.0883-.063.121-.1041.2562.6229.1567,1.2802-.2887,1.841-.3103.3902-.7463.6601-1.228.7582-.9811.2018-1.5474-.3363-1.7982-.6743Zm4.0323-13.9922c.0014-.2172.0366-.4348.1184-.6555.001-.0016.0015-.0038.0024-.0054.1865-.0248.3768-.0081.5478.0586.2044.0783.431-.0019.5407-.1888.0466-.0799.066-.1701.0593-.2571.1876.2049.1015.5355.0878.5815-.1167.4047-.5835.5609-.9946.5372-.1205-.0072-.2446-.0299-.3618-.0706Zm.9949-4.7703c.1079.0505.2191.0916.3343.1229-.1237.0152-.2408-.042-.3343-.1229Zm1.3404-4.9198c.2144-.0865.4466-.1289.6631-.054.1466.052.2734.2622.2768.4605.0009.071-.0128.1216-.0393.1511-.3321-.005-.6855-.2229-.9005-.5577Zm4.3212-7.4346c.1142.2063.1908.4355.2187.6723.0393.342.0018.9752-.6962,1.3717-.3407.1941-.7239.2468-1.0826.1456-.3249-.0907-.5954-.305-.7623-.6038-.2137-.3829-.2049-.8014.0265-1.245.1504-.2881.384-.5603.667-.7949.3704-.0801.7314-.0482,1.0766.0972.2105.0879.3962.2085.5521.3569Zm.117-1.2197c.0049-.0006.0103-.0012.0157-.0018.9816-.0972,1.4694.1799,1.6329.9261.1232.5622.0047,1.1628-.3251,1.6779.0025-.1639-.0091-.3298-.0351-.4949-.0892-.5616-.3355-1.0561-.7068-1.4413-.1579-.2538-.3555-.4803-.5816-.666Zm-1.9139,4.2593c.5358.1509,1.0993.0957,1.6099-.1511-.8856.7323-1.7914.2838-2.1429.0545-.6661-.4357-1.2149-1.2796-1.0923-2.13.0289-.0372.0581-.0733.0872-.1093-.0669.4547.0136.9041.2416,1.3132.2821.5053.7425.869,1.2965,1.0227Zm-.3099,12.1532c.2329.7787.8054,1.4301,1.5314,1.7417.1239.0533.2494.0964.3755.1284-.0037.001-.0074.002-.0117.0027-.3247.0681-.6547-.0208-.8737-.1082-1.1204-.4431-1.8317-1.84-1.6196-3.1802.0939-.5901.3346-1.132.6676-1.6109-.3355,1.0286-.3258,2.1713-.0695,3.0264Zm1.8795.9305c-.4879-.21-.8746-.6529-1.0337-1.184-.4043-1.351-.0876-3.5773,1.5578-4.2437.3596-.1459.7429-.1754,1.0909-.0985.0889.0197.1749.0463.2584.0796-.0319.2241-.0648.4474-.0982.6706-.2428,1.6288-.524,3.2544-.8363,4.8745-.316.0692-.6254.0362-.9389-.0986Zm-2.5134,21.5984c.0602.7971.1149,1.5716.0672,2.3072-.0265.0448-.0542.0901-.0823.1345-.5031.7869-1.2559,1.3617-2.0704,1.6204-.0787-.1289-.15-.2627-.2129-.3998.377-1.233.7552-2.4732,1.129-3.7157.3858-.1146.8034-.0995,1.1694.0534Zm1.3109-6.8654c.5793-1.6146,1.1276-3.2455,1.6436-4.8876.1181.5138.1204,1.1058.0122,1.6994-.1374.5493-.3284,1.0844-.5707,1.5963-.0046.0096-.0094.021-.0145.0311-.1283.2488-.2675.4946-.4103.7378-.1865.2884-.4054.5715-.6603.823Zm-1.6598,10.9765c-.0532.1156-.1115.2296-.1771.3419-.085.1475-.1619.252-.2413.3204-.1435.0226-.2915.0194-.443-.01-.0512-.009-.1002-.0222-.1487-.037.3561-.1595.6966-.3661,1.01-.6153Zm-.3769-17.0549c.6832-.5401,1.5314-.7134,2.2727-.4658.0323.0112.0641.0225.095.0346-.6187,2.4746-1.2874,4.9356-1.9851,7.381-.0579.0083-.1157.0139-.1736.0171-.0039-.0039-.0072-.0075-.0111-.0114-1.029-1.0584-1.6706-2.387-1.8426-3.7053.1799-1.1945.6024-2.4251,1.6447-3.2502Zm.1776-1.1415c.7599-.5318,1.6663-.8062,2.5366-.6992-.0445.1825-.0882.3644-.1333.5472-.0089-.0032-.0177-.0056-.0265-.0088-.7695-.2592-1.6141-.1948-2.3768.1607Zm6.2233-13.1018c.2133.2194.3559.4887.4298.8087-.0947-.2787-.2349-.5462-.4344-.7879l.0046-.0208Zm-.7313,4.6182c-.0727.0912-.1473.1779-.2238.26.0667-.2671.1181-.5312.1606-.7771.1493-.8724.3104-1.742.4839-2.6088.0852.588-.0204,1.2765-.1668,1.9642-.0831.3867-.1676.7743-.2539,1.1617Zm-.3497,1.522c-.4506,1.9066-.9451,3.8071-1.483,5.6951-.023-.0133-.0467-.0263-.0703-.0391.4271-1.8087.8241-3.6252,1.1824-5.4479.1278-.0607.2513-.1308.371-.2081Zm-1.7745,6.5812c.009.0102.0177.0211.0261.0311-.0607.2077-.1218.4147-.1835.6217-.001-.0002-.0009-.0007-.0021-.001.0539-.2169.1069-.4352.1595-.6518Zm-2.5128,9.4098c.1084-.0533.2-.1233.2775-.2017-.1872.4015-.3472.8179-.4598,1.2553-.1844.7165-.2341,1.4527-.2248,2.1895-.1762-.0431-.3573-.0512-.5348-.0275.3183-1.0683.6321-2.1401.9419-3.2156Zm10.584-54.117c.0052.0323.0092.0651.0137.0979-.0127-.0146-.0255-.0287-.0388-.0434.0083-.0182.017-.0363.0251-.0546Zm-.3937,1.0522c.1796.3323.2951.6869.3608,1.0593-.1346,1.5096-.3279,3.0183-.5768,4.5172-.0053-.0618-.0097-.1241-.0147-.1866-.0854-1.1235-.1743-2.2837-.1127-3.4077.0352-.6504.15-1.3285.3435-1.9823Zm-1.1108,5.4572c.1192,1.565.2322,3.0431-.0068,4.5183-.0121.0763-.004.1518.0208.221l-2.889,13.8622c-.221.7567-.4332,1.5166-.636,2.2786.1418-1.2544.2747-2.5035.4057-3.736.116-1.0925.2326-2.1849.3543-3.2762.7542-6.7514,1.7362-13.5063,2.8655-20.2414.1101.0515.2149.1107.3148.177-.3152.8703-.4954,1.7942-.5436,2.6734-.0648,1.181.0263,2.3719.1143,3.523Zm1.0775-7.5782c-.1072.1804-.2072.3664-.301.558-.1614-.097-.3331-.1792-.5113-.2481.0454-.2665.0909-.5331.1363-.7996.0592.036.1167.0694.1716.101.0842.0487.168.0961.2462.1506.0976.0682.1836.1486.2582.2382Zm-.1954-1.231c-.1338-.0803-.2468-.1614-.2931-.2535-.004-.0086-.0075-.017-.0109-.0255.0453-.2607.0903-.5202.136-.7802.0097.3536.0589.7102.1681,1.0592Zm7.1311-36.9313c.4263,1.3121.1411,2.3536-.2207,3.6719-.082.2986-.1667.6071-.2467.9315l-2.0197,8.2096c-.5613,2.279-.7593,4.2333-.5958,5.8453-.4147.1683-.7751.4513-1.0465.8147.0889-.5353.1635-1.0112.2202-1.4138,1.2453-6.1428,2.5421-12.2435,3.8271-18.2825.0297.0738.058.1485.0821.2234Zm-7.9161,34.289c-.1225.575-.2378,1.1068-.3427,1.5813-.0459.2105-.1084.4956-.0745.7927-.0714.4135-.1424.8253-.2128,1.2397-.052-.1306-.1156-.2561-.192-.3745-.718-1.1135-2.3812-1.4756-3.5602-.7739-.1115.0668-.1887.1788-.2096.3075-.0598.3636-.0404.7318.046,1.0829-.3649.5993-.339,1.3298.1007,1.9813.3179.472.7802.8001,1.2945.9333l-3.4892,14.0303c-.1009-.0371-.1886-.0701-.2686-.1001-.2581-.0972-.4474-.1662-.6791-.2174-.2254-.0499-.4906-.0831-.898-.1125.3838-2.0075.8926-4.244,1.4285-6.6006.7681-3.3797,1.5627-6.874,2.0525-9.9951,1.9225-12.2419,3.4486-19.7415,7.4327-36.2572.0766.1201.1713.2331.2831.3357.4318.3962,1.0606.599,1.6427.5296.0163-.0017.032-.0035.0479-.006-.0294.322-.1013.6635-.1819,1.0113l-2.3757,10.2858c-.6312.0384-1.2128.42-1.4763,1.0198-.1169.2648-.1711.5495-.1619.8465.0159.5283.3969.9334.9301.9865.2689.0264.5227-.0437.7252-.1859.3162.0689.6426-.0123.9203-.2364.023-.0184.0449-.0379.0671-.0577.1984.1294.3679.3256.4011.5275.0119.1194-.0186.4329-.0836.898-1.111,5.4795-2.182,10.9938-3.1663,16.5273Zm-1.3979,4.8723c-.0331.1395-.0847.2767-.154.4059-.0793.1452-.2184.3474-.4404.4929l.1896-.7613c.136-.0708.2774-.1126.4048-.1375Zm-.1548-.8705l.0466-.1843c.0271.0532.051.108.0712.1661-.0396.0054-.0786.0115-.1179.0181Zm-1.346.8063c-.2767-.1939-.5009-.4658-.6482-.7726.3123-.2623.7743-.3997,1.1403-.2573l-.1717.6909c-.1201.1002-.2272.2134-.3204.339Zm-.0115.9964l-.027.1085c-.3039-.0838-.5848-.2862-.7758-.5691-.0341-.0513-.0634-.1001-.0886-.1488.2519.258.5528.4679.8913.6094Zm6.6806-39.8805c-.0934-.0207-.1871-.0338-.282-.0394-.2525-.0152-.4891.0275-.6949.1211.0586-.2411.1182-.4869.1771-.7315.6747.1038,1.3278.3614,1.9095.7548.2421.1639.3699.434.3417.7214-.0114.1161-.046.2216-.1012.3138-.0255-.064-.0534-.1268-.0854-.1899-.2388-.472-.7267-.8312-1.2648-.9502Zm.5657,1.5699c-.0283.005-.0574.0092-.0866.0127-.3233.0382-.7016-.0838-.9407-.3036-.0863-.0792-.1838-.1981-.2193-.3523.1058-.0785.2402-.0913.3461-.0849.3305.02.6728.2325.8113.5072.0362.0712.0659.145.0892.2208Zm-2.7096,13.1258l-.2076.8988c-.0304.1319-.1465.1345-.1957.1302-.1325-.014-.1339-.101-.1346-.1353-.0049-.1645.0243-.3207.0873-.4643.0876-.1989.2535-.349.4505-.4294Zm.8156.3921l.0212-.0931c.0002.0306-.0024.0619-.0084.0937-.004-.0004-.0088-.0003-.0128-.0005Zm4.9301-17.5957c-.2175-.1819-.4508-.3432-.696-.4771.0133-.0118.0264-.023.039-.035.1152.0496.2335.0929.3539.1278.1421.0427.2923.0086.4015-.0798-.0325.1551-.0655.3098-.0984.4641Zm-1.7468-16.8153c-1.2066-1.1946-3.7417-.6199-4.2376-.492-4.266,1.0953-9.2115.9906-13.185.9068-.0141-.0002-.0275-.0008-.041-.0009-.1634-.64-.0186-1.3694.3877-1.8869.041.0604.0969.111.1665.1459,1.5982.8082,3.7136.6403,5.7509.0223,1.4976-.2197,2.8799-.6352,4.2525-1.2604.4294-.1952.8604-.4077,1.2945-.6213,1.5428-.7599,3.1299-1.5417,4.7232-1.552.2074.0147.4153.037.6247.0686,2.7199.411,3.4438,2.9431,4.0601,5.9633.6061,2.9665-.0585,6.115-.6446,8.8934-.0875.4141-.1749.8277-.2623,1.2418-.2172.6113-.4451,1.2149-.6775,1.8098-.0765-.3471-.2266-.674-.45-.9652-.0644-.0826-.1551-.1387-.2551-.1608-.0382-.0085-.0781-.012-.118-.0102-.0591.0029-.1163.0109-.1718.0222-.2535-.1876-.5337-.3173-.8209-.3839.0374-.0572.0615-.1237.0691-.1952.0717-.6765.1721-1.4021.2752-2.1506.2906-2.1037.6197-4.4873.3821-6.4587-.1291-1.0747-.3546-2.1744-1.1228-2.9358Zm.7141,14.3624c.1332.1575.2931.2689.4702.3298-.077.1747-.1706.3368-.2724.4824-.2902-.2294-.5388-.5291-.7237-.8797-.2921-.554-.3884-1.1686-.2769-1.7237.2059-.0087.4052.0477.5797.1382-.0049.0118-.0112.0246-.0164.0371-.2174.5027-.1144,1.1972.2395,1.6158Zm-3.6231-4.4789l.0483-.1863c.8872-1.849,1.9466-3.5378,3.1682-4.6135-.0528,1.3749-.2551,2.8415-.4412,4.1898-.0624.4498-.1234.891-.1773,1.3189-.0563-.0201-.1163-.0368-.1748-.0498-.804-.1755-1.803.3048-2.3513.8611-.3276.3322-.6391.6365-.9338.8544.4398-.7083.6595-1.5744.8619-2.3747Zm-18.7525,76.7719c.3299-.82.6216-1.5203.858-2.0554-.0162,1.4329-.5122,2.8543-1.3859,3.9891.1468-.533.3245-1.1849.5279-1.9337Zm-8.0981,34.165c-1.3396-2.7397-.742-7.8468,1.7751-15.215,1.0061,1.2292,2.6504,1.7438,4.1442,1.2557,1.3021-.4262,2.2007-1.4978,2.4655-2.9402.2952-1.6065-.2717-3.2565-1.444-4.2034-.8198-.6608-2.6299-.6229-3.6082.0111.9684-2.9309,2.175-6.301,3.2702-9.2133.1248.0276.2584-.0001.3642-.0816,2.2055-1.6978,3.2976-4.6679,2.7179-7.3905-.0264-.1255-.1062-.234-.2195-.295-.0946-.0522-.2041-.067-.3089-.0436,1.6875-6.3793,3.984-15.4671,5.106-21.6819,2.7121-15.0278,6.0795-29.8511,10.0081-44.0596.2764-.9992.64-2.211,1.0885-3.49.8609-.0981,1.638-.8869,2.2087-1.467.4095-.4149,1.105-.6903,1.518-.6002l.0017.0004c.149.033.2337.1059.284.2439.0084.0231.0184.0448.0303.0656-.0716.012-.1431.0285-.2132.0496-.1378.042-.2475.1487-.2926.2856-.2744.8405-.1759,1.8082.2702,2.6552.2276.432.5321.8071.8881,1.1041-.0748.056-.1542.108-.2355.1555-.6147-.13-1.228-.0764-1.7793.1631-.1652.072-.2699.2363-.2655.4161.0045.1797.1174.3386.2856.4023.6036.2278,1.2519.2031,1.8536-.043.0939.0313.1805.0664.2599.1023.4113.1853.7962.4744,1.1173.8251-.0337.1577-.0674.3153-.101.4724-1.1664,5.4821-2.3442,11.0153-3.4848,16.5862-.0853-.0755-.1771-.1436-.2724-.203.0538-.2087.064-.4253.0229-.6289-.0713-.3549-.2884-.6376-.6108-.8086l2.3703-10.264c.1183-.5111.2197-1.0146.2214-1.5026.4518-.2616.7465-.7143.7983-1.2471.0592-.6062-.2184-1.1965-.7252-1.5392-.8156-.552-1.7541-.8792-2.7108-.9452-.2149-.0151-.4091.1272-.4599.3358-4.4688,18.4055-6.055,26.0498-8.0806,38.9495-.4856,3.0919-1.2771,6.5715-2.0418,9.9366-.5815,2.5601-1.1314,4.9768-1.5271,7.1261-.0231.1258.0092.2545.0874.3544.0789.0993.1969.1602.3234.1664,1.1698.0623,1.3197.1184,1.8148.3058.1884.0711.4197.1583.7553.2673.1194.0393.2439.0256.3507-.0333.1075-.0594.1848-.1608.2146-.2798l3.6498-14.6759c.4706-.0853.8859-.329,1.2015-.7051-1.0501,6.3611-1.9656,12.7432-2.6774,19.1212-.1225,1.0929-.2383,2.1872-.3546,3.2808-.2323,2.1808-.4699,4.4153-.755,6.6375-.032.0218-.065.0433-.0989.063-1.2839-2.0291-1.2116-4.8544.2135-6.7196.5778-.7568.7984-1.6952.6055-2.5747-.1831-.8361-.7797-1.7949-2.5826-1.6157-.4168.0418-.8398.1629-1.2386.3447-1.2826-.1126-2.6159.7585-3.0161,2.0564-.0145.0469-.0272.0936-.0388.1406-.44.6111-.7705,1.324-.9283,2.0511-.2387,1.1031-.1554,2.3075.2624,3.2851-.0681.0627-.1317.1341-.1892.2153-.2178.3074-.3093.6705-.274,1.0445-.0583.0444-.1164.0917-.1745.1407-.5503.4699-1.4782,1.46-1.5079,2.8181-.0106.4984.1216.9753.3556,1.3791-.1035.2625-.1157.56-.0371.8504-.1693.3177-.2952.6708-.3692,1.0477-.1525.7748-.0617,1.5379.2348,2.1756-.0855.0748-.1641.1583-.2346.2501-.3481.1288-.6621.3489-.8944.6473-.0752.0971-.1069.2216-.0865.343.0657.396.2802.7354.597.98.0639.4099.1883.7995.3057,1.1669.1387.4347.2695.8452.3041,1.2568.0927,1.1144-.5065,2.1437-1.1397,3.2333-.1949.3349-.3891.6688-.5626,1.005-.4007.7747-.6364,1.6703-.6282,2.5048-.1295.0151-.2582.0372-.3843.066-.0787.0062-.1567.0149-.2344.0277-.832.1351-1.5885.6631-2.0754,1.4482-.4996.806-.6389,1.7448-.3815,2.5778.1752.5683.4949,1.0478.8038,1.5124.2785.4178.5413.8138.6834,1.2458.2269.6912.1403,1.4505.0483,2.2534-.05.4342-.0987.8699-.1019,1.3008-.0208,2.6729,2.0137,5.1315,4.47,5.5025-.023.0745-.0461.1502-.0691.2247-.3339,1.0909-.7134,2.3269-1.4785,3.2239-.1314.1538-.2748.3007-.4218.4457-.1866-1.7639-1.3422-3.4532-3.0044-4.3269-.4143-.2172-.8387-.3729-1.2649-.4672-1.2211-.2701-2.4601-.0357-3.5436.6929-.4716-.3744-.8952-.8667-1.2226-1.5359Zm6.4674-19.8959c-.3609-.3228-.7719-.5205-1.2015-.6155-.3261-.0721-.6628-.0852-.9962-.0493.708-.2227,1.6994-.1915,2.1164.1448.9096.7349,1.3643,2.084,1.1304,3.3574-.2044,1.1137-.8867,1.9376-1.8715,2.2599-.1697.0551-.3409.0939-.5133.116.6824-.2189,1.2962-.7436,1.7178-1.5144.5944-1.0846.7286-2.705-.382-3.6989Zm-.5885.6583c.7512.6727.6283,1.8279.1962,2.6169-.3708.6765-1.1328,1.3748-2.0757,1.1132-.261-.0731-.6525-.3643-.821-.6104-.2852-.4168-.4665-.9518-.5354-1.5232.2078-.5579.425-1.1267.6526-1.7081.821-.4406,1.8614-.5343,2.5832.1114Zm1.3035,26.1231c-.0452-.1905-.2122-.3289-.4037-.3399-.1957-.0114-.3748.1059-.4409.2899-.314.8647-1.0329,1.5957-1.8823,1.9852-1.077-.3538-2.0132-1.1471-2.4163-2.1031-.4617-1.0959-.4427-2.6221.4886-3.4198.0183-.016.0377-.0318.0575-.0464.3924.1405.7727.25,1.1219.3508.6585.1904,1.28.3698,1.5.6443.1222.1539.3315.2078.5126.1328.1818-.0748.2917-.2599.271-.4549-.0779-.7355-.587-1.3588-1.3611-1.6668-.6939-.2756-1.4775-.2578-2.114.0202-.155-.0644-.3099-.1346-.463-.2127,1.1105-.5978,2.3863-.5928,3.5679.0271,1.5513.8149,2.5796,2.4606,2.5585,4.0943-.0014.1081-.0069.2262-.0185.3509-.3041.3639-.558.773-.6661,1.2675-.1309-.2908-.2365-.5973-.312-.9194Zm-.2228,1.8019c-.3807.223-.7913.3057-1.1483.3258.3236-.2633.6114-.5702.8506-.9106.0887.2019.1882.3973.2977.5849Zm-5.7076-6.0557c.1468.0885.2951.1696.4444.244-1.049,1.1462-.9992,2.9317-.4709,4.1851.3521.8344,1.0011,1.5554,1.8066,2.0626-1.0492-.0316-1.9347-.6409-2.5183-1.7406-.8737-1.6464-.5528-3.5693.7382-4.751Zm3.2557,7.1234c.2143.0551.4348.0951.6564.1198.8633.0943,1.6536-.0688,2.2917-.4585.1322.1673.2725.3274.4211.48.1448.2491.3323.4734.5392.679l-4.8115-.6088c.3076-.0387.6111-.1044.9031-.2114Z"/>
  </g>
</svg>