<?xml version="1.0" encoding="UTF-8"?>
<svg xmlns="http://www.w3.org/2000/svg" viewBox="0 0 165 165">
  <defs>
    <style>
      .uuid-ea4c47af-069d-4d00-a258-4a67c1ae82d1 {
        fill: #eee7c2;
      }

      .uuid-ea4c47af-069d-4d00-a258-4a67c1ae82d1, .uuid-80376cfe-dc70-408a-bf56-a4f1e6ecbe15 {
        stroke-width: 0px;
      }

      .uuid-80376cfe-dc70-408a-bf56-a4f1e6ecbe15 {
        fill: #5e2751;
      }
    </style>
  </defs>
  <g id="uuid-b4f050ff-3b91-4bcf-a0dc-db33af9ab3ce" data-name="podklad">
    <path class="uuid-ea4c47af-069d-4d00-a258-4a67c1ae82d1" d="m97.3912,127.523c-.2505.5088-.501,1.0194-.7514,1.5305-.1229-.1229-.2602-.2277-.4088-.3098-.4638-.2529-.9569-.3482-1.4622-.3482-.3859,0-.779.0557-1.1716.139.4549-1.0751.9241-2.1477,1.4065-3.2157.1607.024.3267-.0419.4292-.1744.1186-.1539.127-.3661.0215-.5297-.0251-.0389-.0509-.0773-.0778-.115.5014-1.0938,1.0157-2.1796,1.5418-3.2559.3044.1607.652.3255,1.0109.4854.5483.5094,1.035,1.0865,1.4412,1.7199.0025.0048.0054.009.0085.0131-.6622,1.364-1.3285,2.7202-1.9877,4.0606Z"/>
    <path class="uuid-ea4c47af-069d-4d00-a258-4a67c1ae82d1" d="m100.2406,121.6796c-.2786-.106-.6064-.2331-.951-.3727-.5561-.7155-1.2897-1.292-2.1297-1.6497-.1474-.063-.3122-.042-.4375.0425-.6532-.3805-1.3477-.6891-2.068-.918,2.1538.0197,4.335,1.0115,5.6966,2.6672-.0366.0773-.0731.154-.1103.2307Z"/>
    <path class="uuid-ea4c47af-069d-4d00-a258-4a67c1ae82d1" d="m103.0398,115.6565c-.655-1.0523-1.6222-1.8931-2.5259-2.5151,1.4046-1.932,2.819-3.9174,4.196-5.9584.0066.0509.015.1018.0252.1528-.0048.112-.0036.2259.0048.3403.0546.7377.3901,1.3861.9133,1.7918-.3866.8965-.7587,1.7935-1.126,2.6805-.4866,1.1733-.9726,2.3479-1.4874,3.5081Z"/>
    <path class="uuid-ea4c47af-069d-4d00-a258-4a67c1ae82d1" d="m111.5614,99.1661c-1.1069,1.5647-2.2515,3.1826-3.2372,4.8732-.0132.0233-.027.0468-.0407.0707-.3153-.311-.67-.5812-1.056-.803.9583-1.5414,1.8805-3.1114,2.7489-4.7127.0869-.0809.1726-.1623.2576-.2432.5388-.5118,1.0469-.9947,1.7314-1.1427.3199-.0696.6322-.006.8563.1611-.4177.6064-.8407,1.2045-1.2602,1.7966Z"/>
    <path class="uuid-ea4c47af-069d-4d00-a258-4a67c1ae82d1" d="m114.82,94.2474c-.4632.803-.9642,1.5892-1.482,2.3622-.317-.2253-.7078-.3475-1.1188-.3475-.1474,0-.2979.0156-.4477.0479-.2678.0575-.5123.1499-.7388.2644.6922-1.3724,1.3399-2.7674,1.9326-4.1841.1486-.2596.2973-.5203.4447-.7797-.0786.6376-.1091,1.2819-.0899,1.929.0059.2121.1564.3925.3632.4363.2115.0443.4188-.06.5105-.2517.1803-.3775.5735-.6406.9893-.7018l-.3631,1.225Z"/>
    <path class="uuid-ea4c47af-069d-4d00-a258-4a67c1ae82d1" d="m117.1093,89.3946c-.4057.8575-.8084,1.772-1.216,2.7643-.5513-.1457-1.1433-.048-1.6341.2283.1066-1.6048.5392-3.1743,1.2746-4.6088.0778-.1432.1551-.2871.2325-.4309.0605-.1121.069-.2386.0342-.3518.4704.5033.9246.9012,1.5485.9462.0767.0863.154.1738.2307.2636-.1546.3949-.3111.7922-.4704,1.189Z"/>
    <path class="uuid-ea4c47af-069d-4d00-a258-4a67c1ae82d1" d="m126.982,70.7072c-.3704.6401-.7288,1.304-1.072,2.0135l-1.98,1.787c.0455-.2542.0742-.5178.0862-.7905.0125-.3068-.0096-.5806-.0665-.8197.2925-.3188.4985-.7258.5507-1.1314.0012-.009.0025-.0186.0037-.0276.3422-.5285.7729-.9995,1.271-1.3776.3901.0161.791-.0623,1.1799-.2349.0815-.0366.1619-.0756.2403-.1187l-.2133.6999Z"/>
    <path class="uuid-ea4c47af-069d-4d00-a258-4a67c1ae82d1" d="m139.4347,48.9216c-1.1811,1.5522-2.1922,3.2193-3.115,4.9247-.1258-.1251-.2636-.2367-.4105-.3295-.2649-.1679-.5447-.2697-.8257-.3039.0125-.1607.0054-.323-.0216-.4824.3295-.6556.6112-1.3357.8402-2.0327,1.4202-.7743,2.4126-2.2922,2.4887-3.9234l.6209-1.3501c.4542-.2247.8623-.5933,1.1631-1.0751.586-.939.6076-2.0567.0551-2.8458-.0701-.1001-.1767-.1678-.2966-.1894-.0455-.0079-.0905-.009-.1353-.0036.2139-.8073.3648-1.6193.4476-2.4217.009-.0258.0241-.0497.0426-.0732.2019.1511.471.2469.734.181.2625-.0647.4477-.2709.4951-.5519.0197-.1139-.0048-.2289-.0655-.3236.021.006.042.0126.0636.0203l.1858.0665c.2355.0857.5033.1834.7862.217-.2751,1.7456-.8318,3.4218-1.6576,4.9906-.1162.2199-.036.492.1815.6149.2164.1216.4914.0485.619-.1648,1.2112-2.0255,2.2233-4.1799,3.0083-6.4067.2218-.1367.4735-.1031.655-.0455.1.0323.1977.0772.29.133-1.9703,3.834-4.0222,7.6298-6.149,11.3751Z"/>
    <path class="uuid-ea4c47af-069d-4d00-a258-4a67c1ae82d1" d="m137.743,45.9841c.0023-.0133.0042-.0264.0065-.0396.0079-.0083.015-.0167.0234-.0252l-.0299.0648Z"/>
    <path class="uuid-ea4c47af-069d-4d00-a258-4a67c1ae82d1" d="m157.3046,9.8576c.2607-.2582.5448-.0832.5993-.0455.0695.048.2871.2289.1451.5454-.2211.468-.646.8323-1.0961,1.2182l-.2979.259c-1.8655,1.6574-3.7819,4.5208-4.5196,7.1575-.0869-.0426-.1767-.0809-.2697-.1151.3314-3.9407,2.9238-6.5181,5.4388-9.0194Z"/>
    <path class="uuid-ea4c47af-069d-4d00-a258-4a67c1ae82d1" d="m137.8814,38.0253c-.0744-.133-.2074-.2176-.3525-.2331.139-.3021.329-.6743.5538-1.0919.0031.0474.0132.0953.0318.1426.0684.1732.2349.2883.4214.2906l2.2286.0282c.1127-.0006.2463-.0486.3343-.1384.0875-.09.1349-.2116.1307-.3374-.0642-1.7804.5214-2.9759,1.331-4.6312.1792-.3661.3684-.7532.5638-1.1721.2864-.6148.8732-.9516,1.4886-1.1009.3278.2038.6364.4548.821.6053.094.0761.2139.112.332.1012-.1072.1954-.1918.4056-.2644.6207-.2798.3182-.5692.6275-.8659.9283-.0305-.0042-.0611-.0079-.0923-.0096-.7994-.0528-1.3693.631-1.5443,1.2896-.033.124-.0126.2564.0569.3655.2564.4016.6808.5974,1.1637.5363.2349-.0293.4734-.1181.6982-.2505.0612-.0119.1204-.0305.1767-.0551.2002-.0875.3457-.2416.4231-.438.2199-.2446.3943-.5304.4926-.83.0647-.196.121-.4033.178-.6124.0426-.1582.0846-.314.1301-.4639.2522-.2912.4968-.589.734-.8929l1.0446.6868c.1636.1073.3769.0994.5316-.0193.1553-.1192.2181-.3229.157-.5081-.1642-.5003-.4829-.9354-.9126-1.2765,1.1032-1.5988,2.011-3.3378,2.6858-5.1536.2266-.1923.419-.4351.5627-.7168.2979-.5812.3411-1.2357.1187-1.7953-.0736-.1852-.2571-.302-.456-.2895-.1983.0126-.3661.1516-.4158.344-.0372.1445-.0756.2888-.1163.4326-.1121-.0335-.2366-.0239-.347.0343-.4518.2397-.749.701-.8323,1.1967-.2307.3541-.4723.7172-.7173,1.0876-.9001,1.3573-1.8241,2.7529-2.5319,4.0852-.0449-.0042-.0899-.0073-.1354-.0102-.3182-.0192-.628-.0054-.924.0395-.0054-.0023-.0114-.0054-.0168-.0084,1.0061-1.1483,1.6018-2.7032,1.8091-3.3139.1324-.3895.2523-.7874.3715-1.1853.4818-1.6066.9379-3.1252,2.2527-4.1427.3044-.2355.643-.4003.9905-.4891.3309.1559.6245.4693.794.8701.0869.2056.3098.3188.5274.2685.2168-.0509.3667-.2505.3547-.4735-.0048-.088-.0084-.1749-.0119-.2624.0191.0162.0383.0323.0569.0479-.0624.4334-.0858.854-.0636,1.2543.0137.2536.2235.4459.4842.4332.1444-.0077.2697-.0821.3482-.1911.0971.912-.2817,1.8385-.749,2.8639-1.8727,4.1115-3.8448,8.1973-5.9088,12.2417-.1366-.0779-.281-.1415-.4303-.1894-.5998-.1912-1.1924-.0846-1.6239.2925-.0599.0526-.1054.1198-.1318.1948-.1079.3092-.2199.6184-.3368.924.0108-.1522-.0552-.3014-.1775-.3956-.1282-.0994-.2996-.1235-.4494-.0647-.2121.0838-.5153-.027-.8377-.1444l-.2019-.0725c-.7995-.2744-1.5144-.1001-1.8212.4453-.0432.0767-.0725.157-.0875.2386-.2469.1534-.4392.3948-.549.7286-.0796.7288-.211,1.4544-.3906,2.1693l-.5064-1.6054c-.0414-.1313-.1396-.2367-.2667-.2883-.0557-.0222-.1139-.0329-.1714-.0329-.0767,0-.1522.0186-.2212.0564-.148.0815-.2942.1659-.438.2553-.0233-.1085-.0335-.2097-.0227-.2943.1749-.1067.3326-.2499.4494-.3559.1576-.1432.1959-.3764.0929-.5633Z"/>
    <path class="uuid-ea4c47af-069d-4d00-a258-4a67c1ae82d1" d="m146.3268,29.8226c.0025-.0054.0048-.0096.0072-.015.003.0012.0059.0018.0096.0029-.006.0043-.0114.0079-.0168.0121Z"/>
    <path class="uuid-ea4c47af-069d-4d00-a258-4a67c1ae82d1" d="m136.9423,40.662l.033.0677c.3314.7107,1.0396,1.093,1.5568,1.373.0193.0102.0384.0185.0582.0258-.0245.0724-.0497.1443-.0749.2156-.4082.4537-.7545.9649-1.029,1.512-.2325-.3877-.619-.6694-1.0949-.7982-.1953-.0534-.402-.0792-.6107-.0792-.3254,0-.6567.063-.9588.184.5436-.9575,1.2662-1.8085,2.1201-2.5007Z"/>
    <path class="uuid-ea4c47af-069d-4d00-a258-4a67c1ae82d1" d="m126.8676,63.6532c.4338-.154.8845-.1306,1.2364.0636.1695.0929.3781.0713.5231-.0551.1457-.1259.1972-.3296.1288-.5094-.4985-1.3196-1.2925-2.2118-2.2963-2.5798-.2678-.0983-.5484-.1588-.8402-.181.1276-.3266.2727-.6735.4063-.9918.3949-.9414.7785-1.8559.9612-2.6367.2157.042.429-.0719.5136-.2757.0713-.1727.0299-.3662-.0948-.4951.1846-.384.9373-1.2182,1.4065-1.7378.6209-.6879,1.1572-1.2824,1.3298-1.6881.0929-.2175.1324-.4482.1222-.679l3.2025-5.8727c.3301-.6053.6987-1.2801,1.2357-1.7164l2.3563.2883c.0372.0042.0744.0042.1109,0-.1157.3139-.2085.637-.2775.9635-.0401.0588-.0779.1187-.1139.1829-.1127.2007-.1923.4081-.2384.6154-.0695-.0179-.1426-.0191-.2133-.0036-.8911.1971-1.6516.8762-2.034,1.8164-.3823.9402-.3122,1.9565.1877,2.7206.0725.1096.1851.1804.3085.2008-.0803.2097-.1665.417-.2576.622-.0642-.0438-.139-.0707-.2182-.0786-.7071-.0617-1.3381.4214-1.5803,1.2004-.2414.7808.0097,1.5376.6251,1.8846.2049.1156.465.0569.6011-.136.1019-.1444.2007-.2912.2966-.4394.1108.0582.242.0702.3643.0282.3183-.1102.6088.009.7976.1282.1679.1066.3188.254.4405.4236-.142.2727-.2828.5465-.4212.8205-.7653,1.081-1.5084,2.2411-2.1885,3.5511-.0995-.1042-.2397-.1564-.386-.1401-.1474.0173-.2775.1042-.3494.2337-.0102.0185-.0198.0366-.0299.0551-.8857-.19-2.0482-.1612-3.5601.0767-.2409.0378-.4105.2571-.3854.4997.024.2427.2331.4232.4775.413,1.068-.048,1.9879.0593,2.7572.3212-.9828,1.8499-1.902,3.7376-2.7541,5.6558-.2265-.8042-.7545-1.5341-1.5048-2.0603-.2505-.1756-.5141-.3207-.785-.4333.0449-.0204.0917-.0395.1395-.0557Z"/>
    <path class="uuid-ea4c47af-069d-4d00-a258-4a67c1ae82d1" d="m121.4952,67.4879c.9031-1.4142,1.8283-2.7134,3.2079-3.0724.1185-.0318.239-.0521.3607-.0647.006.0647.0252.1277.0582.1858.0695.1222.1905.2055.3289.227,1.2381.1929,2.3335,1.0716,2.7915,2.2377.0545.1389.1701.2379.3056.275-.0582.1366-.1164.2721-.1738.4075-.2332-.0659-.477.0594-.5585.2883-.2008.5627-.6735,1.0654-1.2327,1.3135-.0707.0318-.1499.0617-.2361.0869l-.1965-1.2842c.0071-.148-.0012-.2985-.0276-.4482-.0898-.5226-.3769-.9799-.7862-1.2549-.1157-.0779-.2601-.0989-.3925-.0575-.5591.1727-.9637.6238-1.1231,1.2225-.4812.3679-.8072.8887-.9007,1.4472-.0269.1636.0353.3284.1636.4327.365.296.8552.4374,1.3538.3931.088.0832.1827.1588.284.2235-.1983.1852-.3854.3835-.5579.5927-.0569-.0641-.121-.1222-.1917-.1756-.1187-.0892-.2721-.1162-.413-.073-.6777.2091-1.1901.7946-1.377,1.5568-.0403.021-.0773.0444-.1132.0683-.2696.1875-.4159.4632-.4105.754-.2792-.356-.6286-.676-1.0385-.9404-.4794-.3098-.9936-.5141-1.509-.6088l2.3845-3.7328Z"/>
    <path class="uuid-ea4c47af-069d-4d00-a258-4a67c1ae82d1" d="m122.0334,73.3499c.079.0438.1618.0792.2457.1054.1443.3453.3757.6401.6813.8498.021.0144.0432.027.0665.0384-.1144.6459-.3547,1.1997-.6975,1.609l-.0851.0767c-.0107-.0898-.0263-.1804-.0479-.2709-.0174-.0736-.0401-.1462-.0677-.2175.1559-.0642.2667-.211.2817-.3829.0557-.6209-.0803-1.2424-.3769-1.808Z"/>
    <path class="uuid-ea4c47af-069d-4d00-a258-4a67c1ae82d1" d="m112.8677,82.5882c1.1063-1.7661,2.0722-3.6112,2.8909-5.5205.0545-.1018.1096-.2049.1648-.3074.0353-.0665.0533-.1397.0545-.2133.1654-.4009.3241-.8042.4764-1.2105.2636.0065.5274.0389.7868.0977.1942.0443.3937-.042.4956-.2122.1018-.1702.0827-.3871-.0474-.5369-.2816-.3247-.4704-.492-.6598-.6598-.0275-.0245-.0557-.0491-.0844-.0749.184-.5502.3559-1.1044.5166-1.663.0054.0474.0179.094.0389.1384.0647.1414.1977.2409.3518.2636.8325.1193,1.6229.4633,2.2887.9703-.4848.0503-.9109.2864-1.2094.6723-.3403.4411-.4644,1.0188-.3397,1.5844.1534.6982.619,1.2285,1.3118,1.494.2049.0786.4201.1301.6382.1553l-3.0023,2.7092c-.0755-.0222-.1534-.0384-.2318-.0474-.486-.1744-1.0115-.0102-1.3885.4399-.3385.4045-.5482,1.0631-.2923,1.642.0048.0233.0113.0462.0197.0678.1923.5099.6849.8772,1.2847.9594.2656.036.5244.0132.7587-.0617.3488-.0491.6885-.1701.9774-.353.8444-.5338,1.3304-1.4412,1.721-2.1711l1.0877-2.0296c.1917-.3571.4308-.8036.5944-1.2975l.3494-.3151c.0096-.0066.0192-.0138.0287-.0204.1954-.1397.3746-.3038.5365-.4896l1.7395-1.5694c-.8394,1.5148-1.7582,2.9417-2.7439,4.2612-1.7247,2.3072-2.8447,4.9596-3.876,7.5753-.1343.0659-.2547.112-.365.1403-1.1685-1.2513-2.3311-2.1477-3.6165-2.9328-.6233-.5417-1.1488-.9498-1.7744-1.2884.1917.0576.4075-.0185.5189-.1965Z"/>
    <path class="uuid-ea4c47af-069d-4d00-a258-4a67c1ae82d1" d="m120.2463,79.0699l-.6681,1.2477c-.2517.4698-.5268.9833-.8911,1.3878-.0216-.1846-.0743-.3703-.1588-.5495-.0593-.1247-.1306-.2398-.2127-.3428l1.9307-1.7432Z"/>
    <path class="uuid-ea4c47af-069d-4d00-a258-4a67c1ae82d1" d="m111.4073,83.6344c.7789.3925,1.5011.7785,2.186,1.1955.2289.2002.4758.4226.7509.67l.1037.0935c.4369.3925.7779.77,1.0787,1.1026.0024.0031.0054.0054.0079.0085-.2122-.0864-.4586-.0037-.5729.1996-.0252.0455-.0509.0905-.0756.1354.0349-.1168.069-.2331.1031-.3499.0678-.2332-.0575-.4789-.2858-.561-.2271-.0815-.4806.0276-.5771.2505-.7515,1.7403-1.8199,3.3559-3.1258,4.736-.1636-1.4705-.5777-2.877-1.2483-4.2535.5352-1.0876,1.0919-2.1645,1.6553-3.227Z"/>
    <path class="uuid-ea4c47af-069d-4d00-a258-4a67c1ae82d1" d="m106.9368,94.067c.211-.3523.4428-.6999.6736-1.0457.5465-.8197,1.1027-1.6539,1.379-2.5378.1749-.2475.3079-.4992.3973-.7521.2343.7227.4081,1.4909.5675,2.4024-.0228.0287-.0426.0599-.0582.0935-.755,1.6179-1.5574,3.2216-2.4036,4.803-.0216-.0275-.0456-.0533-.0736-.0761-.1636-.1336-.398-.1384-.5675-.0108-.2481.1877-.5232.3625-.8084.5064.0173-.1522.0149-.3085-.0096-.4667-.045-.2871-.1588-.5712-.3207-.8253.4039-.7041.8121-1.4011,1.2243-2.0908Z"/>
    <path class="uuid-ea4c47af-069d-4d00-a258-4a67c1ae82d1" d="m104.7878,98.8419c.1468-.024.2895-.0719.423-.1432.3051-.0528.5999-.1468.8714-.2588l-2.5181,5.2933c-.1036.2199-.0197.4823.1925.5998.211.1168.4788.0503.6095-.154,2.1711-3.39,4.1523-6.9448,5.8972-10.5806.0899.0983.2193.1571.3625.1499.2361-.0114.4249-.1996.4369-.4357.0162-.3278.0222-.6519.0162-.9731.5956-.5712,1.1512-1.1872,1.6605-1.8398-.1821.477-.3715.9529-.5657,1.4245-1.3532,2.3557-2.7543,4.6886-4.1907,6.9754-.1048.1671-.0917.3829.0336.5357.0923.112.2264.169.3692.1677-.6377,1.1213-1.301,2.2281-1.9854,3.3235-.2361-.0845-.4806-.1522-.7311-.2013-.2074-.0407-.4195.0665-.5076.2613-.0881.1948-.0299.4243.1397.5542.1624.1241.3212.2475.4758.371-1.9099,2.9836-3.9618,5.8816-6.0388,8.7348-.5005-.2955-.9379-.5113-1.2316-.6467-.3482-.1607-.7514-.329-1.1835-.4596,2.5402-4.1901,5.0428-8.4472,7.4644-12.6983Z"/>
    <path class="uuid-ea4c47af-069d-4d00-a258-4a67c1ae82d1" d="m94.5831,115.3466c1.0253.1486,1.7378-.7041,1.9152-1.6371.0522-.2757.0582-.5633.0144-.8373.1049-.1719.2103-.3445.3153-.5172.4686.1193.9186.3063,1.2955.4795.3584.1648.7192.3505,1.0722.5561-.5358.7323-1.0716,1.4609-1.6073,2.1885-.1546.157-.2846.3362-.3847.5334-.1085.2127-.0353.474.1684.5993.2032.1252.4693.0736.6113-.1187.1013-.1378.2025-.2757.3044-.4135.2026-.187.4435-.2889.6394-.344.5916-.1677,1.3173-.0647,1.8482.2613.5806.3559,1.0247.8899,1.398,1.4753-.453.9876-.9174,1.9776-1.3878,2.9682-1.5527-1.7018-3.8521-2.6901-6.1526-2.6901-.3667,0-.734.0258-1.0984.0773.3798-.8468.7299-1.7079,1.0487-2.5811Z"/>
    <path class="uuid-ea4c47af-069d-4d00-a258-4a67c1ae82d1" d="m92.8781,119.3168c1.1458.1582,2.255.54,3.2605,1.1057-.8095.8228-1.7048,1.7547-2.4197,2.8231-.229-.0857-.4687-.1522-.7167-.196-.2349-.0414-.4692-.063-.7012-.063-.106,0-.2116.0049-.3164.0139-.1474-.3513-.3679-.6592-.6353-.9014.5484-.9078,1.0577-1.8361,1.5287-2.7824Z"/>
    <path class="uuid-ea4c47af-069d-4d00-a258-4a67c1ae82d1" d="m88.6324,125.6569c.0108.0072.0216.0138.033.0216.7383.4686,1.7049.4885,2.4623.0503.5369-.311.884-.7856,1.005-1.3381l.8066.263c-.1767.4034-.3193.8258-.4183,1.2657-.1875.8371-.148,1.7433.0923,2.5841-.0748.1761-.1474.3512-.2205.5274-.0677.1623-.0366.3487.0809.4811.1168.1319.2991.1846.4687.1373.0424-.0132.085-.0247.1281-.0366.0839.151.175.296.2739.4357.4842.6818,1.1164,1.1666,1.8451,1.4113.0384.0971.0875.1863.1451.2666-2.6524,5.4641-5.2147,11.0037-7.0599,16.3449-3.3115-2.919-6.7201-4.6562-10.1436-5.1667-.2738-.0403-.5471-.0606-.818-.0606-.0677,0-.1349.0019-.202.0043,4.4406-5.3053,8.3046-11.0713,11.5214-17.191Z"/>
    <path class="uuid-ea4c47af-069d-4d00-a258-4a67c1ae82d1" d="m75.7099,149.1516c-1.0043-.7336-1.7061-1.7283-1.8038-2.6325-.0796-.7425.2349-1.3975.9355-1.9477.4579-.3601,1.0115-.6058,1.6108-.7251,4.2171.6178,8.2705,2.4535,11.5197,5.2118-.1577.613-.2673,1.2339-.374,1.8397-.0989.5616-.1948,1.1044-.314,1.6168-.7269.9924-1.5892,1.4749-2.5841,1.4406-.3127-.0107-.5956-.2181-.8617-.5249.0437-.2528.0479-.4968.0036-.7107-.2031-.9876-.8599-1.5275-1.7222-1.8524-.0707-.0815-.1438-.1582-.2193-.2289-1.1381-1.072-2.6967-2.5415-4.7414-2.2191-.5693.0898-1.0727.3554-1.449.7323Z"/>
  </g>
  <g id="uuid-7d4cb599-a5f5-497c-9abd-19e77ff27e31" data-name="OBJEKTY">
    <path class="uuid-80376cfe-dc70-408a-bf56-a4f1e6ecbe15" d="m80.2117,154.4561c.2491.0315.4842.0251.7076-.0117l4.4769-.7489c.8195-.2351.9099-.4433.9782-.6108.1523-.375.2719-.7588.3722-1.1461.7565-1.1007,1.359-2.6733,1.8035-4.7136.7962-3.6574,3.6941-10.1291,6.3365-15.5626.4358-.2216.7187-.6609.7705-1.2132.0117-.1202.0117-.2404.0018-.3605,1.8625-3.7629,3.4695-6.7808,3.9227-7.5853.0385.0093.0799.0141.1196.0141.1662-.0024.3179-.0969.3926-.2462l.9549-1.887c.2135-.4205.4275-.8429.6416-1.2669.1709-.0513.297-.2007.3162-.3815.0099-.0968.0168-.1931.0215-.2876,1.6286-3.2362,3.2356-6.5528,4.4886-9.901.0075-.0198.0134-.0403.018-.0607.2275-.4735.3354-1.0079.2992-1.5171.0099.0397.0198.0799.0292.1208.042.1849.196.3225.3844.3442.1872.021.3698-.0776.4532-.2468.6335-1.2925,1.299-2.5554,1.9645-3.8177.6697-1.2703,1.3393-2.5408,1.9768-3.841.0303-.0624.0624-.1277.0945-.1971.0321.0209.0676.0367.1056.0496.2315.0735.48-.052.5587-.2824.7339-2.1582,1.4117-4.0061,2.0713-5.6352.4761-.98.9018-1.9867,1.3061-2.9918.1149-.2415.2299-.4789.3454-.7116.0804.0419.1744.0595.2671.0466.1569-.021.291-.1237.3523-.2701,1.2442-2.9509,2.7724-5.8225,4.2505-8.599.8021-1.5078,1.6233-3.0512,2.3986-4.6069.1377-.0193.2642-.1021.3336-.2334.084-.1556.1686-.3126.2543-.4695.2088.0303.4166-.0916.486-.2987.1218-.3582.2449-.7152.3709-1.0716.3838-.2199.8638-.3097,1.4291-.2695.1271.0087.2555-.0379.3471-.1295.0916-.0904.1394-.2164.1313-.3448-.1348-2.1302,1.3334-3.6672,2.7532-5.154.9437-.9882,1.8473-1.9342,2.311-3.0355.003.0192.0052.0391.0088.0589.0723.4993.154,1.0564.2799,1.7055.0438.2258.2533.3822.4807.36.2292-.021.4043-.2129.4053-.4427.0052-1.1404-.1557-2.1332-.4812-2.9691-.0973-.4766-.2252-.9251-.4322-1.3859.4864-.8184.9583-1.6456,1.4052-2.4814.3954-.7396.8731-1.6327.9332-2.6114,3.8276-4.0662,6.2611-8.5355,8.3161-12.8076l.2334-.4684c.7548-1.5002,1.4723-3.0448,1.2424-4.0015-.0275-.1149-.0659-.228-.1143-.3377,2.3623-5.1226,4.7347-10.5969,6.0238-13.6056l.1394-.326c.4561-1.0587.4806-2.2288.0664-3.1318-.1259-.2741-.2893-.5174-.487-.7268.5821-2.4324,2.4184-5.2679,4.2167-6.8655l.2782-.2409c.49-.4212.9969-.8551,1.3101-1.5183.2648-.5932.0805-1.2419-.4585-1.6146-.5477-.378-1.2553-.3167-1.7219.1471-2.4313,2.4172-5.15,5.1208-5.5437,9.226-.3395-.0659-.6796-.0729-1.0086-.0239-.0524-.0064-.1054-.0099-.1586-.0117-.7017-.0221-1.313.3675-1.6542,1.0634-.0368.0741-.0508.1534-.0444.2315-1.0656,1.1177-1.4979,2.5572-1.9172,3.9559-.1133.3769-.2258.7537-.3512,1.1224-.4,1.176-1.0663,2.4807-1.9038,3.2536-.07.0012-.14.0076-.21.0198-.4305.073-.7893.3377-1.0663.7875-.0968.1569-.0869.3576.0245.5046.038.0501.0852.0903.1377.1196-.1121.1469-.2094.3044-.287.4724-.1499.3214-.2963.6229-.4363.9105.0712-.3921.119-.7893.1423-1.1883.0111-.1994-.1109-.382-.2999-.448-.1884-.0652-.3978.0018-.5127.1657-.0525.0741-4.8886,7.1175-4.5883,8.5996-.0589.329.0093.6825.1196,1.0086-1.2488.9601-2.2533,2.2288-2.892,3.6748-.0571.1295-.0501.2788.0198.4019.0123.0215.0263.0413.0415.0607-.4112.4707-.7098,1.019-.9683,1.4933l-2.7666,5.0718c-.0711-.0852-.1504-.1669-.238-.2444-.6165-.5425-1.4145-.6604-2.0323-.2992-.1305.0769-.214.214-.221.3657-.0071.1505.063.2958.186.3838l1.7546,1.2588c-.1691.2894-.6574.8301-1.093,1.3131-.5151.571-.9275,1.0354-1.2098,1.4261-.0298-.0455-.0631-.0886-.1004-.1295-.5465-.6048-1.5388-.3015-1.8649-.2018-.1732.053-.2969.2048-.3143.3843-.0176.1797.0747.3524.2344.4376l1.3188.7052c-.1522.7683-.6345,1.919-.9367,2.6389-.224.5348-.4113.9881-.5483,1.3731-.0777.0146-.1558.032-.2345.0518l-.2643-.2898c-.0969-.1056-.2392-.1586-.3804-.1435-.1423.0168-.2683.0992-.3388.2245l-.1558.2736c-.6143-.7863-1.5516-1.3153-2.5519-1.4057-.2217-.0193-.4265.1283-.476.3464-.0496.2181.0694.4392.2794.518.8336.3109,1.5732.8423,2.1355,1.5276-1.8275.5507-3.05,2.7421-3.3989,6.1673-.0216.21.1073.4067.3086.4714.2018.0642.4205-.0216.5249-.2054l3.2077-5.6575c.0513-.0057.1038-.0104.1568-.014.157-.0087.2982-.0998.3711-.2398.0676-.13.067-.2841,0-.414.1032-.0491.2059-.0928.308-.1325l.3786.4153c.1317.1447.3435.1866.5202.1032.1774-.0828.2801-.2718.2527-.466-.0094-.07.0047-.1762.0361-.3075.2806-.0057.5576.0392.8085.1307.5127.1884.9573.5862,1.3113,1.1679-.2911-.0071-.6061.0425-.9054.1487-.3808.1348-.7151.3511-.9757.624-.3565-.0251-.7134.0059-1.0564.0951-1.6561.4305-2.7118,1.9034-3.6522,3.3744l-2.6032,4.0767c-.4112.0473-.8056.171-1.1637.3727-.1032.0578-.1796.1546-.2111.2683-.1341.4777-.2777.9526-.4305,1.4239-.0455-.0081-.0927-.0099-.1382-.0035-.1487.0193-.2782.1121-.3442.2467-.1586.3255-.3197.6499-.4824.973-.1254.0303-.2497.0654-.3721.105-.1167.0379-.2124.1224-.2648.2333-.053.1109-.0577.2385-.0134.3529l.1283.3325c-.7664,1.4845-1.558,2.9434-2.3303,4.3684-.3757.6918-.7548,1.3917-1.1339,2.0987-.333-.1155-.7035-.2252-1.1264-.3337-.221-.0577-.452.063-.5314.2788-.0787.2153.0181.4561.2252.5565.3179.154.6259.3039.9251.4504-.5588,1.0558-1.1124,2.1268-1.6444,3.2111-.2811-.4667-.6042-.9607-.9787-1.5021-.3284-.4735-.9449-.6188-1.4676-.3446-.5034.2642-.7169.8126-.5204,1.3328.0222.0595.0496.1178.0805.1726.2911.5127.7851.8038,1.2203,1.061.137.0811.2742.1616.4037.249.1633.1109.3068.224.4292.3389-.7448.1009-1.4285.6171-1.8233,1.4105-.4813.9676-.3757,2.0293.2695,2.7053.1429.1493.3703.1809.5483.0777.0338-.0198.0676-.0397.1008-.0596-.0834.1272-.1691.2555-.256.385-.2329.3488-.4662.7005-.679,1.0558-.3604.6032-.7175,1.2116-1.071,1.8251-.0309-.0209-.0611-.0391-.0927-.0577-.3401-.2847-.7414-.3588-1.1311-.2071-.5285.2059-.9619.8329-1.054,1.5253-.0823.6201.1242,1.1614.567,1.488.0379.0281.0764.0548.1149.0799-.9344,1.6881-1.8473,3.3855-2.7451,5.0532-1.344,2.4977-2.7229,5.0619-4.1549,7.5584-.5675-.0565-1.1503.0024-1.695.2719-.8411.4182-1.2186,1.4168-1.1573,2.1873.0303.3832.1616.7158.3826.9724-.3943,1.0977-.8405,2.1746-1.3363,3.2285-.1691.0514-.3377.1091-.5034.1738-.1977.0765-.3145.2806-.2801.49.0269.1621.14.2934.2888.3471-.4065.7986-.8417,1.5819-1.3061,2.3513-.0793-.0269-.1597-.0484-.2408-.0647-.0927-.0228-.1884-.035-.2865-.035-.0174,0-.0361-.0006-.0542-.0012-.0052.0006-.0116,0-.0174.0006-.9193.0024-1.7943.6999-2.0952,1.6822-.1837.5985-.1179,1.1824.1639,1.6612-3.2817,6.2904-7.2704,12.1957-11.8866,17.5931-.0152.0174-.0292.0367-.0408.0561-.5097.165-.9823.4124-1.3947.7355-1.1712.9198-1.3241,1.9733-1.2464,2.6948.1231,1.144.9449,2.3432,2.1413,3.207-.1033.242-.1645.5016-.1768.7717-.0537,1.2033.8737,1.8316,1.4279,2.2073l.2363.1609c.7337.4993,1.6472,1.1217,2.5699,1.596l1.9961.7005Zm38.1219-87.8852c.259-.7612.6253-1.4949,1.1433-2.0153l-1.1433,2.0153Zm-12.583,20.6992c-.3722-.2199-.7233-.4275-.9182-.7787-.0134-.0356-.0548-.1453.0992-.2263.0176-.0099.0729-.035.1376-.035.059,0,.126.0215.1786.0968.2612.378.4964.7309.708,1.0657-.0676-.042-.1364-.0822-.2052-.1225Zm-11.7868,42.065c-.1879.1995-.3208.4631-.3891.7432-.4637-.2375-.7974-.5991-1.0185-.9111-.0285-.0397-.0559-.0805-.0828-.122.6072-.1091,1.1917-.1161,1.6782.1266-.0665.0466-.1289.1014-.1878.1633Zm1.8018-2.1081c-.2438.4953-.4876.9922-.7314,1.4898-.1196-.1196-.2533-.2216-.3979-.3015-.4514-.2462-.9314-.3389-1.4232-.3389-.3756,0-.7582.0542-1.1404.1353.4428-1.0465.8995-2.0906,1.369-3.1301.1564.0234.318-.0408.4177-.1698.1154-.1498.1236-.3564.0209-.5156-.0245-.0379-.0496-.0753-.0757-.1119.4881-1.0646.9886-2.1215,1.5008-3.1692.2963.1564.6347.3168.984.4725.5337.4959,1.0074,1.0576,1.4028,1.6741.0024.0047.0053.0087.0082.0128-.6446,1.3277-1.2932,2.6477-1.9348,3.9525Zm-3.956-.6702c.0088-.2368.0386-.4702.0887-.6953.0886-.3961.2222-.7793.3902-1.1486l.2946.0963c-.2619.5816-.5198,1.1631-.7735,1.7476Zm1.18-3.0739c.1686-.2462.3476-.486.5338-.7193-.1289.276-.2572.5524-.385.8289-.0484-.038-.098-.0742-.1487-.1097Zm5.5495-1.9437c-.2712-.1032-.5902-.2269-.9257-.3628-.5413-.6964-1.2553-1.2576-2.073-1.6058-.1435-.0613-.3039-.0408-.4258.0413-.6358-.3703-1.3118-.6708-2.0129-.8936,2.0964.0192,4.2196.9846,5.5449,2.5962-.0356.0753-.0712.1499-.1074.2246Zm2.0007-2.1302c.1418-.3033.283-.6054.4229-.9083.0065.0117.0129.024.0188.0362-.147.2911-.2946.5821-.4416.8721Zm.7239-3.7325c-.6376-1.0243-1.579-1.8427-2.4586-2.4481,1.3672-1.8805,2.7439-3.8131,4.0842-5.7998.0064.0496.0146.0991.0245.1487-.0047.109-.0035.2199.0047.3313.0532.718.3798,1.3492.889,1.7441-.3763.8726-.7385,1.7458-1.0961,2.6091-.4737,1.142-.9467,2.2854-1.4477,3.4147Zm-.7804.4701c-.2776-.305-.5926-.5809-.9561-.8037-.4947-.3033-1.0961-.4637-1.6858-.4637-.0834,0-.1674.0035-.2502.0099.228-.312.4585-.6247.6877-.9391.8901.6147,1.6816,1.3573,2.2043,2.1966Zm1.3357.7205c-.0152-.0461-.0303-.0923-.0466-.1384.0805-.1791.1615-.3581.2414-.5377.5285-1.1847,1.0266-2.3857,1.5236-3.5868.3716-.896.7472-1.8018,1.1386-2.7053.1279-.0088.2533-.031.3769-.0659-.9631,2.3653-2.0824,4.7177-3.2339,7.0341Zm1.9978-9.3626c.0332-.2958.1412-.5617.311-.7671l.6445.7687c-.1196.2538-.2374.5087-.3535.7642-.0548-.0269-.1097-.0619-.1651-.1056-.2047-.1621-.3616-.4106-.4369-.6603Zm1.6199-1.3533c-.3022-.2946-.6738-.4562-1.0594-.4562-.1224,0-.2461.0164-.3691.0496.2-.3068.3995-.6153.5973-.9251.3808.35.7058.7134.9449,1.1106-.038.0735-.0765.1469-.1137.2211Zm3.4374-3.1989c-.5057.9601-1.0115,1.9198-1.5038,2.892-.1125-.2362-.2438-.4625-.3907-.676.0664-.1172.133-.2333.2006-.35.9398-1.6104,2.0422-3.1696,3.1091-4.6769.0548-.0775.1102-.1564.1662-.2345-.5162,1.0254-1.0488,2.0357-1.5813,3.0454Zm.6843-3.3271c-1.0774,1.523-2.1915,3.0978-3.151,4.7434-.0129.0227-.0263.0455-.0396.0688-.3069-.3027-.6522-.5658-1.0279-.7816.9327-1.5003,1.8304-3.0286,2.6757-4.5872.0846-.0787.168-.158.2507-.2368.5244-.4981,1.019-.9682,1.6853-1.1123.3114-.0677.6153-.0059.8335.1568-.4065.5903-.8183,1.1724-1.2266,1.7488Zm3.1719-4.7877c-.4509.7816-.9385,1.5469-1.4425,2.2993-.3086-.2193-.6889-.3383-1.089-.3383-.1435,0-.2899.0152-.4358.0466-.2607.056-.4986.1459-.7192.2573.6738-1.3358,1.3043-2.6937,1.8812-4.0727.1447-.2526.2894-.5064.4328-.7589-.0765.6206-.1062,1.2478-.0875,1.8777.0057.2064.1522.382.3535.4247.2058.0431.4077-.0584.4969-.245.1755-.3674.5582-.6236.963-.6831l-.3535,1.1924Zm2.2283-4.7236c-.3949.8347-.7869,1.7248-1.1836,2.6907-.5366-.1418-1.1129-.0467-1.5906.2222.1038-1.5621.5249-3.0897,1.2407-4.4861.0757-.1394.151-.2794.2263-.4194.0589-.1091.0671-.2322.0333-.3424.4579.4899.9.8772,1.5072.921.0747.084.1499.1691.2246.2566-.1505.3844-.3028.7711-.4579,1.1573Zm9.6099-18.1898c-.3605.623-.7094,1.2693-1.0435,1.9599l-1.9272,1.7395c.0443-.2474.0722-.504.0839-.7695.0122-.2987-.0093-.5651-.0647-.7979.2847-.3103.4852-.7065.536-1.1013.0012-.0087.0024-.0181.0036-.0269.333-.5144.7524-.9729,1.2371-1.3409.3798.0156.7699-.0607,1.1485-.2287.0793-.0356.1576-.0736.2339-.1155l-.2076.6813Zm-2.1232-1.8846c-.0916-.206-.1353-.4358-.1313-.6481.1686-.0799.3464-.1266.5215-.1365l.0233.1528c-.0192.1523-.0723.2923-.1568.4067-.0666.0892-.154.1662-.2566.2252Zm3.3977,3.0488c-.1441.0064-.2841.0204-.4194.0421.1663-.276.3342-.5501.5034-.8237-.0467.2519-.0759.5127-.084.7816Zm5.3634-8.9029c-.1797,1.271-1.2232,2.3711-2.3338,3.5336.7863-1.2057,1.5814-2.4307,2.3519-3.6754-.0052.0467-.0117.0939-.0181.1418Zm-3.1696,2.248c.6353-1.3614,1.3061-2.7053,2.01-4.0289.0461.0269.091.0544.1353.0829-.3541.7092-.7169,1.4156-1.0902,2.1092-.3494.6469-.7023,1.2553-1.0552,1.8368Zm4.6495-6.6852c-.3523.658-.7197,1.3113-1.0983,1.9599-.0053-.0063-.0099-.0122-.0152-.0186.1989-.4071.3954-.8132.5897-1.2156.2112-.4351.4223-.8715.6364-1.3095.1149-.1073.2292-.2158.3419-.3237-.1313.2946-.2875.5962-.4544.9077Zm4.0033-9.0296c-1.1497,1.5108-2.1338,3.1336-3.032,4.7936-.1224-.1218-.2566-.2304-.3996-.3207-.2578-.1634-.5302-.2626-.8037-.2958.0122-.1564.0052-.3144-.021-.4696.3208-.6382.5949-1.3001.8178-1.9785,1.3824-.7537,2.3484-2.2311,2.4225-3.8189l.6043-1.3142c.4421-.2187.8393-.5775,1.1321-1.0465.5704-.914.5914-2.0019.0536-2.7701-.0682-.0975-.172-.1633-.2887-.1843-.0443-.0076-.088-.0087-.1317-.0035.2082-.7858.3551-1.5762.4356-2.3572.0087-.0251.0234-.0484.0415-.0712.1965.1471.4585.2404.7145.1762.2555-.063.4358-.2636.4819-.5372.0192-.1109-.0047-.2228-.0637-.315.0204.0058.0409.0123.0619.0198l.1809.0648c.2292.0834.4899.1785.7653.2112-.2677,1.6991-.8096,3.3307-1.6134,4.8578-.1131.2141-.035.4789.1767.5985.2106.1184.4783.0472.6026-.1604,1.179-1.9716,2.1641-4.0686,2.9282-6.2361.2159-.1331.4609-.1003.6376-.0443.0973.0314.1925.0751.2823.1295-1.9178,3.7319-3.9151,7.4266-5.9852,11.0722Zm-3.0128-.7541c-.0822-.0997-.2035-.1586-.3337-.1616-.0093-.0006-.0186-.0006-.0279-.0006-.2369,0-.4579.0712-.6475.1989.2315-.3925.5617-.6882.9397-.8399.2258.3418.2958.812.1809,1.2838-.0222.0904-.0502.1773-.0835.2602.0251-.1272.0479-.255.069-.3826.0215-.1278-.0141-.2584-.0969-.3581Zm1.3661-2.1051c.0023-.0129.0041-.0257.0063-.0386.0076-.0081.0146-.0162.0228-.0245l-.0291.0631Zm.7711-1.3131c.2875-.5716.5425-1.1607.7624-1.7592.1119-.1161.228-.227.3493-.3325.108.4783-.0559.9898-.2747,1.3397-.1796.2883-.4736.591-.8371.7519Zm18.2696-33.8514c.2538-.2514.5303-.081.5833-.0443.0676.0467.2794.2228.1412.5309-.2152.4555-.6288.8102-1.0669,1.1858l-.2899.2521c-1.8158,1.6133-3.6812,4.4004-4.3993,6.9669-.0846-.0415-.172-.0787-.2625-.1121.3226-3.8358,2.8459-6.3446,5.294-8.7793Zm-16.1703,21.8349c-.4346,1.4384-1.2221,2.7707-2.2872,3.8317.6563-1.1818,1.5213-2.6219,2.2872-3.8317Zm-.259,2.7106c-.066.3576-.1056.7315-.115,1.1317l-.7011-.0088c.2974-.3545.5704-.7302.816-1.1228Zm-2.4767,2.8722c-.0724-.1295-.2019-.2118-.3431-.2269.1353-.294.3203-.6563.539-1.0629.003.0461.0129.0927.0309.1388.0666.1686.2287.2806.4101.2829l2.1693.0275c.1097-.0006.2397-.0473.3254-.1348.0852-.0876.1313-.206.1272-.3284-.0625-1.733.5075-2.8967,1.2955-4.5078.1744-.3564.3586-.7331.5488-1.1409.2788-.5985.8499-.9263,1.4489-1.0715.3191.1983.6195.4427.7992.5892.0915.074.2082.109.3231.0985-.1044.1902-.1867.3948-.2573.6042-.2724.3098-.554.6108-.8428.9036-.0297-.0041-.0595-.0076-.0898-.0093-.7781-.0514-1.3328.6142-1.5032,1.2553-.0321.1207-.0123.2495.0554.3558.2495.3909.6627.5815,1.1327.522.2287-.0286.4608-.1149.6796-.2438.0595-.0116.1172-.0297.172-.0536.1949-.0852.3365-.2351.4118-.4264.2141-.2381.3838-.5163.4795-.8079.063-.1908.1178-.3925.1732-.5961.0415-.154.0823-.3057.1266-.4516.2455-.2835.4836-.5733.7145-.8691l1.0167.6685c.1592.1044.3669.0968.5174-.0188.1511-.116.2123-.3143.1528-.4946-.1598-.487-.4701-.9105-.8883-1.2425,1.0738-1.5562,1.9575-3.249,2.6143-5.0164.2205-.1872.4078-.4235.5477-.6977.2899-.5658.332-1.2027.1155-1.7475-.0717-.1803-.2503-.294-.4439-.2818-.193.0123-.3564.1475-.4048.3348-.0362.1406-.0736.2811-.1132.4211-.1091-.0326-.2303-.0233-.3377.0334-.4397.2333-.7291.6823-.8102,1.1648-.2246.3447-.4597.6981-.6982,1.0587-.8762,1.3211-1.7755,2.6796-2.4645,3.9764-.0437-.0041-.0875-.0071-.1318-.0099-.3097-.0186-.6113-.0052-.8994.0385-.0052-.0023-.0111-.0053-.0163-.0081.9793-1.1177,1.5592-2.6312,1.761-3.2257.1289-.3792.2456-.7664.3616-1.1537.469-1.5639.9129-3.0419,2.1927-4.0324.2963-.2292.6259-.3897.9642-.4761.3221.1517.6078.4568.7729.847.0846.2001.3015.3103.5133.2614.2111-.0496.3569-.2438.3452-.4609-.0047-.0856-.0081-.1702-.0116-.2554.0186.0158.0372.0314.0554.0466-.0607.4218-.0835.8312-.0619,1.2209.0134.2468.2175.434.4713.4217.1406-.0075.2626-.0799.3389-.186.0945.8877-.2742,1.7895-.7291,2.7876-1.8229,4.0021-3.7425,7.979-5.7514,11.9157-.133-.0759-.2736-.1377-.4189-.1843-.5838-.1861-1.1607-.0823-1.5807.2847-.0583.0512-.1026.1166-.1283.1896-.105.3009-.2141.602-.3278.8994.0105-.1481-.0538-.2934-.1727-.385-.1248-.0968-.2916-.1202-.4375-.063-.2064.0816-.5016-.0262-.8154-.1406l-.1965-.0706c-.7782-.2671-1.474-.0974-1.7727.4334-.042.0747-.0706.1528-.0852.2322-.2403.1493-.4275.3843-.5343.7092-.0775.7094-.2054,1.4157-.3802,2.1116l-.4929-1.5627c-.0403-.1278-.1359-.2304-.2596-.2806-.0542-.0216-.1109-.032-.1669-.032-.0747,0-.1481.0181-.2153.0549-.1441.0793-.2863.1615-.4263.2485-.0227-.1056-.0326-.2042-.0221-.2865.1703-.1038.3237-.2432.4375-.3464.1534-.1394.1907-.3664.0904-.5483Zm8.2205-7.9843c.0024-.0053.0046-.0093.007-.0146.0029.0012.0057.0018.0093.0029-.0059.0042-.0111.0076-.0164.0117Zm.4263-.8248c.6511-1.1899,1.4827-2.4446,2.2936-3.6678.0903-.1359.1796-.2707.2677-.4048.0069.0035.014.0071.0204.0105-.6032,1.4664-1.3702,2.8716-2.2761,4.1765-.0992-.0427-.2013-.0799-.3057-.1143Zm-8.6457,11.193c-.0274-.0415-.0518-.0846-.0729-.1295l-.0759-.1574c-.0093-.0198-.0192-.0415-.0303-.0641.0188-.0123.0374-.0246.0566-.0368l.1224.3879Zm-.9152.1825l.0321.0659c.3225.6918,1.012,1.0639,1.5154,1.3364.0188.0099.0374.018.0566.0251-.0239.0705-.0484.1405-.0729.2099-.3973.4416-.7345.9392-1.0016,1.4718-.2263-.3774-.6026-.6515-1.0657-.777-.1901-.052-.3913-.0771-.5944-.0771-.3167,0-.6393.0613-.9332.1791.5291-.932,1.2325-1.7604,2.0637-2.4341Zm-9.8065,22.379c.4223-.1499.861-.1271,1.2035.0619.165.0904.3681.0694.5091-.0537.1418-.1226.192-.3208.1254-.4959-.4852-1.2845-1.2581-2.1529-2.2352-2.5111-.2607-.0957-.5338-.1546-.8178-.1762.1242-.3179.2654-.6556.3955-.9654.3844-.9164.7578-1.8065.9356-2.5665.21.0409.4176-.07.5-.2683.0694-.1681.0291-.3564-.0923-.4819.1797-.3738.9123-1.1858,1.369-1.6915.6043-.6696,1.1264-1.2483,1.2943-1.6432.0904-.2117.1289-.4363.119-.6609l3.1172-5.7163c.3213-.5892.6801-1.246,1.2027-1.6707l2.2935.2806c.0362.0041.0724.0041.108,0-.1126.3056-.203.62-.2701.9379-.0391.0572-.0759.1155-.1109.178-.1097.1953-.1872.3972-.2321.599-.0676-.0174-.1388-.0186-.2076-.0035-.8674.1919-1.6076.8528-1.9798,1.768-.3721.9152-.3039,1.9044.1827,2.6482.0706.1067.1801.1756.3003.1955-.0781.2042-.1621.4059-.2507.6054-.0625-.0427-.1353-.0688-.2124-.0765-.6882-.0601-1.3025.4101-1.5382,1.1685-.235.76.0094,1.4967.6084,1.8344.1995.1126.4526.0554.5851-.1324.0992-.1406.1953-.2835.2887-.4277.1079.0566.2356.0683.3546.0275.3098-.1073.5926.0087.7764.1248.1634.1038.3103.2473.4287.4124-.1382.2655-.2753.532-.41.7986-.7449,1.0522-1.4682,2.1815-2.1302,3.4566-.0969-.1014-.2333-.1522-.3757-.1364-.1435.0168-.2701.1014-.3401.2274-.0099.018-.0192.0356-.0292.0537-.8621-.1849-1.9937-.1569-3.4653.0747-.2345.0368-.3996.2502-.3751.4864.0233.2363.2269.4119.4648.402,1.0396-.0467,1.9349.0577,2.6838.3126-.9566,1.8006-1.8514,3.6381-2.6808,5.5052-.2205-.7828-.7345-1.4933-1.4647-2.0054-.2438-.1709-.5004-.3121-.7641-.4218.0437-.0198.0892-.0385.1358-.0542Zm7.0207-10.7322c-.1558.2917-.3219.577-.4988.8558-.0152-.1295.0018-.2695.0415-.3967.0706-.2269.2228-.4486.4275-.5196.0111.0198.021.0403.0298.0606Zm-12.25,14.4648c.879-1.3766,1.7796-2.6412,3.1225-2.9906.1154-.0309.2327-.0508.3511-.063.0059.063.0245.1243.0566.1809.0676.119.1854.2.3202.221,1.2051.1878,2.2714,1.043,2.7171,2.1782.053.1352.1656.2315.2975.2677-.0566.133-.1133.2648-.1692.3966-.227-.0642-.4643.0578-.5436.2806-.1954.5477-.6556,1.037-1.1998,1.2786-.0688.031-.1459.0601-.2298.0846l-.1913-1.25c.0069-.1441-.0012-.2905-.0269-.4363-.0874-.5086-.3669-.9538-.7653-1.2215-.1126-.0759-.2531-.0963-.382-.056-.5443.1681-.938.6072-1.0932,1.1899-.4684.3581-.7857.865-.8767,1.4087-.0262.1592.0344.3197.1592.4212.3553.2882.8324.4258,1.3178.3826.0856.081.1779.1546.2764.2175-.193.1803-.3751.3733-.5431.5769-.0554-.0624-.1178-.119-.1866-.171-.1155-.0868-.2648-.1131-.402-.0711-.6596.2035-1.1584.7734-1.3404,1.5154-.0392.0204-.0752.0432-.1102.0665-.2625.1825-.4049.4509-.3996.7339-.2718-.3466-.6119-.658-1.0109-.9153-.4666-.3015-.9672-.5004-1.4688-.5926l2.321-3.6334Zm2.0363,3.8679c-.0922.1564-.1774.3162-.2555.4789-.0466-.0279-.0951-.0525-.1447-.0729.0858-.1827.2112-.3523.3826-.4708.0071.0204.0129.0415.0176.0647Zm-1.5125,1.838c.0769.0426.1574.0771.2391.1026.1405.3361.3657.623.6632.8272.0204.014.042.0262.0647.0374-.1113.6287-.3452,1.1677-.6789,1.5661l-.0829.0747c-.0104-.0874-.0256-.1756-.0466-.2636-.0169-.0717-.0391-.1423-.0659-.2117.1517-.0625.2596-.2054.2742-.3727.0542-.6043-.0781-1.2093-.3669-1.7599Zm-.882,2.2095c-.0251.2748-.1616.546-.4959.6125-.3102.063-.5646-.1172-.6766-.3249-.0542-.0991-.1551-.3557.0736-.5885.0915-.0934.2052-.1236.3149-.1236.0718,0,.1418.0128.2019.0298.228.0635.4387.2117.5821.3948Zm-8.0397,6.7828c1.0768-1.7191,2.0171-3.515,2.8139-5.3735.053-.0991.1066-.1995.1604-.2992.0344-.0647.0518-.136.053-.2076.161-.3903.3155-.7828.4637-1.1782.2566.0063.5133.0379.7659.0951.189.0431.3832-.0409.4824-.2066.0991-.1657.0805-.3768-.0461-.5227-.2741-.3161-.4579-.4789-.6422-.6422-.0267-.0239-.0542-.0478-.0822-.0729.1791-.5355.3464-1.075.5028-1.6187.0052.0461.0174.0915.0379.1348.063.1376.1925.2345.3424.2566.8103.1161,1.5796.4509,2.2277.9444-.4719.049-.8867.2788-1.1772.6544-.3313.4294-.452.9916-.3307,1.5422.1493.6796.6026,1.1958,1.2768,1.4542.1995.0765.4089.1267.6212.1511l-2.9224,2.6371c-.0735-.0216-.1493-.0374-.2257-.0461-.473-.1697-.9846-.0099-1.3516.4282-.3295.3937-.5336,1.0348-.2846,1.5983.0046.0227.011.0449.0192.066.1872.4964.6667.8539,1.2505.9338.2585.035.5105.0129.7385-.0601.3395-.0478.6701-.1656.9514-.3436.8219-.5196,1.2949-1.4028,1.6752-2.1133l1.0588-1.9756c.1866-.3476.4193-.7822.5785-1.263l.3401-.3068c.0093-.0064.0186-.0134.0279-.0198.1902-.136.3646-.2957.5222-.4765l1.6932-1.5276c-.8171,1.4745-1.7114,2.8633-2.6709,4.1478-1.6788,2.2457-2.769,4.8275-3.7728,7.3736-.1307.0642-.2479.109-.3553.1365-1.1374-1.218-2.269-2.0906-3.5202-2.8547-.6067-.5273-1.1183-.9245-1.7271-1.2541.1866.0561.3966-.018.5051-.1912Zm7.1822-3.4246l-.6503,1.2144c-.245.4573-.5127.9571-.8674,1.3509-.021-.1797-.0723-.3604-.1546-.5348-.0577-.1214-.1271-.2334-.207-.3337l1.8793-1.6968Zm-2.4936,3.06c-.053.0723-.123.1231-.2007.1574-.26.0228-.5162-.0204-.7145-.1406l.8621-.7781c.0257.0379.0478.0763.066.1143.0874.1849.13.452-.0129.6469Zm-5.5006.2397c.0239.0903.0759.1738.1523.2356-.0718-.0367-.1459-.0729-.2205-.1085.0227-.0419.0455-.0846.0682-.1271Zm-.6095,1.1433c.7582.382,1.4611.7577,2.1278,1.1636.2228.1949.4632.4113.7309.6522l.1009.091c.4253.382.7571.7495,1.05,1.0732.0024.003.0052.0052.0076.0082-.2066-.0841-.4463-.0036-.5577.1942-.0245.0443-.0496.088-.0736.1318.0339-.1137.0671-.2269.1003-.3406.066-.227-.056-.4661-.2782-.5461-.221-.0793-.4678.0269-.5617.2438-.7315,1.6939-1.7715,3.2665-3.0426,4.6099-.1592-1.4314-.5623-2.8004-1.215-4.1403.521-1.0587,1.0628-2.1069,1.6112-3.1411Zm-4.3871,7.3281c-.2175-.455-.1078-1.0103.0852-1.3988.2035-.4077.6113-.8557,1.1462-.9234.1143.4276.0962.8441-.0123,1.26-.2823.36-.6947.7209-1.2191,1.0622Zm.0356,2.8267c.2054-.343.4311-.6813.6556-1.0179.532-.7979,1.0733-1.6099,1.3423-2.4702.1702-.2409.2997-.4859.3867-.7321.228.7034.3972,1.4512.5524,2.3385-.0222.0279-.0415.0583-.0566.091-.7349,1.5749-1.516,3.1359-2.3396,4.6751-.021-.0267-.0444-.0518-.0717-.0741-.1593-.1301-.3874-.1347-.5524-.0105-.2415.1827-.5093.3529-.7869.4929.0168-.1481.0146-.3003-.0093-.4543-.0438-.2794-.1546-.556-.3121-.8033.3931-.6853.7905-1.3638,1.1917-2.0351Zm-3.2297,2.7444c.0536-.4031.2969-.7337.4917-.809.018-.0075.0379-.0134.0623-.0134.0479,0,.1155.0239.2287.1138.056.0332.1097.0706.161.1113-.063.1109-.126.2205-.189.3326-.2741.0209-.5518.1236-.7577.2904.0006-.0087.0018-.0174.003-.0257Zm1.138,1.9034c.1429-.0233.2818-.07.4117-.1394.297-.0514.584-.1429.8482-.2519l-2.4511,5.1523c-.1008.2141-.0192.4695.1873.5838.2054.1137.466.049.5933-.1499,2.1133-3.2997,4.0417-6.7599,5.7402-10.2988.0875.0957.2135.1529.3529.1459.2298-.0111.4136-.1942.4253-.4241.0158-.3191.0217-.6346.0158-.9472.5797-.556,1.1205-1.1555,1.6163-1.7908-.1773.4643-.3616.9275-.5506,1.3866-1.3172,2.2929-2.681,4.5638-4.0791,6.7897-.102.1627-.0892.3727.0327.5215.0898.109.2204.1645.3593.1633-.6207,1.0914-1.2664,2.1688-1.9325,3.235-.2298-.0822-.4678-.1481-.7116-.1959-.2019-.0396-.4083.0647-.4941.2543-.0858.1896-.0291.413.136.5395.1581.1208.3126.2409.4632.3612-1.859,2.9042-3.8563,5.725-5.878,8.5022-.4872-.2877-.9129-.4977-1.1988-.6295-.3389-.1564-.7314-.3203-1.1519-.4474,2.4726-4.0785,4.9085-8.2222,7.2656-12.3602Zm-9.0768,13.4172c.0193.0279.0361.0571.0513.088-.0496.0852-.0997.1698-.1499.2543.0339-.1138.0666-.228.0987-.3424Zm-.4014,1.3241c.0362.0577.0858.1085.1483.1457.0348.0217.0717.0374.1091.0479-.1056.137-.241.2402-.4066.2595.0508-.1504.1003-.3021.1493-.4531Zm-.4549,1.324c.998.1446,1.6915-.6853,1.8642-1.5935.0508-.2683.0566-.5483.014-.815.1021-.1674.2047-.3353.3069-.5034.4561.1161.8942.2982,1.261.4667.3488.1604.7.3412,1.0436.5413-.5216.7128-1.043,1.422-1.5645,2.1302-.1505.1528-.277.3272-.3745.5192-.1056.207-.0344.4613.1639.5833.1978.1219.4568.0717.595-.1155.0986-.1341.1971-.2683.2963-.4024.1972-.182.4317-.2812.6224-.3349.5758-.1633,1.2822-.063,1.799.2543.5652.3464.9974.8662,1.3608,1.436-.4409.9613-.893,1.925-1.3509,2.8891-1.5114-1.6565-3.7495-2.6185-5.9888-2.6185-.3569,0-.7145.0251-1.0692.0753.3697-.8243.7104-1.6624,1.0208-2.5124Zm-1.6596,3.8644c1.1153.154,2.195.5256,3.1737,1.0762-.788.8009-1.6594,1.708-2.3553,2.748-.2229-.0834-.4562-.1481-.6976-.1908-.2287-.0403-.4567-.0613-.6825-.0613-.1032,0-.2059.0048-.308.0135-.1435-.3419-.3581-.6417-.6183-.8774.5338-.8836,1.0295-1.7872,1.488-2.7083Zm-3.0723,4.0937c.0538.0694.1278.1218.2135.1499l.1558.0506c-.133.1424-.1604.3588-.0583.5321.1155.1953.3587.2736.567.182.1184-.0531.2252-.122.3179-.2042.0933-.0537.1902-.101.2905-.1418-.0368.2731-.1774.5811-.5653.8044-.452.2619-1.0289.2497-1.4704-.0297-.0333-.0216-.0654-.0432-.0951-.066.2182-.4241.4328-.8492.6445-1.2774Zm-1.0236.0006c.0572-.1867.1586-.3769.294-.5436-.1062.2157-.2135.431-.3209.6451.0088-.0373.0182-.0717.0269-.1014Zm-.0368,2.0771c.0105.007.021.0135.0321.021.7187.4561,1.6595.4754,2.3967.049.5227-.3027.8605-.7647.9783-1.3025l.7851.256c-.172.3926-.3108.8039-.4071,1.232-.1825.8149-.1441,1.6968.0898,2.5152-.0728.1714-.1434.3418-.2147.5133-.0659.158-.0356.3394.0787.4683.1137.1284.2911.1797.4562.1337.0413-.0129.0828-.024.1247-.0356.0817.1469.1703.2882.2666.4241.4713.6637,1.0867,1.1356,1.796,1.3737.0374.0945.0852.1813.1412.2595-2.5818,5.3186-5.0759,10.7107-6.872,15.9096-3.2233-2.8413-6.5412-4.5322-9.8735-5.0292-.2665-.0392-.5326-.059-.7962-.059-.0659,0-.1313.0018-.1966.0042,4.3223-5.164,8.0834-10.7765,11.2146-16.7333Zm-12.5784,22.8691c-.9776-.714-1.6606-1.6822-1.7557-2.5625-.0775-.7227.2287-1.3603.9105-1.8958.4457-.3505.9846-.5897,1.5679-.7058,4.1048.6014,8.0502,2.3881,11.2129,5.073-.1535.5967-.2602,1.2011-.364,1.7908-.0963.5466-.1896,1.075-.3057,1.5737-.7075.966-1.5469,1.4356-2.5152,1.4022-.3044-.0104-.5797-.2123-.8387-.5109.0425-.2461.0466-.4836.0035-.6918-.1977-.9613-.8371-1.4868-1.6764-1.803-.0688-.0793-.14-.154-.2135-.2228-1.1078-1.0435-2.6249-2.4738-4.6151-2.16-.5542.0874-1.0441.3459-1.4105.7128Zm4.481,1.2622c-.2695-.0391-.5425-.074-.8137-.1085-1.0016-.1277-2.0363-.2596-2.7771-.6189-.0315-.0152-.0631-.0308-.0945-.0466.2117-.1604.4695-.2725.7536-.3174,1.0908-.1708,1.992.3138,2.9317,1.0914Zm-2.9935,1.8783l-.2381-.1616c-.6048-.41-1.0651-.7752-1.0358-1.4273.0047-.1125.0245-.2228.0565-.3284.0758.0403.1523.0793.2298.1167.8727.4229,1.9815.564,3.0541.7011.868.1103,1.5919.2176,2.1536.3919.2117.2794.4165.6248.6299.9834.1873.3162.3838.6458.6003.9491-.1436.3768-.399.7396-.6498.8709-.0887.0087-.1837.0174-.2754.0263-.2297-.0071-.4286-.0135-.5739-.0188-1.2296-.2578-2.9428-1.4168-3.9513-2.1033Z"/>
  </g>
</svg>