<?xml version="1.0" encoding="UTF-8"?>
<svg xmlns="http://www.w3.org/2000/svg" viewBox="0 0 165 165">
  <defs>
    <style>
      .uuid-71c91c35-f8b7-42b2-b2c9-fca97a35bf73 {
        fill: #eee7c2;
      }

      .uuid-71c91c35-f8b7-42b2-b2c9-fca97a35bf73, .uuid-a0401f7e-5557-46d7-8a73-752da1ee9b17 {
        stroke-width: 0px;
      }

      .uuid-a0401f7e-5557-46d7-8a73-752da1ee9b17 {
        fill: #5e2751;
      }
    </style>
  </defs>
  <g id="uuid-c220ed8f-aed0-42b8-b113-a98c6b0aafbd" data-name="podklad">
    <path class="uuid-71c91c35-f8b7-42b2-b2c9-fca97a35bf73" d="m151.7107,32.7804c-.101.0689-.1926.1521-.2718.2496l-1.7242.5721c-.1331.0441-.2295.1594-.2505.2974l-.0042.0552c0,.1188.0569.2319.1556.3027.3828.2736.6838.6432.9039,1.0582-.0486.064-.0981.1271-.1495.1887l-.1254-.0062c-.6041-.0005-1.1099.2821-1.5206.6969-.3847.3878-.6891.8952-.9457,1.4176-.4465-.2011-.9331-.4341-1.4352-.6808.3956-.8968.7536-1.7051,1.0652-2.4048l.0323-.1514c.0002-.1393-.079-.2726-.2126-.336l-.0024-.0011-.002-.001.0004.0002-.1552-.0339c-.1392-.0002-.2726.0787-.3361.2126-.3726.784-.7457,1.5696-1.1194,2.3555-.1085-.0538-.217-.1077-.3246-.1614-.2778-.1381-.5574-.2767-.8351-.4138.3116-.6835.588-1.2981.82-1.8264l.0313-.1493c.0001-.1306-.0692-.2564-.1895-.3244l-.0022-.0012-.0032-.0016-.176-.0414c-.1132-.0004-.2316.05-.3053.1552-.3222.4598-.7023,1.0439-1.128,1.7268-.4158-.1974-.8108-.3801-1.1726-.5345-.0881-1.3923-.2887-2.5684-.6091-3.5367.392-1.2044,1.1185-2.3557,1.5914-3.0241l2.1998-3.1125.0887-.0834.0128-.012.1839-.3081,1.3732-1.9423c.4068.3129.9136.4626,1.42.4627.016,0,.0318-.0027.0478-.0031-2.5097,3.295-4.8669,6.4606-5.792,10.6697l-.0089.0802c-.0005.1496.0926.2846.2323.3441l.0016.0007.0023.0009.1357.0256c.1285.0001.2522-.067.3208-.1836l5.9945-10.2146c-.3737,1.6245-1.0106,3.0157-1.6979,4.458-.7582,1.5919-1.5495,3.2507-1.9281,5.3046l-.0069.0746c-.0029.1329.077.2775.2281.3319l-.0012.0029.0069.0014c.0013.0004.0018.002.0031.0024l.0005-.0016.1347.0276c.1169,0,.2303-.0555.302-.1545,1.1554-1.6094,2.5523-3.8063,3.8246-6.1106-.1881.4474-.3775.8961-.5694,1.3439-.2554.5952-.5128,1.1961-.759,1.7905-.9233,1.3351-1.5907,2.8251-1.5922,4.1961,0,.2474.022.4908.0686.7284.0352.1764.1899.3001.3663.3h.0074s.0027,0,.0027,0h.0015c.1824-.0063.3331-.144.3561-.3251.1534-1.2211.7419-2.8347,1.437-4.5186.6945-.9918,1.5416-1.8857,2.3434-2.5481-.3674.4014-.5602,1.0477-.562,1.6994,0,.3341.0512.6689.1618.9714.0686.1873.133.3734.1917.5564-.0417.1644-.0858.3264-.1323.486Zm-4.4284,5.9942c-.0312-.0428-.0654-.0846-.1145-.1115l-1.278-.7029.0153-.0347c.5406.1433,1.0685.2874,1.5403.4293-.0574.1427-.1124.2834-.1631.4197Zm-2.1599,4.2574c-3.517,6.7997-8.1766,17.1953-12.1558,26.3712-.1356.3121-.2706.6247-.4056.9371-5.0361,10.0526-10.2218,20.4511-13.9666,31.5297l-.0193.1174c.0005.1334.0812.2455.1962.3126-1.0619,1.4772-2.4429,4.5891-3.9977,8.4545l-.134-.0456c-.2245-.0971-.4503-.194-.6766-.291,8.1136-17.9623,18.212-41.0844,25.2949-57.3023,2.5345-5.8029,4.6948-10.7505,6.3315-14.4723l.9438.5194c-.4521,1.2979-.9225,2.5886-1.4107,3.8694Zm-11.6035,62.5216c.2817-.5694.5768-1.139.9103-1.6835.2235-.2639.4849-.4863.8069-.6514.2397-.1228.4943-.183.7398-.183.2806,0,.549.0784.7725.2312.4124.2844.5099.7036.5123,1.1998,0,.1547-.0103.3147-.0237.4755-.0193.2326-.0432.4651-.0723.6967-1.0238,4.2233-3.501,8.2162-7.2196,11.6039-.2904.2645-.5889.5234-.888.7822-.8001.6937-1.634,1.4144-2.3221,2.2728-2.5197,3.1465-2.6562,7.3362-2.7968,11.3557l-.0163.4681c-.1585,4.4764-.6017,9.6587-2.6649,14.2092-.4443.981-.9601,1.9036-1.5331,2.7617l-.0566.0121-.014.0029-.013.0062c-.3284.1545-.7435.2283-1.191.2281-1.3001.0056-2.8591-.6343-3.3666-1.4891-.4083-.6722-.5374-1.5196-.6604-2.3549-.0212-.1418-.0418-.2834-.0645-.4248-.8961-5.6747-3.984-7.5845-8.5737-10.2153.7626-1.4239,1.6288-3.3586,2.5526-5.5833l.0173.0056.1138.0178c.1437,0,.2791-.0837.3402-.2217l5.8485-13.2393.0607.0211.0007.0002.1205.02c.1401.0002.2726-.0799.3356-.2125l1.7954-3.7852.0037-.232.0009-.0572-.1958-.1747-.0203-.0181-.0258-.008c-.4164-.1296-.834-.2641-1.2498-.4008,1.4067-3.4969,2.6979-6.4229,3.6628-7.9192l-.0217.0804-.0008.0031-.0007.0033c-.2076.9663-.3154,1.9607-.3154,2.9376-.0024,3.5372,1.421,6.8805,4.6902,7.728.4641.1197.9401.1787,1.4201.1787,1.1857,0,2.3947-.3605,3.5103-1.0562,2.6169-1.6333,3.9344-4.3832,4.8785-6.8379l.0536-.1393c.0528-.1383.1057-.2765.1599-.4145Zm-17.4464,47.51c-1.0941.6705-2.3105,1.1967-3.4453,1.5575-1.5352.4881-3.1468.6498-4.6508.6498-1.4243,0-2.7516-.145-3.8265-.2927-1.0865-.1495-2.1652-.3378-3.2341-.564-1.6198-.5852-3.2764-1.3037-4.9888-2.075l-12.1403-5.4692c-.7111-.5083-1.408-1.0375-2.0912-1.5883-1.4521-1.1703-3.0522-2.6127-3.9748-4.4477-.0552-.1095-.1213-.2355-.1966-.3788-.6962-1.3231-2.1668-4.119-2.1671-7.9742,0-1.8071.3231-3.847,1.2034-6.0792,1.0397-2.6403,3.2569-4.6562,5.2291-6.4426l8.2004-7.4329c1.8089-1.6405,3.6877-3.3428,5.1284-5.4089,2.4335-3.4926,3.6572-8.1173,3.6572-13.7568,0-.5717-.0126-1.1539-.0377-1.7463-.0228-.5304-.0535-1.0621-.0842-1.5944-.0586-1.0079-.1178-2.0281-.1178-3.0417,0-1.3475.1047-2.6827.4525-3.9618.7272-2.6823,2.9328-5.288,5.7389-5.2816.0967,0,.194.003.292.0093.15.0094.3435.0422.5269.1285l.2396.1537c.2298.1975.3404.4383.3424.7756.0011.4109-.1811.9619-.5624,1.6559-1.2261,2.2396-2.4641,4.658-2.8683,7.3356-.0834.5531-.1243,1.1015-.1243,1.6393.0001,2.3387.7734,4.4785,2.1981,5.9241,1.088,1.102,2.7258,1.7979,4.3513,1.7988.7126,0,1.4202-.1448,2.0788-.4407-1.5844,3.3441-2.7302,5.8207-3.4818,7.5336-.3876.8835-.6715,1.5658-.8593,2.0651-.1873.5031-.281.8065-.2841.9914l.0009.028c.0061.0905.0476.1774.0902.264-2.2077,4.716-4.2302,9.138-5.9691,13.0714-.0633-.02-.1268-.0402-.1895-.0594l-.1081-.0161c-.1367,0-.2658.0753-.331.2017-.4643.9041-1.2624,2.683-1.7507,4.0005l-.0233.129c-.0001.1385.078.2702.2091.3343.055.0267.1105.0536.166.0805-.8726,2.0541-1.6313,3.9081-2.2579,5.5266-.5308-.1755-1.0615-.3412-1.5894-.492l-.1018-.0142c-.1508,0-.2907.0917-.3476.2382l-.0248.1335c-.0001.1382.0776.2695.2079.334,3.0635,1.5049,6.2457,2.8422,9.4716,3.981.3096.1738.6171.351.9216.5318l.0216.0128.2133.03.0518.0073.1698-.1299c4.6257,2.6631,7.3586,4.3296,8.2161,9.6916.0221.1376.0428.2771.0637.417.1312.8831.2667,1.8151.7598,2.6315.6874,1.1188,2.4695,1.8359,4.0188,1.8409.2056,0,.3972-.0346.5919-.0616-.8921,1.1702-1.8944,2.1985-2.9845,3.0462Zm-.7847-61.772c9.8049-20.1315,20.7369-41.3835,26.7219-51.7967-2,4.2585-4.7341,9.9623-7.9089,16.585-7.4025,15.4417-17.1842,35.8462-24.5883,52.4619-.5051-.2101-1.0095-.4197-1.5115-.6282-.0923-.0582-.1682-.1123-.2432-.1661.7513-1.7032,3.6469-8.0636,7.53-16.4558h0Zm-7.8495,17.1937c.1323.0548.2646.1096.397.165.3797.2321.8297.4617,1.3176.7004-.4182.9414-.8285,1.8703-1.2302,2.7846-.5883-.2538-1.1658-.4921-1.7222-.703.4056-.9849.8179-1.9709,1.2379-2.947Zm34.7563-72.7316c.2852.1245.5917.2649.9123.4182-.0346.0567-.0694.1138-.1047.172l-.1575-.0529v.0002s-.1208-.0205-.1208-.0205c-.1432-.0001-.2783.0833-.3398.2207l-.0321.1511c-.0002.1316.0703.2585.1925.326l.0621.0341c-3.2357,5.4261-8.5123,15.2882-14.4153,26.8007,5.4688-11.4516,10.7488-22.1908,14.0032-28.0497Zm-41.0897,85.8336c.0245.0086.049.0172.0737.0259-.4808,1.0916-.9798,2.1771-1.4975,3.2529.4483-1.0474.9226-2.1396,1.4238-3.2787Zm4.8123-9.4667c.5482.207,1.1213.4431,1.707.6957-1.4078,3.2175-2.7017,6.25-3.8406,9.0211-.5411-.2268-1.0797-.4454-1.6075-.647.9456-2.179,1.8337-4.3703,2.7098-6.533.3391-.8374.683-1.6858,1.0313-2.5367Zm8.4492-.72l.1265.0549c-.3914.9829-.7924,2.0075-1.2,3.0605-.3268-.1353-.6591-.2772-.9948-.424.4383-.9644.8828-1.9454,1.3351-2.9457.2518.0888.4994.1749.7332.2542Zm-4.79,12.7779c-.527-.172-1.079-.3753-1.6437-.598,1.2471-2.6702,2.6104-5.6333,4.0573-8.8116.3483.1524.6939.3002,1.0347.4408-.4595,1.1919-.9269,2.4122-1.3984,3.6452-.6829,1.7848-1.3719,3.5853-2.0499,5.3236Zm-.5905,1.5051c-.3983.9039-.7924,1.7753-1.181,2.6292-.5768-.1962-1.1801-.4127-1.8002-.6451.5103-1.0688,1.049-2.2092,1.6125-3.4122.5767.2279,1.1427.4371,1.688.6163-.1066.2721-.2133.5438-.3194.8118Zm-5.6525,8.1371c-.0942-.0497-.1886-.0986-.283-.1476.7433-1.4424,1.629-3.2398,2.6321-5.3314.6241.2343,1.2305.452,1.8124.6509-.1077.236-.2153.4716-.3224.7052-.6953,1.5195-1.4131,3.0913-2.1436,4.7709-.4343-.198-1.0242-.4483-1.6954-.648Zm-.9471-.4829c-.6036-.3018-1.2133-.5893-1.827-.8622.8187-1.7242,1.6405-3.4533,2.4653-5.1863.6594.2742,1.3162.5376,1.9611.7865-.9908,2.0647-1.8653,3.8382-2.5993,5.2621Zm1.9212-10.4727c-.3077.6456-.614,1.289-.9207,1.9332.2568-.6445.5232-1.3054.8003-1.9845.04.0172.0803.0342.1204.0513Zm6.8614-12.6404c.5892.2357,1.186.4607,1.7624.6696-.4447.984-.8821,1.9487-1.314,2.8976-.4548-.2031-.9118-.4104-1.3651-.6162-.1348-.0617-.2706-.1232-.4063-.1849.4404-.9218.8817-1.8441,1.323-2.7662Zm-5.8616,17.1788c-.6447-.2488-1.3024-.5126-1.9628-.7866.5479-1.1514,1.097-2.3044,1.6472-3.4585.6411.2757,1.2913.5538,1.9353.8186-.5667,1.2095-1.1074,2.3535-1.6197,3.4265Zm4.218-13.7415c.14.0636.2799.1272.4197.1906h0c.4521.2055.9091.4128,1.3646.6163-1.4517,3.1888-2.8179,6.1584-4.0673,8.8336-.64-.2626-1.2886-.54-1.9302-.8158,1.3997-2.9366,2.8047-5.8787,4.2133-8.8246Zm-.6783-.3063c-1.4099,2.95-2.8175,5.8975-4.2189,8.838-.0531-.0228-.1063-.0453-.1595-.068,1.1375-2.7671,2.4296-5.796,3.8369-9.0118.1801.0798.3607.1606.5415.2418Zm-6.9694,8.5167c.5309.202,1.0754.4234,1.6243.6536-.5074,1.2429-.9817,2.4299-1.4197,3.5562-.5989-.2599-1.1934-.5255-1.7766-.7941.5458-1.1301,1.0676-2.2704,1.5719-3.4156Zm-4.7165,9.2483c1.0187-1.6768,1.95-3.405,2.8184-5.1644.6018.2773,1.2158.5517,1.8342.8196-.7804,2.0299-1.4346,3.845-1.9382,5.4004-.9009-.3848-1.8078-.7374-2.7144-1.0555Zm15.1595-11.9999c.4647-1.2139.9308-2.4325,1.3938-3.6324.081.0316.1616.0626.2416.0931l-2.105,4.7651c.1566-.4091.3135-.8176.4696-1.2258h0Zm.9581-8.9952c-.5684-.2423-1.1409-.4841-1.7151-.7255,4.1562-8.6838,8.3217-17.3609,12.413-25.8842,4.4095-9.1846,8.9028-18.546,13.3793-27.9041-6.992,16.008-16.4199,37.5624-24.0771,54.5137Zm-2.4014-1.0136c-.2261-.0948-.4522-.1894-.6785-.2839,7.3963-16.5969,17.173-36.9914,24.5728-52.4266,3.7551-7.8331,6.9052-14.4041,8.9394-18.7913l1.117.6146c-7.107,14.9432-14.4249,30.1863-21.5214,44.9695-4.0969,8.5336-8.2681,17.2228-12.4293,25.9177Zm-.3983.8317c-.4372.914-.8741,1.8274-1.3111,2.7411-.1881-.0847-.3762-.1688-.564-.252.399-.9093.8072-1.8334,1.2236-2.7702.2129.0946.4305.1882.6514.2811Zm-9.0008,10.9872c-.0242-.0085-.0482-.0171-.0723-.0255.4739-1.072.973-2.1866,1.4867-3.3264-.4604,1.1177-.9302,2.2366-1.4144,3.3519Zm14.0927-9.0051l-1.314,2.9747c-.0907-.0345-.1821-.0698-.2741-.1057.4029-1.0399.8018-2.0589,1.1934-3.0419.132.0577.2636.1153.3947.1729Zm28.5681-75.2416l.0048-.0105c.0173.0085.0348.0173.0522.0259-.0185-.0051-.0386-.0103-.057-.0154Zm5.5897-17.3243c.5075-.7217,1.1345-1.595,1.9855-1.9352.1951-.0788.4163-.1191.6388-.1191.2761-.0001.5536.0621.7858.1834l.0007.0004c.1722.0883.3664.2479.4802.4825-.5939.6237-.926,1.3121-.9268,1.9713,0,.251.0478.4966.1456.7285.3098.7325,1.0752,1.1766,2.0649,1.3021-1.2923,1.5688-1.8282,3.6303-2.2099,5.733-.1702.0927-.3401.1943-.5081.312-.4844.3395-.9924.7704-1.489,1.2647.946-2.2125,1.8785-4.4547,2.0927-6.1437l.0029-.0468c.0002-.1665-.1116-.3159-.2773-.3594l-.0945-.0123c-.1477-.0001-.2853.0884-.344.2308-1.2209,2.9739-3.1569,6.3774-4.8777,9.0077.3747-1.0684.838-2.0529,1.2977-3.0185.9557-2.0059,1.9554-4.1021,2.0917-6.9521l.0004-.0173c0-.1439-.0828-.2747-.2125-.3363l-.0031-.0015-.0252-.0103-.0032-.0013-.0019-.0006-.1261-.022c-.1146,0-.2257.053-.2974.1484-.2022.2703-.4045.5375-.6066.8033-.2233.1006-.47.1548-.7172.1547-.2052,0-.4056-.0457-.5956-.1172.2384-.3269.3816-.7332.3904-1.1701v-.0029s-.0042-.1567-.0042-.1567l1.3427-1.8992-.1021-.0721.1021.0721Zm-22.6488,63.8715c-.1558.3295-.3032.6422-.4566.967.1693-.3632.3375-.7275.5081-1.0896-.0168.0404-.0346.0823-.0515.1226Zm24.9556-49.1651c-.0009.0024-.0018.0046-.0027.007.0009-.0023.0017-.0046.0027-.007Z"/>
  </g>
  <g id="uuid-b2406db5-c78f-464c-ac25-d8acfe4669c0" data-name="OBJEKTY">
    <path class="uuid-a0401f7e-5557-46d7-8a73-752da1ee9b17" d="m154.0007,25.7357c-.0125-.1301-.0841-.2492-.2092-.3038l.0005-.0012c-.001-.0005-.0021-.0006-.0031-.001-.0003-.0001-.0004-.0005-.0007-.0006v.0003c-.1918-.0864-.3984-.1315-.6085-.1369v.0005c-.22-.0609-.4497-.0949-.688-.0949-.3151,0-.6437.0643-.9752.1658.4119-2.1134,1.022-4.1021,2.4418-5.4468.0754-.0715.1158-.1696.1157-.2694l-.0295-.1454c-.0583-.1387-.1944-.2269-.3428-.2267l-.016.0005h0s-.2057.0045-.2057.0045c-1.0202,0-1.7296-.3506-1.9562-.8984-.0583-.1381-.087-.2852-.0871-.4408-.0015-.4908.2947-1.0736.8729-1.6163l.0245-.0231.0807-.27.0096-.0325-.0079-.0328c-.1177-.4866-.4553-.8918-.9373-1.1392-.3431-.1755-.7376-.2642-1.1317-.2643-.3127,0-.6255.0559-.9122.1717-1.0776.4364-1.7668,1.4235-2.3141,2.1956l-1.0061,1.423c-.1163-.2048-.2576-.3927-.4417-.5357-.2748-.2127-.6105-.3319-.9608-.3649-.0862-.0535-.1757-.1031-.271-.1451-.1575-.0699-.3238-.1048-.4888-.1048-.2549-.0001-.5067.0832-.72.2438-.3046.2289-.4781.5777-.4777.9498l.0117.1685c.1292.9287.7621,1.6969,1.5724,1.998l-.8442,1.413c0-.0007.0004-.0014.0004-.0021.0001-.3442-.1229-.6816-.3582-.9485-.2782-.3163-.6736-.4893-1.0847-.4891-.1268,0-.2551.0163-.382.0499-.5444.1431-.9831.4686-1.2234.9208-.106.199-.1564.4224-.1564.6494,0,.1148.0177.2304.043.345-.066.1509-.103.3091-.1029.4674-.0002.2922.1126.5811.3276.814.1933.2108.4479.3179.7119.3602-.3607.6592-.8999,1.2202-1.5398,1.6237.0258-.1418.0424-.2854.0424-.43,0-.1844-.0212-.369-.0649-.5483-.1082-.4433-.4348-.7985-.8753-.9429-.1443-.0481-.2932-.0719-.4409-.0718-.1813,0-.3594.0395-.5269.1095-.0904-.0245-.1828-.044-.2787-.0448h-.0256c-.3581-.0002-.7106.056-1.0468.1674l-.0168.0056-.1285.0883-.0149.0101-.0112.0139c-.2516.3082-.377.6912-.3767,1.0901,0,.3876.1171.791.3482,1.1643.2455.397.577.6934.9578.8612l-.0009.0015.0366.023.0017.0011h0c.7023.4277,1.2447,1.1561,1.6313,2.2162-.1476.511-.2424,1.0343-.2425,1.5494-.001.8271.2505,1.6328.88,2.3013-5.9525,10.7023-18.7177,37.8233-26.9958,55.7147h0c-.7361,1.5113-1.4623,3.0114-2.1827,4.5041-.0239-.0424-.0529-.0824-.0931-.1136l.0003-.0004-.0009-.0003s-.0005-.0009-.001-.0012l-.0005.0007-.2234-.0776-.2448.0916c-.7304.6315-1.7169.9418-2.749.9418-1.3542.0004-2.7802-.5355-3.7864-1.5569-1.2781-1.2953-1.9847-3.2442-1.9846-5.3989,0-.5013.0382-1.0137.1163-1.5312.3834-2.5441,1.5823-4.8932,2.7852-7.0889.1928-.355.6497-1.1762.6517-2.0139.0018-.4773-.1575-.9694-.6059-1.3463-.3196-.269-.7357-.4239-1.1979-.4529-.114-.0073-.2273-.0108-.3397-.0108-3.2195.006-5.6561,2.8914-6.4555,5.8305-.3696,1.3604-.4786,2.7577-.4786,4.1522,0,1.0363.0602,2.0713.1193,3.0891.0309.5291.0615,1.0573.0839,1.5826.0247.5821.037,1.1537.037,1.7147,0,5.5016-1.1866,9.9774-3.524,13.3314-1.3862,1.9898-3.2283,3.6616-5.0176,5.2833l-8.2004,7.4329c-1.9113,1.7344-4.3077,3.901-5.4216,6.7212-.9192,2.3309-1.2582,4.4662-1.2581,6.3577-.0004,4.0285,1.5376,6.9498,2.2555,8.3144.0737.14.1385.2629.1905.3666.9947,1.9753,2.6718,3.4819,4.1728,4.6926.1217.0982.2443.1961.3671.293l.002.0015-.0007-.0005c2.4315,1.8702,5.585,3.9742,9.477,5.8721,4.3315,2.1122,8.3224,3.3568,11.5306,4.1144l.001.0002.0029.0006c1.5787.3208,3.1352.4791,4.6417.4791.3268,0,.6512-.0075.9728-.0223h.0004c.0015,0,.003,0,.0045-.0001h0c.957-.0072,1.9158-.1055,2.8666-.3184.2249-.0503.4481-.1069.6704-.17v-.0002c2.1562-.5114,4.1196-1.4033,5.7819-2.6601,4.838-3.6599,7.3054-10.3433,7.3688-19.8297.0021-.3098.0029-.6212.0034-.934.0072-3.4881.0229-7.069,1.8021-9.9164.9305-1.4912,2.3092-2.6926,3.6536-3.8608.6603-.5742,1.345-1.1692,1.9777-1.8003,3.0165-3.01,5.0098-7.1007,5.544-11.3334.0837-.3488.1583-.699.2228-1.0508.0267-.145.0408-.3063.0408-.4766-.0018-.7426-.2647-1.6824-1.0318-2.1003l-.0005-.0002c-.2861-.1512-.6511-.2234-1.0294-.2238-.6598.0021-1.3693.2181-1.7404.7155-.1927.2621-.3719.5318-.5409.8052-.4402.5413-.7307,1.1832-.9774,1.8051-.0925.1866-.1828.3727-.2728.5571-.6494,1.3343-1.2584,2.5822-2.2164,3.6506-1.1541,1.2891-2.9726,2.5085-4.8718,2.5059-.3289,0-.6605-.0362-.9928-.1142-1.9977-.4648-3.3273-2.3369-3.8909-3.9363-.5429-1.5371-.6533-3.1871-.6815-4.8298.521-1.6705,3.7131-9.6734,7.8362-19.5294.853-1.8044,1.7408-3.6791,2.6492-5.5972,7.0244-14.8313,14.9739-31.6144,17.2787-38.0822.6292-1.1005,1.1682-1.9565,1.6078-2.5563.2426-.1279.4622-.2748.673-.4293.1752.3876.403.7773.7343,1.0964l-.0559.1965-.0011.0039-.0009.0038-.0084.0782c.0002.1586.1013.3016.2552.3533l.0007.0002.1158.0185c.14,0,.2701-.0813.3336-.213l.1427.0623.0038.0017.0038.0013c.1733.0625.3534.0923.5316.0923.4251-.0002.8383-.1723,1.1344-.478.1059-.0225.2114-.0507.314-.0912.388-.1521.6317-.5051.6308-.8971l-.0291-.2372c-.1061-.44-.4919-.7312-.9404-.7292l-.1127.0059c-.1703.0176-.3364.0547-.4977.1028l-.202-.0172c-.1404,0-.2797.0224-.4086.0726-.1117.0425-.2033.1114-.2827.1898-.0364-.382-.1128-.7588-.2521-1.1163.0743-.1152.1434-.2348.2114-.3551l.084.0675.0329.0264.2912.0073.0338.0009.0297-.0163c.2204-.121.3766-.2837.5005-.4624.0694.0937.1307.1927.2279.2672l.2266.0771.2379-.087c.0762-.0635.1324-.1432.188-.2227.1245.0381.2509.0717.3809.0717l.0789-.0024.0182-.0011.1486-.0543.0168-.0062.0146-.0107c.334-.2469.5943-.5883.7527-.9859.0532-.1332.0792-.2721.0792-.4095.0002-.306-.1295-.6044-.3685-.8208-.2004-.1833-.4496-.2801-.7026-.2798-.1619,0-.3251.0393-.4775.1179-.1747.0901-.3282.2175-.4695.3552l-.1886-.04c-.0311-.1251-.0642-.2488-.1005-.368.1517-.6221.2727-1.2631.3843-1.9069.3047.3214.743.5494,1.2017.5511.1902.0001.3813-.0452.5613-.1346.1221.0269.2451.0453.3674.0453.1692,0,.3364-.0269.4954-.081l.0002.0007c.0009-.0002.0015-.0009.0023-.0011.0007-.0002.0015-.0001.0021-.0004l-.0002-.0006c.5554-.1681.9252-.6654.9856-1.298l.0104-.2089c-.0006-.5735-.2352-1.1201-.6243-1.4876Zm-.12,1.4999l-.0059.1235h0c-.0144.1395-.0784.4076-.2941.5661.1326-.2504.2229-.5251.2858-.8115.0035.0406.0143.0826.0143.1219Zm-1.3332-1.0247c.1748-.1074.3618-.1625.5394-.1714l.1629.0709c-.0424.7617-.1893,1.4442-.6043,1.8261l-.1739-.1015c-.2844-.2132-.4431-.5123-.4426-.7978l.0009-.0361c.0132-.297.2015-.5966.5175-.7902l-.0653-.1066.0654.1065Zm-1.2327.5352l-.044-.0125c.0289-.1736.0582-.3473.0883-.5206.0669-.0296.1458-.0479.2175-.0747-.1265.1876-.2133.3932-.2551.6106l-.0067-.0027Zm.0511.7842c.0282.086.0672.1688.1093.2502-.001-.0013-.0029-.0022-.0039-.0035l-.106-.2454.0006-.0013Zm-6.8967-9.3405l.0486.041.0168.0891c.0067.173-.1786.3647-.3929.4693l-.1189.0313-.1114-.0349c-.0825-.053-.1459-.1728-.144-.2688l.0005-.0157c.0085-.0786.0353-.1214.1318-.1722.1821-.0882.3786-.1317.5694-.139Zm.0043,1.2645c.4509-.2242.7292-.5966.7824-1.0046.1726.1519.2968.3673.3525.6211l-.6354.899-.0076-.0022-.012-.0035-.0129-.0011c-.3334-.0275-.6301-.1839-.8686-.4108.1356-.0074.2722-.0331.4016-.0979Zm5.2372,11.3259c-.101.0689-.1926.1521-.2718.2496l-1.7242.5721c-.1331.0441-.2295.1594-.2505.2974l-.0042.0552c0,.1188.0569.2319.1556.3027.3828.2736.6838.6432.9039,1.0582-.0486.064-.0981.1271-.1495.1887l-.1254-.0062c-.6041-.0005-1.1099.2821-1.5206.6969-.3847.3878-.6891.8952-.9457,1.4176-.4465-.2011-.9331-.4341-1.4352-.6808.3956-.8968.7536-1.7051,1.0652-2.4048l.0323-.1514c.0002-.1393-.079-.2726-.2126-.336l-.0024-.0011-.002-.001.0004.0002-.1552-.0339c-.1392-.0002-.2726.0787-.3361.2126-.3726.784-.7457,1.5696-1.1194,2.3555-.1085-.0538-.217-.1077-.3246-.1614-.2778-.1381-.5574-.2767-.8351-.4138.3116-.6835.588-1.2981.82-1.8264l.0313-.1493c.0001-.1306-.0692-.2564-.1895-.3244l-.0022-.0012-.0032-.0016-.176-.0414c-.1132-.0004-.2316.05-.3053.1552-.3222.4598-.7023,1.0439-1.128,1.7268-.4158-.1974-.8108-.3801-1.1726-.5345-.0881-1.3923-.2887-2.5684-.6091-3.5367.392-1.2044,1.1185-2.3557,1.5914-3.0241l2.1998-3.1125.0887-.0834.0128-.012.1839-.3081,1.3732-1.9423c.4068.3129.9136.4626,1.42.4627.016,0,.0318-.0027.0478-.0031-2.5097,3.295-4.8669,6.4606-5.792,10.6697l-.0089.0802c-.0005.1496.0926.2846.2323.3441l.0016.0007.0023.0009.1357.0256c.1285.0001.2522-.067.3208-.1836l5.9945-10.2146c-.3737,1.6245-1.0106,3.0157-1.6979,4.458-.7582,1.5919-1.5495,3.2507-1.9281,5.3046l-.0069.0746c-.0029.1329.077.2775.2281.3319l-.0012.0029.0069.0014c.0013.0004.0018.002.0031.0024l.0005-.0016.1347.0276c.1169,0,.2303-.0555.302-.1545,1.1554-1.6094,2.5523-3.8063,3.8246-6.1106-.1881.4474-.3775.8961-.5694,1.3439-.2554.5952-.5128,1.1961-.759,1.7905-.9233,1.3351-1.5907,2.8251-1.5922,4.1961,0,.2474.022.4908.0686.7284.0352.1764.1899.3001.3663.3h.0074s.0027,0,.0027,0h.0015c.1824-.0063.3331-.144.3561-.3251.1534-1.2211.7419-2.8347,1.437-4.5186.6945-.9918,1.5416-1.8857,2.3434-2.5481-.3674.4014-.5602,1.0477-.562,1.6994,0,.3341.0512.6689.1618.9714.0686.1873.133.3734.1917.5564-.0417.1644-.0858.3264-.1323.486Zm-.5759,1.5251c-.0529.1083-.1115.2112-.1691.3151-.1217-.1827-.2584-.3544-.4101-.514l.5493-.1823c-.0013.0261-.007.0529-.007.0787,0,.1042.0162.2043.0369.3025Zm-.293,1.9809c.0359.1971.0753.3944.0753.5942,0,.0623-.0117.1235-.0153.1856-.1176-.1823-.226-.3835-.3228-.61l.2629-.1698Zm-3.5595,2.4882c-.0312-.0428-.0654-.0846-.1145-.1115l-1.278-.7029.0153-.0347c.5406.1433,1.0685.2874,1.5403.4293-.0574.1427-.1124.2834-.1631.4197Zm-2.1599,4.2574c-3.517,6.7997-8.1766,17.1953-12.1558,26.3712-.1356.3121-.2706.6247-.4056.9371-5.0361,10.0526-10.2218,20.4511-13.9666,31.5297l-.0193.1174c.0005.1334.0812.2455.1962.3126-1.0619,1.4772-2.4429,4.5891-3.9977,8.4545l-.134-.0456c-.2245-.0971-.4503-.194-.6766-.291,8.1136-17.9623,18.212-41.0844,25.2949-57.3023,2.5345-5.8029,4.6948-10.7505,6.3315-14.4723l.9438.5194c-.4521,1.2979-.9225,2.5886-1.4107,3.8694Zm-11.6035,62.5216c.2817-.5694.5768-1.139.9103-1.6835.2235-.2639.4849-.4863.8069-.6514.2397-.1228.4943-.183.7398-.183.2806,0,.549.0784.7725.2312.4124.2844.5099.7036.5123,1.1998,0,.1547-.0103.3147-.0237.4755-.0193.2326-.0432.4651-.0723.6967-1.0238,4.2233-3.501,8.2162-7.2196,11.6039-.2904.2645-.5889.5234-.888.7822-.8001.6937-1.634,1.4144-2.3221,2.2728-2.5197,3.1465-2.6562,7.3362-2.7968,11.3557l-.0163.4681c-.1585,4.4764-.6017,9.6587-2.6649,14.2092-.4443.981-.9601,1.9036-1.5331,2.7617l-.0566.0121-.014.0029-.013.0062c-.3284.1545-.7435.2283-1.191.2281-1.3001.0056-2.8591-.6343-3.3666-1.4891-.4083-.6722-.5374-1.5196-.6604-2.3549-.0212-.1418-.0418-.2834-.0645-.4248-.8961-5.6747-3.984-7.5845-8.5737-10.2153.7626-1.4239,1.6288-3.3586,2.5526-5.5833l.0173.0056.1138.0178c.1437,0,.2791-.0837.3402-.2217l5.8485-13.2393.0607.0211.0007.0002.1205.02c.1401.0002.2726-.0799.3356-.2125l1.7954-3.7852.0037-.232.0009-.0572-.1958-.1747-.0203-.0181-.0258-.008c-.4164-.1296-.834-.2641-1.2498-.4008,1.4067-3.4969,2.6979-6.4229,3.6628-7.9192l-.0217.0804-.0008.0031-.0007.0033c-.2076.9663-.3154,1.9607-.3154,2.9376-.0024,3.5372,1.421,6.8805,4.6902,7.728.4641.1197.9401.1787,1.4201.1787,1.1857,0,2.3947-.3605,3.5103-1.0562,2.6169-1.6333,3.9344-4.3832,4.8785-6.8379l.0536-.1393c.0528-.1383.1057-.2765.1599-.4145Zm-6.2039,15.2092c.6409-.7997,1.4454-1.497,2.2288-2.1752.3022-.2621.6055-.5247.9023-.7952,1.5707-1.4312,2.9019-2.9789,4.0294-4.5986-.7561,1.2282-1.6341,2.3775-2.6478,3.3887-.6122.6105-1.2862,1.197-1.9401,1.7651-.9152.7964-1.8456,1.6237-2.6667,2.5538.0345-.0447.0588-.0944.0942-.1386Zm-11.2424,32.3008c-1.0941.6705-2.3105,1.1967-3.4453,1.5575-1.5352.4881-3.1468.6498-4.6508.6498-1.4243,0-2.7516-.145-3.8265-.2927-1.0865-.1495-2.1652-.3378-3.2341-.564-1.6198-.5852-3.2764-1.3037-4.9888-2.075l-12.1403-5.4692c-.7111-.5083-1.408-1.0375-2.0912-1.5883-1.4521-1.1703-3.0522-2.6127-3.9748-4.4477-.0552-.1095-.1213-.2355-.1966-.3788-.6962-1.3231-2.1668-4.119-2.1671-7.9742,0-1.8071.3231-3.847,1.2034-6.0792,1.0397-2.6403,3.2569-4.6562,5.2291-6.4426l8.2004-7.4329c1.8089-1.6405,3.6877-3.3428,5.1284-5.4089,2.4335-3.4926,3.6572-8.1173,3.6572-13.7568,0-.5717-.0126-1.1539-.0377-1.7463-.0228-.5304-.0535-1.0621-.0842-1.5944-.0586-1.0079-.1178-2.0281-.1178-3.0417,0-1.3475.1047-2.6827.4525-3.9618.7272-2.6823,2.9328-5.288,5.7389-5.2816.0967,0,.194.003.292.0093.15.0094.3435.0422.5269.1285l.2396.1537c.2298.1975.3404.4383.3424.7756.0011.4109-.1811.9619-.5624,1.6559-1.2261,2.2396-2.4641,4.658-2.8683,7.3356-.0834.5531-.1243,1.1015-.1243,1.6393.0001,2.3387.7734,4.4785,2.1981,5.9241,1.088,1.102,2.7258,1.7979,4.3513,1.7988.7126,0,1.4202-.1448,2.0788-.4407-1.5844,3.3441-2.7302,5.8207-3.4818,7.5336-.3876.8835-.6715,1.5658-.8593,2.0651-.1873.5031-.281.8065-.2841.9914l.0009.028c.0061.0905.0476.1774.0902.264-2.2077,4.716-4.2302,9.138-5.9691,13.0714-.0633-.02-.1268-.0402-.1895-.0594l-.1081-.0161c-.1367,0-.2658.0753-.331.2017-.4643.9041-1.2624,2.683-1.7507,4.0005l-.0233.129c-.0001.1385.078.2702.2091.3343.055.0267.1105.0536.166.0805-.8726,2.0541-1.6313,3.9081-2.2579,5.5266-.5308-.1755-1.0615-.3412-1.5894-.492l-.1018-.0142c-.1508,0-.2907.0917-.3476.2382l-.0248.1335c-.0001.1382.0776.2695.2079.334,3.0635,1.5049,6.2457,2.8422,9.4716,3.981.3096.1738.6171.351.9216.5318l.0216.0128.2133.03.0518.0073.1698-.1299c4.6257,2.6631,7.3586,4.3296,8.2161,9.6916.0221.1376.0428.2771.0637.417.1312.8831.2667,1.8151.7598,2.6315.6874,1.1188,2.4695,1.8359,4.0188,1.8409.2056,0,.3972-.0346.5919-.0616-.8921,1.1702-1.8944,2.1985-2.9845,3.0462Zm-.7847-61.772c9.8049-20.1315,20.7369-41.3835,26.7219-51.7967-2,4.2585-4.7341,9.9623-7.9089,16.585-7.4025,15.4417-17.1842,35.8462-24.5883,52.4619-.5051-.2101-1.0095-.4197-1.5115-.6282-.0923-.0582-.1682-.1123-.2432-.1661.7513-1.7032,3.6469-8.0636,7.53-16.4558h0Zm25.379-64.0693l.027-.2483c0-.1455-.037-.2856-.0907-.4202.1939.0661.3336.2141.3825.4111.0287.1179.043.2423.043.3679.0002.2963-.0803.5977-.2266.8333l-.0492.071c-.108.0348-.2186.0588-.3289.0844l.2428-1.0989-.1221-.027.1221.0267Zm.5164,1.6525c.5747-.2145,1.1068-.5397,1.5736-.9413l-.054.0763c-.4034.5711-.9685,1.4675-1.3989,2.4755-.2311-.4592-.5001-.856-.811-1.1855.2603-.0855.4971-.2228.6903-.425Zm2.6808-3.8836l-.1511.0298c-.1823.0036-.353-.145-.4242-.2267-.0503-.0559-.09-.1295-.1291-.202.116-.1325.2515-.2364.3996-.2865l.0007-.0002c.0927-.0321.1912-.0482.2928-.0482.183,0,.3766.0523.5609.158l.1431.1055c-.1077.1855-.2404.3555-.3955.5034l-.2297-.0399-.0347-.006-.0327.0129Zm-.016-1.4758c-.1802,0-.3589.0283-.5293.0865-.0132.0046-.0239.0151-.037.02.1756-.1734.3957-.2682.5784-.3163l.1964-.0261c.1049,0,.205.0226.2963.066l.2261.1716c.06.0683.103.1438.132.2234-.2758-.1425-.5704-.225-.8629-.225Zm-24.2009,78.0992l-.1163-.0238c-.0151,0-.0266.0146-.0415.0165.35-.9.9152-2.2128,1.6545-3.8616-.6398,1.6154-1.1492,2.9321-1.4967,3.869Zm-12.2088,6.8708c.1323.0548.2646.1096.397.165.3797.2321.8297.4617,1.3176.7004-.4182.9414-.8285,1.8703-1.2302,2.7846-.5883-.2538-1.1658-.4921-1.7222-.703.4056-.9849.8179-1.9709,1.2379-2.947Zm34.7563-72.7316c.2852.1245.5917.2649.9123.4182-.0346.0567-.0694.1138-.1047.172l-.1575-.0529v.0002s-.1208-.0205-.1208-.0205c-.1432-.0001-.2783.0833-.3398.2207l-.0321.1511c-.0002.1316.0703.2585.1925.326l.0621.0341c-3.2357,5.4261-8.5123,15.2882-14.4153,26.8007,5.4688-11.4516,10.7488-22.1908,14.0032-28.0497Zm-41.0897,85.8336c.0245.0086.049.0172.0737.0259-.4808,1.0916-.9798,2.1771-1.4975,3.2529.4483-1.0474.9226-2.1396,1.4238-3.2787Zm4.8123-9.4667c.5482.207,1.1213.4431,1.707.6957-1.4078,3.2175-2.7017,6.25-3.8406,9.0211-.5411-.2268-1.0797-.4454-1.6075-.647.9456-2.179,1.8337-4.3703,2.7098-6.533.3391-.8374.683-1.6858,1.0313-2.5367Zm8.4492-.72l.1265.0549c-.3914.9829-.7924,2.0075-1.2,3.0605-.3268-.1353-.6591-.2772-.9948-.424.4383-.9644.8828-1.9454,1.3351-2.9457.2518.0888.4994.1749.7332.2542Zm-4.79,12.7779c-.527-.172-1.079-.3753-1.6437-.598,1.2471-2.6702,2.6104-5.6333,4.0573-8.8116.3483.1524.6939.3002,1.0347.4408-.4595,1.1919-.9269,2.4122-1.3984,3.6452-.6829,1.7848-1.3719,3.5853-2.0499,5.3236Zm-.5905,1.5051c-.3983.9039-.7924,1.7753-1.181,2.6292-.5768-.1962-1.1801-.4127-1.8002-.6451.5103-1.0688,1.049-2.2092,1.6125-3.4122.5767.2279,1.1427.4371,1.688.6163-.1066.2721-.2133.5438-.3194.8118Zm-5.6525,8.1371c-.0942-.0497-.1886-.0986-.283-.1476.7433-1.4424,1.629-3.2398,2.6321-5.3314.6241.2343,1.2305.452,1.8124.6509-.1077.236-.2153.4716-.3224.7052-.6953,1.5195-1.4131,3.0913-2.1436,4.7709-.4343-.198-1.0242-.4483-1.6954-.648Zm-.9471-.4829c-.6036-.3018-1.2133-.5893-1.827-.8622.8187-1.7242,1.6405-3.4533,2.4653-5.1863.6594.2742,1.3162.5376,1.9611.7865-.9908,2.0647-1.8653,3.8382-2.5993,5.2621Zm1.9212-10.4727c-.3077.6456-.614,1.289-.9207,1.9332.2568-.6445.5232-1.3054.8003-1.9845.04.0172.0803.0342.1204.0513Zm6.8614-12.6404c.5892.2357,1.186.4607,1.7624.6696-.4447.984-.8821,1.9487-1.314,2.8976-.4548-.2031-.9118-.4104-1.3651-.6162-.1348-.0617-.2706-.1232-.4063-.1849.4404-.9218.8817-1.8441,1.323-2.7662Zm-5.8616,17.1788c-.6447-.2488-1.3024-.5126-1.9628-.7866.5479-1.1514,1.097-2.3044,1.6472-3.4585.6411.2757,1.2913.5538,1.9353.8186-.5667,1.2095-1.1074,2.3535-1.6197,3.4265Zm4.218-13.7415c.14.0636.2799.1272.4197.1906h0c.4521.2055.9091.4128,1.3646.6163-1.4517,3.1888-2.8179,6.1584-4.0673,8.8336-.64-.2626-1.2886-.54-1.9302-.8158,1.3997-2.9366,2.8047-5.8787,4.2133-8.8246Zm-.6783-.3063c-1.4099,2.95-2.8175,5.8975-4.2189,8.838-.0531-.0228-.1063-.0453-.1595-.068,1.1375-2.7671,2.4296-5.796,3.8369-9.0118.1801.0798.3607.1606.5415.2418Zm-6.9694,8.5167c.5309.202,1.0754.4234,1.6243.6536-.5074,1.2429-.9817,2.4299-1.4197,3.5562-.5989-.2599-1.1934-.5255-1.7766-.7941.5458-1.1301,1.0676-2.2704,1.5719-3.4156Zm-4.7165,9.2483c1.0187-1.6768,1.95-3.405,2.8184-5.1644.6018.2773,1.2158.5517,1.8342.8196-.7804,2.0299-1.4346,3.845-1.9382,5.4004-.9009-.3848-1.8078-.7374-2.7144-1.0555Zm15.1595-11.9999c.4647-1.2139.9308-2.4325,1.3938-3.6324.081.0316.1616.0626.2416.0931l-2.105,4.7651c.1566-.4091.3135-.8176.4696-1.2258h0Zm.9581-8.9952c-.5684-.2423-1.1409-.4841-1.7151-.7255,4.1562-8.6838,8.3217-17.3609,12.413-25.8842,4.4095-9.1846,8.9028-18.546,13.3793-27.9041-6.992,16.008-16.4199,37.5624-24.0771,54.5137Zm-2.4014-1.0136c-.2261-.0948-.4522-.1894-.6785-.2839,7.3963-16.5969,17.173-36.9914,24.5728-52.4266,3.7551-7.8331,6.9052-14.4041,8.9394-18.7913l1.117.6146c-7.107,14.9432-14.4249,30.1863-21.5214,44.9695-4.0969,8.5336-8.2681,17.2228-12.4293,25.9177Zm-.3983.8317c-.4372.914-.8741,1.8274-1.3111,2.7411-.1881-.0847-.3762-.1688-.564-.252.399-.9093.8072-1.8334,1.2236-2.7702.2129.0946.4305.1882.6514.2811Zm-9.0008,10.9872c-.0242-.0085-.0482-.0171-.0723-.0255.4739-1.072.973-2.1866,1.4867-3.3264-.4604,1.1177-.9302,2.2366-1.4144,3.3519Zm14.0927-9.0051l-1.314,2.9747c-.0907-.0345-.1821-.0698-.2741-.1057.4029-1.0399.8018-2.0589,1.1934-3.0419.132.0577.2636.1153.3947.1729Zm28.5681-75.2416l.0048-.0105c.0173.0085.0348.0173.0522.0259-.0185-.0051-.0386-.0103-.057-.0154Zm-16.1053,75.6304c-1.0008.6237-2.0747.9432-3.1179.9432-.4182,0-.8316-.0513-1.2338-.155-1.5531-.402-2.5739-1.4012-3.2186-2.6852-.488-.9736-.7517-2.1107-.8512-3.2589.0817.3369.1661.6735.282,1.0015.7996,2.262,2.4834,3.9566,4.4224,4.413.389.0914.7767.1335,1.1594.1335,1.3262-.0011,2.5819-.5086,3.6504-1.2203-.3372.2999-.6964.5811-1.0927.8283Zm24.4802-83.5648c-.0451.017-.0896.0358-.1326.0588.0467-.0352.0952-.0775.1413-.1108-.0029.0173-.0058.0346-.0087.0519Zm-5.2506-2.2053l-2.5559,4.3552c.6935-1.5355,1.5739-2.9604,2.5559-4.3552Zm2.4654-7.1846c.5075-.7217,1.1345-1.595,1.9855-1.9352.1951-.0788.4163-.1191.6388-.1191.2761-.0001.5536.0621.7858.1834l.0007.0004c.1722.0883.3664.2479.4802.4825-.5939.6237-.926,1.3121-.9268,1.9713,0,.251.0478.4966.1456.7285.3098.7325,1.0752,1.1766,2.0649,1.3021-1.2923,1.5688-1.8282,3.6303-2.2099,5.733-.1702.0927-.3401.1943-.5081.312-.4844.3395-.9924.7704-1.489,1.2647.946-2.2125,1.8785-4.4547,2.0927-6.1437l.0029-.0468c.0002-.1665-.1116-.3159-.2773-.3594l-.0945-.0123c-.1477-.0001-.2853.0884-.344.2308-1.2209,2.9739-3.1569,6.3774-4.8777,9.0077.3747-1.0684.838-2.0529,1.2977-3.0185.9557-2.0059,1.9554-4.1021,2.0917-6.9521l.0004-.0173c0-.1439-.0828-.2747-.2125-.3363l-.0031-.0015-.0252-.0103-.0032-.0013-.0019-.0006-.1261-.022c-.1146,0-.2257.053-.2974.1484-.2022.2703-.4045.5375-.6066.8033-.2233.1006-.47.1548-.7172.1547-.2052,0-.4056-.0457-.5956-.1172.2384-.3269.3816-.7332.3904-1.1701v-.0029s-.0042-.1567-.0042-.1567l1.3427-1.8992-.1021-.0721.1021.0721Zm-22.6488,63.8715c-.1558.3295-.3032.6422-.4566.967.1693-.3632.3375-.7275.5081-1.0896-.0168.0404-.0346.0823-.0515.1226Zm24.9556-49.1651c-.0009.0024-.0018.0046-.0027.007.0009-.0023.0017-.0046.0027-.007Zm-12.0853-7.0926l-.0098.0881-.3298,1.493c-.2077-.1693-.3329-.421-.333-.6942,0-.1519.0358-.307.1114-.4523.1242-.2395.2968-.4519.4905-.6348.0372.0628.0706.1285.0707.2001Zm-1.2212.0916s0,.0002-.0001.0004c.0172-.1339.0565-.2637.1338-.3844.0513-.0143.1048-.0195.1569-.0306-.101.1358-.2123.2645-.2905.4145l.1109.0578-.111-.0576Zm13.8214,9.97c.0858.0333.1622.0796.199.1278l.0387.101c0,.0306-.0148.0814-.0457.1448l-.006.0002c-.1497.0001-.2859-.0304-.3882-.0871l-.0011-.0006c-.0551-.0301-.0786-.0782-.1131-.1193.1016-.062.2044-.1224.3164-.1667Zm-.814.7576l-.0989-.0453c.0097-.0138.0197-.0274.0298-.041.025.0285.0448.061.0728.087-.0012-.0004-.0025-.0003-.0037-.0007Zm1.9775-4.8214l.1324-.0345c.0957-.0017.1816.0615.2075.0861.0643.0577.1255.1614.1245.2733l-.0261.1319c-.0913.2281-.2346.4228-.4095.5777l-.097-.0234c-.0045-.1855-.044-.3767-.1249-.5643-.0316-.0728-.0743-.1357-.1147-.2007.0952-.0961.1963-.1888.3077-.246l-.0572-.1111.0574.111Z"/>
  </g>
</svg>